<?xml version="1.0" encoding="utf-8"?>
<!-- Generator: Adobe Illustrator 26.0.1, SVG Export Plug-In . SVG Version: 6.00 Build 0)  -->
<svg version="1.1" id="레이어_1" xmlns="http://www.w3.org/2000/svg" xmlns:xlink="http://www.w3.org/1999/xlink" x="0px"
	 y="0px" viewBox="0 0 512 512" style="enable-background:new 0 0 512 512;" xml:space="preserve">
<style type="text/css">
	.st0{fill:#FFFFFF;}
</style>
<g>
	<g>
		<path class="st0" d="M64,448c0-127.94,0-255.98,0-384c128.02,0,256.01,0,384,0c0,127.97,0,255.9,0,384
			C319.99,448,191.98,448,64,448z M183.75,429.44c-1.81,0-3.16,0-4.51,0c-17.72,0-35.43,0-53.15,0c-5.4,0-8.2,2.07-8.19,6
			c0.01,3.92,2.81,5.96,8.22,5.98c0.25,0,0.5,0,0.75,0c85.83,0,171.66,0,257.49,0c1.25,0,2.52,0.13,3.73-0.1
			c3.22-0.59,5.18-2.58,5.17-5.89c0-3.31-1.95-5.3-5.17-5.89c-1.09-0.2-2.24-0.09-3.36-0.09c-17.72,0-35.43,0-53.15,0
			c-1.31,0-2.63,0-3.82,0c-0.16-0.79-0.26-1.03-0.26-1.26c-0.02-3.12,0-6.24-0.04-9.36c-0.06-5.17-2.14-7.3-7.25-7.34
			c-5.24-0.04-10.48,0.06-15.72-0.07c-1.04-0.03-2.74-0.58-3-1.3c-2.63-7.37-5.02-14.82-7.6-22.6c1.95,0,3.44,0,4.92,0
			c39.3,0,78.6,0.03,117.89-0.02c13.73-0.02,24.46-10.15,24.48-23.54c0.11-60.16,0.11-120.31,0.01-180.47
			c-0.02-13.12-10.54-23.36-23.65-23.63c-2.42-0.05-4.83-0.01-7.65-0.01c21.58-27.03,14.09-57.96-2.6-74.32
			c-18.37-18.01-46.82-20.81-68.04-6.31c-13.27,9.06-21.07,21.7-23.24,37.66c-2.19,16.05,2.69,30.13,12.8,42.74
			c-24.67,0-48.82,0-73.21,0c0-1.59,0-2.94,0-4.3c0-17.85,0.01-35.69-0.01-53.54c-0.01-5.84-2.01-7.81-7.9-7.82
			c-6.74-0.02-13.47-0.02-20.21,0c-5.85,0.02-7.81,1.99-7.81,7.9c-0.01,17.97-0.01,35.94-0.01,53.92c0,1.32,0,2.64,0,3.9
			c-2.25,0-3.95,0-5.99,0c0-1.53,0-2.87,0-4.22c0-25.59,0-51.17,0-76.76c0-6.95-1.72-8.7-8.52-8.7c-6.24-0.01-12.48,0-18.71,0
			c-7.06,0-8.7,1.67-8.7,8.89c0,25.59,0,51.17,0,76.76c0,1.33,0,2.66,0,3.94c-2.25,0-4.04,0-5.72,0c-0.12-0.39-0.19-0.51-0.19-0.62
			c-0.03-13.23-0.03-26.46-0.09-39.68c-0.02-5.16-2.14-7.3-7.25-7.33c-7.24-0.04-14.47-0.05-21.71,0.01
			c-4.68,0.04-6.89,2.22-6.94,6.87c-0.07,5.74-0.02,11.48-0.02,17.22c0,7.83,0,15.65,0,23.82c-1.59,0-2.81,0-4.03,0
			c-11.85,0-23.7,0-35.56,0c-16.51,0.01-26.29,9.77-26.29,26.28c0,58.28,0,116.57,0,174.85c0,16.74,9.75,26.52,26.43,26.53
			c38.8,0,77.6,0,116.4,0c1.35,0,2.71,0,4.53,0c-2.44,7.34-4.86,14.25-6.99,21.26c-0.69,2.28-1.85,2.8-4.02,2.75
			c-5.11-0.13-10.23-0.08-15.34-0.03c-5.09,0.04-7.17,2.18-7.22,7.36C183.72,422.19,183.75,425.55,183.75,429.44z"/>
		<path d="M183.75,429.44c0-3.89-0.03-7.25,0.01-10.6c0.05-5.18,2.13-7.31,7.22-7.36c5.11-0.04,10.23-0.1,15.34,0.03
			c2.17,0.06,3.32-0.47,4.02-2.75c2.13-7.01,4.55-13.92,6.99-21.26c-1.83,0-3.18,0-4.53,0c-38.8,0-77.6,0-116.4,0
			c-16.68,0-26.43-9.79-26.43-26.53c0-58.28,0-116.57,0-174.85c0-16.51,9.78-26.28,26.29-26.28c11.85,0,23.7,0,35.56,0
			c1.22,0,2.43,0,4.03,0c0-8.17,0-15.99,0-23.82c0-5.74-0.05-11.48,0.02-17.22c0.05-4.65,2.26-6.83,6.94-6.87
			c7.24-0.06,14.47-0.05,21.71-0.01c5.11,0.03,7.23,2.17,7.25,7.33c0.05,13.23,0.06,26.46,0.09,39.68c0,0.11,0.07,0.23,0.19,0.62
			c1.69,0,3.47,0,5.72,0c0-1.28,0-2.61,0-3.94c0-25.59,0-51.17,0-76.76c0-7.22,1.63-8.89,8.7-8.89c6.24,0,12.48-0.01,18.71,0
			c6.8,0.01,8.52,1.76,8.52,8.7c0,25.59,0,51.17,0,76.76c0,1.34,0,2.69,0,4.22c2.03,0,3.74,0,5.99,0c0-1.26,0-2.58,0-3.9
			c0-17.97-0.01-35.94,0.01-53.92c0-5.9,1.97-7.88,7.81-7.9c6.74-0.02,13.47-0.02,20.21,0c5.89,0.02,7.89,1.98,7.9,7.82
			c0.02,17.85,0.01,35.69,0.01,53.54c0,1.35,0,2.71,0,4.3c24.39,0,48.54,0,73.21,0c-10.11-12.61-14.99-26.69-12.8-42.74
			c2.17-15.96,9.97-28.59,23.24-37.66c21.22-14.5,49.67-11.7,68.04,6.31c16.69,16.36,24.18,47.3,2.6,74.32
			c2.81,0,5.23-0.04,7.65,0.01c13.11,0.27,23.63,10.51,23.65,23.63c0.1,60.16,0.11,120.31-0.01,180.47
			c-0.02,13.38-10.75,23.52-24.48,23.54c-39.3,0.05-78.6,0.02-117.89,0.02c-1.48,0-2.97,0-4.92,0c2.58,7.79,4.97,15.24,7.6,22.6
			c0.26,0.72,1.95,1.28,3,1.3c5.24,0.13,10.48,0.03,15.72,0.07c5.11,0.04,7.19,2.17,7.25,7.34c0.04,3.12,0.02,6.24,0.04,9.36
			c0,0.24,0.09,0.48,0.26,1.26c1.2,0,2.51,0,3.82,0c17.72,0,35.43,0,53.15,0c1.12,0,2.27-0.11,3.36,0.09
			c3.23,0.6,5.17,2.59,5.17,5.89c0,3.31-1.96,5.3-5.17,5.89c-1.21,0.22-2.49,0.1-3.73,0.1c-85.83,0-171.66,0-257.49,0
			c-0.25,0-0.5,0-0.75,0c-5.4-0.02-8.21-2.06-8.22-5.98c-0.01-3.93,2.79-6,8.19-6c17.72-0.01,35.43,0,53.15,0
			C180.59,429.44,181.94,429.44,183.75,429.44z M261.6,219.57c0-11.73-0.03-23.19,0.01-34.65c0.02-4.9,2.19-7.07,7.09-7.1
			c7.24-0.05,14.47-0.05,21.71,0c4.89,0.03,7.09,2.21,7.1,7.1c0.04,13.23,0.04,26.46,0,39.69c-0.02,4.89-2.22,7.11-7.1,7.11
			c-63.12,0.02-126.25,0.02-189.37,0c-4.9,0-7.1-2.21-7.11-7.09c-0.04-13.23-0.04-26.46,0-39.69c0.01-4.91,2.19-7.08,7.08-7.12
			c7.11-0.05,14.22-0.04,21.33-0.01c5.38,0.02,7.48,2.1,7.5,7.46c0.03,10.11,0.01,20.22,0.01,30.33c0,1.32,0,2.65,0,3.97
			c2.22,0,3.92,0,5.77,0c0-15.94,0-31.71,0-47.76c-13.29,0-26.37,0-39.44,0c-9.68,0-14.23,4.53-14.23,14.14c0,49.8,0,99.59,0,149.39
			c0,1.32,0,2.65,0,3.95c116.04,0,231.6,0,347.11,0c0.11-0.51,0.2-0.75,0.2-0.99c0.01-51.54,0.05-103.09-0.01-154.63
			c-0.01-6.73-5.22-11.72-11.98-11.83c-6.61-0.11-13.23-0.13-19.83,0.03c-2.04,0.05-4.19,0.51-6.07,1.3
			c-14.68,6.19-29.29,6.16-43.96-0.02c-1.77-0.75-3.79-1.28-5.7-1.28c-27.45-0.08-54.89-0.06-82.34-0.05
			c-1.19,0-2.39,0.11-3.57,0.16c0,16.05,0,31.73,0,47.58C257.67,219.57,259.37,219.57,261.6,219.57z M429.25,351.81
			c-115.99,0-231.55,0-347.31,0c0,3.11,0,5.97,0,8.83c0,10.66,4.25,14.88,15,14.88c105.78,0,211.56,0,317.34,0
			c1.25,0,2.5,0.05,3.74-0.04c5.99-0.42,10.85-5.12,11.18-11.1C429.43,360.29,429.25,356.18,429.25,351.81z M189.99,82.12
			c0,46.01,0,91.71,0,137.32c4.05,0,7.83,0,11.53,0c0-45.92,0-91.53,0-137.32C197.64,82.12,193.95,82.12,189.99,82.12z
			 M363.41,82.29c-16.18,3.31-27.39,11.88-33.1,26.8c-5.37,14.03-3.23,27.27,5.52,39.86c9.02-9.01,17.75-17.7,26.41-26.46
			c0.62-0.63,1.11-1.7,1.12-2.58C363.43,107.59,363.41,95.26,363.41,82.29z M344.6,157.15c9.78,9.23,28.56,11.38,42.42,4.74
			c13.36-6.39,21.12-17.07,23.9-32.01c-12.94,0-25.26-0.02-37.58,0.04c-0.78,0-1.76,0.35-2.31,0.89
			C362.19,139.55,353.41,148.35,344.6,157.15z M289.14,411.29c-2.52-7.58-4.89-14.91-7.45-22.17c-0.26-0.74-1.6-1.55-2.45-1.55
			c-15.72-0.09-31.43-0.09-47.15-0.02c-0.83,0-2.21,0.51-2.41,1.11c-2.6,7.45-5.04,14.97-7.58,22.64
			C244.68,411.29,266.71,411.29,289.14,411.29z M243.39,219.56c0-37.99,0-75.71,0-113.36c-4.04,0-7.82,0-11.55,0
			c0,37.92,0,75.55,0,113.36C235.71,219.56,239.4,219.56,243.39,219.56z M147.99,219.52c4.14,0,7.83,0,11.56,0
			c0-31.95,0-63.67,0-95.35c-4.03,0-7.81,0-11.56,0C147.99,156.1,147.99,187.73,147.99,219.52z M375.65,82.78
			c0,11.64,0,23.27,0,34.91c11.79,0,23.32,0,34.86,0C409.77,101.26,391.75,83.27,375.65,82.78z M315.34,423.7
			c-40.02,0-79.73,0-119.45,0c0,1.96,0,3.66,0,5.55c39.87,0,79.58,0,119.45,0C315.34,427.35,315.34,425.65,315.34,423.7z
			 M106.16,189.96c0,10.07,0,19.83,0,29.49c4.05,0,7.83,0,11.52,0c0-9.98,0-19.65,0-29.49C113.79,189.96,110.1,189.96,106.16,189.96
			z M285.28,219.59c0-10.11,0-19.87,0-29.62c-3.97,0-7.66,0-11.49,0c0,9.94,0,19.7,0,29.62
			C277.68,219.59,281.37,219.59,285.28,219.59z M177.51,219.58c0-16.07,0-31.83,0-47.6c-1.96,0-3.66,0-5.54,0
			c0,15.92,0,31.68,0,47.6C173.85,219.58,175.55,219.58,177.51,219.58z M219.43,219.58c0-16.07,0-31.83,0-47.6
			c-1.96,0-3.66,0-5.54,0c0,15.92,0,31.68,0,47.6C215.77,219.58,217.48,219.58,219.43,219.58z"/>
		<path class="st0" d="M261.6,219.57c-2.23,0-3.93,0-5.81,0c0-15.85,0-31.53,0-47.58c1.18-0.06,2.38-0.16,3.57-0.16
			c27.45-0.01,54.89-0.03,82.34,0.05c1.91,0.01,3.92,0.54,5.7,1.28c14.67,6.18,29.28,6.21,43.96,0.02c1.88-0.79,4.03-1.25,6.07-1.3
			c6.61-0.16,13.22-0.14,19.83-0.03c6.77,0.11,11.98,5.1,11.98,11.83c0.06,51.54,0.03,103.09,0.01,154.63c0,0.24-0.09,0.48-0.2,0.99
			c-115.51,0-231.07,0-347.11,0c0-1.3,0-2.62,0-3.95c0-49.8,0-99.59,0-149.39c0-9.62,4.56-14.14,14.23-14.14
			c13.07-0.01,26.15,0,39.44,0c0,16.05,0,31.82,0,47.76c-1.85,0-3.55,0-5.77,0c0-1.32,0-2.65,0-3.97c0-10.11,0.02-20.22-0.01-30.33
			c-0.02-5.36-2.11-7.44-7.5-7.46c-7.11-0.03-14.22-0.05-21.33,0.01c-4.89,0.04-7.06,2.2-7.08,7.12c-0.04,13.23-0.04,26.46,0,39.69
			c0.02,4.88,2.21,7.09,7.11,7.09c63.12,0.02,126.25,0.02,189.37,0c4.88,0,7.08-2.22,7.1-7.11c0.04-13.23,0.04-26.46,0-39.69
			c-0.02-4.89-2.21-7.06-7.1-7.1c-7.24-0.05-14.47-0.05-21.71,0c-4.9,0.03-7.07,2.2-7.09,7.1
			C261.57,196.38,261.6,207.84,261.6,219.57z M319.21,270.88c1.4,0.78,2.6,1.42,3.78,2.11c18.4,10.74,36.79,21.5,55.23,32.18
			c2.25,1.3,3.71,2.85,4.69,5.36c2.94,7.49,10.79,11.94,18.59,10.94c7.92-1.02,14.15-7.02,15.59-15.02
			c1.35-7.49-2.78-15.45-9.82-18.92c-7.23-3.56-15.72-1.94-21.19,4.06c-0.81,0.89-1.58,1.83-2.34,2.71
			c-0.57-0.22-0.94-0.3-1.25-0.48c-19.81-11.55-39.62-23.08-59.37-34.73c-1.22-0.72-2.15-2.3-2.71-3.69
			c-2.94-7.21-9.53-11.78-17.12-11.69c-7.53,0.09-14.1,4.97-16.83,12.15c-0.66,1.72-1.91,3.47-3.36,4.6
			c-8.08,6.26-16.31,12.33-24.49,18.47c-11.85,8.89-23.7,17.78-35.51,26.64c-12.09-11.26-21.05-10.75-31.74,1.72
			c-19.38-8.08-38.78-16.21-58.23-24.23c-2.43-1-3.93-2.32-5.01-4.89c-3.21-7.63-11.78-11.85-19.67-10.17
			c-8.25,1.76-14.18,8.65-14.49,16.83c-0.32,8.51,5.08,16.01,13.29,18.1c9.08,2.32,15.74-1.43,20.81-8.96
			c1.08,0.42,2.11,0.81,3.13,1.23c18.62,7.76,37.26,15.46,55.82,23.37c1.68,0.72,3.35,2.44,4.14,4.11
			c3.26,6.84,9.85,11.15,17.31,10.88c7.22-0.26,13.52-5.04,16.27-11.89c0.78-1.93,2.2-3.88,3.84-5.14
			c12.58-9.62,25.28-19.07,37.95-28.57c7.25-5.43,14.5-10.86,21.73-16.27C298.63,283.72,312,280.94,319.21,270.88z M372.67,183.8
			c-8.59,0-17.19-0.11-25.78,0.09c-1.96,0.05-4.43,0.63-5.76,1.91c-8.1,7.75-15.99,15.72-23.82,23.74c-2.62,2.68-2.36,6.35,0.2,8.65
			c2.6,2.34,5.91,2.06,8.95-0.94c6.38-6.3,12.75-12.62,19-19.05c1.69-1.73,3.38-2.49,5.84-2.47c15.57,0.11,31.14,0.07,46.71,0.04
			c4.62-0.01,7.39-2.4,7.3-6.13c-0.09-3.6-2.77-5.81-7.22-5.83C389.61,183.77,381.14,183.8,372.67,183.8z M132.84,237.72
			c-10.48,0-20.96-0.02-31.44,0.01c-4.73,0.01-7.46,2.24-7.46,5.98c0,3.73,2.74,5.98,7.45,5.99c20.96,0.02,41.92,0.02,62.87,0
			c4.71,0,7.46-2.26,7.46-5.99c0-3.73-2.74-5.97-7.46-5.98C153.8,237.7,143.32,237.72,132.84,237.72z M330.38,333.58
			c6.61,0,13.22,0.03,19.83-0.01c4.43-0.03,7.12-2.29,7.17-5.9c0.06-3.63-2.64-6.05-7-6.06c-13.22-0.04-26.45-0.03-39.67,0
			c-4.47,0.01-7.11,2.25-7.17,5.89c-0.06,3.74,2.69,6.05,7.37,6.07C317.41,333.6,323.89,333.58,330.38,333.58z M342.67,303.63
			c-2.99,0-5.99-0.09-8.98,0.02c-3.77,0.15-6.27,2.7-6.19,6.1c0.08,3.25,2.51,5.72,6.1,5.8c5.86,0.13,11.73,0.12,17.59,0
			c3.76-0.08,6.28-2.71,6.19-6.1c-0.08-3.25-2.52-5.65-6.11-5.8C348.41,303.54,345.54,303.63,342.67,303.63z M186.66,249.69
			c0.87,0,1.75,0.04,2.62-0.01c3.83-0.18,6.37-2.53,6.41-5.91c0.05-3.4-2.46-5.85-6.26-6.04c-1.49-0.08-2.99-0.04-4.49-0.02
			c-4.46,0.07-7.11,2.26-7.16,5.91c-0.05,3.64,2.63,5.97,7,6.07C185.41,249.71,186.04,249.7,186.66,249.69z"/>
		<path class="st0" d="M429.25,351.81c0,4.36,0.18,8.48-0.04,12.57c-0.33,5.98-5.19,10.67-11.18,11.1
			c-1.24,0.09-2.49,0.04-3.74,0.04c-105.78,0-211.56,0-317.34,0c-10.75,0-15-4.22-15-14.88c0-2.86,0-5.71,0-8.83
			C197.7,351.81,313.26,351.81,429.25,351.81z M117.92,369.52c5.61,0,11.23,0.04,16.84-0.01c4.37-0.04,7.07-2.41,7.04-6.03
			c-0.03-3.62-2.71-5.91-7.14-5.92c-11.23-0.03-22.45-0.04-33.68,0c-4.4,0.02-7.06,2.38-7.03,6.02c0.03,3.63,2.7,5.9,7.13,5.93
			C106.69,369.56,112.3,369.52,117.92,369.52z M156.51,369.47c0,0,0,0.01,0,0.01c1.25,0,2.51,0.11,3.74-0.02
			c3.28-0.36,5.55-2.91,5.5-6.02c-0.05-3.12-2.35-5.59-5.68-5.84c-2.23-0.16-4.5-0.18-6.73,0.01c-3.29,0.28-5.63,2.88-5.48,6
			c0.16,3.31,2.06,5.26,5.28,5.82C154.24,369.63,155.38,369.47,156.51,369.47z"/>
		<path class="st0" d="M189.99,82.12c3.96,0,7.65,0,11.53,0c0,45.79,0,91.4,0,137.32c-3.7,0-7.48,0-11.53,0
			C189.99,173.83,189.99,128.13,189.99,82.12z"/>
		<path class="st0" d="M363.41,82.29c0,12.98,0.02,25.3-0.05,37.63c-0.01,0.87-0.5,1.95-1.12,2.58
			c-8.67,8.75-17.39,17.45-26.41,26.46c-8.75-12.59-10.89-25.83-5.52-39.86C336.02,94.16,347.22,85.6,363.41,82.29z"/>
		<path class="st0" d="M344.6,157.15c8.8-8.79,17.59-17.6,26.42-26.34c0.54-0.54,1.53-0.88,2.31-0.89
			c12.32-0.05,24.65-0.04,37.58-0.04c-2.78,14.95-10.54,25.62-23.9,32.01C373.16,168.53,354.38,166.38,344.6,157.15z"/>
		<path class="st0" d="M289.14,411.29c-22.43,0-44.46,0-67.03,0c2.54-7.67,4.97-15.18,7.58-22.64c0.21-0.59,1.58-1.1,2.41-1.11
			c15.72-0.06,31.43-0.07,47.15,0.02c0.85,0.01,2.19,0.81,2.45,1.55C284.25,396.38,286.62,403.71,289.14,411.29z"/>
		<path class="st0" d="M243.39,219.56c-3.98,0-7.68,0-11.55,0c0-37.81,0-75.44,0-113.36c3.73,0,7.51,0,11.55,0
			C243.39,143.86,243.39,181.57,243.39,219.56z"/>
		<path class="st0" d="M147.99,219.52c0-31.79,0-63.43,0-95.35c3.75,0,7.53,0,11.56,0c0,31.68,0,63.4,0,95.35
			C155.82,219.52,152.13,219.52,147.99,219.52z"/>
		<path class="st0" d="M375.65,82.78c16.1,0.49,34.12,18.47,34.86,34.91c-11.54,0-23.06,0-34.86,0
			C375.65,106.05,375.65,94.42,375.65,82.78z"/>
		<path class="st0" d="M315.34,423.7c0,1.95,0,3.65,0,5.55c-39.87,0-79.57,0-119.45,0c0-1.89,0-3.59,0-5.55
			C235.61,423.7,275.32,423.7,315.34,423.7z"/>
		<path class="st0" d="M106.16,189.96c3.95,0,7.64,0,11.52,0c0,9.84,0,19.51,0,29.49c-3.69,0-7.47,0-11.52,0
			C106.16,209.79,106.16,200.02,106.16,189.96z"/>
		<path class="st0" d="M285.28,219.59c-3.91,0-7.6,0-11.49,0c0-9.91,0-19.67,0-29.62c3.84,0,7.53,0,11.49,0
			C285.28,199.72,285.28,209.48,285.28,219.59z"/>
		<path class="st0" d="M177.51,219.58c-1.95,0-3.65,0-5.54,0c0-15.92,0-31.68,0-47.6c1.89,0,3.59,0,5.54,0
			C177.51,187.75,177.51,203.51,177.51,219.58z"/>
		<path class="st0" d="M219.43,219.58c-1.95,0-3.65,0-5.54,0c0-15.92,0-31.68,0-47.6c1.89,0,3.59,0,5.54,0
			C219.43,187.75,219.43,203.51,219.43,219.58z"/>
		<path d="M319.21,270.88c-7.21,10.06-20.58,12.84-30.99,0.81c-7.23,5.41-14.49,10.84-21.73,16.27
			c-12.67,9.5-25.37,18.95-37.95,28.57c-1.65,1.26-3.07,3.21-3.84,5.14c-2.75,6.84-9.05,11.62-16.27,11.89
			c-7.47,0.27-14.05-4.04-17.31-10.88c-0.8-1.67-2.46-3.4-4.14-4.11c-18.56-7.9-37.2-15.61-55.82-23.37
			c-1.02-0.42-2.05-0.81-3.13-1.23c-5.07,7.52-11.72,11.27-20.81,8.96c-8.21-2.09-13.61-9.59-13.29-18.1
			c0.31-8.18,6.25-15.07,14.49-16.83c7.89-1.68,16.46,2.55,19.67,10.17c1.08,2.57,2.58,3.88,5.01,4.89
			c19.45,8.02,38.85,16.15,58.23,24.23c10.69-12.47,19.65-12.98,31.74-1.72c11.81-8.86,23.66-17.75,35.51-26.64
			c8.18-6.14,16.41-12.21,24.49-18.47c1.45-1.12,2.71-2.87,3.36-4.6c2.73-7.18,9.3-12.06,16.83-12.15
			c7.6-0.09,14.18,4.49,17.12,11.69c0.57,1.38,1.49,2.97,2.71,3.69c19.74,11.65,39.56,23.18,59.37,34.73
			c0.31,0.18,0.68,0.27,1.25,0.48c0.76-0.88,1.53-1.82,2.34-2.71c5.47-6,13.96-7.62,21.19-4.06c7.04,3.47,11.17,11.43,9.82,18.92
			c-1.44,8-7.67,14-15.59,15.02c-7.8,1-15.65-3.45-18.59-10.94c-0.98-2.51-2.44-4.06-4.69-5.36
			c-18.44-10.68-36.82-21.45-55.23-32.18C321.81,272.3,320.61,271.66,319.21,270.88z M309.48,261.72c0.04-3.2-2.61-5.93-5.82-6.01
			c-3.2-0.08-5.97,2.53-6.1,5.74c-0.13,3.36,2.65,6.24,6,6.2C306.77,267.61,309.44,264.93,309.48,261.72z M117.84,285.73
			c0.04-3.21-2.59-5.95-5.81-6.05c-3.23-0.09-5.98,2.47-6.12,5.71c-0.15,3.39,2.58,6.23,5.98,6.22
			C115.12,291.61,117.8,288.96,117.84,285.73z M405.3,303.56c-0.02-3.21-2.71-5.89-5.93-5.91c-3.2-0.02-5.93,2.63-6,5.84
			c-0.08,3.36,2.76,6.19,6.1,6.1C402.69,309.49,405.32,306.76,405.3,303.56z M213.66,315.68c0.04-3.21-2.58-5.95-5.79-6.05
			c-3.21-0.1-5.99,2.49-6.13,5.7c-0.15,3.35,2.62,6.24,5.98,6.24C210.93,321.56,213.62,318.9,213.66,315.68z"/>
		<path d="M372.67,183.8c8.47,0,16.94-0.02,25.41,0.01c4.45,0.02,7.12,2.23,7.22,5.83c0.1,3.73-2.68,6.12-7.3,6.13
			c-15.57,0.03-31.14,0.06-46.71-0.04c-2.45-0.02-4.15,0.74-5.84,2.47c-6.25,6.43-12.62,12.75-19,19.05c-3.04,3-6.35,3.27-8.95,0.94
			c-2.56-2.3-2.82-5.97-0.2-8.65c7.84-8.02,15.73-15.99,23.82-23.74c1.33-1.28,3.8-1.86,5.76-1.91
			C355.48,183.68,364.08,183.8,372.67,183.8z"/>
		<path d="M132.84,237.72c10.48,0,20.96-0.02,31.44,0.01c4.72,0.01,7.46,2.25,7.46,5.98c0,3.73-2.75,5.98-7.46,5.99
			c-20.96,0.02-41.92,0.02-62.87,0c-4.72,0-7.46-2.25-7.45-5.99c0-3.74,2.73-5.97,7.46-5.98
			C111.88,237.7,122.36,237.72,132.84,237.72z"/>
		<path d="M330.38,333.58c-6.49,0-12.97,0.02-19.46-0.01c-4.67-0.02-7.43-2.33-7.37-6.07c0.06-3.64,2.7-5.88,7.17-5.89
			c13.22-0.03,26.45-0.04,39.67,0c4.36,0.01,7.06,2.43,7,6.06c-0.06,3.61-2.75,5.87-7.17,5.9
			C343.6,333.61,336.99,333.58,330.38,333.58z"/>
		<path d="M342.67,303.63c2.87,0,5.74-0.1,8.61,0.03c3.59,0.15,6.03,2.56,6.11,5.8c0.09,3.39-2.43,6.02-6.19,6.1
			c-5.86,0.12-11.73,0.12-17.59,0c-3.59-0.08-6.02-2.56-6.1-5.8c-0.09-3.4,2.41-5.95,6.19-6.1
			C336.68,303.54,339.68,303.63,342.67,303.63z"/>
		<path d="M186.66,249.7c-0.62,0-1.25,0.01-1.87,0c-4.37-0.1-7.05-2.43-7-6.07c0.05-3.64,2.7-5.83,7.16-5.91
			c1.5-0.02,3-0.06,4.49,0.02c3.8,0.19,6.31,2.64,6.26,6.04c-0.05,3.38-2.58,5.72-6.41,5.91
			C188.41,249.73,187.53,249.69,186.66,249.7z"/>
		<path d="M117.92,369.52c-5.61,0-11.23,0.03-16.84-0.01c-4.43-0.03-7.1-2.3-7.13-5.93c-0.03-3.65,2.63-6.01,7.03-6.02
			c11.23-0.04,22.45-0.04,33.68,0c4.42,0.01,7.1,2.3,7.14,5.92c0.03,3.63-2.66,5.99-7.04,6.03
			C129.15,369.56,123.53,369.52,117.92,369.52z"/>
		<path d="M156.51,369.47c-1.12,0-2.27,0.16-3.36-0.03c-3.22-0.56-5.11-2.51-5.28-5.82c-0.15-3.11,2.19-5.71,5.48-6
			c2.23-0.19,4.5-0.18,6.73-0.01c3.33,0.24,5.63,2.72,5.68,5.84c0.05,3.11-2.23,5.65-5.5,6.02c-1.23,0.14-2.49,0.02-3.74,0.02
			C156.51,369.48,156.51,369.47,156.51,369.47z"/>
		<path class="st0" d="M309.48,261.72c-0.04,3.21-2.71,5.89-5.92,5.92c-3.35,0.03-6.14-2.85-6-6.2c0.13-3.21,2.9-5.82,6.1-5.74
			C306.87,255.79,309.52,258.52,309.48,261.72z"/>
		<path class="st0" d="M117.84,285.73c-0.04,3.23-2.72,5.88-5.95,5.89c-3.39,0.01-6.13-2.83-5.98-6.22
			c0.14-3.24,2.89-5.81,6.12-5.71C115.25,279.78,117.88,282.52,117.84,285.73z"/>
		<path class="st0" d="M405.3,303.56c0.02,3.21-2.61,5.94-5.82,6.03c-3.35,0.09-6.18-2.73-6.1-6.1c0.07-3.21,2.8-5.86,6-5.84
			C402.59,297.67,405.28,300.35,405.3,303.56z"/>
		<path class="st0" d="M213.66,315.68c-0.04,3.22-2.74,5.89-5.95,5.89c-3.36,0-6.12-2.89-5.98-6.24c0.14-3.21,2.92-5.8,6.13-5.7
			C211.08,309.72,213.71,312.46,213.66,315.68z"/>
	</g>
</g>
</svg>
