<?xml version="1.0" encoding="utf-8"?>
<!-- Generator: Adobe Illustrator 24.0.1, SVG Export Plug-In . SVG Version: 6.00 Build 0)  -->
<svg version="1.1" id="레이어_1" xmlns="http://www.w3.org/2000/svg" xmlns:xlink="http://www.w3.org/1999/xlink" x="0px"
	 y="0px" viewBox="0 0 512 512" style="enable-background:new 0 0 512 512;" xml:space="preserve">
<g>
	<g>
		<path d="M256.5,305.03c54.52,0,109.03-0.03,163.55,0.08c3.29,0.01,4.09-0.78,4.08-4.08c-0.11-55.76-0.08-111.53-0.08-167.29
			c0-6.67-1.71-8.35-8.43-8.36c-3.24-0.01-6.49,0.09-9.73-0.05c-3.67-0.16-5.83-2.46-5.83-5.94c0-3.48,2.15-5.83,5.82-5.94
			c4.49-0.14,8.99-0.22,13.47,0.03c8.88,0.5,16.1,7.91,16.64,16.79c0.08,1.24,0.04,2.49,0.04,3.74c0,70.11,0,140.22,0,210.33
			c0,13.49-7.04,20.56-20.51,20.56c-106.04,0-212.08,0-318.11,0c-13.66,0-20.68-7.06-20.68-20.77c0-70.11,0-140.22,0-210.33
			c0-13.24,7.11-20.39,20.27-20.4c3.24,0,6.49-0.08,9.73,0.04c3.71,0.14,5.9,2.37,5.96,5.82c0.07,3.62-2.17,5.96-6.08,6.09
			c-3.36,0.11-6.74,0.02-10.1,0.04c-5.91,0.03-7.8,1.92-7.8,7.86c-0.01,39.3,0,78.59,0,117.89c0,16.72,0.09,33.43-0.08,50.15
			c-0.03,3.21,0.93,3.82,3.95,3.82C147.21,305,201.86,305.03,256.5,305.03z M256.41,317.01c-54.62,0-109.25,0.03-163.87-0.07
			c-3.08-0.01-4.01,0.7-3.91,3.86c0.24,7.85,0.08,15.71,0.08,23.57c0,6.9,1.66,8.54,8.62,8.54c32.92,0,65.85,0,98.77,0
			c73.08,0,146.16,0,219.25,0c7.02,0,8.69-1.63,8.7-8.47c0.01-7.73-0.16-15.47,0.08-23.19c0.1-3.32-0.7-4.33-4.21-4.32
			C365.41,317.04,310.91,317.01,256.41,317.01z"/>
		<path d="M256.33,137.36c-38.04,0-76.08,0-114.13,0c-5.59,0-5.59,0-5.59,5.4c0,47.02,0,94.05,0,141.07c0,1.25,0.07,2.5-0.06,3.74
			c-0.35,3.37-2.72,5.48-5.99,5.45c-3.26-0.03-5.56-2.18-5.88-5.57c-0.11-1.11-0.05-2.24-0.05-3.37c0-62.11,0-124.23,0-186.34
			c0-13.18,7.13-20.26,20.39-20.26c74.21,0,148.43,0,222.64,0c13.43,0,20.44,7.06,20.44,20.59c0,62.11,0,124.23,0,186.34
			c0,1.37,0.12,2.79-0.18,4.1c-0.71,3.08-2.79,4.63-5.96,4.57c-3.17-0.07-5.15-1.75-5.72-4.85c-0.24-1.33-0.11-2.74-0.11-4.11
			c0-47.52-0.04-95.04,0.08-142.56c0.01-3.39-0.83-4.29-4.26-4.28C333.41,137.4,294.87,137.36,256.33,137.36z M256.37,125.38
			c38.66,0,77.32-0.04,115.98,0.08c3.16,0.01,3.94-0.85,3.86-3.92c-0.22-8.22-0.05-16.46-0.09-24.69c-0.02-5.4-2.04-7.38-7.52-7.38
			c-74.82-0.01-149.65-0.01-224.47,0c-5.49,0-7.49,1.98-7.51,7.39c-0.03,8.23,0.14,16.47-0.09,24.69c-0.08,3.08,0.69,3.93,3.86,3.92
			C179.05,125.34,217.71,125.38,256.37,125.38z"/>
		<path d="M217.56,400.67c26.05,0,51.44,0,77.11,0c-0.76-2.33-2.65-3.79-3.93-5.63c-2.14-3.08-4.2-6.19-5.78-9.59
			c-1.59-3.42-0.54-6.84,2.43-8.34c3.04-1.54,6.41-0.48,8.15,2.94c3.61,7.11,8.56,13.11,14.36,18.51c1.74,1.63,3.53,2.41,5.98,2.35
			c3.47-0.09,6.97-0.44,10.43,0.44c8.16,2.08,13.71,8.93,13.89,17.33c0.08,3.62,0.05,7.23,0.01,10.85c-0.06,5.1-2.18,7.23-7.34,7.24
			c-18.09,0.03-36.17,0.01-54.26,0.01c-32.43,0-64.86,0-97.29,0c-7.09,0-8.76-1.69-8.76-8.84c0-3.24-0.09-6.49,0.04-9.73
			c0.37-9.57,8.09-17.11,17.66-17.35c0.12,0,0.25-0.03,0.37,0c8.43,1.82,13.81-2.73,18.58-8.77c2.79-3.53,5.43-7.13,7.51-11.14
			c2.15-4.14,5.45-5.54,8.73-3.8c3.25,1.72,3.9,5.15,1.81,9.39C224.8,391.48,221.47,395.82,217.56,400.67z M256.4,424.8
			c1.12,0,2.24,0,3.37,0c21.69,0,43.39,0.02,65.08-0.05c1.2,0,3.02,1.03,3.42-1.55c1.12-7.19-1.46-10.38-8.69-10.38
			c-42.14,0-84.28,0-126.42,0c-6.95,0-8.53,1.71-8.7,8.53c-0.07,2.8,0.68,3.53,3.5,3.52C210.77,424.74,233.58,424.8,256.4,424.8z"/>
		<path d="M280.4,167.37c-0.26,0.98-0.51,2.2-0.9,3.37c-11.65,34.93-23.3,69.86-34.98,104.78c-1.55,4.62-4.31,6.42-7.89,5.26
			c-3.61-1.17-4.99-4.21-3.6-8.42c4.99-15.12,10.04-30.23,15.07-45.33c6.65-19.95,13.31-39.89,19.96-59.83
			c0.55-1.66,1-3.37,2.44-4.53c1.92-1.53,4.04-1.86,6.29-0.85C279.09,162.83,280.11,164.72,280.4,167.37z"/>
		<path d="M214.72,251.17c-0.03,2.63-1.32,4.57-3.61,5.65c-2.37,1.12-4.58,0.48-6.57-1.19c-7.83-6.56-15.69-13.08-23.53-19.62
			c-3.73-3.11-7.48-6.2-11.19-9.33c-4.34-3.67-4.39-7.26-0.11-10.85c11.26-9.44,22.55-18.86,33.85-28.26
			c3.62-3.02,7.17-3.05,9.52-0.19c2.4,2.92,1.76,6.34-1.84,9.36c-8.97,7.52-17.92,15.08-27.01,22.46c-2.1,1.71-1.84,2.49,0.08,4.06
			c9.07,7.4,18.02,14.96,27.02,22.44C213.08,247.15,214.77,248.61,214.72,251.17z"/>
		<path d="M304.5,257.26c-3.13-0.07-4.96-1.51-5.91-3.85c-1.11-2.73-0.3-5.09,1.98-6.99c7.38-6.13,14.78-12.24,22.09-18.45
			c2.62-2.22,7.22-3.99,7.16-6.9c-0.05-2.26-4.51-4.45-7.07-6.61c-7.06-5.94-14.15-11.83-21.22-17.75
			c-3.61-3.02-4.28-6.44-1.85-9.32c2.43-2.87,5.91-2.85,9.54,0.17c11.21,9.32,22.41,18.66,33.59,28.02
			c4.51,3.78,4.55,7.42,0.09,11.15c-11.27,9.44-22.59,18.83-33.88,28.25C307.57,256.19,306.12,257.37,304.5,257.26z"/>
		<path d="M256.5,340.93c-3.87,0-7.74,0.08-11.6-0.02c-3.87-0.1-6.33-2.52-6.31-5.95c0.02-3.38,2.56-5.89,6.37-5.94
			c7.86-0.1,15.72-0.1,23.58,0.01c3.84,0.06,6.28,2.58,6.26,6.02c-0.02,3.52-2.41,5.8-6.33,5.87
			C264.49,340.99,260.5,340.93,256.5,340.93z"/>
		<path d="M322.09,113.4c-11.47,0-22.94,0.01-34.41-0.01c-4.96-0.01-7.37-1.96-7.4-5.89c-0.03-3.94,2.45-6.07,7.29-6.07
			c23.07-0.02,46.13-0.02,69.2,0c4.74,0,7.38,2.27,7.29,6.1c-0.09,3.69-2.65,5.84-7.17,5.85
			C345.28,113.42,333.68,113.4,322.09,113.4z"/>
		<path d="M160.53,107.25c0.09,3.23-2.57,6.03-5.8,6.12c-3.23,0.09-6.02-2.56-6.11-5.81c-0.09-3.25,2.54-6.02,5.8-6.11
			C157.66,101.36,160.44,103.99,160.53,107.25z"/>
		<path d="M184.48,107.28c0.07,3.23-2.6,6.02-5.83,6.09c-3.24,0.07-6.01-2.59-6.08-5.84c-0.07-3.26,2.57-6.01,5.83-6.08
			C181.65,101.38,184.41,104.02,184.48,107.28z"/>
		<path d="M208.44,107.53c-0.07,3.24-2.86,5.91-6.09,5.83c-3.24-0.08-5.9-2.86-5.82-6.09c0.08-3.26,2.83-5.89,6.09-5.82
			C205.86,101.53,208.51,104.29,208.44,107.53z"/>
	</g>
</g>
</svg>
