<?xml version="1.0" encoding="utf-8"?>
<!-- Generator: Adobe Illustrator 26.0.1, SVG Export Plug-In . SVG Version: 6.00 Build 0)  -->
<svg version="1.1" id="레이어_1" xmlns="http://www.w3.org/2000/svg" xmlns:xlink="http://www.w3.org/1999/xlink" x="0px"
	 y="0px" viewBox="0 0 512 512" style="enable-background:new 0 0 512 512;" xml:space="preserve">
<style type="text/css">
	.st0{fill:#FFFFFF;}
</style>
<g>
	<g>
		<path class="st0" d="M63.76,105.43c0-13.97,0-27.95,0-41.92c127.98,0,255.96,0,384,0c0,127.96,0,255.92,0,384
			c-127.96,0-255.98,0-384,0c0-44.09,0-88.25,0-132.42c2.86,6.57,8.56,9.85,14.73,12.42c15.21,6.31,31.33,9,47.47,11.47
			c4.21,0.64,6.63-1.91,6.66-6.5c0.06-8.49,0.02-16.97,0.02-25.46c0-3.57,0-7.14,0-10.56c0.82-0.3,1.16-0.51,1.52-0.55
			c15.88-1.58,31.76-3.21,47.65-4.61c1.13-0.1,2.88,1.17,3.55,2.28c7.61,12.47,17.06,23.35,28.14,32.81
			c1.72,1.47,2.43,2.82,2.06,5.08c-0.63,3.81-1.21,7.66-1.33,11.51c-0.13,4.44-1.62,7.23-6.42,7.68c-1.7,0.16-3.32,1.2-5.02,1.36
			c-1.25,0.12-2.94-0.16-3.79-0.94c-4.17-3.84-8.82-4.84-14.19-3.21c-7.03,2.14-14.12,4.09-21.12,6.33
			c-18.66,5.97-32.31,17.87-38.03,36.64c-4.12,13.51-5.83,27.77-8.32,41.74c-0.73,4.13,3.79,7.57,7.28,5.59
			c1.84-1.04,3.47-3.61,3.92-5.75c1.9-9.02,3.45-18.12,4.88-27.23c2.91-18.45,12.34-31.97,29.92-38.91
			c7.85-3.1,16.15-5.07,24.24-7.58c2.31-0.72,3.49-0.09,3.73,2.49c0.56,5.96,1.15,11.92,2,17.84c2.77,19.2,7.22,37.94,16,55.42
			c1.97,3.91,5.01,5.2,8.13,3.56c3-1.57,3.84-4.69,1.98-8.4c-5.91-11.78-9.86-24.24-12.34-37.13c-1.81-9.39-3.09-18.88-4.64-28.5
			c3.81-1.13,6.96-2.06,10.01-2.97c0.33,0.54,0.54,0.74,0.57,0.96c2.33,16.33,19.61,28.89,39.91,28.95c3.16,0.01,5.2-1.62,5.6-4.87
			c0.39-3.15-1.36-5.42-4.7-6.1c-1.34-0.27-2.72-0.31-4.09-0.44c-6.05-0.62-11.74-2.31-16.7-5.96c-5.38-3.95-9.28-9.01-9-15.94
			c0.29-7.17,1.36-14.31,2.15-22.13c19.63,11.75,38.91,11.64,58.29,0.15c0.79,6.4,1.49,12.09,2.19,17.78
			c0.06,0.5,0.22,1.02,0.12,1.49c-0.89,4.06-1.09,8.52-2.99,12.06c-1.73,3.21-5.26,5.5-8.13,8.04c-2.46,2.17-3.24,5.12-1.71,7.61
			c1.65,2.68,4.94,3.62,7.79,1.71c2.88-1.93,5.59-4.18,8.08-6.6c4.71-4.56,7-10.45,8.2-16.99c2.38,0.7,4.36,1.49,6.4,1.83
			c2.99,0.51,3.66,2.03,3.31,4.93c-2.63,21.5-6.62,42.61-16.39,62.23c-1.85,3.72-0.95,6.82,2.11,8.34c3.05,1.52,6.19,0.37,7.86-3.4
			c2.86-6.49,5.76-12.99,8.02-19.7c5.77-17.1,8.57-34.82,10.01-52.77c0.26-3.24,1.25-4.42,4.7-3.26c6.72,2.26,13.63,4,20.36,6.24
			c17.89,5.97,28.66,18.35,32.29,36.82c2.02,10.27,3.67,20.62,5.58,30.91c0.79,4.25,3.5,6.35,6.88,5.64
			c3.25-0.68,4.81-3.39,4.1-7.58c-1.55-9.22-3.27-18.41-4.79-27.63c-3.85-23.33-16.25-39.87-38.65-48.18
			c-8.04-2.98-16.4-5.13-24.65-7.54c-3.75-1.09-7.99-1.21-10.64,1.6c-3.75,3.97-7.3,2.79-11.27,1.28c-1.16-0.44-2.56-0.46-3.54-1.12
			c-1.04-0.71-2.27-1.87-2.46-2.99c-0.87-5.29-1.56-10.62-1.95-15.96c-0.09-1.26,0.96-2.98,2.01-3.89
			c10.96-9.61,20.59-20.34,27.95-32.96c1.19-2.04,2.51-2.63,4.78-2.41c8.94,0.86,17.9,1.45,26.83,2.35
			c7.29,0.73,14.56,1.76,22.05,2.69c0,1.71,0,3.07,0,4.43c0,10.61-0.04,21.22,0.02,31.82c0.03,4.79,2.82,7.16,7.49,6.34
			c7.85-1.38,15.73-2.68,23.5-4.43c10.09-2.27,20.12-4.88,29.1-10.34c5.4-3.28,8.13-7.71,8.11-14.44
			c-0.17-65.89-0.21-131.78,0.03-197.67c0.03-8.15-3.3-13.29-10.03-16.79c-13.01-6.78-27.28-9.33-41.49-11.94
			c-3.06-0.56-5.32,1.42-5.93,4.51c-0.62,3.14,0.95,5.32,3.91,6.35c1.4,0.49,2.95,0.52,4.38,0.93c10.65,3,21.31,5.94,31.89,9.15
			c2.08,0.63,3.83,2.35,5.74,3.57c-0.01,0.42-0.02,0.84-0.03,1.26c-3.9,1.83-7.63,4.3-11.73,5.36c-12.53,3.22-25.18,5.96-37.82,8.73
			c-6.23,1.36-7.16,2.28-7.16,8.71c0,49.54,0,99.09,0,148.63c0,1.42,0,2.84,0,4.28c-14.28-1.48-27.99-2.91-41.83-4.35
			c0.92-2.75,1.76-5.29,2.66-8c3.83,0,7.57,0.12,11.29-0.03c7.5-0.3,12.9-5.27,13.15-12.64c0.29-8.6,0.29-17.22,0-25.82
			c-0.25-7.47-5.6-12.31-13.14-12.55c-1.53-0.05-3.07-0.01-4.62-0.01c0.04-0.94,0.02-1.19,0.07-1.42c0.21-0.85,0.46-1.68,0.67-2.53
			c4.95-19.47,2.62-38.08-6.72-55.83c-1.83-3.47-4.79-4.55-7.73-3.12c-3.12,1.52-3.92,4.61-2.25,8.29c1.6,3.51,3.36,6.98,4.58,10.62
			c3.82,11.4,4.59,22.98,1.55,35.52c-5.81-8.65-13.82-10.32-22.92-10.1c-13.22,0.32-26.46-0.17-39.67,0.19
			c-7.04,0.19-13.32-1.61-19.21-5.03c-3.65-2.12-7.29-4.42-10.43-7.21c-4.92-4.39-9.5-9.18-14.07-13.95
			c-6-6.25-13.59-4.85-16.84,3.24c-0.32,0.81-0.59,1.64-0.93,2.44c-2.81,6.6-6.24,12.76-11.83,17.49c-2.37,2.01-4.83,3.15-8.11,3
			c-6.62-0.3-12.14,2.32-16.46,7.35c-0.46,0.53-0.66,1.29-0.98,1.94c-0.38-0.2-0.75-0.4-1.13-0.6c-0.49-3.27-1.15-6.53-1.43-9.82
			c-1.46-17.12,3.14-32.19,15.96-44.04c7.57-7,16.45-9.15,26.26-4.77c3.16,1.41,5.61,0.8,8.15-1.49c3.7-3.33,7.42-6.74,11.59-9.4
			c24.7-15.79,55.06-13.95,79.31,4.58c3.6,2.75,6.64,2.75,8.88-0.02c2.23-2.76,1.61-5.94-1.83-8.7
			c-13.24-10.61-28.33-16.58-45.28-17.52c-21.54-1.19-40.53,5.28-56.91,19.42c-0.93,0.8-2.72,1.35-3.86,1.05
			c-13.13-3.51-24.59-0.18-34.22,8.88c-15.32,14.41-21.1,32.56-19.17,53.24c0.56,6.01,1.98,11.95,3.03,18.13
			c-1.07,0.05-2.17,0.14-3.26,0.16c-9.77,0.13-14.7,5.03-14.76,14.79c-0.05,7.49-0.11,14.98,0.03,22.46
			c0.16,8.45,5.49,13.63,13.97,13.8c3.59,0.07,7.19,0.01,10.64,0.01c0.92,2.93,1.72,5.48,2.52,8.02c-13.73,1.41-27.2,2.8-41.01,4.22
			c0-1.82,0-3.29,0-4.77c0-49.54,0-99.09,0-148.63c0-5.54-1.24-6.94-6.75-7.88c-14.49-2.47-29.04-4.76-42.75-10.39
			c-2.8-1.15-5.35-2.89-9.06-4.93c3.61-2,6.02-3.92,8.77-4.75c9.88-2.96,19.76-6.18,29.86-8.14c28.7-5.58,57.79-7.89,86.97-9.27
			c55.79-2.63,111.49-1.88,167.04,4.49c4.66,0.53,7.49-1.19,7.88-4.77c0.39-3.67-1.79-6.03-6.53-6.37
			c-25.87-1.87-51.71-4.41-77.62-5.27c-59.81-1.98-119.52-0.5-178.63,9.99c-11.81,2.1-23.35,6.02-34.82,9.69
			C71.09,95.45,66.22,99.3,63.76,105.43z"/>
		<path d="M63.76,105.43c2.46-6.13,7.33-9.98,13.23-11.86c11.48-3.67,23.01-7.59,34.82-9.69c59.11-10.49,118.82-11.97,178.63-9.99
			c25.9,0.86,51.75,3.4,77.62,5.27c4.73,0.34,6.92,2.7,6.53,6.37c-0.38,3.58-3.22,5.3-7.88,4.77
			c-55.55-6.37-111.25-7.12-167.04-4.49c-29.17,1.38-58.27,3.69-86.97,9.27c-10.1,1.96-19.97,5.18-29.86,8.14
			c-2.75,0.82-5.16,2.75-8.77,4.75c3.71,2.05,6.27,3.79,9.06,4.93c13.71,5.63,28.26,7.91,42.75,10.39c5.5,0.94,6.74,2.34,6.75,7.88
			c0.01,49.54,0,99.09,0,148.63c0,1.47,0,2.95,0,4.77c13.82-1.42,27.28-2.81,41.01-4.22c-0.8-2.54-1.6-5.09-2.52-8.02
			c-3.44,0-7.04,0.06-10.64-0.01c-8.48-0.17-13.81-5.36-13.97-13.8c-0.14-7.49-0.08-14.98-0.03-22.46c0.07-9.76,5-14.66,14.76-14.79
			c1.1-0.01,2.19-0.1,3.26-0.16c-1.06-6.17-2.47-12.11-3.03-18.13c-1.93-20.68,3.84-38.83,19.17-53.24
			c9.63-9.06,21.1-12.39,34.22-8.88c1.13,0.3,2.93-0.25,3.86-1.05c16.37-14.14,35.37-20.61,56.91-19.42
			c16.94,0.94,32.03,6.91,45.28,17.52c3.44,2.76,4.06,5.94,1.83,8.7c-2.24,2.77-5.28,2.77-8.88,0.02
			c-24.25-18.53-54.6-20.37-79.31-4.58c-4.17,2.66-7.89,6.07-11.59,9.4c-2.54,2.29-4.99,2.9-8.15,1.49
			c-9.8-4.38-18.69-2.23-26.26,4.77c-12.82,11.85-17.41,26.92-15.96,44.04c0.28,3.29,0.94,6.55,1.43,9.82
			c0.38,0.2,0.75,0.4,1.13,0.6c0.32-0.65,0.52-1.41,0.98-1.94c4.32-5.03,9.84-7.66,16.46-7.35c3.28,0.15,5.73-0.99,8.11-3
			c5.6-4.73,9.03-10.89,11.83-17.49c0.34-0.8,0.61-1.63,0.93-2.44c3.25-8.09,10.84-9.5,16.84-3.24c4.57,4.76,9.15,9.56,14.07,13.95
			c3.13,2.79,6.78,5.1,10.43,7.21c5.9,3.42,12.18,5.22,19.21,5.03c13.22-0.36,26.46,0.14,39.67-0.19c9.1-0.22,17.11,1.44,22.92,10.1
			c3.04-12.54,2.27-24.12-1.55-35.52c-1.22-3.64-2.99-7.11-4.58-10.62c-1.67-3.68-0.88-6.77,2.25-8.29
			c2.95-1.44,5.91-0.35,7.73,3.12c9.34,17.74,11.67,36.35,6.72,55.83c-0.21,0.85-0.46,1.68-0.67,2.53
			c-0.06,0.23-0.03,0.48-0.07,1.42c1.56,0,3.09-0.04,4.62,0.01c7.54,0.24,12.89,5.07,13.14,12.55c0.29,8.6,0.3,17.22,0,25.82
			c-0.25,7.37-5.65,12.35-13.15,12.64c-3.73,0.15-7.47,0.03-11.29,0.03c-0.9,2.71-1.75,5.25-2.66,8
			c13.85,1.44,27.55,2.86,41.83,4.35c0-1.44,0-2.86,0-4.28c0-49.54,0-99.09,0-148.63c0-6.43,0.93-7.34,7.16-8.71
			c12.64-2.77,25.29-5.52,37.82-8.73c4.1-1.05,7.83-3.53,11.73-5.36c0.01-0.42,0.02-0.84,0.03-1.26c-1.9-1.22-3.65-2.93-5.74-3.57
			c-10.58-3.21-21.25-6.15-31.89-9.15c-1.44-0.4-2.98-0.44-4.38-0.93c-2.96-1.03-4.53-3.21-3.91-6.35c0.61-3.09,2.87-5.07,5.93-4.51
			c14.21,2.6,28.48,5.16,41.49,11.94c6.73,3.5,10.06,8.64,10.03,16.79c-0.24,65.89-0.21,131.78-0.03,197.67
			c0.02,6.73-2.72,11.16-8.11,14.44c-8.98,5.46-19.01,8.07-29.1,10.34c-7.77,1.75-15.65,3.05-23.5,4.43
			c-4.67,0.82-7.47-1.55-7.49-6.34c-0.06-10.61-0.02-21.22-0.02-31.82c0-1.36,0-2.72,0-4.43c-7.49-0.93-14.76-1.96-22.05-2.69
			c-8.93-0.9-17.9-1.49-26.83-2.35c-2.27-0.22-3.59,0.37-4.78,2.41c-7.37,12.63-16.99,23.35-27.95,32.96
			c-1.04,0.92-2.1,2.63-2.01,3.89c0.38,5.34,1.08,10.67,1.95,15.96c0.18,1.12,1.42,2.28,2.46,2.99c0.98,0.67,2.38,0.68,3.54,1.12
			c3.98,1.51,7.52,2.69,11.27-1.28c2.66-2.81,6.9-2.69,10.64-1.6c8.25,2.41,16.61,4.56,24.65,7.54c22.4,8.3,34.8,24.85,38.65,48.18
			c1.52,9.22,3.25,18.41,4.79,27.63c0.7,4.19-0.86,6.9-4.1,7.58c-3.37,0.71-6.09-1.39-6.88-5.64c-1.91-10.29-3.57-20.64-5.58-30.91
			c-3.63-18.47-14.4-30.85-32.29-36.82c-6.73-2.25-13.64-3.98-20.36-6.24c-3.45-1.16-4.44,0.01-4.7,3.26
			c-1.44,17.94-4.24,35.66-10.01,52.77c-2.26,6.71-5.16,13.21-8.02,19.7c-1.66,3.77-4.81,4.92-7.86,3.4
			c-3.06-1.53-3.96-4.63-2.11-8.34c9.76-19.62,13.76-40.73,16.39-62.23c0.35-2.9-0.31-4.42-3.31-4.93c-2.05-0.35-4.02-1.13-6.4-1.83
			c-1.19,6.54-3.49,12.44-8.2,16.99c-2.49,2.41-5.2,4.67-8.08,6.6c-2.85,1.91-6.15,0.98-7.79-1.71c-1.53-2.49-0.75-5.44,1.71-7.61
			c2.87-2.54,6.4-4.83,8.13-8.04c1.9-3.53,2.09-7.99,2.99-12.06c0.1-0.46-0.05-0.99-0.12-1.49c-0.7-5.69-1.4-11.38-2.19-17.78
			c-19.37,11.5-38.66,11.6-58.29-0.15c-0.79,7.81-1.86,14.96-2.15,22.13c-0.28,6.93,3.62,11.99,9,15.94
			c4.96,3.64,10.64,5.34,16.7,5.96c1.36,0.14,2.75,0.17,4.09,0.44c3.34,0.68,5.09,2.95,4.7,6.1c-0.4,3.25-2.44,4.88-5.6,4.87
			c-20.3-0.06-37.58-12.62-39.91-28.95c-0.03-0.22-0.24-0.42-0.57-0.96c-3.05,0.9-6.2,1.84-10.01,2.97
			c1.55,9.62,2.83,19.11,4.64,28.5c2.48,12.89,6.42,25.35,12.34,37.13c1.86,3.71,1.03,6.83-1.98,8.4c-3.12,1.63-6.16,0.35-8.13-3.56
			c-8.78-17.47-13.23-36.21-16-55.42c-0.85-5.92-1.44-11.88-2-17.84c-0.24-2.58-1.42-3.21-3.73-2.49
			c-8.09,2.51-16.39,4.48-24.24,7.58c-17.58,6.94-27.01,20.46-29.92,38.91c-1.44,9.11-2.99,18.21-4.88,27.23
			c-0.45,2.14-2.08,4.71-3.92,5.75c-3.5,1.98-8.02-1.47-7.28-5.59c2.49-13.98,4.2-28.23,8.32-41.74
			c5.72-18.76,19.37-30.67,38.03-36.64c7-2.24,14.09-4.19,21.12-6.33c5.36-1.63,10.01-0.63,14.19,3.21
			c0.86,0.79,2.55,1.06,3.79,0.94c1.7-0.16,3.32-1.2,5.02-1.36c4.8-0.45,6.29-3.24,6.42-7.68c0.12-3.85,0.7-7.7,1.33-11.51
			c0.37-2.26-0.34-3.61-2.06-5.08c-11.08-9.46-20.53-20.34-28.14-32.81c-0.68-1.11-2.42-2.38-3.55-2.28
			c-15.9,1.4-31.77,3.02-47.65,4.61c-0.36,0.04-0.7,0.24-1.52,0.55c0,3.42,0,6.99,0,10.56c0,8.49,0.04,16.97-0.02,25.46
			c-0.03,4.59-2.44,7.14-6.66,6.5c-16.14-2.47-32.26-5.16-47.47-11.47c-6.17-2.56-11.87-5.84-14.73-12.42c0-19.97,0-39.93,0-59.9
			c1.71-2.76,3.95-4.7,7.39-3.53c3.41,1.16,3.89,4.06,3.87,7.3c-0.07,16.21,0.15,32.43-0.15,48.64c-0.08,4.33,1.4,6.8,5.14,8.33
			c1.15,0.47,2.23,1.17,3.41,1.5c12.43,3.48,24.88,6.91,37.79,10.49c0-65.39,0-129.58,0-193.16c-15.56-3.99-30.89-7.91-46.23-11.84
			c0,0.73,0,2.1,0,3.47c0,33.55-0.01,67.1,0.02,100.65c0,3.16-0.26,6.04-3.72,7.38c-3.53,1.37-5.57-0.82-7.53-3.18
			C63.76,189.29,63.76,147.36,63.76,105.43z M255.4,214c-20.7,0-41.41-0.02-62.11,0.01c-7.04,0.01-10.66,3.52-10.69,10.54
			c-0.07,14.72-0.06,29.44,0,44.16c0.03,7.14,3.48,10.58,10.55,10.61c10.85,0.05,21.7-0.07,32.55,0.05
			c5.18,0.05,8.63-2.19,11.2-6.62c8.85-15.22,27.89-15.24,37.02-0.08c2.68,4.45,6.31,6.76,11.62,6.7c10.6-0.12,21.2-0.01,31.81-0.05
			c7.53-0.03,10.89-3.39,10.91-11.02c0.04-14.35,0.04-28.69,0-43.04c-0.02-7.95-3.43-11.25-11.49-11.26
			C296.31,214,275.86,214,255.4,214z M390.37,326.76c3.77-0.68,7.4-1.03,10.85-2.02c10.02-2.86,20.02-5.86,29.93-9.07
			c3.45-1.12,4.83-3.62,4.82-7.72c-0.18-60.49-0.12-120.97-0.12-181.46c0-1.45,0-2.9,0-3.61c-15.24,3.93-30.33,7.81-45.48,11.71
			C390.37,198.35,390.37,262.42,390.37,326.76z M196.62,290.56c11.96,17.02,24.94,31.46,43.67,39.43
			c10.66,4.53,21.36,4.26,31.9-0.68c13.15-6.17,23.7-15.57,32.92-26.58c3.07-3.66,5.8-7.61,9.25-12.18
			c-10.53,0-19.96,0.03-29.4-0.01c-9.25-0.04-16.26-3.88-20.74-12.18c-4.08-7.57-13.17-7.89-17.32-0.44
			c-4.97,8.91-12.41,12.82-22.43,12.66C215.52,290.45,206.57,290.56,196.62,290.56z M171.15,232.48c-3.79,0-7.13,0.04-10.47-0.02
			c-2.05-0.03-2.95,0.9-2.94,2.91c0.02,7.59-0.07,15.18,0.11,22.77c0.02,0.98,1.34,2.68,2.16,2.75c3.65,0.3,7.33,0.13,11.14,0.13
			C171.15,251.35,171.15,242.19,171.15,232.48z M339.86,232.5c0,9.72,0,19.05,0,28.58c3.59,0,6.82-0.04,10.05,0.01
			c2.17,0.03,3.2-0.94,3.2-3.13c-0.02-7.47,0.09-14.93-0.11-22.39c-0.03-1.04-1.41-2.84-2.29-2.93
			C347.15,232.3,343.55,232.5,339.86,232.5z M223.49,186.4c-2.98,5.36-5.96,10.69-9.01,16.18c8.65,0,17.23,0,25.94,0
			C234.65,197.07,229.06,191.72,223.49,186.4z"/>
		<path class="st0" d="M63.76,231.22c1.96,2.36,4,4.55,7.53,3.18c3.46-1.34,3.72-4.23,3.72-7.38c-0.03-33.55-0.02-67.1-0.02-100.65
			c0-1.37,0-2.73,0-3.47c15.34,3.93,30.66,7.85,46.23,11.84c0,63.59,0,127.78,0,193.16c-12.92-3.58-25.36-7-37.79-10.49
			c-1.18-0.33-2.26-1.03-3.41-1.5c-3.75-1.54-5.22-4.01-5.14-8.33c0.3-16.21,0.08-32.43,0.15-48.64c0.01-3.23-0.46-6.14-3.87-7.3
			c-3.43-1.16-5.68,0.78-7.39,3.53C63.76,247.2,63.76,239.21,63.76,231.22z"/>
		<path class="st0" d="M255.4,214c20.46,0,40.91-0.01,61.37,0c8.07,0,11.47,3.31,11.49,11.26c0.04,14.35,0.04,28.69,0,43.04
			c-0.02,7.63-3.37,11-10.91,11.02c-10.6,0.04-21.2-0.08-31.81,0.05c-5.31,0.06-8.94-2.25-11.62-6.7
			c-9.13-15.16-28.17-15.14-37.02,0.08c-2.57,4.43-6.02,6.68-11.2,6.62c-10.85-0.11-21.7,0-32.55-0.05
			c-7.07-0.03-10.52-3.47-10.55-10.61c-0.06-14.72-0.06-29.44,0-44.16c0.03-7.01,3.65-10.53,10.69-10.54
			C213.99,213.99,234.7,214,255.4,214z"/>
		<path class="st0" d="M390.37,326.76c0-64.34,0-128.41,0-192.17c15.15-3.9,30.24-7.79,45.48-11.71c0,0.71,0,2.16,0,3.61
			c0,60.49-0.06,120.97,0.12,181.46c0.01,4.1-1.37,6.6-4.82,7.72c-9.92,3.21-19.91,6.2-29.93,9.07
			C397.77,325.72,394.14,326.08,390.37,326.76z"/>
		<path class="st0" d="M196.62,290.56c9.95,0,18.9-0.11,27.85,0.03c10.01,0.16,17.46-3.75,22.43-12.66
			c4.16-7.45,13.24-7.13,17.32,0.44c4.48,8.3,11.48,12.14,20.74,12.18c9.44,0.04,18.88,0.01,29.4,0.01
			c-3.45,4.56-6.18,8.51-9.25,12.18c-9.22,11.01-19.77,20.41-32.92,26.58c-10.54,4.94-21.24,5.21-31.9,0.68
			C221.56,322.02,208.58,307.58,196.62,290.56z M255.71,313.63c6.44-0.06,12.25-1.98,17.4-5.8c3.23-2.4,3.91-5.62,1.89-8.37
			c-1.96-2.66-4.99-3.06-8.22-0.85c-7.3,5-14.52,5.05-21.85,0.06c-3.43-2.33-6.55-1.88-8.48,0.99c-1.89,2.81-1.08,5.85,2.25,8.3
			C243.76,311.67,249.45,313.54,255.71,313.63z"/>
		<path class="st0" d="M171.15,232.48c0,9.7,0,18.86,0,28.54c-3.81,0-7.5,0.17-11.14-0.13c-0.82-0.07-2.14-1.77-2.16-2.75
			c-0.18-7.59-0.09-15.18-0.11-22.77c-0.01-2.01,0.9-2.94,2.94-2.91C164.02,232.53,167.37,232.48,171.15,232.48z"/>
		<path class="st0" d="M339.86,232.5c3.69,0,7.29-0.2,10.84,0.14c0.88,0.08,2.27,1.88,2.29,2.93c0.2,7.46,0.09,14.93,0.11,22.39
			c0.01,2.19-1.02,3.16-3.2,3.13c-3.23-0.05-6.46-0.01-10.05-0.01C339.86,251.56,339.86,242.22,339.86,232.5z"/>
		<path class="st0" d="M223.49,186.4c5.57,5.33,11.16,10.67,16.92,16.18c-8.71,0-17.28,0-25.94,0
			C217.53,197.09,220.5,191.75,223.49,186.4z"/>
		<path d="M255.71,313.63c-6.26-0.09-11.95-1.95-17.02-5.67c-3.33-2.44-4.14-5.48-2.25-8.3c1.92-2.87,5.05-3.32,8.48-0.99
			c7.33,4.99,14.55,4.94,21.85-0.06c3.23-2.22,6.27-1.81,8.22,0.85c2.02,2.75,1.34,5.97-1.89,8.37
			C267.95,311.65,262.15,313.57,255.71,313.63z"/>
	</g>
</g>
</svg>
