<?xml version="1.0" encoding="utf-8"?>
<!-- Generator: Adobe Illustrator 24.0.1, SVG Export Plug-In . SVG Version: 6.00 Build 0)  -->
<svg version="1.1" id="레이어_1" xmlns="http://www.w3.org/2000/svg" xmlns:xlink="http://www.w3.org/1999/xlink" x="0px"
	 y="0px" viewBox="0 0 512 512" style="enable-background:new 0 0 512 512;" xml:space="preserve">
<g>
	<g>
		<path d="M64.75,246.64c1.36-5.54,1.93-11.24,3.65-16.72c3.37-10.71,8.43-20.5,15.61-29.14c2.81-3.38,6.56-3.62,8.97-0.65
			c2.28,2.81,1.51,5.5-0.6,8.12c-7.99,9.9-12.92,21.17-15.32,33.66c-7.64,39.85,21.61,80.35,61.89,85.68
			c4.48,0.59,8.94,0.76,13.43,0.76c23.33,0.02,46.66-0.04,69.99,0.08c2.88,0.01,4.33-0.69,5.46-3.53
			c12.95-32.37,43.78-53.29,78.6-53.53c2.99-0.02,6.02-0.29,8.97,0.07c3.49,0.42,4.68-0.93,5.25-4.26
			c5.34-31.04-9.89-62.42-37.78-77.5c-10.85-5.86-22.45-8.86-34.77-8.87c-32.68-0.04-65.37-0.04-98.05-0.01
			c-13.1,0.01-25.39,3.22-36.81,9.69c-1.18,0.67-2.42,1.38-3.73,1.65c-2.96,0.61-5.24-0.63-6.27-3.43
			c-1.09-2.98,0.04-5.37,2.75-6.98c8.75-5.22,18.12-8.82,28.15-10.68c6.15-1.14,12.35-1.51,18.61-1.5
			c30.31,0.04,60.63,0.1,90.94-0.02c11.2-0.05,22.13,1.18,32.7,5.01c0.43,0.15,0.91,0.14,1.66,0.25c-0.3-2.66-0.62-5.1-0.85-7.55
			c-5.25-53.91,38.97-98.75,92.82-94.15c40.47,3.46,73.54,36.28,77.38,76.76c2.16,22.78-3.92,43.16-17.73,61.31
			c-1.05,1.38-2.14,2.8-3.46,3.91c-2.3,1.93-4.86,1.91-7.15-0.04c-2.17-1.85-2.46-4.27-1.25-6.78c0.48-0.99,1.27-1.84,1.98-2.7
			c19.12-23.54,22.28-55.51,8.1-82.1c-14.13-26.5-42.64-41.84-72.71-39.13c-45.92,4.15-77.33,50.29-64.42,94.61
			c0.55,1.9,1.47,3.21,3.17,4.32c14.59,9.53,25.42,22.28,32.19,38.38c0.8,1.91,2.08,2.94,3.84,3.75
			c22.26,10.15,44.37,9.92,66.35-0.88c1.01-0.49,1.96-1.11,2.98-1.56c3.22-1.42,6.23-0.49,7.69,2.32c1.47,2.83,0.59,5.81-2.55,7.62
			c-6.62,3.81-13.66,6.65-21.08,8.47c-16.65,4.08-33.12,3.43-49.35-2.17c-0.69-0.24-1.41-0.42-2.45-0.72
			c0.51,5.38,1.35,10.51,1.3,15.71c-0.05,4.88-0.22,9.75-1.2,14.51c-0.47,2.28,0.08,2.76,2.26,2.74c9.36-0.09,18.71-0.06,28.07-0.03
			c42.98,0.11,77.93,29.72,85.07,72.07c7.76,46.03-26.1,91.38-72.52,97.17c-11.81,1.47-23.67,0.58-35.51,0.71
			c-3.3,0.04-5.47-2.34-5.53-5.36c-0.07-3.29,2.23-5.68,6.03-5.75c7.11-0.13,14.23-0.2,21.33-0.02c34.83,0.9,62.96-22,72.36-51.09
			c15.17-46.94-19.53-95.74-68.85-96.44c-19.71-0.28-39.42-0.26-59.13,0c-37.47,0.5-69.57,31.03-72.13,67.39
			c-2.96,42.02,27.52,74.61,63.19,79.4c4.48,0.6,8.95,0.61,13.43,0.72c4.39,0.1,6.82,2.21,6.76,5.77c-0.06,3.47-2.34,5.35-6.61,5.45
			c-45.23,1.04-82.5-31.1-87.7-75.78c-0.88-7.57-0.77-15.22,0.64-22.75c0.52-2.77-0.25-3.33-2.91-3.32
			c-24.33,0.07-48.66,0.29-72.98-0.08c-40.89-0.63-76.61-33.23-81.43-73.87c-0.13-1.09-0.48-2.16-0.72-3.23
			C64.75,257.12,64.75,251.88,64.75,246.64z"/>
		<path d="M375.84,336.33c3.75,1.09,5.18-0.91,5.8-5.08c1.03-6.88,2.74-13.66,4.21-20.48c0.87-4.01,3.46-6.01,6.74-5.32
			c3.48,0.72,5.07,3.64,4.21,7.83c-1.38,6.71-2.73,13.42-4.23,20.1c-0.52,2.31-0.03,3.21,2.46,3c2.23-0.19,4.49-0.1,6.73,0
			c3.59,0.16,5.81,2.3,5.85,5.46c0.04,3.16-2.13,5.49-5.69,5.7c-3.23,0.19-6.48,0.16-9.72,0.03c-1.79-0.07-2.73,0.45-3.08,2.29
			c-1.07,5.62-2.15,11.25-3.45,16.83c-0.54,2.31,0.43,2.54,2.24,2.49c2.37-0.06,4.74-0.09,7.1,0.03c3.59,0.18,5.82,2.35,5.83,5.5
			c0.01,3.15-2.16,5.4-5.76,5.63c-2.86,0.18-5.74,0.22-8.6,0.02c-2.72-0.2-3.94,0.62-4.44,3.49c-1.34,7.6-2.97,15.15-4.63,22.68
			c-1.09,4.95-5.7,6.91-9.2,4.07c-2.43-1.97-2.19-4.59-1.66-7.21c1.33-6.46,2.63-12.93,4.12-19.36c0.63-2.7,0.21-3.74-2.89-3.7
			c-7.35,0.1-7.34-0.05-8.81,7.25c-1.25,6.22-2.53,12.44-3.84,18.65c-0.85,4.01-3.45,6.15-6.64,5.57c-3.49-0.63-5.25-3.54-4.41-7.74
			c1.36-6.84,2.8-13.66,4.32-20.46c0.52-2.34,0.15-3.47-2.57-3.25c-2.35,0.19-4.75,0.16-7.09-0.07c-3.35-0.33-5.34-2.62-5.27-5.68
			c0.07-3.03,2.19-5.2,5.55-5.36c3.23-0.16,6.48-0.14,9.72-0.04c1.74,0.05,2.75-0.36,3.11-2.26c1.08-5.75,2.25-11.48,3.54-17.19
			c0.4-1.78-0.15-2.18-1.77-2.14c-2.49,0.06-4.99,0.12-7.48-0.03c-3.73-0.23-6.05-2.63-5.91-5.89c0.14-3.1,2.43-5.18,6.04-5.3
			c2.99-0.1,6-0.22,8.97,0.02c2.49,0.2,3.2-0.97,3.62-3.08c1.44-7.33,3-14.63,4.52-21.94c0.95-4.57,3.5-6.7,7.01-5.88
			c3.53,0.83,4.91,3.72,3.95,8.32c-1.19,5.73-2.38,11.46-3.55,17.19C369.7,336.33,369.71,336.33,375.84,336.33z M372.7,347.6
			c-5.34,0-5.34,0-6.46,5.3c-0.62,2.92-1.28,5.82-1.9,8.74c-1.62,7.66-1.62,7.53,6.23,7.59c2.59,0.02,3.43-0.98,3.84-3.26
			c0.78-4.4,1.73-8.77,2.63-13.15C378.11,347.6,378.12,347.6,372.7,347.6z"/>
		<path d="M221.32,254.7c0,7.98,0.02,15.97-0.01,23.95c-0.02,4.48-2,6.92-5.51,6.94c-3.52,0.02-5.64-2.46-5.69-6.86
			c-0.06-5.61-0.08-11.23,0.02-16.84c0.03-1.94-0.57-2.6-2.55-2.56c-6.24,0.11-12.48,0.11-18.71,0c-2.09-0.04-2.84,0.58-2.79,2.73
			c0.13,5.61,0.07,11.23,0.03,16.84c-0.04,4.21-2.01,6.6-5.39,6.68c-3.54,0.09-5.79-2.39-5.81-6.73c-0.05-16.22-0.05-32.43,0-48.65
			c0.01-4.05,2.28-6.6,5.58-6.65c3.31-0.05,5.57,2.5,5.61,6.53c0.06,5.11,0.1,10.23-0.02,15.34c-0.05,2.13,0.64,2.8,2.76,2.76
			c6.24-0.12,12.47-0.11,18.71,0c1.95,0.03,2.61-0.57,2.57-2.54c-0.11-4.99-0.07-9.98-0.02-14.97c0.04-4.39,2.11-7.01,5.51-7.11
			c3.53-0.11,5.69,2.56,5.7,7.19C221.35,238.73,221.33,246.71,221.32,254.7z"/>
		<path d="M381.42,189.33c-7.65-0.28-14.35-2.9-19.92-8.19c-3.1-2.95-3.45-6.36-1.03-8.83c2.36-2.41,5.49-2.28,8.59,0.57
			c4.41,4.05,9.51,5.76,15.44,5.01c2.18-0.28,4.05-1.23,5.58-2.78c2.7-2.73,2.57-5.93-0.3-8.46c-1.81-1.6-4.05-2.41-6.25-3.28
			c-3.93-1.56-7.83-3.21-11.76-4.76c-5.74-2.26-9.14-6.42-9.85-12.51c-0.76-6.51,1.78-11.71,7.11-15.47
			c8.34-5.87,23.9-4.23,30.87,3.23c2.17,2.32,2.42,4.95,0.41,7.43c-2,2.47-4.67,2.89-7.34,1.16c-2.86-1.85-5.78-3.41-9.15-4.05
			c-2.67-0.51-5.23-0.21-7.64,1c-2.04,1.02-3.25,2.65-3.13,5.08c0.1,2.24,1.58,3.22,3.41,3.96c4.96,2,10,3.84,14.86,6.06
			c6.59,3.03,11.42,7.69,11.86,15.44C403.81,181.02,393.75,189.91,381.42,189.33z"/>
		<path d="M236.24,254.71c0-7.97-0.03-15.94,0.01-23.9c0.02-5.24,2.01-7.24,7.21-7.29c4.23-0.04,8.47-0.1,12.7,0.03
			c11.34,0.36,20.09,9.02,20.18,19.88c0.09,10.59-8.05,19.1-19.22,19.98c-2.35,0.19-4.73,0.19-7.09,0.12
			c-1.92-0.06-2.64,0.65-2.59,2.61c0.11,3.98,0.04,7.97,0.03,11.95c-0.02,5-1.99,7.6-5.68,7.52c-3.66-0.07-5.54-2.67-5.55-7.73
			C236.23,270.15,236.24,262.43,236.24,254.71z M247.49,244.02c0.41,2.32-1.35,6.27,0.76,7.65c2.73,1.78,6.71,0.73,10.15,0.22
			c0.12-0.02,0.25-0.04,0.36-0.08c3.26-1.21,5.47-3.36,6.09-6.89c0.6-3.39-0.66-6.09-3.28-8.18c-2.01-1.6-11.85-3.13-13.26-1.75
			c-1.89,1.84-0.45,4.46-0.81,6.71C247.41,242.31,247.49,242.94,247.49,244.02z"/>
		<path d="M125.05,254.41c0-7.85-0.04-15.71,0.01-23.56c0.03-5.47,1.95-7.31,7.51-7.34c4.11-0.02,8.23-0.09,12.34,0.04
			c11.25,0.36,19.92,8.83,20.13,19.55c0.21,10.81-7.95,19.43-19.27,20.33c-0.62,0.05-1.24,0.08-1.87,0.1
			c-7.63,0.22-7.63,0.21-7.63,8.02c0,2.49,0.06,4.99-0.02,7.48c-0.14,4.21-2.16,6.54-5.58,6.56c-3.43,0.02-5.56-2.3-5.6-6.49
			C125,270.87,125.06,262.64,125.05,254.41z M136.35,243.29c0.04,9.72,0.04,9.72,8.49,8.95c5.45-0.5,9.18-4.27,8.96-9.07
			c-0.27-5.98-5.04-8.94-14.51-8.33c-5.78,0.37-1.79,5.17-2.92,7.71C136.27,242.76,136.35,243.04,136.35,243.29z"/>
		<path d="M270.5,356.03c0.37-9.65,5.67-18.95,16.28-24.72c10.34-5.63,20.82-5.09,31.01,0.79c2.46,1.42,4.03,3.45,3.41,6.44
			c-0.54,2.59-2.32,4.09-4.91,4.48c-2,0.3-3.55-0.91-5.19-1.79c-11.78-6.27-25.77-0.05-28.91,12.85
			c-3.46,14.2,10.15,27.63,23.98,23.69c2.73-0.78,4.9-2.32,6.9-4.27c2.78-2.73,5.92-2.93,8.29-0.71c2.43,2.27,2.29,5.68-0.35,8.64
			c-9.18,10.24-26.57,11-38.5,1.69C274.79,377.11,270.47,368.23,270.5,356.03z"/>
		<path d="M346.14,153.08c0,6.74,0.14,13.47-0.04,20.21c-0.19,6.82-3.38,12.03-9.7,14.75c-6.22,2.68-11.99,1.08-17.09-3.07
			c-3.17-2.58-3.66-5.83-1.5-8.48c2.04-2.49,5.12-2.7,8.3-0.41c1.9,1.37,3.86,2.59,6.18,1.44c2.49-1.23,2.65-3.67,2.64-6.13
			c-0.03-12.72-0.02-25.45-0.01-38.17c0.01-4.79,1.93-7.23,5.59-7.22c3.63,0.01,5.61,2.53,5.62,7.26
			c0.02,6.61,0.01,13.22,0.01,19.83C346.15,153.08,346.14,153.08,346.14,153.08z"/>
	</g>
</g>
</svg>
