<?xml version="1.0" encoding="utf-8"?>
<!-- Generator: Adobe Illustrator 27.2.0, SVG Export Plug-In . SVG Version: 6.00 Build 0)  -->
<svg version="1.1" id="레이어_1" xmlns="http://www.w3.org/2000/svg" xmlns:xlink="http://www.w3.org/1999/xlink" x="0px"
	 y="0px" viewBox="0 0 512 512" style="enable-background:new 0 0 512 512;" xml:space="preserve">
<style type="text/css">
	.st0{fill:none;stroke:#000000;stroke-width:10;stroke-miterlimit:10;}
</style>
<circle class="st0" cx="220.26" cy="165.96" r="58.72"/>
<path class="st0" d="M356.77,334.64h-45.28c-4.32,0-7.83-3.51-7.83-7.83v-45.28c0-4.32,3.51-7.83,7.83-7.83h45.28
	c4.32,0,7.83,3.51,7.83,7.83v45.28C364.6,331.13,361.09,334.64,356.77,334.64z"/>
<path class="st0" d="M315.57,261.11c0,0-0.43-24.94,20.43-23.32s15.83,33.02,15.83,33.02"/>
<rect x="328.17" y="292.43" width="11.62" height="10.21"/>
<circle cx="333.98" cy="310.23" r="11.68"/>
<g>
	<rect x="142.04" y="256" width="95.74" height="11.91"/>
	<rect x="249.91" y="256" width="11.91" height="11.91"/>
</g>
<g>
	<rect x="142.04" y="279.84" width="95.74" height="11.91"/>
	<rect x="249.91" y="279.84" width="11.91" height="11.91"/>
</g>
<g>
	<rect x="142.04" y="303.67" width="95.74" height="11.91"/>
	<rect x="249.91" y="303.67" width="11.91" height="11.91"/>
</g>
<g>
	<rect x="142.04" y="327.51" width="95.74" height="11.91"/>
	<rect x="249.91" y="327.51" width="11.91" height="11.91"/>
</g>
<path class="st0" d="M435.69,369.09c-0.13-7.72-6.51-13.86-14.23-13.86H302.92l-19.74,28.43h-27.19h-0.38h-27.19l-19.74-28.43H90.13
	c-7.72,0-14.1,6.14-14.23,13.86c0,0.12,0,0.23,0,0.35v9.97c0,14.86,11.7,27.29,26.55,27.72c0.45,0.01,0.9,0.02,1.36,0.02
	c21.43,0,144.07,0,151.79,0c0.25,0,0.38,0,0.38,0c7.72,0,130.36,0,151.79,0c0.46,0,0.91-0.01,1.36-0.02
	c14.85-0.42,26.55-12.86,26.55-27.72v-9.97C435.69,369.33,435.69,369.21,435.69,369.09z"/>
<circle cx="220.26" cy="202.17" r="11.11"/>
<path class="st0" d="M220.26,124.43h-3.03c-5.9,0-10.52,5.52-9.94,11.9l3.03,33.79c0.5,5.56,4.8,9.8,9.94,9.8l0,0h0
	c5.14,0,9.44-4.24,9.94-9.8l3.03-33.79c0.57-6.38-4.04-11.9-9.94-11.9H220.26z"/>
<path class="st0" d="M122.23,353.07V177.41c0-0.71,0.57-1.28,1.28-1.28h38.04c-0.68-3.58-1.05-7.28-1.05-11.06
	c0-3.73,0.36-7.37,1.03-10.9h-54.86c-5.08,0-9.19,4.12-9.19,9.19v181.79c0,5.08,4.12,9.19,9.19,9.19h16.85
	C122.8,354.35,122.23,353.77,122.23,353.07z"/>
<path class="st0" d="M404.04,154.18H278.12c0.66,3.53,1.03,7.17,1.03,10.9c0,3.78-0.37,7.48-1.05,11.06h109.1
	c0.71,0,1.28,0.57,1.28,1.28v175.66c0,0.71-0.57,1.28-1.28,1.28h16.85c5.08,0,9.19-4.12,9.19-9.19V163.37
	C413.23,158.29,409.11,154.18,404.04,154.18z"/>
<path class="st0" d="M388.38,353.96V178.3c0-0.71-0.57-1.28-1.28-1.28h-109.1c-5.17,27.14-29.02,47.66-57.67,47.66
	c-28.65,0-52.49-20.52-57.67-47.66h-38.04c-0.71,0-1.28,0.57-1.28,1.28v175.66c0,0.71,0.57,1.28,1.28,1.28h262.47
	C387.81,355.23,388.38,354.66,388.38,353.96z"/>
</svg>
