<?xml version="1.0" encoding="utf-8"?>
<!-- Generator: Adobe Illustrator 27.2.0, SVG Export Plug-In . SVG Version: 6.00 Build 0)  -->
<svg version="1.1" id="레이어_1" xmlns="http://www.w3.org/2000/svg" xmlns:xlink="http://www.w3.org/1999/xlink" x="0px"
	 y="0px" viewBox="0 0 512 512" style="enable-background:new 0 0 512 512;" xml:space="preserve">
<style type="text/css">
	.st0{fill:none;stroke:#000000;stroke-width:10;stroke-miterlimit:10;}
</style>
<g>
	<g>
		<path d="M195.99,86.47c10.59,0,19.18,8.59,19.18,19.18s-8.59,19.18-19.18,19.18c-10.59,0-19.18-8.59-19.18-19.18
			S185.4,86.47,195.99,86.47 M195.99,76.47c-16.09,0-29.18,13.09-29.18,29.18s13.09,29.18,29.18,29.18s29.18-13.09,29.18-29.18
			S212.08,76.47,195.99,76.47L195.99,76.47z"/>
	</g>
	<line class="st0" x1="209.9" y1="141.88" x2="205.77" y2="131.52"/>
</g>
<g>
	<g>
		<path d="M316.48,86.47c10.59,0,19.18,8.59,19.18,19.18s-8.59,19.18-19.18,19.18s-19.18-8.59-19.18-19.18
			S305.89,86.47,316.48,86.47 M316.48,76.47c-16.09,0-29.18,13.09-29.18,29.18s13.09,29.18,29.18,29.18s29.18-13.09,29.18-29.18
			S332.57,76.47,316.48,76.47L316.48,76.47z"/>
	</g>
	<line class="st0" x1="299.74" y1="148.4" x2="306.33" y2="131.98"/>
</g>
<g>
	<path d="M406.5,176.95c10.59,0,19.18,8.59,19.18,19.18s-8.59,19.18-19.18,19.18s-19.18-8.59-19.18-19.18
		S395.91,176.95,406.5,176.95 M406.5,166.95c-16.09,0-29.18,13.09-29.18,29.18s13.09,29.18,29.18,29.18s29.18-13.09,29.18-29.18
		S422.59,166.95,406.5,166.95L406.5,166.95z"/>
</g>
<line class="st0" x1="335.28" y1="224.73" x2="380.45" y2="206.67"/>
<g>
	<path d="M406.5,296.87c10.59,0,19.18,8.59,19.18,19.18c0,10.59-8.59,19.18-19.18,19.18s-19.18-8.59-19.18-19.18
		C387.32,305.46,395.91,296.87,406.5,296.87 M406.5,286.87c-16.09,0-29.18,13.09-29.18,29.18s13.09,29.18,29.18,29.18
		s29.18-13.09,29.18-29.18S422.59,286.87,406.5,286.87L406.5,286.87z"/>
</g>
<line class="st0" x1="361.55" y1="298.4" x2="381.8" y2="306.35"/>
<g>
	<path d="M316.51,387.07c10.59,0,19.18,8.59,19.18,19.18s-8.59,19.18-19.18,19.18s-19.18-8.59-19.18-19.18
		S305.92,387.07,316.51,387.07 M316.51,377.07c-16.09,0-29.18,13.09-29.18,29.18s13.09,29.18,29.18,29.18s29.18-13.09,29.18-29.18
		S332.6,377.07,316.51,377.07L316.51,377.07z"/>
</g>
<g>
	<path d="M196.57,387.07c10.59,0,19.18,8.59,19.18,19.18s-8.59,19.18-19.18,19.18s-19.18-8.59-19.18-19.18
		S185.98,387.07,196.57,387.07 M196.57,377.07c-16.09,0-29.18,13.09-29.18,29.18s13.09,29.18,29.18,29.18s29.18-13.09,29.18-29.18
		S212.66,377.07,196.57,377.07L196.57,377.07z"/>
</g>
<line class="st0" x1="206.75" y1="379.77" x2="210.8" y2="370.55"/>
<g>
	<path d="M106.35,296.69c10.59,0,19.18,8.59,19.18,19.18c0,10.59-8.59,19.18-19.18,19.18s-19.18-8.59-19.18-19.18
		C87.17,305.27,95.76,296.69,106.35,296.69 M106.35,286.69c-16.09,0-29.18,13.09-29.18,29.18s13.09,29.18,29.18,29.18
		s29.18-13.09,29.18-29.18S122.44,286.69,106.35,286.69L106.35,286.69z"/>
</g>
<line class="st0" x1="131.89" y1="305.25" x2="178.13" y2="287.3"/>
<g>
	<path d="M106.35,176.95c10.59,0,19.18,8.59,19.18,19.18s-8.59,19.18-19.18,19.18s-19.18-8.59-19.18-19.18
		S95.76,176.95,106.35,176.95 M106.35,166.95c-16.09,0-29.18,13.09-29.18,29.18s13.09,29.18,29.18,29.18s29.18-13.09,29.18-29.18
		S122.44,166.95,106.35,166.95L106.35,166.95z"/>
</g>
<line class="st0" x1="133.4" y1="206.67" x2="178.13" y2="224.73"/>
<line class="st0" x1="164.8" y1="137.68" x2="126.33" y2="175.7"/>
<line class="st0" x1="224.8" y1="106.04" x2="288.48" y2="106.04"/>
<line class="st0" x1="224.8" y1="406.25" x2="288.48" y2="406.25"/>
<line class="st0" x1="106.35" y1="223.4" x2="106.35" y2="287.3"/>
<line class="st0" x1="406.5" y1="223.4" x2="406.5" y2="287.3"/>
<line class="st0" x1="336.75" y1="125.9" x2="386.22" y2="176"/>
<line class="st0" x1="126.97" y1="335.68" x2="176.44" y2="385.79"/>
<line class="st0" x1="335.68" y1="387.07" x2="363.05" y2="359.6"/>
<line class="st0" x1="375.09" y1="347.56" x2="387.21" y2="335.59"/>
<path d="M256.42,162.48h-29.55l6.28,13.73c0.56,1.23,1.79,2.02,3.15,2.02h20.13h20.13c1.35,0,2.58-0.79,3.15-2.02l6.28-13.73H256.42
	z"/>
<path class="st0" d="M220.67,234.5c0,0,32.7-33.9,71.7,0"/>
<path class="st0" d="M237.61,250.77c0,0,17.25-18.3,37.82,0"/>
<rect x="226.7" y="274.1" width="11.62" height="11.62"/>
<rect x="250.86" y="274.1" width="11.62" height="11.62"/>
<rect x="244.75" y="328.21" width="23.35" height="11.62"/>
<path class="st0" d="M346.7,346.25v-67.01c0-0.03,0-0.05,0.01-0.08c0.16-0.87-0.34-16.73-31.66-42.12"/>
<path class="st0" d="M297.84,316.15l-17.1-17.1c-4.03-4.03-5.43-10.14-3.16-15.37c1.02-2.35,2.53-4.06,4.24-5.29
	c5.2-3.74,12.42-2.89,16.95,1.64l17.9,17.9V170.97c0-6.59-5.34-11.92-11.92-11.92h-96.08c-6.59,0-11.92,5.34-11.92,11.92v174.6
	c0,6.59,5.34,11.92,11.92,11.92h90.32v-2.7C284.44,337.4,297.84,316.15,297.84,316.15z"/>
</svg>
