<?xml version="1.0" encoding="utf-8"?>
<!-- Generator: Adobe Illustrator 27.2.0, SVG Export Plug-In . SVG Version: 6.00 Build 0)  -->
<svg version="1.1" id="레이어_1" xmlns="http://www.w3.org/2000/svg" xmlns:xlink="http://www.w3.org/1999/xlink" x="0px"
	 y="0px" viewBox="0 0 512 512" style="enable-background:new 0 0 512 512;" xml:space="preserve">
<style type="text/css">
	.st0{fill:none;stroke:#000000;stroke-width:10;stroke-linecap:round;stroke-miterlimit:10;}
	.st1{fill:none;stroke:#000000;stroke-width:10;stroke-miterlimit:10;}
</style>
<path class="st0" d="M129.3,290.89V91.53c0-5.52,4.48-10,10-10h232.26c5.52,0,10,4.48,10,10v199.36"/>
<line class="st0" x1="129.53" y1="130.04" x2="377.7" y2="130.04"/>
<line class="st0" x1="281.19" y1="105.53" x2="359.83" y2="105.53"/>
<line class="st0" x1="275.06" y1="162.21" x2="237.28" y2="274.55"/>
<g>
	<line class="st0" x1="211.23" y1="185.06" x2="171.4" y2="219.79"/>
	<line class="st0" x1="171.4" y1="220.13" x2="211.23" y2="254.85"/>
</g>
<g>
	<line class="st0" x1="300.78" y1="185.06" x2="340.61" y2="219.79"/>
	<line class="st0" x1="340.61" y1="220.13" x2="300.78" y2="254.85"/>
</g>
<line class="st0" x1="84.65" y1="309.28" x2="425.75" y2="309.28"/>
<line class="st0" x1="240.39" y1="333.28" x2="270.01" y2="333.28"/>
<path class="st0" d="M108.88,118.3H91.81c-5.52,0-10,4.48-10,10v219.49c0,5.52,4.48,10,10,10h327.23c5.52,0,10-4.48,10-10V128.3
	c0-5.52-4.48-10-10-10h-20.13"/>
<path class="st1" d="M328.84,428.77H183.82c-3.25,0-5.63-3.05-4.85-6.2l2.89-11.7c0.55-2.23,2.55-3.8,4.85-3.8h139.23
	c2.3,0,4.3,1.57,4.85,3.8l2.89,11.7C334.47,425.72,332.08,428.77,328.84,428.77z"/>
<g>
	<path class="st0" d="M203.26,405.05c0,0,11.04-7.43,19.46-25.56"/>
	<path class="st0" d="M309.39,405.05c0,0-11.04-7.43-19.46-25.56"/>
</g>
<circle cx="153.91" cy="105.66" r="5.87"/>
<circle cx="178.07" cy="105.66" r="5.87"/>
<circle cx="202.23" cy="105.66" r="5.87"/>
</svg>
