<?xml version="1.0" encoding="utf-8"?>
<!-- Generator: Adobe Illustrator 27.2.0, SVG Export Plug-In . SVG Version: 6.00 Build 0)  -->
<svg version="1.1" id="레이어_1" xmlns="http://www.w3.org/2000/svg" xmlns:xlink="http://www.w3.org/1999/xlink" x="0px"
	 y="0px" viewBox="0 0 512 512" style="enable-background:new 0 0 512 512;" xml:space="preserve">
<style type="text/css">
	.st0{stroke:#FFFFFF;stroke-miterlimit:10;}
</style>
<path class="st0" d="M245.96,268.94c0,0-96-69.45,0-131.23c0,0,60.77-30.64,50.04-81.7c0,0,44.49,60.68-40,105.36
	C256,161.36,200,181.62,245.96,268.94z"/>
<path class="st0" d="M274.38,284.26c0,0,16.34-22.13-4.09-41.87c0,0-57.87-59.57,60.26-102.13c0,0-30.06,22.79-43.95,41.94
	c-5.47,7.55-5.55,17.72-0.44,25.52C296.92,224.1,313.93,260.38,274.38,284.26z"/>
<path class="st0" d="M203.29,276.43c0,0-136.23,37.11,131.69,15.32c0,0-20.65,22.81-131.69,22.81S144.45,269.62,203.29,276.43z"/>
<path class="st0" d="M188.94,323.74c0,0-30.22,29.62,118.77,5.79l16.38,11.91c0,0-97.7,27.91-150.81,0
	C173.28,341.45,159.32,330.55,188.94,323.74z"/>
<path class="st0" d="M200.51,365.96c0,0-6.81,22.47,96.34,6.47l20.43,12.6c0,0-73.37,31.09-129.21,2c-3.06-1.6-5.87-4.12-6.53-7.12
	C180.44,374.96,182.62,368.66,200.51,365.96z"/>
<path class="st0" d="M348.26,277.45c0,0,86.13,7.83-6.13,72.51c0,0,70.81-14.64,60.26-57.19S348.26,277.45,348.26,277.45z"/>
<path class="st0" d="M165.79,395.57c0,0-94.3,19.74,33.36,26.89c127.66,7.15,187.91-15.66,180.43-24.85c0,0,38.47,33.7-148.43,39.15
	S112.34,385.7,165.79,395.57z"/>
<path class="st0" d="M167.49,447.32c0,0,208.34,34.04,232.51-27.57C400,419.74,344.17,454.13,167.49,447.32z"/>
</svg>
