<?xml version="1.0" encoding="utf-8"?>
<!-- Generator: Adobe Illustrator 27.2.0, SVG Export Plug-In . SVG Version: 6.00 Build 0)  -->
<svg version="1.1" id="레이어_1" xmlns="http://www.w3.org/2000/svg" xmlns:xlink="http://www.w3.org/1999/xlink" x="0px"
	 y="0px" viewBox="0 0 512 512" style="enable-background:new 0 0 512 512;" xml:space="preserve">
<style type="text/css">
	.st0{fill:none;stroke:#000000;stroke-width:10;stroke-linecap:round;stroke-miterlimit:10;}
	.st1{fill:none;stroke:#000000;stroke-width:10;stroke-linecap:round;stroke-linejoin:round;stroke-miterlimit:10;}
</style>
<line class="st0" x1="239.83" y1="75.15" x2="239.83" y2="448"/>
<line class="st0" x1="118.04" y1="101.19" x2="140.26" y2="122.64"/>
<line class="st0" x1="140.26" y1="325.38" x2="118.04" y2="346.83"/>
<line class="st0" x1="99.91" y1="224.63" x2="69.03" y2="224.09"/>
<path class="st0" d="M138.72,161.96c0,0,18.38-61.53,101.11-55.91"/>
<path class="st0" d="M129.15,186.72c0,0-29.65,80.56,53.47,136.18c1.6,1.07,2.57,2.85,2.57,4.77v14.55c0,4.08,1.19,8.12,3.62,11.41
	c2.56,3.46,6.8,6.71,13.75,6.71c14.81,0,33.7,0,33.7,0"/>
<path class="st0" d="M200.26,363.4v24.65c0,7.44,2.36,14.75,7.02,20.55c3.52,4.4,8.5,8.16,15.2,8.16h16.09"/>
<line class="st0" x1="242.38" y1="186.72" x2="273.02" y2="117.28"/>
<line class="st0" x1="356.26" y1="152" x2="273.02" y2="117.28"/>
<line class="st0" x1="379.79" y1="209.83" x2="356.77" y2="153.02"/>
<line class="st0" x1="339.23" y1="192" x2="354.55" y2="156.26"/>
<line class="st0" x1="379.53" y1="209.62" x2="339.23" y2="192"/>
<line class="st0" x1="366.98" y1="237.45" x2="379.78" y2="210.04"/>
<line class="st0" x1="243.4" y1="299.57" x2="309.02" y2="326.89"/>
<line class="st0" x1="318.98" y1="324.34" x2="318.98" y2="268.94"/>
<line class="st0" x1="411.91" y1="268.94" x2="318.98" y2="268.94"/>
<line class="st0" x1="341.84" y1="241.69" x2="318.98" y2="267.79"/>
<line class="st0" x1="437.7" y1="241.69" x2="414.84" y2="267.79"/>
<line class="st0" x1="437.7" y1="241.68" x2="342.21" y2="241.68"/>
<line class="st0" x1="415.36" y1="302" x2="415.36" y2="268.94"/>
<line class="st0" x1="439.23" y1="339.4" x2="439.23" y2="241.69"/>
<line class="st0" x1="415.36" y1="330.09" x2="415.36" y2="363.23"/>
<line class="st0" x1="439.23" y1="339.4" x2="415.38" y2="363.26"/>
<line class="st0" x1="363.23" y1="363.23" x2="415.36" y2="363.23"/>
<circle class="st0" cx="318.98" cy="385.62" r="19.66"/>
<polygon class="st1" points="308.77,344.51 311.06,327.15 325.87,327.15 330.41,344.51 340.43,348.6 352.94,339.4 363.23,349.87 
	354.98,363.4 359.57,374.64 374.89,377.7 374.89,393.53 359.32,397.36 354.72,406.81 365.45,419.32 353.19,431.57 341.83,421.36 
	328.94,426.98 326.38,442.55 310.81,442.55 308.77,427.23 297.28,421.36 284.26,431.57 273.28,419.83 281.19,407.32 276.21,394.81 
	261.02,393.28 261.02,377.19 276.21,373.11 280.94,361.62 271.49,349.87 284.77,339.4 297.02,348.34 "/>
<path class="st1" d="M331.74,136.94c0,0-0.26-24.77,26.04-24.77c21.2,0.01,32.68,16.85,28.34,33.45s-21.45,21.45-21.45,21.45"/>
<polyline class="st1" points="306.21,126.47 311.83,114.47 299.32,100.43 311.83,85.87 330.41,95.57 342.21,89.7 345.53,70.04 
	363.91,70.04 370.04,87.91 383.06,93.28 398.64,80.51 412.94,94.04 402.72,109.87 409.62,124.17 429.02,126.47 429.02,146.64 
	410.38,149.45 405.28,163.74 417.02,178.55 405.02,192.85 388.94,184.17 376.17,190.3 "/>
</svg>
