<?xml version="1.0" encoding="utf-8"?>
<!-- Generator: Adobe Illustrator 24.0.1, SVG Export Plug-In . SVG Version: 6.00 Build 0)  -->
<svg version="1.1" id="레이어_1" xmlns="http://www.w3.org/2000/svg" xmlns:xlink="http://www.w3.org/1999/xlink" x="0px"
	 y="0px" viewBox="0 0 512 512" style="enable-background:new 0 0 512 512;" xml:space="preserve">
<g>
	<g>
		<path d="M115.71,257.05c0-14.84-0.04-29.69,0.04-44.53c0.01-2.38-0.37-3.64-3.05-4.47c-11.84-3.65-20.23-14.29-21-26.04
			c-0.85-12.82,5.68-24.34,16.81-29.69c11.38-5.48,24.3-3.62,33.68,5.07c1.68,1.56,2.8,1.74,4.76,0.6
			c25.97-15.08,51.97-30.11,78.01-45.05c2.07-1.19,2.66-2.3,2.12-4.67c-2.81-12.37,2.17-24.75,12.53-31.68
			c10.27-6.87,23.61-6.8,33.79,0.17c10.15,6.95,15.03,19.26,12.28,31.46c-0.52,2.31-0.08,3.45,2.06,4.68
			c25.95,14.86,51.85,29.82,77.69,44.86c2.2,1.28,3.41,1.26,5.37-0.57c9.07-8.47,22.37-10.3,33.39-4.91
			c11.22,5.48,17.68,16.85,16.86,29.67c-0.74,11.62-8.98,22.24-20.61,25.93c-2.88,0.91-3.47,2.18-3.46,4.95
			c0.1,29.56,0.11,59.13-0.01,88.69c-0.01,2.91,0.89,3.97,3.6,4.85c11.59,3.75,19.81,14.39,20.49,26.03
			c0.76,12.85-5.73,24.17-16.98,29.6c-11.07,5.35-24.21,3.46-33.38-5.04c-1.78-1.65-2.94-1.84-5.05-0.61
			c-25.96,15.1-51.97,30.11-78.01,45.05c-1.94,1.11-2.51,2.11-2.01,4.37c3.67,16.83-6.59,32.95-22.93,36.26
			c-16.87,3.42-32.6-7.03-35.94-23.98c-0.8-4.06-0.85-8.22,0.34-12.23c0.65-2.2,0.04-3.28-1.93-4.41
			c-26.15-15.01-52.26-30.11-78.34-45.24c-1.79-1.04-2.86-0.98-4.47,0.5c-8.72,8-18.94,10.4-30.16,6.67
			c-11.06-3.69-17.73-11.65-20.11-23.07c-3.01-14.46,5.85-29.4,20.39-34c2.79-0.88,3.29-2.14,3.27-4.7
			C115.66,286.74,115.71,271.9,115.71,257.05z M362.04,171.05c0.54-1.55-0.97-2.04-2.12-2.7c-26.22-15.15-52.46-30.27-78.65-45.48
			c-1.73-1-2.65-0.82-4.1,0.5c-12.49,11.3-29.18,11.32-41.57,0.04c-1.45-1.32-2.34-1.53-4.08-0.52
			c-26.19,15.2-52.43,30.32-78.68,45.41c-1.8,1.03-2.32,2.06-1.87,4.16c3.44,16.28-4.86,30.71-20.63,35.78
			c-2.09,0.67-2.7,1.51-2.69,3.59c0.06,30.19,0.06,60.38,0,90.57c0,2.06,0.54,2.94,2.66,3.62c15.77,5.04,24.12,19.52,20.67,35.75
			c-0.44,2.07,0.01,3.14,1.83,4.18c26.26,15.08,52.49,30.21,78.69,45.4c1.71,0.99,2.6,0.87,4.08-0.48
			c12.41-11.3,29.22-11.31,41.58-0.04c1.44,1.31,2.34,1.57,4.08,0.56c26.19-15.2,52.42-30.34,78.67-45.43
			c1.8-1.03,2.31-2.06,1.86-4.16c-3.46-16.23,4.89-30.8,20.63-35.76c2.42-0.76,2.69-1.92,2.68-3.98
			c-0.04-29.94-0.05-59.88,0.02-89.82c0.01-2.35-0.59-3.34-3.01-4.13c-11.09-3.6-18.01-11.27-20.59-22.64
			C360.45,180.81,360.68,176.05,362.04,171.05z M139.82,179.24c-0.07-10.04-8.05-17.99-18.05-17.97
			c-10.19,0.01-18.18,8.05-18.16,18.27c0.02,9.96,8.1,18.01,18.07,17.97C131.94,197.46,139.89,189.45,139.82,179.24z M274.46,101.82
			c0.06-10.19-7.96-18.31-18.11-18.34c-9.92-0.03-18.06,8.07-18.08,18c-0.02,10.22,8.03,18.37,18.12,18.34
			C266.39,119.79,274.4,111.81,274.46,101.82z M409.12,179.55c0.06-10.19-7.95-18.26-18.14-18.29c-10-0.03-18.05,7.97-18.08,17.94
			c-0.03,10.26,7.94,18.29,18.13,18.27C401.08,197.46,409.06,189.55,409.12,179.55z M121.67,352.98c10,0.06,18.1-7.9,18.18-17.86
			c0.08-10.25-7.87-18.34-18.05-18.36c-10.05-0.02-18.09,7.87-18.18,17.84C103.53,344.81,111.5,352.92,121.67,352.98z
			 M390.68,352.98c10.01,0.16,18.29-7.73,18.45-17.6c0.17-10.29-7.62-18.45-17.78-18.62c-10.07-0.16-18.2,7.58-18.43,17.57
			C372.68,344.55,380.55,352.82,390.68,352.98z M238.28,412.47c-0.04,10.17,8.02,18.29,18.16,18.3c9.9,0.01,18.02-8.13,18.03-18.06
			c0.01-10.21-8.03-18.31-18.17-18.31C246.41,394.4,238.31,402.52,238.28,412.47z"/>
		<path d="M256.19,152.85c57.45-0.21,104.16,46.31,104.44,103.99c0.28,57.57-46.58,104.55-104.27,104.54
			c-57.58-0.01-104.17-46.57-104.25-104.18C152.03,199.66,198.51,153.06,256.19,152.85z M256.44,251.13
			c9.23,0,18.45-0.04,27.68,0.03c2.04,0.02,3.15-0.16,3.06-2.75c-0.37-11.11-1.64-22.1-3.5-33.05c-0.4-2.33-1.38-2.68-3.48-2.5
			c-15.93,1.4-31.88,1.41-47.8-0.02c-2.26-0.2-3,0.49-3.37,2.65c-1.84,10.82-3.09,21.7-3.47,32.68c-0.09,2.67,0.94,3.02,3.2,3
			C237.99,251.08,247.22,251.13,256.44,251.13z M256.25,263.11c-9.1,0-18.21,0.08-27.31-0.05c-2.46-0.04-3.48,0.38-3.38,3.2
			c0.4,10.86,1.64,21.6,3.42,32.31c0.38,2.29,1.18,3.05,3.6,2.83c15.8-1.43,31.63-1.42,47.43-0.02c2.23,0.2,3.3-0.18,3.71-2.68
			c1.79-10.83,3.09-21.7,3.43-32.68c0.07-2.29-0.52-2.99-2.86-2.96C274.95,263.19,265.6,263.11,256.25,263.11z M188.63,251.13
			c7.35,0,14.71-0.08,22.06,0.05c2.3,0.04,2.97-0.71,3-2.96c0.14-11.61,1.42-23.12,3.56-34.52c0.39-2.07-0.15-2.76-2.3-3.13
			c-10.32-1.73-20.5-4.1-30.28-7.94c-1.68-0.66-2.64-0.37-3.7,1.13c-9.43,13.45-14.87,28.35-16.63,44.66
			c-0.23,2.17,0.45,2.78,2.59,2.75C174.17,251.06,181.4,251.13,188.63,251.13z M188.81,263.11c-7.36,0-14.71,0.06-22.07-0.04
			c-1.99-0.03-2.6,0.59-2.4,2.56c1.71,16.45,7.2,31.46,16.76,45c0.97,1.38,1.87,1.64,3.4,1.04c9.9-3.88,20.19-6.29,30.64-8.03
			c1.98-0.33,2.49-1.02,2.14-2.91c-2.16-11.53-3.46-23.16-3.59-34.9c-0.03-2.49-1.13-2.79-3.19-2.76
			C203.28,263.17,196.05,263.11,188.81,263.11z M323.66,251.13c7.36,0,14.71-0.05,22.06,0.04c2,0.02,2.92-0.35,2.67-2.65
			c-1.77-16.44-7.24-31.46-16.81-44.98c-1.02-1.45-1.97-1.5-3.43-0.93c-9.78,3.82-19.96,6.23-30.28,7.94
			c-2.44,0.4-2.73,1.31-2.33,3.43c2.1,11.29,3.38,22.67,3.5,34.16c0.03,2.55,0.97,3.09,3.3,3.05
			C309.44,251.05,316.55,251.13,323.66,251.13z M324.01,263.11c-7.23,0-14.46,0.09-21.69-0.05c-2.38-0.05-3.25,0.57-3.28,3.07
			c-0.13,11.49-1.4,22.87-3.51,34.16c-0.4,2.15-0.06,3.04,2.35,3.43c10.33,1.69,20.52,4.06,30.28,7.93c1.78,0.7,2.65,0.16,3.65-1.27
			c9.34-13.35,14.75-28.15,16.55-44.31c0.25-2.21-0.19-3.08-2.66-3.03C338.48,263.22,331.24,263.11,324.01,263.11z M256.37,201.83
			c7.24,0.07,14.45-0.23,21.67-0.8c1.88-0.15,2.27-0.58,1.71-2.44c-2.56-8.5-5.6-16.77-10.52-24.23c-1.86-2.83-3.99-5.43-6.79-7.39
			c-4.04-2.83-8.1-2.83-12.14,0c-1.75,1.22-3.25,2.71-4.57,4.39c-6.43,8.2-9.87,17.77-12.84,27.59c-0.62,2.06,0.5,1.93,1.82,2.05
			C241.92,201.66,249.14,201.89,256.37,201.83z M232.6,313.46c2.29,10.65,7.9,23.09,13.19,29.49c7.06,8.55,14.05,8.66,21.01,0.14
			c6.68-8.17,10.07-17.93,13.07-27.87c0.5-1.67-0.21-1.85-1.56-1.96C263.14,312.04,247.97,312.02,232.6,313.46z M321.63,192.21
			c-9.67-10.95-31.14-23.12-42.12-23.92c5.93,9.09,9.55,18.96,12.39,29.16c0.34,1.21,0.82,1.82,2.35,1.57
			C303.44,197.57,312.45,195.44,321.63,192.21z M233.6,167.66c-16.93,4.62-30.73,12.46-42.69,24.52c9.19,3.14,17.85,5.26,26.7,6.7
			c1.95,0.32,2.92,0.04,3.46-1.99C223.71,186.88,227.44,177.31,233.6,167.66z M233.6,346.58c-6.2-9.71-9.91-19.42-12.67-29.52
			c-0.27-1-0.44-2.14-2.17-1.87c-9.3,1.46-18.43,3.56-27.82,6.94C202.96,334.12,216.7,341.99,233.6,346.58z M321.88,322.08
			c-9.4-3.18-18.28-5.39-27.37-6.79c-1.6-0.25-2.28,0.17-2.67,1.61c-2.77,10.18-6.47,19.98-12.73,29.72
			C295.95,342.02,309.71,334.16,321.88,322.08z"/>
	</g>
</g>
</svg>
