<?xml version="1.0" encoding="utf-8"?>
<!-- Generator: Adobe Illustrator 27.2.0, SVG Export Plug-In . SVG Version: 6.00 Build 0)  -->
<svg version="1.1" id="레이어_1" xmlns="http://www.w3.org/2000/svg" xmlns:xlink="http://www.w3.org/1999/xlink" x="0px"
	 y="0px" viewBox="0 0 512 512" style="enable-background:new 0 0 512 512;" xml:space="preserve">
<style type="text/css">
	.st0{fill:none;stroke:#000000;stroke-width:10;stroke-linecap:round;stroke-miterlimit:10;}
	.st1{fill:none;stroke:#000000;stroke-width:10;stroke-miterlimit:10;}
</style>
<g>
	<path class="st0" d="M153.02,122.38v-13.08c0-15,11.5-27.74,26.48-28.7c1.01-0.06,2.05-0.1,3.14-0.1c26.04,0,55.15,0,55.15,0H248"
		/>
	<path class="st0" d="M334.17,122.38v-13.08c0-15-11.5-27.74-26.48-28.7c-1.01-0.06-2.05-0.1-3.14-0.1c-26.04,0-55.15,0-55.15,0
		h-10.21"/>
</g>
<path d="M262.3,112h-35.91c-3.29,0-5.96-2.67-5.96-5.96v0c0-3.29,2.67-5.96,5.96-5.96h35.91c3.29,0,5.96,2.67,5.96,5.96v0
	C268.26,109.33,265.59,112,262.3,112z"/>
<path class="st1" d="M375.28,178.17h-70.34c-10.08,0-18.26-8.17-18.26-18.26v0c0-10.08,8.17-18.26,18.26-18.26h70.34
	c10.08,0,18.26,8.17,18.26,18.26v0C393.53,170,385.36,178.17,375.28,178.17z"/>
<circle class="st1" cx="172.14" cy="220.43" r="77.11"/>
<circle class="st1" cx="172.14" cy="200.17" r="23.6"/>
<path class="st0" d="M154.89,321.7v81.36c0,0-2.04,28.77,28.77,28.77s120.34,0,120.34,0s29.53-1.02,29.53-29.53
	c0-28.51,0-202.13,0-202.13"/>
<line class="st0" x1="184.51" y1="333.28" x2="296.85" y2="333.28"/>
<line class="st0" x1="184.51" y1="358.13" x2="237.96" y2="358.13"/>
<line class="st0" x1="184.51" y1="382.98" x2="273.7" y2="382.98"/>
<circle cx="117.7" cy="333.28" r="5.7"/>
<circle cx="117.7" cy="357.28" r="5.7"/>
<circle cx="117.7" cy="381.28" r="5.7"/>
<g>
	<path class="st1" d="M119.49,272l7.73-10.06c3.12-4.06,7.19-7.34,11.92-9.31c2.8-1.17,6.2-2.14,10.16-2.5
		c0.77-0.07,1.56-0.09,2.33-0.09h19.51"/>
	<path class="st1" d="M223.81,272l-7.88-10.06c-3.18-4.06-7.33-7.34-12.15-9.31c-2.86-1.17-6.32-2.14-10.35-2.5
		c-0.79-0.07-1.59-0.09-2.38-0.09h-19.89"/>
</g>
<path class="st0" d="M338.38,275.06c0,0,30-6.93,37.28,20.68c8.04,30.51-20.17,37.53-20.17,37.53"/>
<path class="st0" d="M345.02,382.98h8.53c1.43,0,2.65-1,2.94-2.4l3.08-15.13l19.4-8.68l12.56,8.38c1.16,0.78,2.71,0.64,3.73-0.32
	l10.8-10.22c1.03-0.97,1.24-2.53,0.5-3.73l-8.96-14.78l7.15-18.38l17.12-2.67c1.46-0.23,2.54-1.49,2.54-2.96v-16.4
	c0-1.44-1.02-2.68-2.43-2.95l-16.2-3.11L398.64,272l9.32-13.91c0.81-1.21,0.64-2.83-0.42-3.84l-12.26-11.73
	c-1.02-0.98-2.59-1.11-3.76-0.32l-13.82,9.36l-16.09-6.64l-3.6-17.27c-0.29-1.39-1.52-2.39-2.94-2.39h-10.31"/>
</svg>
