<?xml version="1.0" encoding="utf-8"?>
<!-- Generator: Adobe Illustrator 27.2.0, SVG Export Plug-In . SVG Version: 6.00 Build 0)  -->
<svg version="1.1" id="레이어_1" xmlns="http://www.w3.org/2000/svg" xmlns:xlink="http://www.w3.org/1999/xlink" x="0px"
	 y="0px" viewBox="0 0 512 512" style="enable-background:new 0 0 512 512;" xml:space="preserve">
<style type="text/css">
	.st0{fill:none;stroke:#000000;stroke-width:10;stroke-miterlimit:10;}
</style>
<circle class="st0" cx="124.02" cy="161.19" r="19.3"/>
<circle class="st0" cx="124.02" cy="353.07" r="19.3"/>
<circle class="st0" cx="388.94" cy="353.07" r="19.3"/>
<circle class="st0" cx="388.94" cy="161.19" r="19.3"/>
<circle class="st0" cx="256.48" cy="94.15" r="19.3"/>
<circle class="st0" cx="256.48" cy="419.57" r="19.3"/>
<circle class="st0" cx="256.48" cy="226.57" r="19.3"/>
<circle class="st0" cx="256.48" cy="290.89" r="83.95"/>
<line class="st0" x1="256.48" y1="372.37" x2="256.48" y2="245.87"/>
<line class="st0" x1="176.06" y1="266.76" x2="337.36" y2="266.76"/>
<line class="st0" x1="176.06" y1="315.03" x2="337.36" y2="315.03"/>
<path class="st0" d="M249.94,374.84c0,0-93.83-68.63-12.3-153.22"/>
<path class="st0" d="M262.59,374.84c0,0,93.83-68.63,12.3-153.22"/>
<line class="st0" x1="141.79" y1="168.74" x2="237.18" y2="215.49"/>
<line class="st0" x1="371.17" y1="168.74" x2="275.78" y2="215.49"/>
<path class="st0" d="M388.46,334.66V181.38c-10.66,0-19.3-8.64-19.3-19.3c0-3.6,1-6.96,2.72-9.84l-97.36-51.8
	c-2.34,8.03-9.74,13.9-18.52,13.9c-8.74,0-16.11-5.81-18.49-13.77l-96.99,52.35c1.47,2.73,2.31,5.85,2.31,9.17
	c0,10.66-8.64,19.3-19.3,19.3v153.28c10.66,0,19.3,8.64,19.3,19.3c0,2.45-0.47,4.78-1.3,6.93l97.35,50.67
	c3.22-6.17,9.67-10.39,17.11-10.39c7.42,0,13.86,4.2,17.08,10.34l97.24-50.98c-0.74-2.05-1.17-4.25-1.17-6.56
	C369.16,343.3,377.8,334.66,388.46,334.66z"/>
<polyline class="st0" points="208.17,136.43 237.18,136.43 237.18,159.4 208.17,159.4 "/>
<polyline class="st0" points="208.17,185.19 237.18,185.19 237.18,159.4 "/>
<line class="st0" x1="262.59" y1="131.45" x2="262.55" y2="188.65"/>
<path class="st0" d="M266.64,183.66h4.91c7.72,0,15.24-2.92,20.65-8.43c3.71-3.79,6.66-8.98,6.36-15.83
	c-0.49-11.33-6.94-17.37-13.3-20.39c-3.77-1.79-7.94-2.59-12.12-2.59h-6.5"/>
</svg>
