<?xml version="1.0" encoding="utf-8"?>
<!-- Generator: Adobe Illustrator 27.2.0, SVG Export Plug-In . SVG Version: 6.00 Build 0)  -->
<svg version="1.1" id="레이어_1" xmlns="http://www.w3.org/2000/svg" xmlns:xlink="http://www.w3.org/1999/xlink" x="0px"
	 y="0px" viewBox="0 0 512 512" style="enable-background:new 0 0 512 512;" xml:space="preserve">
<style type="text/css">
	.st0{fill:none;stroke:#000000;stroke-width:10;stroke-miterlimit:10;}
	.st1{fill:none;stroke:#000000;stroke-width:10;stroke-linecap:round;stroke-miterlimit:10;}
</style>
<path class="st0" d="M122.21,226.04h-21.45c-1.32,0-2.38-1.07-2.38-2.38v-39.83c0-1.32,1.07-2.38,2.38-2.38h21.45
	c1.32,0,2.38,1.07,2.38,2.38v39.83C124.6,224.98,123.53,226.04,122.21,226.04z"/>
<path class="st0" d="M164.17,226.04h-21.45c-1.32,0-2.38-1.07-2.38-2.38V120.17c0-1.32,1.07-2.38,2.38-2.38h21.45
	c1.32,0,2.38,1.07,2.38,2.38v103.49C166.55,224.98,165.49,226.04,164.17,226.04z"/>
<path class="st0" d="M206.13,226.04h-21.45c-1.32,0-2.38-1.07-2.38-2.38V76.94c0-1.32,1.07-2.38,2.38-2.38h21.45
	c1.32,0,2.38,1.07,2.38,2.38v146.72C208.51,224.98,207.44,226.04,206.13,226.04z"/>
<path class="st0" d="M248.09,226.04h-21.45c-1.32,0-2.38-1.07-2.38-2.38V101.11c0-1.32,1.07-2.38,2.38-2.38h21.45
	c1.32,0,2.38,1.07,2.38,2.38v122.55C250.47,224.98,249.4,226.04,248.09,226.04z"/>
<path class="st0" d="M290.04,226.04H268.6c-1.32,0-2.38-1.07-2.38-2.38v-38.13c0-1.32,1.07-2.38,2.38-2.38h21.45
	c1.32,0,2.38,1.07,2.38,2.38v38.13C292.43,224.98,291.36,226.04,290.04,226.04z"/>
<line class="st1" x1="101.19" y1="226.23" x2="289.79" y2="226.23"/>
<circle class="st1" cx="370.17" cy="123.83" r="48.09"/>
<line class="st1" x1="370.17" y1="80" x2="370.17" y2="122.21"/>
<line class="st1" x1="414.64" y1="122.21" x2="372.09" y2="122.21"/>
<line class="st1" x1="335.8" y1="157.45" x2="369.8" y2="123.46"/>
<line class="st1" x1="317.62" y1="217.87" x2="345.15" y2="190.34"/>
<line class="st1" x1="404.77" y1="190.3" x2="345.87" y2="190.3"/>
<line class="st1" x1="100.09" y1="244.43" x2="166.55" y2="244.43"/>
<line class="st1" x1="182.64" y1="244.43" x2="192.85" y2="244.43"/>
<circle class="st1" cx="112.59" cy="286.07" r="11.39"/>
<circle class="st1" cx="208.51" cy="315.59" r="11.39"/>
<circle class="st1" cx="303.82" cy="261.67" r="11.39"/>
<circle class="st1" cx="400.47" cy="304.2" r="11.39"/>
<line class="st1" x1="123.98" y1="286.07" x2="197.18" y2="314.37"/>
<line class="st1" x1="224.26" y1="312.51" x2="289.79" y2="263.83"/>
<line class="st1" x1="316.11" y1="261.62" x2="389.08" y2="299.57"/>
<line class="st1" x1="331.38" y1="309.79" x2="352.8" y2="309.79"/>
<line class="st1" x1="303.82" y1="326.99" x2="354.72" y2="326.99"/>
<line class="st1" x1="75.15" y1="344.51" x2="434.38" y2="344.51"/>
<line class="st1" x1="96.34" y1="364.26" x2="133.32" y2="364.26"/>
<line class="st1" x1="151.49" y1="364.26" x2="162.39" y2="364.26"/>
<line class="st1" x1="119.49" y1="435.74" x2="389.08" y2="435.74"/>
<line class="st1" x1="189.96" y1="430.98" x2="189.96" y2="418.04"/>
<line class="st1" x1="323.06" y1="418.04" x2="189.96" y2="418.04"/>
<line class="st1" x1="323.06" y1="430.98" x2="323.06" y2="418.04"/>
<line class="st1" x1="215.06" y1="415.23" x2="224" y2="386.89"/>
<line class="st1" x1="296.58" y1="415.23" x2="287.64" y2="386.89"/>
<path class="st0" d="M420.17,165.53h-26.11c-7.05,4.05-15.21,6.38-23.93,6.38s-16.88-2.33-23.93-6.38h-95.77v58.13
	c0,1.32-1.07,2.38-2.38,2.38H226.6c-1.32,0-2.38-1.07-2.38-2.38v-58.13h-15.74v58.13c0,1.32-1.07,2.38-2.38,2.38h-21.45
	c-1.32,0-2.38-1.07-2.38-2.38v-58.13h-15.74v58.13c0,1.32-1.07,2.38-2.38,2.38h-21.45c-1.32,0-2.38-1.07-2.38-2.38v-58.13H90.81
	c-8.67,0-15.7,7.03-15.7,15.7v186.89c0,8.67,7.03,15.7,15.7,15.7h329.36c8.67,0,15.7-7.03,15.7-15.7V181.23
	C435.87,172.56,428.84,165.53,420.17,165.53z"/>
</svg>
