<?xml version="1.0" encoding="utf-8"?>
<!-- Generator: Adobe Illustrator 26.0.1, SVG Export Plug-In . SVG Version: 6.00 Build 0)  -->
<svg version="1.1" id="레이어_1" xmlns="http://www.w3.org/2000/svg" xmlns:xlink="http://www.w3.org/1999/xlink" x="0px"
	 y="0px" viewBox="0 0 512 512" style="enable-background:new 0 0 512 512;" xml:space="preserve">
<style type="text/css">
	.st0{fill:#FFFFFF;}
</style>
<g>
	<g>
		<path class="st0" d="M448,448c-127.98,0-255.96,0-384,0c0-127.95,0-255.92,0-384c127.96,0,255.98,0,384,0
			C448,191.95,448,319.97,448,448z M417.3,351.16c0-1.66,0-3.14,0-4.61c0-59.53,0-119.05,0-178.58c0-13.04-7.12-20.22-20.07-20.22
			c-36.81-0.01-73.62-0.04-110.42,0.07c-2.78,0.01-4.1-0.65-5.03-3.43c-8.85-26.49-34.07-44.53-62.02-44.56
			c-28.13-0.03-53.39,18.02-62.27,44.72c-0.9,2.71-2.21,3.28-4.78,3.25c-12.85-0.11-25.7-0.06-38.55-0.05
			c-13.19,0.01-20.27,7.12-20.27,20.39c0,59.53,0,119.05,0,178.58c0,1.46,0,2.92,0,4.71c-2.35,0-4.32-0.05-6.28,0.01
			c-8.92,0.25-16.59,6.69-17.4,15.5c-0.57,6.17-0.69,12.55,0.18,18.66c2.24,15.68,14.6,25.71,30.89,25.71
			c91.33,0.02,182.67,0.01,274,0.01c12.23,0,24.46,0.13,36.68-0.05c14.21-0.21,26.4-10.34,28.57-24.37
			c1.02-6.58,0.96-13.46,0.43-20.13c-0.59-7.48-6.39-13.3-13.84-14.83C424.1,351.33,420.94,351.43,417.3,351.16z"/>
		<path d="M417.3,351.16c3.63,0.27,6.79,0.16,9.8,0.78c7.44,1.54,13.24,7.35,13.84,14.83c0.53,6.67,0.59,13.54-0.43,20.13
			c-2.17,14.03-14.36,24.16-28.57,24.37c-12.22,0.18-24.45,0.05-36.68,0.05c-91.33,0-182.67,0.01-274-0.01
			c-16.29,0-28.66-10.03-30.89-25.71c-0.87-6.11-0.76-12.49-0.18-18.66c0.82-8.81,8.48-15.25,17.4-15.5
			c1.96-0.06,3.93-0.01,6.28-0.01c0-1.79,0-3.25,0-4.71c0-59.53,0-119.05,0-178.58c0-13.26,7.08-20.38,20.27-20.39
			c12.85-0.01,25.7-0.06,38.55,0.05c2.57,0.02,3.88-0.55,4.78-3.25c8.88-26.7,34.14-44.75,62.27-44.72
			c27.95,0.03,53.18,18.07,62.02,44.56c0.93,2.78,2.25,3.44,5.03,3.43c36.81-0.1,73.62-0.07,110.42-0.07
			c12.95,0,20.07,7.17,20.07,20.22c0.01,59.53,0,119.05,0,178.58C417.3,348.03,417.3,349.5,417.3,351.16z M381.2,183.88
			c-0.76-0.08-1.24-0.17-1.72-0.17c-31.31-0.01-62.62,0.03-93.93-0.09c-2.64-0.01-3.03,1.44-3.64,3.23
			c-8.74,25.7-32.76,43.82-59.27,44.73c-27.8,0.95-52.92-14.93-63.57-40.19c-1.05-2.49-1.42-6.06-3.29-7.21
			c-2.1-1.29-5.54-0.46-8.4-0.47c-5.8-0.03-11.61-0.01-17.38-0.01c0,56.16,0,111.76,0,167.53c83.8,0,167.42,0,251.21,0
			C381.2,295.43,381.2,239.83,381.2,183.88z M255.41,399.35c51.64,0,103.29,0.01,154.93-0.01c11.23-0.01,18.83-7.58,18.93-18.72
			c0.03-3.37,0.04-6.74,0-10.11c-0.07-4.88-2.23-7.09-7.12-7.09c-37.67-0.02-75.34-0.04-113.02,0.08c-1.43,0-3.3,1.02-4.21,2.17
			c-4.65,5.86-9.13,11.86-13.51,17.92c-1.93,2.68-4.26,3.84-7.58,3.82c-18.84-0.09-37.67-0.09-56.51,0
			c-3.33,0.02-5.64-1.18-7.56-3.85c-4.23-5.86-8.72-11.54-12.94-17.41c-1.45-2.02-3.01-2.81-5.55-2.8
			c-22.08,0.11-44.16,0.06-66.24,0.06c-15.22,0-30.44-0.02-45.66,0.01c-5.36,0.01-7.42,2.12-7.47,7.49c-0.02,2.62-0.01,5.24,0,7.86
			c0.01,13.52,7.02,20.58,20.45,20.58C153.38,399.35,204.39,399.35,255.41,399.35z M273.56,165.91
			c0.07-29.65-23.98-53.96-53.53-54.1c-29.84-0.13-54.21,23.98-54.28,53.71c-0.07,29.65,24,53.97,53.52,54.1
			C249.1,219.77,273.49,195.63,273.56,165.91z M405.33,351.27c0-1.57,0-2.8,0-4.03c0-59.63,0-119.25,0-178.88
			c0-6.87-1.74-8.62-8.6-8.62c-35.67,0-71.34,0-107.01,0c-1.34,0-2.67,0-4.05,0c0,4.19,0,7.96,0,11.98c1.71,0,3.19,0,4.67,0
			c31.43,0,62.86,0,94.29,0c7.06,0,8.72,1.69,8.72,8.88c0,55.38,0,110.77,0,166.15c0,1.46,0,2.91,0,4.52
			C397.45,351.27,401.14,351.27,405.33,351.27z M153.75,159.73c-1.33,0-2.53,0-3.74,0c-11.85,0-23.69,0-35.54,0
			c-6.87,0-8.61,1.74-8.61,8.6c0,59.62,0,119.23,0,178.85c0,1.32,0,2.65,0,3.96c4.25,0,8.03,0,11.98,0c0-1.76,0-3.25,0-4.74
			c0-55,0-110.01,0-165.01c0-1-0.03-2,0.01-2.99c0.15-4.4,2.32-6.63,6.77-6.68c6.23-0.07,12.47-0.02,18.7-0.02c3.45,0,6.9,0,10.44,0
			C153.75,167.56,153.75,163.86,153.75,159.73z M219.77,363.53c2.9,3.87,5.25,7.23,7.88,10.36c0.72,0.86,2.29,1.43,3.47,1.43
			c16.32,0.09,32.65,0.08,48.97,0.02c1.03,0,2.46-0.21,3.01-0.88c2.8-3.4,5.36-7,8.32-10.94
			C267.28,363.53,243.89,363.53,219.77,363.53z"/>
		<path class="st0" d="M381.2,183.88c0,55.95,0,111.55,0,167.35c-83.79,0-167.41,0-251.21,0c0-55.77,0-111.37,0-167.53
			c5.77,0,11.58-0.02,17.38,0.01c2.86,0.01,6.3-0.82,8.4,0.47c1.87,1.15,2.24,4.72,3.29,7.21c10.64,25.26,35.77,41.14,63.57,40.19
			c26.52-0.91,50.53-19.02,59.27-44.73c0.61-1.79,1-3.24,3.64-3.23c31.31,0.12,62.62,0.08,93.93,0.09
			C379.96,183.71,380.44,183.8,381.2,183.88z M357.41,267.15c0-3.16,0.15-6.4-0.04-9.62c-0.19-3.09-0.31-6.28-1.2-9.2
			c-3.72-12.18-16.26-19.02-28.69-15.94c-12.43,3.09-19.9,15.36-17.51,29.18c1.78,0,3.63,0,5.47,0c1.94,0,3.89,0,6.06,0
			c0-2.6-0.12-4.72,0.02-6.81c0.4-5.98,5.26-10.77,11.16-11.13c6.04-0.37,11.83,3.95,12.5,9.99c0.5,4.51,0.1,9.12,0.1,13.94
			c-11.76,0-23.21-0.02-34.66,0.01c-8.14,0.02-13.08,4.9-13.1,12.99c-0.04,15.21-0.03,30.43,0,45.64
			c0.01,8.41,4.83,13.23,13.23,13.24c15.09,0.03,30.17,0.02,45.26,0c8.62-0.01,13.35-4.8,13.37-13.49
			c0.02-14.47,0.01-28.93,0.01-43.4C369.39,273.05,366.74,269.59,357.41,267.15z M141.96,267.29c32.04,0,63.75,0,95.49,0
			c0-3.96,0-7.65,0-11.52c-31.89,0-63.61,0-95.49,0C141.96,259.67,141.96,263.36,141.96,267.29z M237.46,279.8
			c-32.04,0-63.75,0-95.49,0c0,3.96,0,7.65,0,11.52c31.89,0,63.61,0,95.49,0C237.46,287.43,237.46,283.74,237.46,279.8z
			 M237.45,303.75c-32,0-63.71,0-95.35,0c0,4.04,0,7.82,0,11.54c31.92,0,63.55,0,95.35,0C237.45,311.42,237.45,307.73,237.45,303.75
			z M237.32,339.31c0-4.19,0-7.97,0-11.65c-31.93,0-63.56,0-95.28,0c0,3.98,0,7.76,0,11.65
			C173.9,339.31,205.53,339.31,237.32,339.31z M249.88,255.73c0,4.12,0,7.89,0,11.65c3.97,0,7.65,0,11.49,0c0-3.95,0-7.73,0-11.65
			C257.47,255.73,253.79,255.73,249.88,255.73z M261.43,279.82c-4.12,0-7.89,0-11.65,0c0,3.97,0,7.65,0,11.49c3.95,0,7.73,0,11.65,0
			C261.43,287.41,261.43,283.73,261.43,279.82z M261.44,303.79c-4.15,0-7.93,0-11.65,0c0,3.98,0,7.66,0,11.47c3.96,0,7.74,0,11.65,0
			C261.44,311.35,261.44,307.67,261.44,303.79z M249.86,327.63c0,4.06,0,7.83,0,11.52c4.04,0,7.82,0,11.53,0c0-3.98,0-7.67,0-11.52
			C257.51,327.63,253.83,327.63,249.86,327.63z"/>
		<path class="st0" d="M255.41,399.35c-51.02,0-102.04,0-153.06,0c-13.44,0-20.45-7.06-20.45-20.58c0-2.62-0.02-5.24,0-7.86
			c0.05-5.38,2.11-7.48,7.47-7.49c15.22-0.03,30.44-0.01,45.66-0.01c22.08,0,44.16,0.04,66.24-0.06c2.54-0.01,4.1,0.78,5.55,2.8
			c4.22,5.87,8.71,11.55,12.94,17.41c1.93,2.67,4.23,3.87,7.56,3.85c18.84-0.09,37.67-0.09,56.51,0c3.32,0.02,5.65-1.15,7.58-3.82
			c4.38-6.06,8.86-12.06,13.51-17.92c0.91-1.15,2.78-2.16,4.21-2.17c37.67-0.12,75.34-0.1,113.02-0.08c4.89,0,7.04,2.21,7.12,7.09
			c0.05,3.37,0.04,6.74,0,10.11c-0.1,11.14-7.7,18.71-18.93,18.72C358.7,399.36,307.06,399.35,255.41,399.35z"/>
		<path class="st0" d="M273.56,165.91c-0.07,29.72-24.46,53.86-54.28,53.72c-29.53-0.13-53.59-24.46-53.52-54.1
			c0.07-29.73,24.43-53.85,54.28-53.71C249.57,111.95,273.63,136.26,273.56,165.91z M237.59,136.32
			c0.19-11.44-8.15-18.99-19.36-18.51c-10.2,0.44-17.73,9.3-16.37,19.61c1.54,11.73,3.29,23.44,5.09,35.14
			c1,6.52,6.33,11.06,12.63,11.1c6.3,0.04,11.62-4.48,12.78-10.95c0.46-2.57,0.79-5.17,1.16-7.76
			C234.92,155.09,236.32,145.22,237.59,136.32z M231.62,201.63c-0.02-6.51-5.4-11.91-11.91-11.94c-6.69-0.03-12.13,5.48-12.02,12.18
			c0.11,6.49,5.59,11.82,12.09,11.76C226.28,213.57,231.64,208.14,231.62,201.63z"/>
		<path class="st0" d="M405.33,351.27c-4.18,0-7.88,0-11.98,0c0-1.61,0-3.07,0-4.52c0-55.38,0-110.77,0-166.15
			c0-7.19-1.65-8.88-8.72-8.88c-31.43,0-62.86,0-94.29,0c-1.48,0-2.96,0-4.67,0c0-4.02,0-7.79,0-11.98c1.37,0,2.71,0,4.05,0
			c35.67,0,71.34,0,107.01,0c6.86,0,8.6,1.75,8.6,8.62c0,59.63,0,119.25,0,178.88C405.33,348.46,405.33,349.69,405.33,351.27z"/>
		<path class="st0" d="M153.75,159.73c0,4.13,0,7.82,0,11.98c-3.53,0-6.99,0-10.44,0c-6.24,0-12.47-0.05-18.7,0.02
			c-4.44,0.05-6.62,2.27-6.77,6.68c-0.03,1-0.01,2-0.01,2.99c0,55,0,110.01,0,165.01c0,1.49,0,2.97,0,4.74c-3.95,0-7.73,0-11.98,0
			c0-1.31,0-2.63,0-3.96c0-59.62,0-119.23,0-178.85c0-6.86,1.74-8.6,8.61-8.6c11.85,0,23.69,0,35.54,0
			C151.22,159.73,152.43,159.73,153.75,159.73z"/>
		<path class="st0" d="M219.77,363.53c24.12,0,47.51,0,71.65,0c-2.96,3.94-5.53,7.53-8.32,10.94c-0.55,0.68-1.98,0.88-3.01,0.88
			c-16.32,0.05-32.65,0.07-48.97-0.02c-1.18-0.01-2.74-0.57-3.47-1.43C225.02,370.76,222.67,367.4,219.77,363.53z"/>
		<path d="M357.41,267.15c9.33,2.44,11.98,5.9,11.98,15.4c0,14.47,0.02,28.93-0.01,43.4c-0.01,8.69-4.75,13.47-13.37,13.49
			c-15.09,0.02-30.17,0.03-45.26,0c-8.4-0.02-13.22-4.83-13.23-13.24c-0.03-15.21-0.03-30.43,0-45.64
			c0.02-8.09,4.96-12.96,13.1-12.99c11.45-0.03,22.9-0.01,34.66-0.01c0-4.83,0.4-9.43-0.1-13.94c-0.67-6.04-6.46-10.36-12.5-9.99
			c-5.9,0.36-10.76,5.15-11.16,11.13c-0.14,2.1-0.02,4.21-0.02,6.81c-2.17,0-4.12,0-6.06,0c-1.85,0-3.69,0-5.47,0
			c-2.4-13.82,5.07-26.09,17.51-29.18c12.44-3.09,24.98,3.76,28.69,15.94c0.89,2.92,1.01,6.12,1.2,9.2
			C357.56,260.75,357.41,263.99,357.41,267.15z M357.25,279.81c-16.06,0-31.81,0-47.45,0c0,16.02,0,31.78,0,47.45
			c15.96,0,31.63,0,47.45,0C357.25,311.39,357.25,295.73,357.25,279.81z"/>
		<path d="M141.96,267.29c0-3.93,0-7.63,0-11.52c31.88,0,63.59,0,95.49,0c0,3.86,0,7.56,0,11.52
			C205.71,267.29,174,267.29,141.96,267.29z"/>
		<path d="M237.46,279.8c0,3.94,0,7.63,0,11.52c-31.88,0-63.59,0-95.49,0c0-3.87,0-7.56,0-11.52
			C173.71,279.8,205.42,279.8,237.46,279.8z"/>
		<path d="M237.45,303.75c0,3.98,0,7.67,0,11.54c-31.8,0-63.43,0-95.35,0c0-3.72,0-7.5,0-11.54
			C173.73,303.75,205.45,303.75,237.45,303.75z"/>
		<path d="M237.32,339.31c-31.79,0-63.41,0-95.28,0c0-3.89,0-7.67,0-11.65c31.72,0,63.35,0,95.28,0
			C237.32,331.34,237.32,335.13,237.32,339.31z"/>
		<path d="M249.88,255.73c3.91,0,7.59,0,11.49,0c0,3.92,0,7.7,0,11.65c-3.84,0-7.52,0-11.49,0
			C249.88,263.63,249.88,259.85,249.88,255.73z"/>
		<path d="M261.43,279.82c0,3.91,0,7.59,0,11.49c-3.92,0-7.69,0-11.65,0c0-3.84,0-7.52,0-11.49
			C253.54,279.82,257.31,279.82,261.43,279.82z"/>
		<path d="M261.44,303.79c0,3.88,0,7.56,0,11.47c-3.91,0-7.68,0-11.65,0c0-3.8,0-7.49,0-11.47
			C253.51,303.79,257.29,303.79,261.44,303.79z"/>
		<path d="M249.86,327.63c3.97,0,7.65,0,11.53,0c0,3.85,0,7.54,0,11.52c-3.71,0-7.49,0-11.53,0
			C249.86,335.47,249.86,331.7,249.86,327.63z"/>
		<path d="M237.59,136.32c-1.27,8.9-2.67,18.77-4.07,28.63c-0.37,2.59-0.7,5.19-1.16,7.76c-1.16,6.46-6.48,10.99-12.78,10.95
			c-6.3-0.04-11.63-4.58-12.63-11.1c-1.8-11.7-3.54-23.41-5.09-35.14c-1.36-10.31,6.17-19.17,16.37-19.61
			C229.44,117.33,237.78,124.88,237.59,136.32z M218.94,171.49c0.4,0.01,0.81,0.02,1.21,0.03c0.32-1.36,0.73-2.71,0.93-4.09
			c1.46-9.98,2.84-19.96,4.32-29.94c0.41-2.77,0.46-5.66-2.4-6.77c-1.97-0.77-4.71-0.77-6.69-0.01c-2.87,1.1-2.83,3.99-2.41,6.76
			c1,6.52,1.87,13.06,2.82,19.59C217.44,161.87,218.2,166.68,218.94,171.49z"/>
		<path d="M231.62,201.63c0.02,6.51-5.34,11.94-11.84,12c-6.5,0.07-11.98-5.27-12.09-11.76c-0.11-6.7,5.33-12.21,12.02-12.18
			C226.22,189.72,231.6,195.12,231.62,201.63z"/>
		<path class="st0" d="M357.25,279.81c0,15.92,0,31.59,0,47.45c-15.82,0-31.49,0-47.45,0c0-15.67,0-31.43,0-47.45
			C325.44,279.81,341.19,279.81,357.25,279.81z M327.67,291.66c-0.43,5.86-0.43,5.86-4.06,11.12c-3.59,5.21-2.56,12.03,2.44,16.05
			c4.93,3.96,11.86,3.42,16.18-1.26c4.3-4.66,4.46-11.82-0.2-16.14c-2.22-2.06-2.84-4.09-2.61-6.81c0.08-0.94-0.11-1.9-0.18-2.96
			C335.3,291.66,331.61,291.66,327.67,291.66z"/>
		<path class="st0" d="M218.94,171.49c-0.74-4.81-1.5-9.62-2.21-14.44c-0.96-6.53-1.83-13.07-2.82-19.59
			c-0.42-2.77-0.46-5.66,2.41-6.76c1.98-0.76,4.72-0.75,6.69,0.01c2.86,1.11,2.81,4,2.4,6.77c-1.48,9.97-2.86,19.96-4.32,29.94
			c-0.2,1.38-0.61,2.73-0.93,4.09C219.75,171.51,219.34,171.5,218.94,171.49z"/>
		<path d="M327.67,291.66c3.94,0,7.62,0,11.57,0c0.07,1.06,0.26,2.02,0.18,2.96c-0.23,2.72,0.39,4.75,2.61,6.81
			c4.66,4.32,4.5,11.48,0.2,16.14c-4.32,4.68-11.25,5.22-16.18,1.26c-5-4.02-6.03-10.83-2.44-16.05
			C327.24,297.52,327.24,297.52,327.67,291.66z"/>
	</g>
</g>
</svg>
