<?xml version="1.0" encoding="utf-8"?>
<!-- Generator: Adobe Illustrator 27.2.0, SVG Export Plug-In . SVG Version: 6.00 Build 0)  -->
<svg version="1.1" id="레이어_1" xmlns="http://www.w3.org/2000/svg" xmlns:xlink="http://www.w3.org/1999/xlink" x="0px"
	 y="0px" viewBox="0 0 512 512" style="enable-background:new 0 0 512 512;" xml:space="preserve">
<style type="text/css">
	.st0{fill:none;stroke:#000000;stroke-width:10;stroke-miterlimit:10;}
</style>
<g>
	<circle class="st0" cx="290.18" cy="125.23" r="70.47"/>
	<g>
		<circle class="st0" cx="290.18" cy="105.02" r="19.61"/>
		<path class="st0" d="M257.32,185.45v-23.91c0-4.42,3.58-8,8-8h49.73c4.42,0,8,3.58,8,8v25.19"/>
	</g>
</g>
<g>
	<circle class="st0" cx="214.81" cy="385.4" r="70.47"/>
	<g>
		<circle class="st0" cx="214.81" cy="365.19" r="19.61"/>
		<path class="st0" d="M181.95,445.62V421.7c0-4.42,3.58-8,8-8h49.73c4.42,0,8,3.58,8,8v25.19"/>
	</g>
</g>
<g>
	<circle class="st0" cx="380.26" cy="303.01" r="70.47"/>
	<g>
		<circle class="st0" cx="380.26" cy="282.81" r="19.61"/>
		<path class="st0" d="M347.39,363.23v-23.91c0-4.42,3.58-8,8-8h49.73c4.42,0,8,3.58,8,8v25.19"/>
	</g>
</g>
<g>
	<circle class="st0" cx="125.96" cy="215.47" r="70.47"/>
	<g>
		<circle class="st0" cx="125.96" cy="195.26" r="19.61"/>
		<path class="st0" d="M93.1,275.69v-23.91c0-4.42,3.58-8,8-8h49.73c4.42,0,8,3.58,8,8v25.19"/>
	</g>
</g>
<circle class="st0" cx="125.96" cy="77.96" r="21.44"/>
<circle class="st0" cx="255.8" cy="261.95" r="21.44"/>
<circle class="st0" cx="76.94" cy="384.8" r="21.44"/>
<circle class="st0" cx="358.82" cy="434.42" r="21.44"/>
<circle class="st0" cx="433.84" cy="160.44" r="21.44"/>
<line class="st0" x1="125.96" y1="141.28" x2="125.96" y2="97.36"/>
<line class="st0" x1="177.7" y1="162.72" x2="219.75" y2="127.35"/>
<line class="st0" x1="238.64" y1="248.51" x2="196.43" y2="215.47"/>
<line class="st0" x1="369.02" y1="231.99" x2="332.02" y2="181.93"/>
<line class="st0" x1="416.34" y1="147.06" x2="360.4" y2="119.32"/>
<line class="st0" x1="281.53" y1="356.43" x2="315.71" y2="331.32"/>
<line class="st0" x1="341.11" y1="420.43" x2="285.28" y2="393.87"/>
<line class="st0" x1="101.79" y1="384.8" x2="142.64" y2="384.8"/>
</svg>
