<?xml version="1.0" encoding="utf-8"?>
<!-- Generator: Adobe Illustrator 27.2.0, SVG Export Plug-In . SVG Version: 6.00 Build 0)  -->
<svg version="1.1" id="레이어_1" xmlns="http://www.w3.org/2000/svg" xmlns:xlink="http://www.w3.org/1999/xlink" x="0px"
	 y="0px" viewBox="0 0 512 512" style="enable-background:new 0 0 512 512;" xml:space="preserve">
<style type="text/css">
	.st0{fill:none;stroke:#000000;stroke-width:10;stroke-miterlimit:10;}
	.st1{fill:none;stroke:#000000;stroke-width:10;stroke-linecap:round;stroke-miterlimit:10;}
</style>
<path class="st0" d="M419.32,370.04h-49.53c-5.78,0-10.47-4.69-10.47-10.47V260c0-5.78,4.69-10.47,10.47-10.47h49.53
	c5.78,0,10.47,4.69,10.47,10.47v99.57C429.79,365.36,425.1,370.04,419.32,370.04z"/>
<line class="st0" x1="359.32" y1="273.02" x2="424.68" y2="273.02"/>
<line class="st0" x1="359.32" y1="346.55" x2="427.23" y2="346.55"/>
<line class="st1" x1="250.55" y1="321.02" x2="337.36" y2="321.02"/>
<line class="st1" x1="256" y1="201.53" x2="375.15" y2="201.53"/>
<line class="st1" x1="274.04" y1="223.49" x2="274.04" y2="238.81"/>
<line class="st1" x1="274.04" y1="259.74" x2="274.04" y2="300.6"/>
<line class="st1" x1="310.3" y1="346.55" x2="322.04" y2="346.55"/>
<line class="st1" x1="87.66" y1="284.77" x2="227.06" y2="284.77"/>
<line class="st1" x1="201.53" y1="309.79" x2="216.34" y2="309.79"/>
<line class="st1" x1="155.06" y1="370.04" x2="227.06" y2="370.04"/>
<line class="st1" x1="105.53" y1="262.3" x2="105.53" y2="226.04"/>
<line class="st1" x1="105.53" y1="201.53" x2="105.53" y2="189.79"/>
<path class="st1" d="M334.3,157.11c0,0,1.53-15.83-14.81-16.85c-14.83-0.93-188.2-0.17-220.15-0.02c-4.92,0.02-9.76,1.56-13.62,4.62
	c-2.93,2.32-5.23,4.85-5.21,9.7c0.03,9.72,0.01,163.74,0.01,163.74s-1.54,16,19.91,16c19.91,0,128.17,0,128.17,0"/>
<path class="st1" d="M167.49,370.04c0,0,16.34-13.96,17.36-35.74"/>
<path class="st1" d="M381.96,229.45v-39.66c0,0,0.51-14.72-14.72-14.72H264.45c-3.2,0-6.38,0.74-9.15,2.32
	c-3.24,1.86-6.49,5.1-6.49,10.65v166.34c0,5.81,3.06,11.33,8.22,14.01c1.9,0.99,4.16,1.65,6.8,1.65c10.55,0,74.89,0,74.89,0"/>
</svg>
