<?xml version="1.0" encoding="utf-8"?>
<!-- Generator: Adobe Illustrator 24.0.1, SVG Export Plug-In . SVG Version: 6.00 Build 0)  -->
<svg version="1.1" id="레이어_1" xmlns="http://www.w3.org/2000/svg" xmlns:xlink="http://www.w3.org/1999/xlink" x="0px"
	 y="0px" viewBox="0 0 512 512" style="enable-background:new 0 0 512 512;" xml:space="preserve">
<g>
	<g>
		<path d="M430.04,257.4c0,35.05,0,70.1,0,105.15c0,13.22-7.1,20.32-20.32,20.33c-5.24,0-10.48,0.12-15.71-0.06
			c-2.24-0.08-3.34,0.73-4.23,2.69c-2.64,5.82-6.23,11.05-10.23,16.02c-2.25,2.8-4.79,4.31-8.42,3.19
			c-5.82-1.81-10.91-1.22-15.64,3.27c-3.04,2.88-7.11,4.64-11.12,6.02c-2.68,0.92-4.26,2.46-4.72,5.11
			c-1.37,7.93-6.15,11.04-14.05,11.32c-7.51,0.27-14.92,0.3-22.35-0.92c-3.36-0.55-5.63-2.13-6.39-5.38
			c-1.42-6.08-4.47-10.27-10.84-12.23c-3.46-1.07-6.73-3.37-9.53-5.77c-3-2.58-6.02-3.23-9.51-1.98
			c-6.35,2.27-10.69,0.03-14.17-5.43c-2.68-4.2-5.72-8.2-7.75-12.76c-1.06-2.39-2.42-3.17-5.04-3.16
			c-29.44,0.1-58.88,0.06-88.31,0.06c-6.17,0-8.98-1.83-9.05-5.89c-0.07-4.17,2.83-6.09,9.23-6.09c28.56,0,57.13-0.04,85.69,0.06
			c2.73,0.01,4.44-0.88,6.38-2.82c3.75-3.74,5.19-7.7,4.11-12.95c-1.01-4.92-0.31-9.97,0.36-14.9c0.27-1.95-0.14-3.24-1.36-4.69
			c-7.97-9.5-7.94-9.52-2.59-20.64c2.88-5.98,6.48-11.49,10.66-16.65c2.26-2.79,4.82-4.29,8.44-3.13c5.84,1.88,10.91,1.1,15.62-3.3
			c2.87-2.68,6.66-4.43,10.45-5.68c3.18-1.05,4.96-2.96,5.67-6.16c0.32-1.45,1.04-2.8,1.48-4.23c0.98-3.18,3.01-4.85,6.38-5.44
			c9.44-1.64,18.83-1.63,28.27-0.02c3.37,0.58,5.66,2.2,6.38,5.41c1.38,6.15,4.59,10.2,10.86,12.19c3.34,1.06,6.55,3.23,9.21,5.59
			c3.19,2.83,6.42,3.4,10.2,2.09c5.84-2.02,9.87-0.08,13.35,4.92c4.73,6.79,8.82,13.84,11.83,21.56c1.28,3.28,1.09,6.25-1.53,8.56
			c-4.83,4.23-6.26,9.2-5.11,15.53c0.82,4.49,0.37,9.21-0.49,13.77c-0.28,1.47,0.2,2.5,0.97,3.75c3.45,5.56,7.94,8.44,14.77,7.26
			c2.91-0.5,5.97-0.05,8.97-0.09c5.08-0.07,7.22-2.2,7.22-7.36c0.03-17.71,0.01-35.42,0.01-53.14c0-36.17-0.05-72.35,0.08-108.52
			c0.01-3.6-0.63-4.75-4.57-4.74c-63.37,0.15-126.73,0.11-190.1,0.1c-6.13,0-8.96-1.88-8.99-5.96c-0.03-4.08,2.84-6.02,8.92-6.02
			c63.49,0,126.98-0.03,190.47,0.08c3.42,0.01,4.35-0.86,4.27-4.27c-0.24-9.97-0.07-19.96-0.09-29.93
			c-0.01-5.81-2.02-7.77-7.92-7.79c-3.24-0.01-6.49,0.08-9.73-0.03c-3.8-0.13-6.31-2.63-6.26-6.03c0.04-3.39,2.56-5.78,6.41-5.89
			c3.61-0.1,7.23-0.05,10.85-0.02c10.93,0.09,18.6,7.68,18.62,18.63c0.05,24.7,0.02,49.4,0.02,74.09
			C430.04,235.2,430.04,246.3,430.04,257.4z M264.81,307.28c-1.36-0.36-2.06,0.57-2.69,1.55c-1.76,2.72-3.64,5.37-5.21,8.19
			c-3.95,7.11-3.99,7.23,1.33,13.23c2.36,2.67,3.26,5.41,2.53,8.88c-1.51,7.17-1.49,14.37-0.02,21.54c0.67,3.28,0.24,6.14-2.27,8.59
			c-1.25,1.21-2.16,2.76-3.42,3.96c-1.49,1.42-1.78,2.78-0.74,4.59c1.67,2.91,3.08,5.98,4.83,8.85c3.76,6.16,3.84,6.21,10.78,4.73
			c3.92-0.84,7.15-0.37,10.29,2.53c5.18,4.77,11.34,8.15,18.03,10.35c3.25,1.07,5.21,2.89,6.36,6.16c2.91,8.31,3.02,8.27,12.02,8.35
			c0.87,0.01,1.75-0.01,2.62-0.02c7.84-0.16,7.99-0.12,10.39-7.4c1.24-3.76,3.3-6.07,7.16-7.3c6.85-2.17,12.94-5.86,18.26-10.68
			c2.34-2.12,4.83-2.73,7.89-2.28c9.37,1.37,9.38,1.32,14.14-7.07c0.31-0.54,0.6-1.09,0.9-1.64c3.55-6.67,3.68-6.78-1.26-12.35
			c-2.62-2.95-3.68-5.89-2.83-9.85c1.58-7.28,1.28-14.64-0.16-21.92c-0.53-2.69,0.07-4.82,1.77-6.91c6.29-7.73,6.26-7.76,1.07-16.43
			c-0.32-0.53-0.67-1.05-1-1.58c-3.91-6.24-3.93-6.31-11.08-4.83c-3.78,0.78-6.94,0.36-9.97-2.44c-5.37-4.96-11.76-8.38-18.7-10.67
			c-2.84-0.94-4.57-2.6-5.62-5.43c-3.3-8.94-3.38-8.91-13.14-8.88c-0.5,0-1,0.02-1.5,0.03c-7.98,0.15-8.13,0.1-10.63,7.59
			c-1.27,3.8-3.49,6.04-7.32,7.17c-4.56,1.35-8.97,3.4-12.57,6.45C279.04,307.39,273.05,311.47,264.81,307.28z"/>
		<path d="M240.87,131.37c46.03,0,92.07,0,138.1,0c1.25,0,2.52-0.12,3.74,0.07c3.25,0.5,5.14,2.46,5.35,5.76
			c0.2,3.08-2.17,5.7-5.41,6.08c-1.36,0.16-2.74,0.07-4.11,0.07c-91.57,0-183.14,0-274.71,0c-7.61,0-9.14,1.53-9.14,9.2
			c0,9.36,0.17,18.72-0.08,28.07c-0.1,3.59,0.59,4.78,4.56,4.76c33.43-0.19,66.87-0.11,100.3-0.11c1.25,0,2.52-0.12,3.73,0.09
			c3.23,0.58,5.18,2.57,5.19,5.88c0.01,3.31-1.95,5.3-5.16,5.9c-1.21,0.22-2.49,0.1-3.73,0.1c-33.56,0-67.12,0.04-100.68-0.06
			c-3.03-0.01-4.23,0.38-4.22,3.94c0.14,53.89,0.09,107.79,0.1,161.68c0,6.15,1.92,8.08,7.99,8.1c3.24,0.01,6.49-0.08,9.73,0.04
			c3.77,0.14,6.28,2.7,6.2,6.09c-0.08,3.24-2.52,5.7-6.11,5.8c-4.36,0.12-8.74,0.21-13.1-0.04c-9.07-0.51-16.27-8.03-16.67-17.14
			c-0.05-1.12-0.03-2.25-0.03-3.37c0-70.11,0-140.22,0-210.33c0-13.56,6.97-20.59,20.43-20.59
			C149.05,131.37,194.96,131.37,240.87,131.37z"/>
		<path d="M155.33,221.22c2.05,0.15,3.96,1.26,4.9,3.51c1.05,2.51,0.58,4.89-1.36,6.88c-4.69,4.83-9.37,9.65-14.07,14.47
			c-3.91,4.01-7.88,7.98-11.76,12.03c-3.44,3.58-3.43,6.45,0.06,10.05c7.89,8.14,15.82,16.24,23.74,24.36
			c0.35,0.36,0.71,0.7,1.05,1.06c3.39,3.55,3.77,7.2,1.01,9.78c-2.75,2.58-6.05,2.15-9.45-1.31c-4.72-4.79-9.41-9.62-14.11-14.43
			c-3.92-4.01-7.92-7.95-11.72-12.06c-6.86-7.43-6.9-17.6,0.07-24.94c8.66-9.13,17.55-18.04,26.34-27.04
			C151.38,222.19,152.91,221.17,155.33,221.22z"/>
		<path d="M244.41,262.96c-0.06,4.65-1.5,8.85-4.74,12.22c-8.9,9.24-17.87,18.43-26.88,27.56c-2.91,2.95-6.39,3.01-8.91,0.45
			c-2.44-2.47-2.28-5.96,0.6-8.95c8.14-8.42,16.35-16.78,24.52-25.17c4.66-4.78,4.65-7.15-0.02-11.96
			c-8.17-8.39-16.38-16.74-24.52-25.17c-3.26-3.38-2.93-7.77,0.61-9.86c2.59-1.53,5.14-1.19,7.19,0.89
			c9.43,9.59,18.86,19.2,28.13,28.95C243.22,254.91,244.28,258.82,244.41,262.96z"/>
		<path d="M195.29,234.18c-1.85,7.07-3.78,14.53-5.75,21.98c-3.17,12.02-6.37,24.04-9.56,36.06c-0.19,0.72-0.39,1.44-0.64,2.15
			c-1.18,3.43-4.05,5.24-7.11,4.51c-3.3-0.79-5.23-3.85-4.33-7.49c1.88-7.61,3.95-15.16,5.95-22.74
			c3.04-11.54,6.09-23.09,9.14-34.63c0.25-0.96,0.45-1.96,0.84-2.86c1.3-3.01,3.64-4.51,6.86-3.76
			C193.89,228.13,195.37,230.46,195.29,234.18z"/>
		<path d="M115.72,155.35c4.92,0.04,8.97,4.2,8.88,9.12c-0.09,4.92-4.31,8.94-9.21,8.79c-4.76-0.14-8.69-4.17-8.7-8.94
			C106.68,159.41,110.81,155.31,115.72,155.35z"/>
		<path d="M145.56,155.35c4.92-0.02,9.02,4.09,8.99,9.01c-0.03,4.91-4.2,8.98-9.1,8.9c-4.76-0.08-8.73-4.07-8.8-8.83
			C136.56,159.51,140.64,155.37,145.56,155.35z"/>
		<path d="M184.47,164.83c-0.3,4.91-4.68,8.76-9.56,8.41c-4.9-0.35-8.71-4.78-8.31-9.66c0.39-4.75,4.62-8.47,9.37-8.23
			C180.88,155.6,184.77,159.93,184.47,164.83z"/>
		<path d="M136.58,376.83c0.03,3.24-2.66,5.98-5.9,6.02c-3.24,0.03-5.98-2.66-6.01-5.91c-0.03-3.26,2.64-5.98,5.9-6.01
			C133.81,370.9,136.54,373.58,136.58,376.83z"/>
		<path d="M353.21,349.95c-0.01,19.86-16.01,35.91-35.84,35.94c-19.92,0.03-36.28-16.36-36.09-36.15
			c0.19-19.81,16.34-35.8,36.12-35.74C337.25,314.05,353.22,330.09,353.21,349.95z M317.31,373.91c13.31-0.01,24-10.77,23.93-24.08
			c-0.07-13.35-10.77-23.92-24.14-23.86c-13.05,0.06-23.77,10.81-23.83,23.88C293.2,363.03,304.08,373.92,317.31,373.91z"/>
	</g>
</g>
</svg>
