<?xml version="1.0" encoding="utf-8"?>
<!-- Generator: Adobe Illustrator 24.0.1, SVG Export Plug-In . SVG Version: 6.00 Build 0)  -->
<svg version="1.1" id="레이어_1" xmlns="http://www.w3.org/2000/svg" xmlns:xlink="http://www.w3.org/1999/xlink" x="0px"
	 y="0px" viewBox="0 0 512 512" style="enable-background:new 0 0 512 512;" xml:space="preserve">
<g>
	<g>
		<path d="M232.47,97.11c-0.38-14.52,10.5-25.69,24.06-25.62c13.52,0.07,24.45,11.4,23.64,25.01c-0.2,3.38,0.88,4.66,3.68,6.04
			c27.68,13.71,55.29,27.54,82.86,41.47c2.5,1.26,3.93,1.03,6.06-0.78c7.65-6.51,16.37-7.8,25.45-3.53
			c9.06,4.26,13.83,11.78,13.76,21.78c-0.07,10.02-5.03,17.42-14.18,21.45c-3.11,1.37-3.77,2.92-3.76,6.04
			c0.1,45.66,0.1,91.31,0,136.97c-0.01,2.76,0.69,4.03,3.35,5.17c9.22,3.93,14.32,11.18,14.58,21.19
			c0.27,10.16-4.49,17.84-13.67,22.21c-9.21,4.39-18.04,2.99-25.75-3.67c-1.93-1.67-3.17-1.89-5.41-0.77
			C339,384.22,310.8,398.3,282.6,412.34c-1.86,0.93-2.66,1.8-2.46,4.19c1.19,14.42-9.76,26.28-23.91,26.21
			c-13.96-0.07-24.77-11.9-23.63-26.13c0.18-2.31-0.43-3.29-2.36-4.25c-28.44-14.15-56.85-28.36-85.24-42.62
			c-1.71-0.86-2.69-0.76-4.16,0.55c-7.83,7-16.78,8.7-26.32,4.21c-9.19-4.32-13.99-11.99-13.73-22.16
			c0.26-10.53,5.84-17.77,15.53-21.71c1.87-0.76,2.38-1.64,2.37-3.51c-0.04-46.65-0.05-93.31,0.02-139.96c0-2.14-0.79-2.9-2.68-3.69
			c-9.5-3.98-14.96-11.19-15.24-21.54c-0.28-10.17,4.49-17.86,13.67-22.2c9.52-4.5,18.48-2.85,26.33,4.14
			c1.43,1.28,2.4,1.52,4.15,0.64c28.38-14.26,56.77-28.52,85.27-42.56C233.27,100.45,232.59,98.46,232.47,97.11z M214.6,213.27
			c-0.58-0.44-0.85-0.72-1.17-0.88c-22.84-11.42-45.69-22.82-68.5-34.29c-1.75-0.88-2.82-0.74-4.15,0.65
			c-2.09,2.19-4.66,3.83-7.53,4.74c-1.99,0.63-2.68,1.56-2.68,3.69c0.06,46.65,0.06,93.3,0.01,139.95c0,1.88,0.5,2.76,2.37,3.51
			c10.64,4.28,16.4,13.47,15.44,24.7c-0.19,2.18,0.47,3.05,2.25,3.94c28.43,14.15,56.84,28.34,85.22,42.59
			c1.82,0.91,2.85,0.85,4.46-0.59c9.7-8.68,22.42-8.64,32.15,0.04c1.4,1.25,2.37,1.62,4.15,0.72c28.49-14.33,57-28.6,85.55-42.81
			c1.87-0.93,2.32-1.91,2.15-4c-0.91-10.82,4.61-20.1,14.52-24.16c2.69-1.1,3.34-2.42,3.34-5.17c-0.09-45.9-0.1-91.81,0.01-137.71
			c0.01-2.85-0.75-4.29-3.47-5.07c-2.41-0.69-4.63-2.08-6.26-3.96c-1.76-2.03-3.23-1.81-5.42-0.71
			c-22.01,11.1-44.09,22.09-66.13,33.14c-0.91,0.46-2.14,0.6-2.54,1.83c40.25,21.94,55.59,67.07,43.99,105.59
			c-11.06,36.74-45.72,63.24-83.85,63.81c-40.01,0.61-74.95-24.21-87.55-61.81C158.54,283.86,172.37,235.87,214.6,213.27z
			 M363.83,160.46c2.5-4.1-0.82-5.03-3.54-6.39c-27.62-13.8-55.25-27.59-82.84-41.47c-2.16-1.09-3.45-1.13-5.42,0.66
			c-9.01,8.15-21.94,8.31-30.95,0.25c-2.41-2.15-4.01-1.77-6.39-0.57c-26.25,13.19-52.47,26.44-78.87,39.32
			c-5.13,2.5-8.64,4.79-7.51,11.3c0.36,2.07,0.56,3.24,2.48,4.19c28.19,14.03,56.36,28.11,84.51,42.24c2.1,1.05,3.41,1.2,5.42-0.61
			c9.16-8.26,22.18-8.29,31.24-0.06c2.14,1.94,3.54,1.69,5.75,0.58c26.92-13.54,53.86-27.03,80.84-40.44
			C362.36,167.57,366.26,166.08,363.83,160.46z M262.36,292.96c0,5.1,0.08,10.21-0.04,15.31c-0.05,2.03,0.44,2.82,2.66,2.8
			c9.71-0.11,19.41-0.07,29.12-0.03c1.7,0.01,2.6-0.27,2.92-2.3c1.65-10.42,1.67-20.79,0.05-31.21c-0.34-2.15-1.27-2.49-3.16-2.47
			c-9.58,0.08-19.17,0.12-28.75-0.02c-2.42-0.04-2.91,0.81-2.84,3C262.46,283,262.36,287.98,262.36,292.96z M250.39,293.19
			c0-4.99-0.11-9.98,0.05-14.97c0.07-2.34-0.48-3.24-3.04-3.19c-9.48,0.15-18.96,0.13-28.44,0.01c-2.14-0.03-3,0.52-3.33,2.76
			c-1.54,10.33-1.55,20.6,0.13,30.92c0.33,2.01,1.2,2.34,2.93,2.33c9.73-0.05,19.46-0.07,29.19,0.01c1.94,0.02,2.61-0.53,2.56-2.52
			C250.3,303.42,250.38,298.3,250.39,293.19z M192.03,311.02c3.23,0,6.47-0.08,9.7,0.03c1.87,0.07,2.31-0.55,2-2.38
			c-1.72-10.39-1.68-20.81-0.1-31.21c0.27-1.8-0.01-2.43-1.92-2.4c-6.22,0.08-12.44,0.1-18.66-0.01c-1.86-0.03-2.62,0.62-2.98,2.42
			c-2.05,10.39-2.05,20.75,0.07,31.13c0.34,1.67,0.95,2.6,2.93,2.47C186.05,310.88,189.04,311.02,192.03,311.02z M320.22,311.02
			c3.11,0,6.22-0.1,9.33,0.04c1.82,0.08,2.68-0.53,3.04-2.33c2.13-10.5,2.15-20.99,0.02-31.49c-0.27-1.35-0.76-2.19-2.41-2.18
			c-6.47,0.08-12.94,0.05-19.4,0.02c-1.35-0.01-2.05,0.23-1.78,1.89c1.71,10.64,1.72,21.3-0.04,31.94
			c-0.29,1.73,0.32,2.17,1.91,2.13C314,310.96,317.11,311.01,320.22,311.02z M262.36,365.61c0.95-0.57,1.38-0.77,1.74-1.06
			c1.73-1.43,3.48-2.84,5.13-4.35c10.47-9.6,18.28-20.99,23.25-34.33c0.68-1.84,1.07-2.95-1.67-2.92
			c-8.73,0.11-17.46,0.09-26.18,0.01c-1.84-0.02-2.31,0.65-2.3,2.39C262.39,338.56,262.36,351.77,262.36,365.61z M219.31,323
			c6.2,17.61,16.36,31.35,31.08,42.79c0-13.79,0-26.63,0-39.48c0-0.37-0.04-0.75,0-1.12c0.16-1.54-0.37-2.23-2.07-2.22
			C238.85,323.03,229.38,323,219.31,323z M327.9,263.1c-4.49-13.44-17.43-28.42-31.38-36.7c-3.65-2.17-7.43-4.05-11.37-5.64
			c-0.99-0.4-1.99-0.62-2.75,0.27c-0.71,0.84,0.23,1.32,0.67,1.8c10.35,11.13,17.87,23.91,22.45,38.41
			c0.39,1.22,0.86,1.89,2.27,1.88C314.4,263.07,321,263.1,327.9,263.1z M184.69,263.11c6.47,0,12.53-0.13,18.58,0.06
			c2.53,0.08,3.63-0.65,4.42-3.14c4.27-13.61,11.5-25.55,20.99-36.16c0.71-0.79,2.6-1.42,1.57-2.84c-1.02-1.42-2.53-0.31-3.74,0.2
			c-13.4,5.59-24.42,14.25-33.01,25.96C189.99,251.98,186.92,257.05,184.69,263.11z M184.5,323c9.95,22.03,25.82,36.47,48.74,44.41
			c-16.8-20.63-16.83-20.62-26.05-42.73c-0.65-1.55-1.49-1.7-2.79-1.69C198.05,323.01,191.69,323,184.5,323z M328.24,322.99
			c-6.82,0-13.01,0.1-19.2-0.05c-2.26-0.06-3.23,0.7-3.88,2.84c-3.56,11.67-9.34,22.2-17.02,31.66c-2.58,3.18-5.37,6.19-8.74,10.05
			C302.49,359.36,318.38,344.95,328.24,322.99z M234.12,236.1c-6.44,7.8-10.88,16.08-14.21,25c-0.53,1.42-0.16,2.04,1.45,2.03
			c9.1-0.04,18.2-0.03,27.31-0.02c1,0,1.71-0.22,1.7-1.41c-0.01-3.37-0.02-6.73,0-10.1c0.01-1.31-0.91-1.6-1.88-1.94
			C241.92,247.33,237.33,242.82,234.12,236.1z M278.61,236.05c-2.3,4.99-5.04,9.57-9.66,11.12c-6.85,2.3-7.22,6.93-6.58,12.59
			c0.04,0.37,0.05,0.75,0,1.12c-0.25,1.89,0.72,2.27,2.4,2.26c8.73-0.06,17.46-0.06,26.19,0c1.81,0.01,2.53-0.35,1.78-2.33
			C289.4,252.01,284.97,243.87,278.61,236.05z M256.18,107.4c6.5,0.1,12.01-5.2,12.15-11.69c0.15-6.5-5.11-12.05-11.59-12.24
			c-6.66-0.2-12.29,5.21-12.34,11.87C244.36,101.83,249.7,107.3,256.18,107.4z M136.59,161.14c-0.09-6.49-5.54-11.83-12.04-11.8
			c-6.51,0.04-11.88,5.43-11.89,11.94c-0.01,6.64,5.58,12.13,12.22,11.99C131.37,173.14,136.68,167.64,136.59,161.14z
			 M388.05,149.34c-6.5,0.03-11.88,5.43-11.89,11.93c-0.01,6.5,5.35,11.93,11.84,12c6.64,0.06,12.17-5.48,12.09-12.13
			C400,154.65,394.55,149.31,388.05,149.34z M268.34,227.03c-0.07-6.49-5.52-11.84-12.02-11.82c-6.5,0.03-11.89,5.42-11.91,11.92
			c-0.02,6.65,5.55,12.14,12.2,12.01C263.09,239.02,268.41,233.53,268.34,227.03z M136.59,353.1c0.09-6.5-5.22-11.99-11.71-12.13
			c-6.51-0.13-12.04,5.12-12.22,11.61c-0.18,6.65,5.25,12.28,11.89,12.32C131.05,364.94,136.51,359.58,136.59,353.1z M388.24,340.97
			c-6.52-0.07-11.98,5.24-12.09,11.74c-0.11,6.51,5.16,12.02,11.64,12.19c6.64,0.17,12.26-5.29,12.28-11.93
			C400.1,346.47,394.74,341.04,388.24,340.97z M268.34,418.88c0.04-6.5-5.3-11.95-11.79-12.04c-6.52-0.09-12,5.19-12.14,11.69
			c-0.14,6.65,5.33,12.24,11.97,12.23C262.88,430.76,268.29,425.38,268.34,418.88z"/>
		<path d="M256.37,160.94c0-8.85-0.01-17.7,0.01-26.55c0-1.37-0.57-3.14,1.97-3.03c7.21,0.32,14.47-0.7,21.64,0.64
			c14.99,2.82,25.42,16.56,24.2,31.74c-1.21,15.09-13.82,27.07-29.01,27.47c-5.23,0.14-10.47-0.08-15.7,0.09
			c-2.38,0.08-3.21-0.55-3.16-3.07C256.47,179.14,256.37,170.04,256.37,160.94z M268.35,161.42c0,5.1-0.03,10.19,0.02,15.29
			c0.01,0.98-0.48,2.15,1.26,2.59c10.56,2.67,22.19-6.09,22.64-17.16c0.48-11.84-10.78-21.21-22.48-18.82
			c-1.73,0.35-1.43,1.4-1.43,2.44C268.34,150.97,268.35,156.2,268.35,161.42z"/>
		<path d="M244.4,161.32c0,8.85-0.08,17.71,0.05,26.56c0.04,2.44-0.36,3.5-3.17,3.45c-9.97-0.18-19.95-0.14-29.92-0.02
			c-2.29,0.03-2.93-0.6-2.95-2.92c-0.08-9.11-0.17-9.11,9.04-9.11c3.99,0,7.98-0.09,11.97,0.04c2.1,0.07,3.04-0.29,3.07-2.78
			c0.11-9.23,0.22-9.23-8.93-9.23c-4.11,0-8.23-0.1-12.34,0.04c-2.05,0.07-2.76-0.47-2.81-2.67c-0.22-9.35-0.3-9.35,9.18-9.35
			c4.11,0,8.23-0.09,12.34,0.04c1.98,0.06,2.48-0.61,2.54-2.55c0.32-9.47,0.38-9.47-9.05-9.47c-3.99,0-7.98-0.1-11.97,0.04
			c-2.13,0.07-3.03-0.33-3.06-2.8c-0.1-9.21-0.21-9.21,8.95-9.21c7.86,0,15.71,0.12,23.57-0.06c2.72-0.06,3.63,0.56,3.56,3.45
			C244.27,143.61,244.4,152.46,244.4,161.32z"/>
	</g>
</g>
</svg>
