<?xml version="1.0" encoding="utf-8"?>
<!-- Generator: Adobe Illustrator 24.0.1, SVG Export Plug-In . SVG Version: 6.00 Build 0)  -->
<svg version="1.1" id="레이어_1" xmlns="http://www.w3.org/2000/svg" xmlns:xlink="http://www.w3.org/1999/xlink" x="0px"
	 y="0px" viewBox="0 0 512 512" style="enable-background:new 0 0 512 512;" xml:space="preserve">
<g>
	<g>
		<path d="M64.75,371.65c2.35-5.73,6.7-7.56,12.75-7.54c39.41,0.15,78.83,0.08,118.24,0.08c7.26,0,9.67,1.63,12.41,8.4
			c1.87,4.62,3.8,9.21,5.54,13.87c0.66,1.76,1.54,2.45,3.5,2.44c26.07-0.07,52.14-0.07,78.2,0c1.98,0.01,2.85-0.74,3.51-2.47
			c1.96-5.12,4.08-10.17,6.1-15.26c1.87-4.71,5.27-7.01,10.37-7.01c40.54,0.02,81.07,0,121.61,0.02c7.17,0,11,3.91,11.02,11.19
			c0.03,15.09,0.03,30.18,0.01,45.28c-0.02,14.43-7.35,23.82-21.46,27.58c-0.35,0.09-0.66,0.34-0.99,0.51
			c-112.78,0-225.56,0-338.34,0c-3.96-1.34-7.98-2.47-11.46-5c-6.03-4.37-9.18-10.48-11-17.46
			C64.75,408.08,64.75,389.86,64.75,371.65z M256.25,429.15c54.25,0,108.51,0,162.76,0c7.15,0,9.38-2.24,9.38-9.41
			c0.01-10.6-0.16-21.21,0.1-31.8c0.09-3.61-1.16-4.25-4.43-4.24c-32.93,0.11-65.85,0.13-98.78-0.03c-3.36-0.02-4.85,1.06-5.88,4.09
			c-1.61,4.71-3.62,9.28-5.49,13.89c-1.84,4.51-5.1,6.83-10.09,6.83c-31.68-0.04-63.36-0.04-95.04,0
			c-4.97,0.01-8.27-2.23-10.09-6.79c-2.04-5.09-4.14-10.15-6.1-15.26c-0.7-1.83-1.6-2.72-3.77-2.72c-33.8,0.07-67.6,0.08-101.4,0
			c-2.53-0.01-3.14,0.85-3.12,3.24c0.11,10.6,0.04,21.2,0.05,31.8c0,8.54,1.83,10.4,10.27,10.4
			C148.49,429.15,202.37,429.15,256.25,429.15z"/>
		<path d="M256.17,200.33c-45.28,0-90.56,0-135.84,0c-7.84,0-9.73,1.88-9.73,9.7c0,31.56,0,63.12,0,94.67
			c0,8.23-3.5,12.77-9.8,12.74c-6.24-0.02-9.82-4.68-9.82-12.79c0-31.81-0.01-63.61,0-95.42c0.01-17.62,10.83-28.47,28.41-28.48
			c7.36-0.01,14.72-0.18,22.07,0.08c3.24,0.11,3.98-0.99,3.86-4.01c-0.23-5.6-0.12-11.22-0.04-16.84c0.09-6.46,2.55-9.54,8.86-11.13
			c4.47-1.12,8.96-2.13,13.44-3.22c4.76-1.15,7.55-7.73,5.03-11.84c-2.47-4.04-5.02-8.03-7.43-12.11c-2.89-4.89-2.4-9.21,1.63-13.24
			c7.41-7.4,14.89-14.75,22.41-22.04c3.92-3.8,8.13-4.21,12.97-1.42c4.42,2.56,8.76,5.25,13.17,7.83
			c3.32,1.94,10.37-1.07,11.35-4.83c1.22-4.7,2.32-9.43,3.54-14.13c1.48-5.71,4.84-8.33,10.79-8.35c10.35-0.04,20.71-0.05,31.06,0
			c5.75,0.03,9.08,2.61,10.54,8.14c1.28,4.81,2.42,9.66,3.66,14.49c0.94,3.68,8.14,6.68,11.44,4.74c4.19-2.46,8.33-5.01,12.52-7.47
			c5.41-3.18,9.43-2.79,13.86,1.52c7.33,7.13,14.62,14.31,21.86,21.53c4.14,4.13,4.65,8.53,1.66,13.55
			c-2.49,4.17-5.1,8.27-7.63,12.42c-2.15,3.52,0.66,10.27,4.64,11.24c4.84,1.18,9.69,2.34,14.51,3.59
			c5.65,1.46,8.19,4.55,8.31,10.38c0.12,5.86,0.16,11.73-0.02,17.59c-0.08,2.7,0.6,3.67,3.51,3.6c8.1-0.21,16.21-0.13,24.32-0.06
			c14.93,0.13,26.41,11.35,26.46,26.26c0.12,33.18,0.06,66.36,0.03,99.54c-0.01,6.42-4.15,10.89-9.84,10.89
			c-5.73,0-9.73-4.36-9.74-10.91c-0.04-32.06-0.02-64.11-0.02-96.17c0-8.32-1.74-10.03-10.15-10.03
			C346.72,200.33,301.44,200.33,256.17,200.33z M324.29,180.74c6.98,0,13.97-0.06,20.95,0.04c1.94,0.03,2.67-0.56,2.58-2.54
			c-0.13-2.99-0.17-5.99,0.01-8.98c0.13-2.05-0.73-2.84-2.59-3.25c-4.25-0.94-8.47-2.07-12.72-3.03c-4.03-0.92-6.62-3.36-7.8-7.25
			c-1.5-4.91-3.46-9.6-5.9-14.1c-2.01-3.73-1.88-7.38,0.37-10.98c2.25-3.59,4.38-7.26,6.71-10.8c1.09-1.66,1.03-2.77-0.48-4.14
			c-2.95-2.68-5.84-5.45-8.54-8.39c-1.54-1.68-2.75-1.51-4.47-0.41c-3.57,2.28-7.27,4.35-10.88,6.56c-3.63,2.21-7.27,2.28-11,0.3
			c-4.52-2.4-9.23-4.33-14.15-5.78c-3.89-1.14-6.39-3.7-7.35-7.72c-1.01-4.24-2.14-8.45-3.11-12.7c-0.43-1.89-1.32-2.62-3.33-2.55
			c-4.11,0.15-8.23,0.15-12.34,0c-2.04-0.07-2.82,0.73-3.24,2.63c-0.9,4.13-2.06,8.21-3.03,12.33c-0.98,4.15-3.52,6.8-7.56,7.98
			c-4.92,1.44-9.64,3.35-14.17,5.74c-3.75,1.98-7.4,1.76-11-0.43c-3.73-2.27-7.54-4.4-11.21-6.75c-1.57-1-2.59-0.87-3.85,0.45
			c-2.86,2.96-5.77,5.88-8.82,8.64c-1.57,1.42-1.42,2.52-0.37,4.13c2.26,3.43,4.3,7.01,6.51,10.48c2.37,3.71,2.57,7.44,0.44,11.3
			c-2.42,4.37-4.37,8.95-5.81,13.74c-1.26,4.19-4.04,6.69-8.37,7.62c-4.02,0.86-7.97,2.03-11.99,2.85c-2.03,0.42-3.04,1.14-2.9,3.41
			c0.19,2.98,0.12,5.99,0.02,8.98c-0.06,1.84,0.4,2.66,2.47,2.65c14.09-0.08,28.19-0.07,42.28,0c2.03,0.01,2.58-0.63,2.31-2.61
			c-0.52-3.86-0.18-7.74,0.63-11.53c4.99-23.48,26.46-39.02,49.5-35.88c23.37,3.19,39.84,23.27,38.63,47.3
			c-0.11,2.26,0.53,2.74,2.6,2.71C310.32,180.68,317.31,180.74,324.29,180.74z M256.17,180.74c7.23,0,14.46-0.07,21.68,0.04
			c2.15,0.03,3.12-0.54,3.29-2.84c0.74-10.22-2.87-18.44-11.53-23.92c-8.67-5.48-17.79-5.49-26.46-0.01
			c-8.66,5.48-12.29,13.68-11.55,23.91c0.17,2.28,1.09,2.9,3.26,2.87C241.97,180.67,249.07,180.74,256.17,180.74z"/>
		<path d="M221.84,324.88c-1.75,0.08-2.74-0.78-3.81-1.33c-17.71-9.1-35.37-18.29-53.13-27.3c-2.27-1.15-2.64-2.52-2.97-4.84
			c-0.89-6.42,1.47-9.8,7.48-12.66c16.62-7.91,32.84-16.66,49.18-25.15c2.35-1.22,3.47-1.45,3.29,1.85c-0.22,4.1-0.2,8.23,0,12.33
			c0.12,2.38-0.83,3.5-2.89,4.51c-9.72,4.75-19.36,9.68-29.03,14.55c-1.08,0.55-2.14,1.14-3.69,1.97
			c11.02,5.54,21.5,10.92,32.1,16.04c2.6,1.26,3.72,2.62,3.54,5.61C221.62,315.18,221.84,319.92,221.84,324.88z"/>
		<path d="M290.92,325.36c0-6.01,0.08-11.47-0.04-16.93c-0.05-2.06,1.42-2.42,2.7-3.06c9.8-4.9,19.62-9.76,29.43-14.64
			c1.1-0.55,2.17-1.16,3.78-2.02c-4.8-2.42-9.21-4.65-13.63-6.85c-6.57-3.28-13.13-6.59-19.76-9.77c-1.8-0.86-2.62-1.89-2.53-3.98
			c0.17-4.11,0.21-8.24,0-12.34c-0.17-3.25,0.69-3.56,3.46-2.12c14.58,7.59,29.24,15.05,43.87,22.55c3.33,1.71,6.6,3.53,10,5.06
			c2.03,0.91,2.28,2.3,2.61,4.31c1.16,7.09-1.81,10.66-8.25,13.7c-16.55,7.81-32.67,16.53-48.97,24.88
			C292.93,324.49,292.25,324.76,290.92,325.36z"/>
		<path d="M232.18,326.6c5.38-13.99,10.51-27.32,15.64-40.64c5.62-14.62,11.29-29.22,16.81-43.88c0.88-2.35,2-3.32,4.58-3.16
			c3.85,0.24,7.72,0.19,11.58,0.02c2.74-0.12,3.09,0.64,2.11,3.13c-7.29,18.64-14.46,37.33-21.67,56
			c-3.31,8.58-6.7,17.14-9.91,25.76c-0.76,2.05-1.71,2.92-4,2.84C242.49,326.47,237.65,326.6,232.18,326.6z"/>
		<path d="M412.01,350.13c-6.02-0.01-10.61-4.71-10.51-10.76c0.09-5.77,4.8-10.39,10.58-10.38c5.91,0.02,10.62,4.86,10.52,10.82
			C422.51,345.65,417.89,350.15,412.01,350.13z"/>
		<path d="M100.55,350.13c-5.89-0.14-10.54-5.07-10.32-10.93c0.22-5.68,5.02-10.25,10.72-10.2c5.9,0.05,10.55,4.86,10.45,10.8
			C111.3,345.78,106.59,350.27,100.55,350.13z"/>
	</g>
</g>
</svg>
