<?xml version="1.0" encoding="utf-8"?>
<!-- Generator: Adobe Illustrator 27.2.0, SVG Export Plug-In . SVG Version: 6.00 Build 0)  -->
<svg version="1.1" id="레이어_1" xmlns="http://www.w3.org/2000/svg" xmlns:xlink="http://www.w3.org/1999/xlink" x="0px"
	 y="0px" viewBox="0 0 512 512" style="enable-background:new 0 0 512 512;" xml:space="preserve">
<style type="text/css">
	.st0{fill:none;stroke:#000000;stroke-width:10;stroke-linecap:round;stroke-miterlimit:10;}
</style>
<path class="st0" d="M88.68,200c0,0-52.56,69.04,19.53,121.21c9.66,6.99,21.28,10.79,33.21,10.79h83.59"/>
<path class="st0" d="M103.49,187.91c0,0,16-14.3,40.85-14.64c19.03-0.26,74.39-0.12,99.28-0.04c11.08,0.04,22.05,2.25,32.26,6.56
	c17.77,7.5,41.94,22.39,48.21,49.32c0,0,7.15,29.62-2.72,46.3"/>
<path class="st0" d="M364.68,433.3h-61.79c-43.01,0-77.87-34.86-77.87-77.87v0c0-43.01,34.86-77.87,77.87-77.87h61.79
	c43.01,0,77.87,34.86,77.87,77.87v0C442.55,398.44,407.69,433.3,364.68,433.3z"/>
<path class="st0" d="M423.15,211.06c0,0,30.98-41.19,14.98-83.06s-74.55-69.79-122.21-37.79s-31.66,90.21-31.66,90.21"/>
<path class="st0" d="M326.59,229.45c0,0,38.69,17.89,79.2-5.18"/>
<path class="st0" d="M322.67,341.15c0,0-11.57-15.36-33.15-8.72c-2.99,0.92-5.71,2.74-7.68,4.47c-11.94,10.51-12.95,29.09-2,40.63
	c4.31,4.54,10.59,8.05,19.72,8.05c0,0,16.85,0.26,23.11-11.49"/>
<line class="st0" x1="370.04" y1="307.74" x2="348.85" y2="405.53"/>
<line class="st0" x1="392.77" y1="308" x2="371.57" y2="407.32"/>
<line class="st0" x1="342.72" y1="340.43" x2="401.7" y2="340.43"/>
<line class="st0" x1="336.85" y1="373.62" x2="395.32" y2="373.62"/>
<line class="st0" x1="179.32" y1="226.3" x2="179.32" y2="279.15"/>
<line class="st0" x1="215.04" y1="226.3" x2="215.04" y2="279.15"/>
<line class="st0" x1="179.32" y1="252.72" x2="213.79" y2="252.72"/>
<line class="st0" x1="129.28" y1="280.43" x2="129.28" y2="228.09"/>
<path class="st0" d="M129.28,227.45h14.98c6.06,0,11.65,3.59,13.84,9.24c0.22,0.56,0.41,1.14,0.58,1.74
	c2.62,9.39-4.77,18.63-14.52,18.63h-9.79"/>
<line class="st0" x1="241.04" y1="280.43" x2="241.04" y2="228.09"/>
<path class="st0" d="M241.04,227.45h14.98c6.06,0,11.65,3.59,13.84,9.24c0.22,0.56,0.41,1.14,0.58,1.74
	c2.62,9.39-4.77,18.63-14.52,18.63h-9.79"/>
<path class="st0" d="M320.51,176.68c0,0,7.49,9.36,15.2,3.72c2.86-2.09,4.71-5.28,4.71-8.83V126.3"/>
<path class="st0" d="M400.17,138.89c0,0-18.26-12.17-27.82-5.32c-3.4,2.43-4.79,6.78-3.97,10.88c0.57,2.87,2.21,6.14,6.43,7.89
	c10.89,4.52,24.51,8.68,22.13,20.78c-2.3,11.67-24.51,12.78-33.7,0"/>
</svg>
