<?xml version="1.0" encoding="utf-8"?>
<!-- Generator: Adobe Illustrator 24.0.1, SVG Export Plug-In . SVG Version: 6.00 Build 0)  -->
<svg version="1.1" id="레이어_1" xmlns="http://www.w3.org/2000/svg" xmlns:xlink="http://www.w3.org/1999/xlink" x="0px"
	 y="0px" viewBox="0 0 512 512" style="enable-background:new 0 0 512 512;" xml:space="preserve">
<g>
	<g>
		<path d="M239.91,448.75c-3.44-1.46-4.63-4.06-4.47-7.73c0.21-4.98-0.05-9.98,0.1-14.97c0.07-2.27-0.59-3.08-2.93-2.99
			c-4.48,0.18-8.99,0.22-13.4-0.85c-14.21-3.44-24.03-15.74-24.19-30.38c-0.09-7.86-0.1-15.72,0.03-23.58
			c0.04-2.25-0.49-3.44-2.72-4.5c-7.54-3.58-11.43-9.76-11.58-18.15c-0.08-4.24-0.12-8.49,0.03-12.72c0.08-2.22-0.55-3.56-2.55-4.8
			c-30.52-19.03-49.39-46.23-56.2-81.54c-3.72-19.3-2.53-38.47,3.24-57.31c0.88-2.88,2.64-4.6,5.65-4.42
			c2.69,0.16,4.74,1.57,5.46,4.34c0.49,1.92-0.44,3.67-0.93,5.45c-5.33,19.04-5.71,38.18-0.68,57.28
			c7.88,29.92,25.35,52.7,52.16,68.16c3.7,2.14,5.4,4.69,5.14,8.99c-0.29,4.85-0.08,9.73-0.07,14.59
			c0.02,7.58,3.14,10.76,10.59,10.78c9.73,0.02,19.46-0.1,29.19,0.07c2.86,0.05,3.8-0.61,3.77-3.65
			c-0.15-17.34-0.07-34.68-0.07-52.02c0-59.88-0.04-119.76,0.09-179.64c0.01-3.81-1.03-4.48-4.58-4.08
			c-33.94,3.82-60.73,19.62-80.42,47.5c-0.5,0.71-0.97,1.46-1.5,2.14c-2.24,2.88-5.13,3.48-7.8,1.63c-2.82-1.95-3.4-5.06-1.36-8.19
			c5.47-8.4,11.9-16.02,19.31-22.77c20.82-18.97,45.29-29.57,73.4-31.62c2.28-0.17,2.96-0.82,2.92-3.07
			c-0.13-6.86-0.08-13.72-0.03-20.58c0.03-4.47,2.01-6.82,5.64-6.85c3.62-0.03,5.62,2.31,5.62,6.79
			c0.02,26.82,0.01,53.64,0.01,80.46c0,1.37,0,2.74,0,4.3c1.65-0.45,1.66-1.9,2.1-2.91c6.54-14.81,13.02-29.65,19.53-44.47
			c2.53-5.75,4.71-6.59,10.54-4.06c6.97,3.03,13.9,6.15,20.91,9.06c1.08,0.45,2.71,2.64,3.64,0.4c0.84-2.03,3.21-4.1,0.95-6.8
			c-2.72-3.25-5.27-6.64-7.83-10.03c-2.64-3.5-2.55-5.68,0.4-8.96c3.83-4.27,7.69-8.52,11.59-12.73c2.88-3.12,5.2-3.42,8.93-1.17
			c3.42,2.05,6.78,4.2,10.19,6.27c3.32,2.02,10.06-1.05,10.66-4.91c0.65-4.19,1.17-8.39,1.68-12.6c0.43-3.58,2.6-5.28,5.99-5.49
			c6.1-0.37,12.21-0.62,18.31-0.91c3.52-0.16,5.66,1.56,6.48,4.93c1.03,4.24,1.95,8.5,3.01,12.73c0.73,2.89,8.05,5.53,10.45,3.76
			c3.41-2.52,6.71-5.18,10.1-7.72c3.47-2.6,5.67-2.51,8.98,0.4c4.21,3.71,8.39,7.45,12.55,11.23c3.53,3.21,3.8,5.32,1.25,9.48
			c-1.95,3.19-3.98,6.33-5.95,9.51c-2.34,3.76,0.84,10.35,5.27,10.93c3.96,0.51,7.91,1.07,11.87,1.49c3.75,0.39,5.56,2.51,5.77,6.12
			c0.36,5.98,0.68,11.95,0.96,17.93c0.17,3.65-1.62,5.88-5.16,6.71c-4.12,0.96-8.26,1.88-12.37,2.9c-3.59,0.89-5.97,7.84-3.71,10.8
			c2.42,3.17,4.93,6.27,7.34,9.45c2.69,3.54,2.65,5.72-0.24,8.97c-3.81,4.29-7.66,8.54-11.57,12.74c-3.09,3.31-5.25,3.53-9.25,1.14
			c-2.03-1.22-4.27-2.22-6-3.78c-4.26-3.85-8.41-3.57-13.03-0.69c-1.53,0.96-1.82,1.6-1.19,3.14c1.43,3.45,2.69,6.97,4.13,10.42
			c0.98,2.34,0.9,4.5-0.15,6.83c-2.98,6.58-5.7,13.28-8.75,19.82c-1.24,2.65-0.52,3.03,2.06,3.02c19.71-0.07,39.42-0.05,59.13-0.04
			c6.52,0,8.27,1.7,8.28,8.15c0.01,30.56-0.02,61.13,0.05,91.69c0.01,3.22-1,5.69-3.24,8c-6.94,7.17-13.76,14.46-20.53,21.79
			c-2.18,2.36-4.54,3.46-7.85,3.43c-13.85-0.13-27.69-0.01-41.54,0.03c-0.58,0-1.17,0.11-1.8,0.62c2.27,0.45,4.55,0.87,6.82,1.35
			c3.25,0.68,4.96,2.65,4.96,6.03c0.01,4.99,0.03,9.98,0.06,14.97c0.02,3.58-1.89,5.53-5.26,6.2c-2.57,0.51-5.15,0.9-7.73,1.38
			c-5.32,1-6.93,4.82-3.9,9.18c1.57,2.25,3.15,4.49,4.7,6.76c1.87,2.74,1.78,5.4-0.56,7.8c-3.58,3.66-7.19,7.28-10.85,10.85
			c-2.28,2.22-4.89,2.33-7.51,0.66c-2.31-1.48-4.51-3.12-6.77-4.68c-4.7-3.25-8.58-1.63-9.48,3.93c-0.34,2.09-0.82,4.16-1.05,6.27
			c-0.32,2.94-1.65,5.15-4.19,6.64c-6.49,0-12.97,0-19.46,0c-2.41-1.59-3.83-3.72-4.12-6.68c-0.2-2.1-0.76-4.16-1.12-6.25
			c-0.98-5.73-4.9-7.32-9.75-3.93c-2.15,1.5-4.3,2.99-6.47,4.45c-2.63,1.77-5.22,1.64-7.49-0.55c-3.77-3.63-7.49-7.33-11.12-11.09
			c-2.18-2.26-2.37-4.85-0.58-7.49c1.47-2.17,2.97-4.31,4.46-6.46c3.45-4.98,1.81-8.82-4.22-9.86c-2.45-0.42-4.89-0.94-7.35-1.35
			c-3.5-0.59-5.22-2.75-5.28-6.19c-0.09-4.99-0.1-9.98-0.04-14.96c0.05-3.31,1.8-5.34,5.07-5.97c2.57-0.5,5.14-0.94,7.72-1.4
			c5.79-1.03,7.28-4.78,3.86-9.7c-1.42-2.05-2.86-4.08-4.27-6.14c-2.07-3.02-1.8-5.8,0.81-8.39c3.37-3.33,6.71-6.69,10.05-10.05
			c2.6-2.62,5.41-2.81,8.4-0.75c2.67,1.84,5.29,3.74,7.99,5.54c1.67,1.12,6.24-0.13,7.19-1.87c1.79-3.28,1.04-6.79-1.75-8.01
			c-16.75-7.36-33.51-14.71-50.27-22.06c-4.48-1.96-4.48-1.96-4.48,2.77c0,42.77-0.04,85.54,0.06,128.31
			c0.01,3.55-0.72,6.31-3.94,8.08C241.9,448.75,240.9,448.75,239.91,448.75z M246.77,244.61c0,15.71,0.06,31.42-0.06,47.14
			c-0.02,2.6,0.7,3.93,3.19,5c19.67,8.47,39.26,17.11,58.87,25.7c3.86,1.69,3.89,1.68,3.9-2.4c0.01-15.96,0-31.92,0.01-47.88
			c0-3.17,0.46-6.11,2.84-8.6c7.34-7.65,14.56-15.4,21.79-23.15c1.73-1.86,3.73-2.75,6.28-2.7c4.86,0.08,9.73-0.1,14.59,0.08
			c2.44,0.09,3.76-0.54,4.72-2.99c2.27-5.79,4.8-11.49,7.48-17.1c1.2-2.51,1.12-3.68-1.75-4.87c-9.77-4.07-19.4-8.46-29.07-12.74
			c-6.6-2.92-7.33-4.86-4.36-11.58c4.22-9.57,8.32-19.19,12.75-28.67c1.31-2.8,0.57-3.64-1.97-4.75c-21.81-9.46-43.6-19-65.3-28.7
			c-2.92-1.3-3.73-0.41-4.8,2.08c-9.21,21.25-18.52,42.45-27.85,63.64c-0.88,2-1.27,3.96-1.27,6.13
			C246.8,213.68,246.77,229.14,246.77,244.61z M366.82,359.42c13.72,0,27.04-0.04,40.36,0.03c2.47,0.01,2.43-1.45,2.43-3.18
			c-0.02-8.1-0.06-16.21,0.03-24.31c0.04-3.74,2.02-5.8,5.3-5.94c3.41-0.14,5.74,2.03,5.93,5.78c0.15,2.86-0.02,5.74,0.07,8.6
			c0.1,3.11-0.36,6.27,0.4,9.9c3.53-3.74,6.55-7.06,9.72-10.23c1.61-1.61,2.28-3.31,2.27-5.62c-0.07-24.19-0.04-48.38-0.07-72.56
			c0-1.01,0.52-2.23-0.85-3.2c-3.15,3.36-6.22,6.77-9.47,10.01c-1.54,1.54-2.07,3.17-2.04,5.31c0.1,8.85,0.01,17.7,0.04,26.56
			c0.01,2.98-0.74,5.5-3.86,6.53c-3.99,1.32-7.37-1.23-7.43-5.74c-0.1-7.85-0.11-15.71,0.01-23.56c0.04-2.42-0.38-3.51-3.21-3.5
			c-26.43,0.11-52.86,0.09-79.3,0.02c-2.27-0.01-3.06,0.6-2.91,2.94c0.23,3.73,0.17,7.48,0.16,11.22
			c-0.05,10.6-0.15,21.19-0.17,31.79c0,1.32-0.73,3.23,1.76,3.31c4.72,0.16,6.39,3.11,6.82,7.32c0.19,1.85,0.64,3.68,1.01,5.51
			c1.17,5.87,4.83,7.39,9.7,4.03c2.05-1.41,4.12-2.81,6.16-4.24c3.02-2.12,5.81-1.81,8.4,0.75c2.04,2.02,4.06,4.05,6.09,6.08
			C371.28,350.16,371.28,350.16,366.82,359.42z M359.14,108.65c14.03-0.09,26.81,9.22,31.07,22.63
			c4.28,13.47-0.76,28.11-12.23,36.49c-2.49,1.82-7.09,1.88-7.34,5.19c-0.22,2.91,2.24,5.95,3.19,9.04
			c0.81,2.67,2.13,2.98,4.32,1.69c0.75-0.44,1.68-0.63,2.32-1.18c5.49-4.66,10.66-3.52,15.71,0.75c0.38,0.32,0.84,0.53,1.27,0.79
			c6.1,3.77,6.03,3.71,10.81-1.59c1.41-1.57,1.77-2.6,0.22-4.34c-2.4-2.69-4.43-5.71-6.72-8.51c-1.96-2.4-2.25-4.88-0.84-7.62
			c1.71-3.34,3.04-6.82,3.78-10.51c0.64-3.17,2.53-4.97,5.71-5.62c3.66-0.75,7.28-1.67,10.92-2.48c1-0.22,1.82-0.41,2.1-1.69
			c1.43-6.38-0.37-8.93-6.9-9.58c-0.25-0.02-0.5-0.06-0.75-0.06c-7.14,0.03-12.67-2.19-14.09-10.13c-0.06-0.36-0.24-0.72-0.43-1.03
			c-5.88-9.41-5.15-8.17,0.89-17.88c3.89-6.25,3.85-6.16-1.82-11.05c-1.59-1.37-2.57-1.26-4.08,0c-2.77,2.32-5.77,4.36-8.57,6.64
			c-2.53,2.06-5.02,2.26-7.95,0.81c-2.55-1.26-5.24-2.64-8-3.03c-5.51-0.78-8.15-3.72-8.57-9.08c-0.08-0.98-0.43-1.94-0.66-2.91
			c-1.78-7.64-1.78-7.57-9.56-7.01c-1.72,0.12-2.39,0.62-2.56,2.33c-0.35,3.59-0.93,7.16-1.33,10.75c-0.37,3.28-1.81,5.55-5.15,6.56
			c-3.59,1.08-6.94,2.76-10.1,4.79c-2.6,1.67-5.11,1.59-7.69-0.06c-3.25-2.08-6.59-4.03-9.83-6.13c-1.26-0.82-2.02-0.74-3.16,0.37
			c-5.67,5.53-5.71,5.49-0.88,11.71c0.53,0.69,0.98,1.46,1.6,2.06c4.1,3.97,5.29,8.27,1.82,13.3c-0.62,0.89-0.72,2.13-1.22,3.12
			c-0.88,1.75-0.37,2.71,1.41,3.41c2.78,1.09,5.54,2.26,8.21,3.59c1.98,0.99,2.76,0.91,3.56-1.54
			C332.31,117.41,344.32,108.74,359.14,108.65z M353.92,425.02c0.95-1.25,1.96-2.65,3.04-4c0.91-1.15-0.1-1.84-0.58-2.61
			c-0.73-1.16-1.44-2.36-2.36-3.36c-3.86-4.2-4.72-8.55-1.2-13.45c0.84-1.17,1.29-2.72,1.59-4.17c0.85-4.17,3.36-6.17,7.54-6.41
			c1.61-0.09,3.18-0.61,4.79-0.76c2.65-0.24,3.57-1.35,3.65-4.23c0.12-4.15-2.93-3.61-5-3.75c-6.44-0.44-9.49-3.5-12.35-9.58
			c-3.45-7.33-2.37-12.4,2.57-17.7c1.67-1.79,1.51-3.05-0.26-4.91c-2.03-2.14-3.53-2.12-5.5-0.27c-5.24,4.95-10.28,5.46-17.4,2.34
			c-6.43-2.82-9.16-6.28-9.63-12.74c-0.13-1.82,0.39-4.38-3.29-4.63c-4.08-0.29-4.53,1.96-4.69,4.78
			c-0.36,6.31-3.05,9.66-9.36,12.45c-7.3,3.23-12.41,2.49-17.74-2.5c-1.83-1.71-3.25-1.91-5.21,0.22c-1.73,1.89-1.86,3.11-0.26,4.98
			c1.45,1.7,2.55,3.69,3.9,5.48c1.84,2.45,2.16,4.93,0.56,7.64c-1.53,2.59-2.63,5.37-3.39,8.27c-0.75,2.85-2.59,4.43-5.47,4.9
			c-2.7,0.44-5.39,0.99-8.1,1.39c-2.69,0.4-1.88,2.43-1.99,4.04c-0.11,1.61,0.04,2.99,2.17,3.16c1.48,0.12,2.94,0.63,4.42,0.73
			c5.31,0.33,7.67,3.17,10.2,8c4.09,7.81,3.27,13.76-2.5,19.72c-1.12,1.16-1.1,2.16,0.12,3.49c2,2.19,3.75,3.43,6.38,0.83
			c1.31-1.3,3.07-2.12,4.55-3.26c2.66-2.06,5.36-2.41,8.29-0.56c1.05,0.66,2.18,1.45,3.35,1.61c7.83,1.1,10.31,6.35,10.69,13.35
			c0.01,0.12,0.04,0.25,0.05,0.37c0.06,2.46,0.85,3.73,3.78,3.7c2.81-0.03,3.76-1.02,3.85-3.61c0.26-7.09,2.58-12.63,10.65-13.69
			c0.59-0.08,1.2-0.4,1.69-0.76c4.24-3.15,8.07-2.26,11.79,1.01c1.3,1.15,2.84,2.03,4.28,3.01
			C351.99,423.89,352.54,424.19,353.92,425.02z M235.48,388.49c0-6.73-0.05-13.47,0.03-20.2c0.02-1.83-0.39-2.67-2.46-2.65
			c-8.1,0.1-16.21,0.1-24.31,0c-2.03-0.02-2.53,0.72-2.51,2.61c0.09,8.1-0.15,16.22,0.12,24.31c0.33,9.83,7.72,17.71,17.46,18.9
			c2.96,0.36,5.97,0.17,8.95,0.38c2.14,0.15,2.79-0.68,2.76-2.79C235.42,402.21,235.48,395.35,235.48,388.49z M332.24,262.38
			c0.93,0.27,1.26,0.46,1.6,0.46c25.66,0.02,51.32,0.02,76.98,0.03c0.87,0,1.83,0.15,2.49-0.53c4-4.17,7.97-8.37,12.23-12.85
			c-0.99-0.26-1.31-0.43-1.64-0.43c-25.66-0.02-51.32-0.02-76.98-0.02c-0.85,0-1.8-0.2-2.48,0.51
			C340.44,253.72,336.47,257.92,332.24,262.38z M359.12,119.96c-9.68-0.05-17.95,6.04-20.77,15.17c-0.81,2.61-0.72,4.33,2.37,5.4
			c3.86,1.34,7.41,3.64,11.3,4.82c6.78,2.06,11.24,6.03,12.69,13.07c0.56,2.7,1.77,2.9,4.13,1.66c8.66-4.55,13.21-14.26,11-23.92
			C377.68,126.78,369.03,120.01,359.12,119.96z M356.45,168.42c-3.19,7.23-6.05,13.72-8.9,20.2c-0.44,0.99-1.26,2.02,0.41,2.75
			c6.75,2.97,13.49,5.96,21.05,9.3C364.69,189.6,360.74,179.45,356.45,168.42z"/>
		<path d="M124.4,350.04c-2.8-0.1-4.45-1.35-5.48-3.33c-0.99-1.9-1.02-4.01,0.52-5.58c6.7-6.84,13.43-13.65,20.3-20.32
			c2.22-2.15,4.88-1.69,7.06,0.32c2.3,2.12,3.01,5.02,0.83,7.32c-6.68,7.03-13.64,13.78-20.54,20.59
			C126.28,349.84,125.13,350.1,124.4,350.04z"/>
		<path d="M86.86,231.01c-4.23,0-8.46,0.06-12.69-0.02c-3.88-0.07-6-2.11-5.99-5.59c0-3.46,2.14-5.61,6-5.64
			c8.71-0.08,17.42-0.08,26.12,0c3.83,0.04,6.03,2.23,6.03,5.65c0,3.43-2.18,5.52-6.03,5.58C95.82,231.06,91.34,231.01,86.86,231.01
			z"/>
		<path d="M122.15,100c1.78,0.03,3.06,0.77,4.14,1.85c6.26,6.23,12.55,12.43,18.73,18.74c2.68,2.73,2.54,6.19-0.04,8.58
			c-2.29,2.12-5.25,1.95-7.94-0.7c-6.21-6.11-12.33-12.3-18.48-18.46c-1.81-1.82-2.72-3.86-1.48-6.38
			C118.16,101.44,119.92,100.24,122.15,100z"/>
		<path d="M344.72,386.16c0.03,14.09-11.22,25.48-25.31,25.62c-14.21,0.14-25.95-11.61-25.9-25.91
			c0.05-14.11,11.4-25.42,25.48-25.41C333.12,360.47,344.68,372.02,344.72,386.16z M304.84,386.13c0.08,8.07,6.57,14.4,14.65,14.26
			c7.78-0.13,13.96-6.39,13.96-14.14c0-7.94-6.6-14.53-14.54-14.52C311.03,371.75,304.77,378.17,304.84,386.13z"/>
	</g>
</g>
</svg>
