<?xml version="1.0" encoding="utf-8"?>
<!-- Generator: Adobe Illustrator 24.0.1, SVG Export Plug-In . SVG Version: 6.00 Build 0)  -->
<svg version="1.1" id="레이어_1" xmlns="http://www.w3.org/2000/svg" xmlns:xlink="http://www.w3.org/1999/xlink" x="0px"
	 y="0px" viewBox="0 0 512 512" style="enable-background:new 0 0 512 512;" xml:space="preserve">
<g>
	<g>
		<path d="M340.21,224.35c5.8-5.03,12.19-3.21,18.31-2.53c2.23,0.25,3.23,2.52,3.7,4.73c0.83,3.9,1.85,7.76,2.53,11.68
			c0.33,1.9,1.16,2.89,2.98,3.26c0.72,0.15,1.53,0.33,2.1,0.76c6.31,4.79,11.83,2.73,17.16-1.8c1.13-0.96,2.48-1.66,3.76-2.45
			c2.81-1.73,5.51-1.49,7.85,0.8c4.64,4.54,9.22,9.13,13.76,13.76c2.44,2.48,2.59,5.25,0.72,8.16c-2.22,3.46-4.36,6.98-6.68,10.38
			c-0.97,1.42-1.12,2.6-0.23,4.08c0.77,1.27,1.65,2.63,1.87,4.05c0.93,5.97,4.93,7.64,10.28,8.56c12.28,2.12,11.84,2.6,11.72,14.52
			c-0.04,3.87,0.03,7.74-0.02,11.6c-0.06,4.25-1.48,5.97-5.68,7.07c-0.6,0.16-1.21,0.31-1.81,0.46c-3.95,1.02-8.87,0.58-11.65,3.21
			c-2.65,2.52-3.25,7.12-4.97,10.7c-0.67,1.4-0.29,2.31,0.42,3.4c2.25,3.44,4.46,6.91,6.7,10.36c1.99,3.06,1.66,5.89-0.88,8.46
			c-4.38,4.44-8.8,8.84-13.19,13.28c-2.69,2.72-5.58,2.95-8.75,0.86c-3.02-1.99-6.08-3.92-9.12-5.86c-0.63-0.4-1.24-0.86-1.91-1.17
			c-2.12-0.97-13.84,4.72-14.35,6.99c-0.85,3.77-1.6,7.56-2.49,11.31c-1.03,4.37-2.88,5.81-7.32,5.87c-2.25,0.03-4.49,0.01-6.74,0
			c-4.26-0.01-4.52-0.12-8.09-3.43c0,7.47,0.18,14.5-0.04,21.51c-0.4,12.62-6.42,21.74-17.8,27.22c-3.87,1.86-8.04,2.6-12.34,2.6
			c-43.79,0-87.58,0.06-131.36-0.04c-17-0.04-29.99-13.2-30.05-30.28c-0.09-27.32-0.03-54.64-0.02-81.96c0-4.72,2.25-7.46,5.98-7.46
			c3.73,0,5.98,2.74,5.98,7.46c0.02,26.82,0,53.64,0.01,80.46c0.01,12.48,7.29,19.83,19.69,19.83c42.79,0.01,85.58,0.01,128.37,0
			c12.2,0,19.6-7.38,19.6-19.56c0.01-60.75,0.01-121.51,0.01-182.26c0-0.87,0-1.75,0-2.62c0-20.61,0.68-23.17,6.08-23.08
			c5.26,0.09,5.89,2.53,5.89,22.9C340.21,221.49,340.21,222.82,340.21,224.35z M340.21,230.34c0,12.22,0.07,24.44-0.06,36.66
			c-0.02,2.47,1.01,2.36,2.88,2.25c19.96-1.14,35.64,11.52,38.78,31.19c2.32,14.52-6.72,31.17-20.04,36.92
			c-3.54,1.53-6.77,0.52-8.29-2.59c-1.45-2.96-0.4-6.03,2.74-7.96c0.74-0.46,1.55-0.81,2.29-1.26c9.46-5.76,13.79-17.07,10.56-27.55
			c-3.27-10.62-13.43-17.54-24.58-16.91c-3.11,0.18-4.41,1.02-4.39,4.6c0.17,30.31,0.1,60.63,0.1,90.94c0,1.07,0,2.13,0,4.02
			c1.82-2.12,3.26-3.36,5.32-3.74c1.98-0.36,4.58,1.12,5.85-0.91c1.06-1.7,1.09-4.04,1.56-6.11c0.33-1.46,0.7-2.92,0.89-4.39
			c0.53-4.09,2.72-6.47,6.81-7.32c3.42-0.71,6.94-1.73,9.7-3.78c6.1-4.53,11.48-3.5,16.78,1.14c0.19,0.16,0.42,0.27,0.63,0.4
			c5.64,3.61,5.57,3.53,10.45-1.2c1.9-1.83,2.58-3.25,0.68-5.55c-1.73-2.1-2.89-4.67-4.53-6.86c-2.48-3.3-2.65-6.43-0.42-9.99
			c2.52-4.02,4.38-8.41,5.42-13.06c0.87-3.94,3.18-6.03,7.09-6.6c1.48-0.21,2.93-0.6,4.39-0.91c7.56-1.61,7.48-1.61,7.28-9.49
			c-0.05-1.88-0.68-2.63-2.42-2.96c-3.3-0.63-6.56-1.51-9.87-2.1c-3.48-0.62-5.53-2.56-6.33-5.98c-1.03-4.39-2.53-8.69-4.99-12.43
			c-2.79-4.25-2.89-8.03,0.38-11.92c0.72-0.85,1.23-1.88,1.83-2.82c4.21-6.56,4.16-6.51-1.61-11.89c-1.35-1.25-2.3-1.44-3.83-0.37
			c-2.96,2.06-6.08,3.91-9.11,5.88c-2.43,1.57-4.87,1.72-7.39,0.23c-4.85-2.87-10-5.04-15.46-6.47c-2.8-0.74-4.51-2.42-5.07-5.33
			c-0.66-3.42-1.54-6.81-2.16-10.24c-0.37-2.07-1.23-3.01-3.46-2.74C345.54,233.5,342.68,232.94,340.21,230.34z"/>
		<path d="M172.51,305.03c-46.33,0-83.87-37.61-83.81-83.97c0.06-46.14,37.7-83.71,83.86-83.7c46.16,0.01,83.78,37.6,83.8,83.76
			C256.38,267.69,218.13,305.49,172.51,305.03z M227.46,267.1c22.47-25.4,24.27-69.16-5.09-97.61
			c-28.58-27.71-73.91-26.81-101.76,2.17c-27.86,28.99-24.3,71.83-2.98,95.33c0.44-0.62,0.89-1.21,1.29-1.83
			c8.52-13.15,20.63-19.86,36.28-20c11.97-0.1,23.94-0.21,35.91,0.04c14.13,0.29,25.39,6.37,33.68,17.85
			C225.72,264.36,226.55,265.73,227.46,267.1z M174.71,257.15c-8.26,0-14.75-0.26-21.21,0.06c-11.49,0.56-19.98,6.11-25.51,16.23
			c-1.03,1.89-1.08,3.12,0.86,4.63c24.53,19.18,62.87,19.19,87.38,0.02c1.92-1.5,1.92-2.71,0.89-4.63
			c-4.44-8.28-11.12-13.66-20.33-15.59C188.89,256.22,180.87,257.56,174.71,257.15z"/>
		<path d="M340.48,137.36c11.59,0,23.18-0.03,34.77,0.01c14.13,0.05,24.83,10.39,24.83,23.93c0.01,13.54-10.69,23.93-24.81,23.96
			c-23.43,0.05-46.86,0.06-70.28,0c-14.04-0.04-24.72-10.57-24.64-24.12c0.08-13.36,10.75-23.7,24.62-23.76
			C316.8,137.31,328.64,137.36,340.48,137.36z M340.36,173.29c11.6,0,23.2,0.03,34.79-0.01c7.57-0.03,12.98-5.1,12.95-12.03
			c-0.03-6.92-5.45-11.9-13.07-11.91c-23.2-0.02-46.39-0.02-69.59,0c-7.66,0.01-13.06,4.92-13.13,11.84
			c-0.07,7.07,5.38,12.08,13.25,12.1C317.16,173.31,328.76,173.29,340.36,173.29z"/>
		<path d="M244.49,77.47c21.19,0,42.39-0.01,63.58,0c19.67,0.01,32.12,12.54,32.14,32.31c0,2.99,0.06,5.99-0.02,8.98
			c-0.11,4.04-2.59,6.66-6.1,6.58c-3.38-0.07-5.74-2.6-5.83-6.46c-0.09-3.86,0.04-7.73-0.05-11.59
			c-0.23-10.03-7.86-17.79-17.9-17.81c-43.88-0.08-87.76-0.07-131.64-0.01c-10.26,0.01-17.91,7.77-18.09,18
			c-0.07,3.74,0.05,7.48-0.03,11.22c-0.09,4.07-2.53,6.69-6.03,6.65c-3.5-0.04-5.88-2.65-5.9-6.77c-0.02-4.98-0.37-10.03,0.29-14.94
			c2.05-15.44,14.46-26.09,30.14-26.15C200.86,77.42,222.67,77.47,244.49,77.47z"/>
		<path d="M244.78,328.98c17.34,0,34.68-0.01,52.02,0.01c4.42,0,6.97,1.84,7.42,5.24c0.42,3.18-1.85,6.16-5.19,6.64
			c-1.22,0.18-2.49,0.09-3.74,0.09c-33.93,0-67.86,0-101.79,0c-1.25,0-2.52,0.12-3.73-0.1c-3.22-0.6-5.17-2.58-5.17-5.9
			c0-3.31,1.96-5.29,5.18-5.89c1.09-0.2,2.24-0.09,3.36-0.09C210.35,328.98,227.56,328.98,244.78,328.98z"/>
		<path d="M232.76,376.89c13.47,0,26.94-0.02,40.42,0.01c4.11,0.01,6.62,1.91,7.08,5.19c0.52,3.72-2.32,6.7-6.64,6.75
			c-7.11,0.08-14.22,0.02-21.33,0.02c-19.96,0-39.92,0-59.88,0c-1.75,0-3.52,0.08-5.05-0.97c-2.3-1.57-3.36-3.79-2.61-6.47
			c0.88-3.16,3.21-4.56,6.48-4.55c10.85,0.02,21.7,0.01,32.56,0.01C226.77,376.89,229.77,376.89,232.76,376.89z"/>
		<path d="M214.45,352.94c7.61,0,15.22-0.03,22.83,0.01c4.4,0.02,7.09,2.35,7.08,5.97c0,3.62-2.7,5.97-7.09,5.98
			c-15.22,0.03-30.43,0.03-45.65,0c-4.41-0.01-7.08-2.35-7.08-5.98c0-3.63,2.68-5.95,7.08-5.97
			C199.24,352.91,206.85,352.94,214.45,352.94z"/>
		<path d="M244.26,113.4c-5.61,0-11.23,0.04-16.84-0.01c-4.34-0.04-7.03-2.47-6.95-6.11c0.08-3.5,2.68-5.82,6.84-5.84
			c11.35-0.05,22.7-0.05,34.05,0c4.35,0.02,7.04,2.46,6.95,6.1c-0.08,3.5-2.69,5.8-6.84,5.84C255.74,113.45,250,113.4,244.26,113.4z
			"/>
		<path d="M112.66,334.25c0.03-3.77,2.7-6.55,6.18-6.43c3.21,0.11,5.82,2.86,5.77,6.08c-0.06,3.54-2.97,6.46-6.36,6.36
			C114.8,340.17,112.63,337.83,112.66,334.25z"/>
		<path d="M112.66,358.34c-0.02-3.78,2.57-6.6,6.04-6.56c3.21,0.04,5.88,2.73,5.9,5.94c0.02,3.53-2.85,6.53-6.22,6.5
			C114.92,364.2,112.68,361.89,112.66,358.34z"/>
		<path d="M118.29,388.17c-3.45-0.07-5.65-2.4-5.63-5.98c0.02-3.77,2.66-6.57,6.13-6.47c3.21,0.09,5.84,2.82,5.82,6.03
			C124.58,385.29,121.67,388.24,118.29,388.17z"/>
		<path d="M172.52,173.3c16.52-0.01,29.98,13.48,29.95,30c-0.03,16.49-13.58,29.93-30.09,29.86c-16.32-0.07-29.72-13.49-29.76-29.82
			C142.56,186.82,156.02,173.31,172.52,173.3z M172.39,185.27c-9.77,0.06-17.79,8.13-17.81,17.9c-0.02,9.93,8.16,18.07,18.09,18
			c9.77-0.07,17.79-8.14,17.81-17.91C190.51,193.33,182.34,185.21,172.39,185.27z"/>
	</g>
</g>
</svg>
