<?xml version="1.0" encoding="utf-8"?>
<!-- Generator: Adobe Illustrator 24.0.1, SVG Export Plug-In . SVG Version: 6.00 Build 0)  -->
<svg version="1.1" id="레이어_1" xmlns="http://www.w3.org/2000/svg" xmlns:xlink="http://www.w3.org/1999/xlink" x="0px"
	 y="0px" viewBox="0 0 512 512" style="enable-background:new 0 0 512 512;" xml:space="preserve">
<style type="text/css">
	.st0{fill:#FEFEFE;}
</style>
<g>
	<g>
		<path class="st0" d="M205.12,460.52c-50.26,0-100.53-0.02-150.79,0.07c-2.61,0-3.33-0.35-3.33-3.2
			c0.09-134.44,0.09-268.87,0.02-403.31c0-2.47,0.53-3.07,3.04-3.06C188.5,51.09,322.94,51.09,457.37,51c2.81,0,3.23,0.66,3.22,3.31
			c-0.11,33.77-0.07,67.55-0.07,101.32c-2.97,0.55-3.05-2.05-3.74-3.68c-3.39-8.01-9.07-13.41-17.6-15.38
			c-6.88-1.6-13.54-0.59-19.59,3.13c-2.79,1.72-5.25,1.83-8.21,0.43c-15.26-7.22-30.53-14.44-45.59-22.08
			c-2.18-1.11-3.36-2.68-3.91-5.12c-2.76-12.09-7.66-23.17-15.72-32.76c-12-14.27-27.28-22.61-45.6-25.47
			c-36.09-5.63-73.69,18.27-81.85,58.34c-0.08,0.39-0.24,0.78-0.22,1.17c0.37,8.14-4,13.41-10.08,18.18
			c-9.61,7.55-18.67,15.79-27.93,23.76c-4.76,4.1-5.42,4.19-10.64,0.39c-10.01-7.27-21.15-11.63-33.34-13.41
			c-3.21-0.47-5.06-1.97-5.09-5.44c-0.09-9.84-0.06-19.68-0.02-29.52c0.01-3.25,1.83-4.59,4.51-5.74c8.82-3.8,14.24-10.33,15.79-20
			c1.52-9.42-3.48-19.74-12.33-24.95c-8.59-5.05-20-4.46-27.4,1.43C96.26,71.4,98.98,94,117.29,102.25c3,1.35,4.35,3.08,4.36,6.28
			c0.03,9.58,0.13,19.15-0.05,28.73c-0.09,4.55-0.86,5.27-5.23,5.95c-32.39,5.05-56.59,29.37-61.67,62
			c-4.4,28.28,9.64,57.54,34.67,72.71c11.84,7.18,24.77,10.67,38.37,10.44c16.81-0.28,31.98-5.96,45.17-16.69
			c12.19-9.92,19.98-22.6,24.26-37.57c2.3-8.05,3.26-8.36,9.89-3.16c7.32,5.74,14.65,11.49,22.05,17.12
			c3.19,2.42,3.71,5.06,2.85,8.67c-3.82,15.87,6.88,30.23,23.18,31.27c13.22,0.84,25.25-9.84,26.18-23.24
			c0.93-13.45-9.44-25.55-22.71-26.58c-5.47-0.43-10.65,0.55-15.36,3.3c-2.86,1.68-5.23,1.35-7.69-0.56
			c-10.72-8.31-21.3-16.78-32.1-24.99c-2.78-2.12-4.08-4.75-4.41-8.44c-1.12-12.86-5.84-24.47-13.27-35.01
			c-3.35-4.76-3.18-5.25,1.24-9.17c7.85-6.97,15.89-13.73,23.88-20.53c0.81-0.69,1.65-1.35,2.59-1.84c2.82-1.48,4.41-0.93,5.53,2.13
			c1.27,3.49,2.11,7.13,3.6,10.57c11.47,26.51,31.4,41.86,60.11,45.62c13.44,1.76,26.17-0.82,38.37-6.48
			c1.57-0.73,3.16-1.43,4.66-2.28c2.96-1.69,5.31-1.02,7.29,1.59c8.86,11.64,17.65,23.33,26.31,35.11c2.67,3.63,1.98,5.65-2.35,7.15
			c-9.52,3.29-18.23,7.85-25.9,14.54c-13.28,11.59-21.19,26.06-24.19,43.31c-1.85,10.65-1.24,21.24,1.84,31.57
			c1.17,3.91-0.01,6.24-3.01,8.49c-6.82,5.09-13.58,10.25-20.44,15.29c-4.48,3.29-5.74,3.14-8.91-1.62
			c-10.8-16.27-25.67-26.84-44.64-31.2c-41.65-9.58-81.91,17.76-88.55,60.32c-0.79,5.05-1.56,5.88-6.64,5.97
			c-8.91,0.15-17.82-0.07-26.73,0.1c-4.05,0.08-6.14-1.5-7.76-5.24c-4.19-9.64-11.88-15.09-22.36-15.34
			c-9.57-0.23-17.18,4.11-22.19,12.47c-5.69,9.52-4.5,21.16,2.89,29.2c7.87,8.56,19.24,10.8,29.47,5.98
			c5.98-2.82,10.11-7.33,12.48-13.36c1.17-2.99,3.08-4.04,6.06-4.06c9.71-0.05,19.42-0.16,29.12,0.06c4.18,0.1,4.97,0.97,5.62,5.15
			c4.82,30.71,26.68,54,57.16,61.04C202.3,457.46,205.18,457.15,205.12,460.52z"/>
		<path d="M205.12,460.52c-2.58-1.79-5.73-1.61-8.6-2.32c-28.21-7.04-51.24-32.44-55.11-61.27c-0.47-3.5-1.55-4.64-5.13-4.54
			c-9.04,0.26-18.09,0.16-27.13,0.04c-2.54-0.03-3.85,0.48-4.88,3.24c-4.48,12-17.82,19.15-30.28,16.66
			c-12.72-2.55-22.06-13.82-22.09-26.67c-0.04-12.86,9.37-24.27,22.02-26.69c12.77-2.44,25.8,4.46,30.33,16.5
			c1.08,2.87,2.45,3.47,5.15,3.43c9.18-0.13,18.36-0.15,27.53,0.01c2.79,0.05,3.94-0.68,4.36-3.61c4.49-31.5,27.55-56.22,58.59-63
			c30.28-6.62,62.01,6.89,78.83,33.69c1.41,2.25,2.29,2.44,4.38,0.81c7.24-5.63,14.57-11.16,22.03-16.5
			c2.24-1.61,2.51-3.04,1.83-5.6c-7.22-27.32-1.38-51.59,17.73-72.42c9.47-10.32,21.32-17,34.79-20.78
			c0.27-1.37-0.74-2.01-1.31-2.77c-8.83-11.83-17.75-23.58-26.51-35.47c-1.58-2.14-2.6-2.33-4.99-1.01
			c-43.43,23.91-96.46,0.85-108.97-47.29c-1.14-4.4-1.15-4.41-4.61-1.46c-8.69,7.43-17.33,14.93-26.1,22.28
			c-1.8,1.51-2.1,2.47-0.58,4.46c8.85,11.59,13.89,24.69,14.92,39.27c0.11,1.58,0.65,2.74,1.92,3.72
			c11.45,8.89,22.93,17.74,34.26,26.78c2.29,1.83,3.6,0.32,5.24-0.55c9.63-5.15,19.25-5.02,28.32,0.93
			c8.95,5.86,13.15,14.56,12.09,25.26c-1.07,10.67-6.8,18.45-16.75,22.43c-10.38,4.15-20.24,2.47-28.52-5.14
			c-7.89-7.25-10.61-16.48-7.81-26.86c0.87-3.21,0.16-4.71-2.29-6.56c-9-6.79-17.84-13.81-27.14-21.05
			c-2.13,9.66-5.37,18.37-10.32,26.46c-15.32,24.98-45.6,39.55-74.38,34.56c-31.25-5.42-52.35-23.64-61.08-54.14
			c-12.56-43.9,16.42-87.43,61.65-94.06c2.7-0.4,3.51-1.39,3.47-4.05c-0.14-9.58-0.1-19.15-0.02-28.73
			c0.02-2.12-0.49-3.21-2.71-4.05c-12.45-4.68-19.64-17.56-17.21-30.32c2.45-12.82,14.01-22.36,26.95-22.24
			c12.93,0.12,24.17,9.57,26.48,22.26c2.37,13.01-4.68,25.64-17.14,30.31c-2.11,0.79-2.85,1.74-2.82,3.97
			c0.11,9.58,0.13,19.16,0,28.73c-0.04,2.63,0.72,3.75,3.45,4.09c13.23,1.63,25.08,6.72,35.56,14.92c1.85,1.45,3.03,1.62,4.96-0.06
			c11.83-10.31,23.79-20.47,35.75-30.63c1.51-1.28,2.27-2.59,2.42-4.67c2.64-36.27,31.88-65.49,68.63-68.69
			c35.6-3.1,69.41,20.69,78.12,55.41c1.45,5.78,3.92,9.14,9.5,11.59c13.73,6.04,27.09,12.91,40.61,19.43
			c1.64,0.79,2.98,1.55,5.08,0.23c16.98-10.72,35.77-3.83,42.02,15.26c0.2,0.6,0.1,1.36,0.93,1.57c0,3.72,0,7.45,0,11.17
			c-1.12,6.02-2.8,11.68-7.88,15.8c-9,7.31-19.08,9.65-29.8,5.28c-11.33-4.61-18.7-13.24-18.3-25.93
			c0.24-7.57-2.05-11.55-8.98-14.45c-8.06-3.39-15.97-7.26-23.8-11.23c-3.69-1.87-5-1.15-5.7,2.98
			c-2.47,14.52-8.39,27.34-18.34,38.29c-4.09,4.5-4.02,5.77-0.33,10.68c8.71,11.58,17.39,23.18,26.08,34.78
			c2.1,2.8,4.6,4.04,8.11,4.13c37.31,0.94,69.57,30.53,73.55,67.7c4.51,42.11-23.13,74.94-57.28,83.5
			c-27.22,6.83-51.58,0.44-72.12-19.14c-3.57-3.4-6.79-7.09-9.71-11.08c-2.59-3.54-3.72-3.66-7.2-1.14
			c-5.49,3.98-10.84,8.15-16.3,12.16c-2.72,2-3.52,4.37-2.64,7.63c1.14,4.24,1.79,8.57,1.86,12.99c0.08,4.73,1.8,8.22,6.61,10.26
			c12.23,5.2,23.96,11.5,35.95,17.24c3.96,1.9,7.22,2.12,11.24,0.1c11.54-5.8,25.29-3.32,33.78,5.65
			c8.83,9.32,10.78,23.05,4.48,34.36c-3.89,6.98-9.32,12.18-18.01,12.57c-0.86,0.04-1.88-0.11-2.66,0.58c-3.46,0-6.92,0-10.38,0
			c-3.86-1.36-8.15-1-11.71-3.8c-8.81-6.92-12.74-15.89-11.58-26.87c0.43-4.1-0.97-6.27-4.47-7.74
			c-10.43-4.36-20.21-10.11-30.62-14.53c-4.07-1.73-4.56-1.65-6.11,2.51c-6.29,16.81-16.52,30.46-31.67,40.37
			c-9.31,6.09-19.27,9.71-30.46,9.66c-0.65,0-1.34-0.13-1.88,0.39C217.89,460.52,211.51,460.52,205.12,460.52z"/>
		<path class="st0" d="M363.15,460.52c5.79-2.21,11.52-4.42,15.7-9.43c9.01-10.81,8.92-25.4-0.4-36.06
			c-8.63-9.87-23.91-11.83-35.16-4.29c-1.92,1.29-3.23,1.5-5.29,0.49c-14.9-7.3-29.85-14.51-44.83-21.66
			c-2-0.96-2.97-1.97-2.99-4.43c-0.05-7.19-0.99-14.33-3.19-21.2c-0.66-2.06-0.17-3.09,1.46-4.29c7.71-5.67,15.39-11.38,22.95-17.24
			c1.96-1.52,2.69-0.97,3.85,0.86c12.4,19.44,29.98,31.43,52.77,34.79c41.83,6.16,78.87-23.56,84.59-62.47
			c6-40.8-20.06-77.66-60.08-85.32c-4.71-0.9-9.47-1.48-14.26-1.2c-2.15,0.12-3.36-0.69-4.58-2.34
			c-10.39-13.97-20.87-27.87-31.29-41.82c-0.85-1.14-2.33-1.98-0.61-3.97c16.85-19.44,19.79-25.79,23.39-49.62
			c1-0.24,1.78,0.35,2.59,0.75c12.44,5.99,24.84,12.05,37.33,17.95c2.11,1,2.5,1.95,1.94,4.21c-3.64,14.64,4.59,28.55,19.23,32.78
			c13.6,3.93,27.97-3.8,32.74-17.61c0.33-0.95,0.32-2.15,1.52-2.62c0,96.71-0.02,193.41,0.08,290.12c0,2.99-0.67,3.68-3.67,3.67
			C425.67,460.47,394.41,460.52,363.15,460.52z"/>
		<path class="st0" d="M224.28,460.52c2.46-1.38,5.31-1.08,7.93-1.8c28.18-7.73,46.85-25.28,55.29-53.43
			c0.15-0.51,0.32-1.01,0.5-1.51c0.13-0.37,0.3-0.73,0.56-1.33c14.24,6.87,28.44,13.73,42.64,20.57c1.07,0.51,1.47,1.03,1.26,2.43
			c-2.84,18.36,2.25,27.23,19.51,34.3c0.32,0.13,0.55,0.51,0.82,0.77C309.94,460.52,267.11,460.52,224.28,460.52z"/>
		<path class="st0" d="M256.5,430.6c-0.01-18.18-11.49-25.62-27.38-24.63c-10.33,0.65-20.76,0.46-31.11,0.04
			c-14.62-0.59-24.48,10.24-23.5,22.62c0.04,0.48-0.14,0.97-0.23,1.57c-13.29-9.65-24.44-34.28-18.62-58.44
			c6.49-26.96,28.52-45.26,57.17-47.33c25.06-1.81,49.8,14.43,59.61,39.12C281.58,386.61,274.78,415.8,256.5,430.6z"/>
		<path class="st0" d="M167.74,260.33c-0.1-4.39-0.06-8.27-1.74-11.84c-3.65-7.8-9.84-12.31-18.4-12.51
			c-13.82-0.32-27.67-0.61-41.46,0.05c-12.58,0.6-19.64,8.71-20.14,21.28c-0.03,0.78-0.08,1.56-0.12,2.38
			c-11.39-4.53-22.37-32.32-20.05-50.46c3.84-29.99,25.06-51.18,54.97-54.9c25.96-3.23,53.09,13.45,62.89,38.27
			C193.71,217.94,185.13,246,167.74,260.33z"/>
		<path class="st0" d="M419.8,348.9c0.1-7.41-1.31-13.75-6.52-18.67c-4.04-3.82-8.93-5.82-14.42-5.88
			c-13.42-0.13-26.86-0.46-40.26,0.1c-12.53,0.52-19.77,8.35-20.71,20.89c-0.08,1.01,0.3,2.1-0.46,3.02
			c-13.83-10.6-24.9-36.12-17.43-61.9c6.96-24.02,30.1-42.62,55.1-43.74c27.61-1.24,51.72,14.58,61.23,40.17
			C444.84,305.8,437.85,334.55,419.8,348.9z"/>
		<path class="st0" d="M331.48,171.74c-0.31-2.94-0.4-5.44-0.87-7.86c-1.71-8.76-8.96-15.67-17.85-16.25
			c-14.47-0.94-28.99-0.83-43.46-0.11c-11.72,0.58-18.79,8.23-19.87,19.96c-0.12,1.26,0.34,2.64-0.56,3.8
			c-14.1-10.97-24.7-36.3-17.48-61.62c6.99-24.52,30.03-42.87,56.16-44.09c25.84-1.2,50.51,14.77,59.64,38.6
			C356.38,128.19,349.94,156.56,331.48,171.74z"/>
		<path class="st0" d="M379.07,337.89c5.97-0.01,11.95-0.1,17.92,0.02c6.51,0.13,9.03,2.82,9.11,9.34c0.02,1.59,0,3.19,0,4.78
			c0,6.92,0.03,7.02-6.34,9.22c-15.26,5.28-30.38,4.85-45.34-1.34c-2.18-0.9-3.06-2.09-2.92-4.45c0.18-3.04-0.03-6.11,0.07-9.16
			c0.19-5.59,2.67-8.2,8.4-8.38C366.32,337.75,372.7,337.9,379.07,337.89z"/>
		<path class="st0" d="M126.77,276.25c-8.58,0.24-16.75-1.69-24.66-5.01c-1.83-0.77-2.64-1.79-2.54-3.85
			c0.17-3.31-0.02-6.64,0.06-9.95c0.13-5.16,2.5-7.73,7.87-7.97c5.43-0.25,10.88-0.09,16.32-0.1c7.03-0.01,14.07-0.08,21.1,0.03
			c6.59,0.11,9.07,2.72,9.11,9.26c0.01,1.86-0.25,3.76,0.05,5.57c0.76,4.6-1.09,6.84-5.52,8.26
			C141.44,274.77,134.31,276.45,126.77,276.25z"/>
		<path class="st0" d="M215.47,419.73c6.24,0,12.48-0.07,18.72,0.02c5.66,0.08,8.27,2.73,8.41,8.31c0.04,1.46,0.01,2.92,0.01,4.38
			c0,8.56,0.03,8.65-8,11.14c-14.7,4.56-29.2,4.07-43.48-1.89c-2.09-0.87-3.21-1.89-3.03-4.34c0.22-3.04,0.01-6.1,0.06-9.16
			c0.1-5.87,2.62-8.38,8.58-8.45C202.99,419.67,209.23,419.73,215.47,419.73z"/>
		<path class="st0" d="M290.47,160.88c5.97,0,11.94-0.08,17.91,0.02c6.63,0.11,9.11,2.67,9.18,9.22c0.02,1.72,0,3.45,0,5.18
			c0,6.47,0.04,6.57-5.93,8.69c-15.36,5.46-30.59,5.13-45.69-1.14c-2.13-0.89-3.11-2.01-2.96-4.39c0.19-3.04-0.02-6.1,0.07-9.15
			c0.16-5.69,2.56-8.23,8.3-8.37c6.37-0.16,12.74-0.04,19.11-0.04C290.47,160.89,290.47,160.88,290.47,160.88z"/>
		<path class="st0" d="M92.6,385.83c-0.07,7.46-6.02,13.3-13.52,13.29c-7.55-0.02-13.71-6.27-13.57-13.76
			c0.14-7.32,6.34-13.39,13.64-13.37C86.69,372.01,92.67,378.17,92.6,385.83z"/>
		<path class="st0" d="M126.82,92.6c-7.53,0.01-13.45-5.8-13.54-13.27c-0.09-7.58,6-13.81,13.51-13.82
			c7.46-0.01,13.73,6.35,13.62,13.79C140.31,86.69,134.27,92.59,126.82,92.6z"/>
		<path class="st0" d="M269.77,263.09c-0.04,7.38-6.05,13.41-13.45,13.49c-7.52,0.08-13.73-6.1-13.69-13.65
			c0.03-7.54,6.29-13.62,13.85-13.45C263.93,249.64,269.82,255.67,269.77,263.09z"/>
		<path class="st0" d="M358.47,419.76c7.58,0.04,13.6,6.23,13.46,13.82c-0.14,7.32-6.35,13.37-13.66,13.31
			c-7.49-0.06-13.61-6.38-13.46-13.91C344.95,425.6,351.02,419.72,358.47,419.76z"/>
		<path class="st0" d="M433.11,147.32c7.55-0.1,13.81,6.04,13.79,13.55c-0.01,7.33-6.06,13.43-13.43,13.55
			c-7.38,0.12-13.54-5.8-13.7-13.18C419.6,153.59,425.52,147.42,433.11,147.32z"/>
		<path d="M188.23,364.59c0.36-14.96,12.99-27.13,27.59-26.59c15.15,0.56,27.08,12.86,26.74,27.56
			c-0.35,14.92-12.94,27.2-27.52,26.84C199.84,392.02,187.87,379.61,188.23,364.59z"/>
		<path d="M126.89,222.03c-14.96,0.06-27.12-11.97-27.23-26.93c-0.11-15.02,12.28-27.5,27.24-27.43
			c14.8,0.07,27.12,12.45,27.11,27.24C154.01,209.78,141.81,221.97,126.89,222.03z"/>
		<path d="M351.66,282.98c0.43-15.07,12.72-27.03,27.5-26.75c14.87,0.28,27.22,12.9,26.88,27.47
			c-0.36,15.38-12.94,27.36-28.19,26.84C363.06,310.04,351.24,297.6,351.66,282.98z"/>
		<path d="M290.2,133.49c-14.96-0.02-27.06-12.13-27.08-27.09c-0.02-14.87,12.13-27.16,26.99-27.3
			c14.82-0.14,27.59,12.64,27.41,27.42C317.34,121.42,305.09,133.52,290.2,133.49z"/>
		<path class="st0" d="M201.82,365.21c-0.02-7.61,6.08-13.67,13.68-13.57c7.41,0.09,13.45,6.14,13.48,13.49
			c0.03,7.44-6.34,13.73-13.79,13.62C207.78,378.65,201.84,372.64,201.82,365.21z"/>
		<path class="st0" d="M126.85,208.42c-7.66,0.02-13.64-6.01-13.57-13.67c0.07-7.37,6.14-13.44,13.48-13.47
			c7.43-0.03,13.75,6.35,13.66,13.78C140.33,202.42,134.25,208.4,126.85,208.42z"/>
		<path class="st0" d="M378.88,296.96c-7.64,0.04-13.65-5.99-13.59-13.64c0.06-7.44,6.04-13.45,13.43-13.5
			c7.45-0.04,13.77,6.29,13.68,13.73C392.32,290.93,386.28,296.92,378.88,296.96z"/>
		<path class="st0" d="M290.15,119.88c-7.47-0.04-13.37-5.95-13.4-13.43c-0.03-7.59,6.14-13.81,13.62-13.73
			c7.31,0.08,13.43,6.22,13.5,13.54C303.95,113.75,297.73,119.92,290.15,119.88z"/>
	</g>
</g>
</svg>
