<?xml version="1.0" encoding="utf-8"?>
<!-- Generator: Adobe Illustrator 27.2.0, SVG Export Plug-In . SVG Version: 6.00 Build 0)  -->
<svg version="1.1" id="레이어_1" xmlns="http://www.w3.org/2000/svg" xmlns:xlink="http://www.w3.org/1999/xlink" x="0px"
	 y="0px" viewBox="0 0 512 512" style="enable-background:new 0 0 512 512;" xml:space="preserve">
<style type="text/css">
	.st0{fill:none;stroke:#000000;stroke-width:10;stroke-linecap:round;stroke-linejoin:round;stroke-miterlimit:10;}
	.st1{fill:none;stroke:#000000;stroke-width:10;stroke-miterlimit:10;}
</style>
<path class="st0" d="M98.6,307.55V206.4c0-8.84,7.16-16,16-16h282.25c8.84,0,16,7.16,16,16v101.15"/>
<circle cx="98.6" cy="338.21" r="5"/>
<circle cx="412.85" cy="338.21" r="5"/>
<path class="st1" d="M74.9,383.7v39.4c0,5.52,4.48,10,10,10h344.05c5.52,0,10-4.48,10-10v-39.4c0-5.52-4.48-10-10-10H318.32
	c-4.07,0-7.73,2.46-9.26,6.23l-5.33,13.09c-1.23,3.01-4.16,4.98-7.41,4.98h-82.74c-3.07,0-5.87-1.76-7.21-4.53l-6.79-14.11
	c-1.67-3.46-5.17-5.66-9.01-5.66H84.9C79.38,373.7,74.9,378.18,74.9,383.7z"/>
<polygon points="221.43,251.58 166.08,279.2 166.06,279.19 166.06,279.21 161.41,281.53 161.41,294.04 166.06,296.36 166.06,296.38 
	166.08,296.37 221.43,323.98 221.43,306.18 183.69,287.78 221.43,269.38 "/>
<polygon points="290.7,251.58 346.06,279.2 346.07,279.19 346.08,279.21 350.72,281.53 350.72,294.04 346.08,296.36 346.07,296.38 
	346.06,296.37 290.7,323.98 290.7,306.18 328.45,287.78 290.7,269.38 "/>
<polygon points="265.25,237.57 231.95,325.33 249.95,325.33 283.92,237.57 "/>
<path class="st1" d="M255.73,135.8c-20.13,0-36.45,16.32-36.45,36.45c0,6.61,1.77,12.8,4.85,18.15h63.21
	c3.08-5.35,4.85-11.54,4.85-18.15C292.18,152.12,275.86,135.8,255.73,135.8z"/>
<polyline class="st0" points="153.5,190.2 153.5,162.6 177.5,156.3 184.1,138 172.4,117.9 196.4,93.9 217.4,108.3 231.95,100.8 
	239.3,78.6 272.9,78.6 277.4,100.8 293.6,108 314.9,96.9 338.3,120.3 328.4,139.8 334.4,156.3 357.2,163.8 357.2,190.2 "/>
</svg>
