<?xml version="1.0" encoding="utf-8"?>
<!-- Generator: Adobe Illustrator 24.0.1, SVG Export Plug-In . SVG Version: 6.00 Build 0)  -->
<svg version="1.1" id="레이어_1" xmlns="http://www.w3.org/2000/svg" xmlns:xlink="http://www.w3.org/1999/xlink" x="0px"
	 y="0px" viewBox="0 0 512 512" style="enable-background:new 0 0 512 512;" xml:space="preserve">
<g>
	<g>
		<path d="M109.66,448.75c-3.5-2.59-4.62-6.01-4.61-10.38c0.09-120.86,0.07-241.72,0.07-362.58c0-1.12-0.05-2.25,0.07-3.36
			c0.45-4.23,3.45-6.92,7.68-6.92c66.85,0,133.71,0,200.56-0.04c2.12,0,3.75,0.5,5.36,1.98c21.38,19.62,42.8,39.19,64.24,58.75
			c7.18,6.54,14.4,13.04,21.67,19.47c2,1.77,2.98,3.68,2.97,6.46c-0.06,95.79-0.07,191.58,0.01,287.37c0,4.06-1.64,6.88-4.6,9.26
			C305.28,448.75,207.47,448.75,109.66,448.75z M115.59,256.88c0,59.37,0.03,118.75-0.08,178.12c-0.01,3.35,0.88,4.07,4.12,4.06
			c91.18-0.09,182.36-0.1,273.54,0.01c3.38,0,4.05-0.92,4.05-4.14c-0.09-91.68-0.09-183.36,0-275.04c0-3.09-0.73-3.93-3.87-3.91
			c-25.69,0.14-51.39,0.08-77.08,0.08c-6.43,0-8.07-1.67-8.07-8.25c-0.01-22.7-0.08-45.4,0.08-68.1c0.02-3.5-0.71-4.56-4.43-4.56
			c-61.37,0.13-122.74,0.13-184.11,0.01c-3.54-0.01-4.22,1.05-4.22,4.34C115.62,138.64,115.59,197.76,115.59,256.88z M388.92,145.54
			c-23.59-21.46-46.34-42.15-69.2-62.95c-0.32,0.67-0.51,0.87-0.51,1.08c-0.03,19.81,0,39.61-0.1,59.42
			c-0.01,2.46,1.24,2.47,3.03,2.47c13.2-0.04,26.41-0.02,39.62-0.02C370.44,145.54,379.13,145.54,388.92,145.54z"/>
		<path d="M256.46,429.19c-36.43,0-72.85,0-109.28,0c-9.45,0-12.8-3.36-12.8-12.83c0-36.68,0-73.35,0-110.03
			c0-8.96,3.48-12.44,12.43-12.44c73.1,0,146.21,0,219.31,0c8.7,0,12.24,3.55,12.24,12.26c0.01,36.93,0.01,73.85,0,110.78
			c0,8.7-3.55,12.26-12.25,12.26C329.57,429.2,293.02,429.19,256.46,429.19z M256.25,418.71c35.92,0,71.85-0.04,107.77,0.07
			c3.09,0.01,3.94-0.76,3.93-3.89c-0.11-35.43-0.11-70.85,0.02-106.28c0.01-3.35-0.75-4.34-4.25-4.33
			c-71.6,0.11-143.2,0.11-214.8,0.01c-3.26,0-4.13,0.74-4.12,4.08c0.13,35.43,0.11,70.85-0.01,106.28
			c-0.01,3.23,0.69,4.16,4.06,4.14C184.65,418.66,220.45,418.71,256.25,418.71z"/>
		<path d="M319.32,262.26c-0.02,14.65-8.97,22.44-23.47,20.36c-2.86-0.41-4.66-2.01-4.81-4.83c-0.16-3.01,1.64-4.94,4.57-5.46
			c1.7-0.3,3.48-0.05,5.23-0.12c5.61-0.23,7.58-2.14,7.86-7.79c0.3-6.27-1.06-12.41-1.69-18.6c-0.72-7.06-0.87-13.96,3.13-20.26
			c0.39-0.62,0.79-1.22,0.25-2.04c-5.46-8.22-3.74-17.21-2.75-26.12c0.41-3.71,0.97-7.43,1.06-11.16c0.2-7.59-2.17-9.89-9.68-9.89
			c-0.87,0-1.75,0.06-2.62,0.01c-3.24-0.18-5.52-2.18-5.4-5.03c0.12-3.01,1.94-5.02,4.86-5.29c12.47-1.17,23.04,3.52,23.34,18.89
			c0.12,6.39-1.27,12.64-1.75,18.98c-0.2,2.61-0.34,5.23-0.31,7.84c0.04,3.51,1.56,6.06,4.85,7.75c4.62,2.38,4.84,7.3,0.27,9.5
			c-4.09,1.97-5.12,5.13-5.19,9.08c-0.12,6.26,1.2,12.4,1.72,18.61C318.94,258.54,319.14,260.4,319.32,262.26z"/>
		<path d="M206.2,241.3c-0.47,4.17-1.12,9.99-1.78,15.81c-0.13,1.11-0.3,2.23-0.36,3.35c-0.52,9.82,1.24,11.69,11,11.75
			c4.26,0.03,6.79,2.04,6.73,5.35c-0.06,3.17-2.33,4.95-6.53,5.13c-4.4,0.18-8.72-0.14-12.74-2.19c-6.76-3.45-8.68-9.58-8.95-16.49
			c-0.25-6.64,1.2-13.14,1.82-19.72c0.26-2.74,0.47-5.48,0.15-8.21c-0.36-2.98-1.5-5.46-4.55-6.75c-2.02-0.86-3.6-2.29-3.63-4.76
			c-0.03-2.53,1.19-4.23,3.51-5.2c3.81-1.59,4.74-4.83,4.8-8.53c0.1-6.64-1.27-13.14-1.85-19.72c-0.65-7.45-0.83-14.9,5.33-20.5
			c5.32-4.84,11.89-5.45,18.6-4.31c2.67,0.45,4.29,2.69,3.92,5.56c-0.37,2.81-2.22,4.36-5.11,4.5c-0.62,0.03-1.25,0-1.87,0
			c-8.89-0.03-11.12,2.15-10.6,11.16c0.31,5.47,1.22,10.9,1.78,16.35c0.68,6.66,0.6,13.24-3.19,19.14
			c-0.79,1.22-0.42,2.03,0.21,3.01C205.55,230.17,206.15,234.83,206.2,241.3z"/>
		<path d="M211.8,132.92c-17.57,0-35.15,0-52.72,0c-1.12,0-2.28,0.13-3.35-0.12c-2.54-0.59-4.23-2.16-4.38-4.88
			c-0.15-2.75,1.39-4.48,3.92-5.21c1.16-0.33,2.46-0.26,3.7-0.26c35.4-0.01,70.8-0.01,106.2-0.01c0.87,0,1.76-0.07,2.61,0.06
			c2.96,0.44,4.75,2.16,4.95,5.17c0.19,2.84-1.99,4.99-5.22,5.2c-2.23,0.15-4.49,0.05-6.73,0.05
			C244.46,132.92,228.13,132.92,211.8,132.92z"/>
		<path d="M211.8,101.75c-17.45,0-34.9,0.01-52.34-0.02c-1.61,0-3.27-0.04-4.8-0.46c-2.34-0.64-3.33-2.55-3.3-4.87
			c0.03-2.15,0.99-3.95,3.16-4.59c1.4-0.42,2.94-0.52,4.42-0.52c35.39-0.03,70.79-0.02,106.18-0.01c1.12,0,2.26-0.01,3.35,0.21
			c2.66,0.54,4.23,2.37,4.24,4.96c0.01,2.75-1.53,4.71-4.45,5.11c-1.35,0.19-2.73,0.17-4.1,0.17
			C246.69,101.76,229.25,101.75,211.8,101.75z"/>
		<path d="M269.59,194.63c-0.16,0.8-0.3,1.67-0.52,2.5c-5.06,18.96-10.12,37.93-15.23,56.88c-1.03,3.84-3.32,5.7-6.12,5.26
			c-3.53-0.56-5.16-3.52-4.04-7.74c3.31-12.49,6.68-24.96,10.04-37.44c1.87-6.96,3.7-13.93,5.66-20.86
			c0.84-2.96,3.02-4.17,6.02-3.67C268.16,190.02,269.25,192,269.59,194.63z"/>
		<path d="M280.26,203.8c2.04-0.01,3.43,0.76,4.61,1.94c4.67,4.67,9.39,9.28,13.99,14.03c3.18,3.29,3.15,5.86,0.01,9.05
			c-4.54,4.62-9.13,9.2-13.74,13.75c-3,2.96-5.71,3.19-8.14,0.8c-2.41-2.36-2.22-5.17,0.68-8.17c2.86-2.96,5.71-5.92,8.74-8.7
			c1.73-1.59,2.03-2.65,0.11-4.39c-3.32-3.01-6.39-6.29-9.54-9.48c-1.65-1.67-2.07-3.65-1.15-5.83
			C276.71,204.73,278.43,203.91,280.26,203.8z"/>
		<path d="M232.38,245.02c-1.78-0.17-3.18-0.82-4.38-2.03c-4.73-4.78-9.54-9.49-14.25-14.29c-3-3.06-3.04-5.61,0.01-8.77
			c4.67-4.84,9.43-9.6,14.26-14.28c2.54-2.46,5.9-2.45,7.99-0.25c2.07,2.19,1.9,5.01-0.63,7.63c-3.03,3.14-6.06,6.28-9.27,9.22
			c-1.77,1.62-1.57,2.59,0.09,4.12c3.29,3.05,6.43,6.25,9.51,9.51c1.52,1.61,2.25,3.6,1.23,5.84
			C236.03,243.71,234.37,244.67,232.38,245.02z"/>
		<path d="M201.58,328.67c9.83,0.14,17.27,2.78,23.52,8.55c3.1,2.86,3.66,5.54,1.53,8.04c-2.09,2.46-5.04,2.38-8.18-0.21
			c-9.52-7.87-22.36-7.83-30.62,0.09c-8.91,8.55-9.55,22.3-1.45,31.34c8.27,9.23,21.89,9.98,31.9,1.63
			c1.86-1.55,3.65-2.64,6.07-1.87c3.95,1.27,4.68,5.91,1.46,9.03c-10.99,10.67-28.67,12.11-41.33,3.38
			c-12.75-8.79-17.77-25.65-11.64-39.76C178.55,335.8,188.96,329.51,201.58,328.67z"/>
		<path d="M253.98,347.86c0-1.99-0.06-3.99,0.01-5.98c0.11-3.22,1.8-5.24,5.02-5.38c3.31-0.14,5.1,1.99,5.31,5.08
			c0.26,3.85,0.22,7.73,0.07,11.58c-0.09,2.38,0.58,3.36,3.11,3.24c3.61-0.18,7.23-0.12,10.84-0.02c3.77,0.11,5.71,1.82,5.83,4.93
			c0.13,3.25-1.86,5.28-5.73,5.46c-3.73,0.17-7.48,0.14-11.21,0.03c-2.05-0.06-2.91,0.56-2.83,2.74c0.14,3.61,0.11,7.23,0.01,10.84
			c-0.11,4.05-2.15,6.33-5.4,6.26c-3-0.07-4.97-2.42-5.04-6.18c-0.06-3.61-0.11-7.23,0.02-10.84c0.08-2.12-0.67-2.88-2.78-2.81
			c-3.61,0.12-7.23,0.1-10.84,0c-3.89-0.1-6.44-2.3-6.39-5.33c0.05-3.04,2.57-5.05,6.55-5.1c3.36-0.05,6.74-0.16,10.09,0.03
			c2.57,0.15,3.68-0.61,3.38-3.31c-0.2-1.72-0.04-3.49-0.04-5.23C253.97,347.86,253.97,347.86,253.98,347.86z"/>
		<path d="M342.47,361.59c-0.02,2.79-2.37,5.04-5.76,5.18c-3.73,0.15-7.49,0.18-11.22,0.02c-2.35-0.1-3.04,0.8-2.96,3.04
			c0.14,3.61,0.11,7.23,0,10.85c-0.1,3.64-2.32,6.03-5.31,5.96c-3.02-0.08-4.95-2.13-5.09-5.77c-0.14-3.74-0.13-7.48-0.02-11.22
			c0.06-2.06-0.62-2.92-2.77-2.84c-3.49,0.12-6.98,0.09-10.47,0.01c-4.35-0.1-6.71-2.1-6.61-5.42c0.1-3.25,2.3-4.96,6.55-5.03
			c3.49-0.05,6.99-0.1,10.47,0.02c2.08,0.07,2.9-0.65,2.82-2.78c-0.13-3.49-0.08-6.98-0.02-10.47c0.07-4.37,2.01-6.74,5.34-6.68
			c3.06,0.06,5.04,2.54,5.11,6.54c0.06,3.49,0.14,6.99-0.03,10.47c-0.11,2.37,0.82,3.01,3.04,2.93c3.86-0.13,7.73-0.13,11.59,0.02
			C340.24,356.53,342.49,358.88,342.47,361.59z"/>
	</g>
</g>
</svg>
