<?xml version="1.0" encoding="utf-8"?>
<!-- Generator: Adobe Illustrator 24.0.1, SVG Export Plug-In . SVG Version: 6.00 Build 0)  -->
<svg version="1.1" id="레이어_1" xmlns="http://www.w3.org/2000/svg" xmlns:xlink="http://www.w3.org/1999/xlink" x="0px"
	 y="0px" viewBox="0 0 512 512" style="enable-background:new 0 0 512 512;" xml:space="preserve">
<g>
	<g>
		<path d="M181.75,364.91c2.07,0,4.14,0,6.21,0c12.47,0,24.95-0.02,37.42,0.01c4.52,0.01,7.01,2.17,7.02,5.94
			c0.01,3.77-2.47,6-6.99,6.01c-23.33,0.03-46.65,0.03-69.98,0c-4.45-0.01-6.92-2.34-6.84-6.14c0.08-3.66,2.49-5.55,6.76-5.87
			c3.39-0.26,7.18,1.44,10.11-1.07c5.68-4.86,9.97-10.79,12.17-18.05c1.44-4.76,1.4-4.78-3.65-4.78c-25.7,0-51.39,0.01-77.09,0
			c-12.96-0.01-20.17-7.21-20.17-20.13c0-54.51-0.01-109.02,0-163.53c0-12.66,7.3-19.94,19.97-19.94c74.72,0,149.43-0.01,224.15,0
			c9.91,0,17.11,5.54,19.01,14.59c0.23,1.09,0.34,2.23,0.31,3.34c-0.09,3.5-2.14,5.75-5.39,6.01c-3.46,0.28-5.92-1.71-6.5-5.27
			c-0.9-5.47-2.31-6.7-7.87-6.7c-74.59-0.01-149.18-0.01-223.77,0c-6.12,0-7.92,1.85-7.92,8.1c-0.01,39.92,0.05,79.83-0.1,119.75
			c-0.01,3.52,1.14,3.96,4.2,3.95c43.53-0.09,87.06-0.06,130.6-0.06c1.25,0,2.51-0.1,3.74,0.06c3.32,0.42,5.12,2.38,5.28,5.72
			c0.16,3.32-1.91,5.73-5.26,6.12c-1.23,0.15-2.49,0.07-3.74,0.07c-43.53,0-87.06,0.05-130.6-0.09c-3.53-0.01-4.31,1.03-4.2,4.33
			c0.24,7.35,0.07,14.72,0.08,22.08c0,8.29,1.3,9.61,9.44,9.61c41.54,0,83.07,0,124.61,0c1,0,2-0.02,2.99,0
			c4.29,0.1,6.64,2.17,6.7,5.87c0.06,3.85-2.35,6.06-6.86,6.09c-8.73,0.05-17.46,0.02-26.19,0.02c-2.25,0-4.49,0.02-6.74-0.01
			c-1.2-0.01-2.08,0.04-2.26,1.67c-0.85,7.88-4.14,14.8-8.63,21.23C181.66,364,181.75,364.3,181.75,364.91z"/>
		<path d="M244.39,274.99c0-27.32-0.01-54.64,0-81.96c0.01-12.4,7.35-19.75,19.79-19.76c34.68-0.02,69.36-0.02,104.05,0
			c12.65,0.01,19.88,7.32,19.89,20.04c0.01,10.73,0.01,21.46,0,32.19c-0.01,5.14-2.07,7.71-6.06,7.66
			c-3.95-0.05-5.89-2.61-5.91-7.83c-0.02-4.37-0.15-8.74,0.05-13.1c0.12-2.55-0.81-3.06-3.17-3.06c-37.8,0.07-75.6,0.07-113.4-0.01
			c-2.61-0.01-3.33,0.66-3.32,3.3c0.09,33.68,0.11,67.37-0.02,101.05c-0.01,3.18,1.13,3.56,3.84,3.55
			c23.7-0.09,47.41-0.05,71.11-0.05c1.37,0,2.77-0.08,4.11,0.14c3.05,0.51,5.06,3.1,4.81,6.17c-0.25,3.11-1.92,5.09-5.07,5.57
			c-1.22,0.18-2.49,0.09-3.74,0.09c-23.83,0-47.66,0.05-71.48-0.06c-2.7-0.01-3.65,0.53-3.57,3.44c0.21,8.35,0.06,16.72,0.08,25.07
			c0.02,5.42,2.02,7.46,7.45,7.46c22.83,0.03,45.66,0.01,68.49,0.01c1.88,0,3.8-0.14,5.4,1.06c2.09,1.58,2.88,3.77,2.3,6.29
			c-0.63,2.71-2.45,4.52-5.25,4.53c-24.82,0.05-49.66,0.31-74.47-0.19c-9.22-0.18-15.86-8.59-15.87-18.16
			C244.36,330.63,244.39,302.81,244.39,274.99z M316.23,197.24c18.83,0,37.66,0.02,56.49-0.04c1.15,0,2.79,0.9,3.4-1.16
			c1.87-6.37-1.47-10.77-8.23-10.77c-34.42,0-68.84,0-103.26,0c-6.49,0-8.11,1.77-8.35,8.11c-0.12,3.05,0.63,3.97,3.83,3.94
			C278.82,197.16,297.53,197.24,316.23,197.24z"/>
		<path d="M352.19,310.81c0-15.33-0.01-30.67,0-46c0.01-12.37,7.37-19.66,19.84-19.67c14.96-0.01,29.92-0.02,44.88,0
			c11.44,0.02,19.08,7.54,19.09,18.91c0.04,31.29,0.04,62.58,0,93.87c-0.01,11.19-7.6,18.88-18.71,18.94
			c-15.46,0.08-30.92,0.08-46.37,0c-11.13-0.06-18.68-7.75-18.71-18.93C352.16,342.23,352.19,326.52,352.19,310.81z M394.49,281.08
			c-9.1,0-18.19,0.09-27.28-0.06c-2.48-0.04-3.1,0.73-3.09,3.14c0.1,17.94,0.08,35.88,0.01,53.82c-0.01,2.19,0.45,3.02,2.86,3.01
			c18.06-0.1,36.13-0.1,54.2,0c2.35,0.01,2.92-0.71,2.9-2.97c-0.08-17.94-0.11-35.88,0.02-53.82c0.02-2.81-1.02-3.21-3.45-3.17
			C411.93,281.15,403.21,281.08,394.49,281.08z M393.71,269.1c9.1,0,18.19,0.03,27.29-0.04c1.05-0.01,2.49,0.74,3.03-1.17
			c1.78-6.24-1.46-10.76-7.87-10.77c-14.58-0.01-29.15-0.01-43.73,0c-6.59,0-8.16,1.78-8.33,8.49c-0.07,2.73,0.56,3.62,3.45,3.56
			C376.26,268.97,384.99,269.1,393.71,269.1z M394.26,352.91c-9.09,0-18.19-0.02-27.28,0.03c-0.97,0.01-2.22-0.6-2.78,1.03
			c-2.04,5.88,1.44,10.93,7.69,10.94c14.45,0.02,28.9,0.01,43.35,0.01c7.25,0,8.87-1.79,8.86-9.11c-0.01-2.28-0.6-2.98-2.92-2.94
			C412.2,352.99,403.23,352.91,394.26,352.91z"/>
		<path d="M112.65,245.02c0,5.73,0.05,11.47-0.01,17.2c-0.05,4.4-2.4,6.94-6.15,6.83c-3.62-0.11-5.77-2.54-5.79-6.81
			c-0.04-11.47-0.05-22.94,0-34.41c0.02-4.14,2.36-6.66,5.94-6.67c3.57-0.01,5.93,2.51,5.99,6.65
			C112.71,233.55,112.65,239.28,112.65,245.02z"/>
		<path d="M280.32,281.45c0,5.49,0.03,10.97-0.01,16.46c-0.04,4.54-2.16,7.04-5.9,7.09c-3.76,0.05-6.03-2.47-6.05-6.92
			c-0.04-11.34-0.04-22.69,0-34.04c0.02-4.4,2.35-6.99,6.06-6.93c3.55,0.06,5.83,2.59,5.88,6.77
			C280.37,269.73,280.32,275.59,280.32,281.45z"/>
		<path d="M208.15,316.99c-2.11,0-4.23,0.12-6.33-0.03c-3.32-0.23-5.22-2.09-5.47-5.44c-0.25-3.31,1.67-6.09,4.95-6.31
			c4.69-0.31,9.44-0.34,14.13-0.01c3.29,0.23,5.01,2.65,4.95,5.93c-0.06,3.28-1.85,5.42-5.16,5.77c-2.33,0.25-4.71,0.05-7.07,0.05
			C208.15,316.97,208.15,316.98,208.15,316.99z"/>
		<path d="M112.63,197.36c0,1.98,0.1,3.97-0.02,5.95c-0.22,3.64-2.51,5.85-5.9,5.88c-3.39,0.03-5.84-2.19-5.97-5.77
			c-0.15-4.09-0.15-8.19-0.01-12.28c0.12-3.55,2.59-5.89,5.88-5.91c3.31-0.02,5.75,2.26,6,5.81
			C112.74,193.14,112.63,195.26,112.63,197.36z"/>
		<path d="M268.38,233.07c0-2.11-0.13-4.23,0.03-6.32c0.25-3.31,2.68-5.54,5.83-5.59c3.15-0.05,5.82,2.12,5.98,5.41
			c0.22,4.45,0.26,8.94-0.03,13.38c-0.21,3.3-2.48,5.02-5.77,5.16c-3.25,0.13-5.62-2.04-6.03-5.34c-0.03-0.25-0.03-0.5-0.03-0.74
			c0-1.98,0-3.97,0-5.95C268.36,233.07,268.37,233.07,268.38,233.07z"/>
		<path d="M316.45,340.96c1.99,0,4-0.1,5.98,0.02c3.61,0.23,5.83,2.61,5.78,6.02c-0.04,3.27-2.18,5.69-5.58,5.83
			c-4.23,0.18-8.48,0.18-12.71,0c-3.42-0.14-5.55-2.55-5.61-5.82c-0.06-3.41,2.17-5.81,5.78-6.04
			C312.21,340.85,314.34,340.96,316.45,340.96z"/>
	</g>
</g>
</svg>
