<?xml version="1.0" encoding="utf-8"?>
<!-- Generator: Adobe Illustrator 24.0.1, SVG Export Plug-In . SVG Version: 6.00 Build 0)  -->
<svg version="1.1" id="레이어_1" xmlns="http://www.w3.org/2000/svg" xmlns:xlink="http://www.w3.org/1999/xlink" x="0px"
	 y="0px" viewBox="0 0 512 512" style="enable-background:new 0 0 512 512;" xml:space="preserve">
<g>
	<g>
		<path d="M142.99,299.04c-5.69,0-11.24,0.01-16.8,0c-12.14-0.03-19.49-7.43-19.52-19.63c-0.01-7.23-0.04-14.47,0.01-21.7
			c0.07-9.59,5.89-16.63,15.37-18.31c2-0.35,2.67-0.87,2.63-2.94c-0.14-6.23-0.1-12.47-0.02-18.71c0.03-1.81-0.47-2.41-2.39-2.76
			c-9.95-1.81-15.56-8.72-15.6-18.86c-0.03-7.36-0.04-14.72,0-22.08c0.06-9.67,5.8-16.78,15.19-18.45c2.16-0.38,2.88-0.92,2.82-3.16
			c-0.17-6.11-0.14-12.22-0.01-18.33c0.04-2.02-0.55-2.61-2.59-2.97c-9.67-1.73-15.37-8.74-15.42-18.65
			c-0.04-7.36-0.04-14.72,0-22.08c0.06-11.23,7.59-18.9,18.73-18.9c59.37-0.03,118.75-0.03,178.12,0
			c10.99,0.01,18.62,7.62,18.71,18.55c0.06,7.48,0.04,14.97,0,22.45c-0.05,9.89-5.76,16.89-15.44,18.63c-2.07,0.37-2.6,1.01-2.56,3
			c0.12,6.11,0.1,12.22,0.01,18.33c-0.03,1.86,0.25,2.7,2.45,3.09c9.76,1.72,15.48,8.68,15.54,18.53c0.05,7.48,0.05,14.97,0,22.45
			c-0.06,9.64-5.82,16.72-15.27,18.39c-2.26,0.4-2.78,1.11-2.74,3.24c0.14,5.98,0.11,11.97,0.01,17.96
			c-0.03,1.99,0.58,2.5,2.58,3.39c6.62,2.93,13.28,4.28,20.48,3.4c1.46-0.18,3.11,0.75,4.61,1.32c5.16,1.95,9.89,0.13,11.97-4.94
			c2.33-5.68,6.26-9.55,12.13-11.28c1.63-0.48,2.18-1.16,2.18-2.82c-0.04-33.8-0.03-67.61-0.05-101.41c0-0.32-0.18-0.64-0.42-1.44
			c-7.09,7.09-13.93,13.93-20.77,20.77c-4.47,4.47-4.47,4.47-8.82,0.12c-4.13-4.13-4.13-4.13,0.02-8.29
			c11.2-11.2,22.46-22.35,33.55-33.66c1.99-2.03,2.99-1.95,4.93,0.03c11.72,11.92,23.55,23.73,35.45,35.46
			c1.89,1.86,1.82,2.86-0.03,4.68c-6.22,6.12-6.15,6.2-12.31,0.04c-6.3-6.31-12.59-12.64-18.99-19.07
			c-0.97,1.41-0.61,2.55-0.61,3.61c-0.02,32.56,0,65.11-0.06,97.67c0,2.52,0.4,3.92,3.24,4.73c5.18,1.48,8.63,5.23,10.8,10.17
			c2.65,6.03,6.69,7.6,12.92,5.28c7.32-2.72,13.97-1.46,19.79,3.78c1.48,1.33,2.88,2.77,4.25,4.22c5.7,6.05,7,12.97,3.98,20.71
			c-2.12,5.44-0.31,9.95,4.94,12.23c7.93,3.43,11.94,9.45,11.98,18.1c0.01,1.5,0.02,2.99,0,4.49c-0.12,8.49-4.11,14.41-11.87,17.8
			c-5.17,2.26-7.26,6.82-5.22,11.81c3.75,9.2,1.04,16.52-5.77,23.28c-6.73,6.67-14,9.15-23.02,5.48
			c-5.12-2.08-10.46,0.67-12.21,5.89c-0.61,1.81,0.56,2.52,1.33,3.53c18.52,24.21,6.44,58.85-23.14,66.29
			c-3.65,0.92-7.35,1.28-11.11,1.28c-75.34-0.01-150.68,0.03-226.02-0.03c-28.31-0.02-51-20.66-54.07-48.88
			c-2.9-26.66,15.55-52.19,42.73-57.42c6.99-1.35,9.76-4.23,11.91-10.32c3.23-9.12,8.86-16.97,15.38-24.13
			C141.65,301.2,142.7,300.64,142.99,299.04z M237.76,430.77c38.29,0,76.58,0.17,114.87-0.09c12.78-0.09,22.17-6.63,27.09-18.41
			c4.93-11.81,2.77-22.96-6.12-32.15c-8.88-9.17-19.79-11.39-31.96-7.28c-2.44,0.82-5.04,3.39-7.13,2.33
			c-2.08-1.05-1.83-4.64-2.66-7.09c-7.06-21.05-27.46-34.72-49.35-33c-22.05,1.73-40.18,18.69-43.52,40.71
			c-1.08,7.11-1.09,6.86-8.53,7.2c-3.79,0.17-4.29-1.31-3.94-4.45c2.64-23.82,14.75-40.86,36.58-50.72
			c3.18-1.44,3.34-2.56,1.54-4.95c-0.22-0.3-0.38-0.64-0.57-0.96c-15.01-25.09-43.15-38.24-72.79-34
			c-28.02,4.01-51.48,25.54-58.45,53.66c-1.37,5.52-1.37,5.52-7.22,5.41c-23.63-0.42-42.95,18.52-42.89,42.02
			c0.06,23.19,18.7,41.69,42.41,41.76C162.68,430.86,200.22,430.78,237.76,430.77z M214.46,119.39c29.32,0,58.63,0.01,87.95-0.01
			c5.86,0,7.84-2,7.86-7.87c0.02-6.99,0.04-13.97-0.01-20.96c-0.04-4.88-2.22-7.09-7.11-7.09c-59.13-0.02-118.26-0.02-177.39,0
			c-4.89,0-7.06,2.21-7.09,7.1c-0.05,6.74-0.02,13.47-0.01,20.21c0.01,6.86,1.74,8.6,8.62,8.6
			C156.33,119.39,185.39,119.39,214.46,119.39z M214.2,203.23c29.44,0,58.88,0.01,88.32-0.01c5.65,0,7.72-2.04,7.74-7.6
			c0.03-6.99,0.04-13.97,0-20.96c-0.03-5.16-2.14-7.35-7.23-7.35c-59.01-0.02-118.01-0.02-177.02,0c-5.3,0-7.34,2.15-7.36,7.59
			c-0.03,6.61-0.01,13.22-0.01,19.83c0.01,6.67,1.79,8.49,8.36,8.49C156.07,203.23,185.13,203.23,214.2,203.23z M214.44,251.13
			c-29.43,0-58.87-0.01-88.3,0.01c-5.37,0-7.46,2.1-7.48,7.47c-0.03,6.98-0.03,13.97,0,20.95c0.02,5.37,2.11,7.47,7.47,7.49
			c10.23,0.03,20.45-0.02,30.68,0.04c1.83,0.01,3.34-0.56,4.92-1.39c27.17-14.26,54.38-14.27,81.56-0.02
			c1.45,0.76,2.81,1.41,4.54,1.41c18.46-0.05,36.92-0.01,55.38-0.05c4.86-0.01,7.03-2.23,7.06-7.14c0.05-6.86,0.02-13.72,0.01-20.58
			c-0.01-6.33-1.89-8.19-8.28-8.19C272.81,251.13,243.62,251.13,214.44,251.13z M298.29,305.53c-0.27,3.42,0.15,7.03,4.6,8.62
			c6.84,2.44,10.63,7.61,12.49,14.32c0.51,1.86,1.41,3.01,2.97,4c9.71,6.17,17.15,14.41,21.96,24.88c1.03,2.24,2.18,2.77,4.52,2.31
			c9.13-1.82,17.89-0.4,26.11,3.84c2.21,1.14,3.11,1.12,4.51-1.15c4.91-7.96,15.67-11.55,24.24-7.97c4.55,1.9,7.66,0.79,10.98-2.54
			c3.35-3.35,4.88-6.42,2.88-11.23c-4.11-9.91,0.86-21.84,10.77-25.87c4.66-1.9,5.84-5.01,5.82-9.63c-0.02-4.54-0.91-7.82-5.63-9.74
			c-10.14-4.13-15.08-16.01-10.91-26.11c1.83-4.44,0.66-7.46-2.53-10.64c-3.29-3.28-6.3-5.08-11.18-3.04
			c-10.07,4.22-21.93-0.8-26.09-10.95c-1.85-4.51-4.94-5.6-9.39-5.58c-4.47,0.02-8.09,0.62-9.8,5.51
			c-1.73,4.97-5.41,8.19-10.19,10.35c-5.65,2.55-11.18,2.93-16.98,0.41c-4.15-1.8-5.18-1.02-5.18,3.16c0,7.48,0.08,14.97-0.02,22.45
			c-0.14,10.26-7.81,17.87-18.06,18.09C298.29,299.16,298.29,299.16,298.29,305.53z M214.65,131.37c-24.81,0-49.63,0.06-74.44-0.07
			c-3-0.02-3.78,0.83-3.66,3.73c0.22,5.6,0.22,11.23,0,16.83c-0.11,2.75,0.61,3.57,3.47,3.54c17.83-0.14,35.66-0.07,53.49-0.07
			c31.67,0,63.35-0.05,95.02,0.08c3.16,0.01,4-0.83,3.86-3.92c-0.26-5.47-0.23-10.98-0.01-16.45c0.12-2.88-0.65-3.75-3.65-3.73
			C264.03,131.43,239.34,131.37,214.65,131.37z M214.06,239.16c24.94,0,49.88-0.05,74.82,0.07c2.82,0.01,3.6-0.73,3.49-3.52
			c-0.23-5.48-0.26-10.98,0.01-16.45c0.16-3.21-0.62-4.15-4.02-4.14c-35.41,0.15-70.83,0.09-106.24,0.09
			c-14.09,0-28.18,0.07-42.27-0.06c-2.65-0.03-3.39,0.71-3.3,3.33c0.2,5.6,0.24,11.23-0.01,16.83c-0.14,3.06,0.65,3.96,3.83,3.94
			C164.93,239.09,189.5,239.16,214.06,239.16z M294.18,323.54c-6.33-6.79-7.72-9.84-7.89-16.1c-0.07-2.69,1.21-6.19-0.51-7.86
			c-1.72-1.67-5.21-0.48-7.92-0.52c-5.25-0.08-10.51-0.02-16.5-0.02c6.19,6.47,11.17,12.69,14.7,19.87c1.6,3.25,3.17,5.07,7.23,4.26
			C286.65,322.5,290.22,322.96,294.18,323.54z"/>
		<path d="M202.48,305.02c0,5.53,0,5.5-5.3,6.29c-20.54,3.07-34.23,14.32-40.58,34.19c-0.67,2.09-1.4,2.66-3.62,2.2
			c-9.65-2.01-9.89-2.03-5.94-11.26c9.65-22.52,26.98-34.69,51.2-37.25C202.46,298.74,202.48,298.89,202.48,305.02z"/>
		<path d="M316.21,382.88c-0.12,0-0.25-0.02-0.37,0c-3.98,0.79-5.58-0.56-6.3-4.88c-1.71-10.25-9.73-17.38-20.43-18.86
			c-2.2-0.31-3.18-0.84-2.8-3.09c0.08-0.48,0.01-0.99,0.01-1.49c-0.01-8.7-0.01-8.7,8.5-6.62c14.73,3.61,25.74,16.36,27.32,31.49
			c0.25,2.36,0.03,3.93-2.94,3.47C318.22,382.75,317.21,382.88,316.21,382.88z"/>
		<path d="M244.28,95.44c6.11,0,6.11,0,6.11,7.08c0,4.9,0,4.9-7.17,4.9c-4.81,0-4.81,0-4.81-7.64
			C238.41,95.44,238.41,95.44,244.28,95.44z"/>
		<path d="M268.2,95.44c6.14,0,6.14,0,6.14,6.3c0,5.67,0,5.67-5.65,5.67c-6.33,0-6.33,0-6.33-6.49
			C262.36,95.44,262.36,95.44,268.2,95.44z"/>
		<path d="M298.29,101.52c0,5.89,0,5.89-6.92,5.89c-5.06,0-5.06,0-5.05-7.39c0-4.59,0-4.59,7.48-4.59
			C298.29,95.44,298.29,95.44,298.29,101.52z"/>
		<path d="M142.6,185.14c0,6.11,0,6.11-7.08,6.11c-4.9,0-4.9,0-4.9-7.17c0-4.81,0-4.81,7.64-4.81
			C142.6,179.28,142.6,179.28,142.6,185.14z"/>
		<path d="M166.55,185.29c0,5.96,0,5.96-7.23,5.96c-4.75,0-4.75,0-4.75-7.32c0-4.66,0-4.66,7.42-4.65
			C166.55,179.28,166.55,179.28,166.55,185.29z"/>
		<path d="M190.5,185.33c0,5.92,0,5.92-6.9,5.92c-5.08,0-5.08,0-5.08-7.36c0-4.62,0-4.62,7.46-4.61
			C190.5,179.28,190.5,179.28,190.5,185.33z"/>
		<path d="M238.41,268.82c0-5.71,0-5.71,5.61-5.71c6.36,0,6.36,0,6.36,6.45c0,0.5-0.07,1.01,0.01,1.49c0.54,3.18-0.55,4.7-3.95,4.05
			c-0.6-0.11-1.24-0.02-1.86-0.02C238.41,275.09,238.41,275.09,238.41,268.82z"/>
		<path d="M268.48,263.11c5.86,0,5.86,0,5.86,6.96c0,5.02,0,5.02-7.43,5.02c-4.56,0-4.56,0-4.55-7.52
			C262.37,263.11,262.37,263.11,268.48,263.11z"/>
		<path d="M292.41,263.11c5.88,0,5.88,0,5.88,6.93c0,5.05,0,5.05-7.4,5.04c-4.58,0-4.58,0-4.58-7.49
			C286.32,263.11,286.32,263.11,292.41,263.11z"/>
		<path d="M364.3,346.94c-23.04,0.07-41.98-18.75-42.05-41.77c-0.06-23.06,18.73-41.97,41.77-42.04
			c23.07-0.07,41.97,18.72,42.04,41.76C406.14,327.94,387.34,346.86,364.3,346.94z M364.5,275.1
			c-16.55-0.14-30.17,13.21-30.27,29.68c-0.1,16.38,13.12,29.95,29.4,30.18c16.55,0.23,30.28-13.05,30.46-29.49
			C394.27,288.9,380.97,275.24,364.5,275.1z"/>
		<path d="M382.11,304.97c0.03,9.93-8.15,18.08-18.08,18.01c-9.77-0.06-17.79-8.13-17.82-17.9c-0.03-9.94,8.14-18.07,18.08-18.01
			C374.07,287.14,382.09,295.19,382.11,304.97z M364.06,310.99c3.23,0.06,6-2.62,6.06-5.86c0.06-3.24-2.61-6-5.85-6.06
			c-3.24-0.06-6,2.61-6.06,5.85C358.15,308.16,360.81,310.93,364.06,310.99z"/>
	</g>
</g>
</svg>
