<?xml version="1.0" encoding="utf-8"?>
<!-- Generator: Adobe Illustrator 27.2.0, SVG Export Plug-In . SVG Version: 6.00 Build 0)  -->
<svg version="1.1" id="레이어_1" xmlns="http://www.w3.org/2000/svg" xmlns:xlink="http://www.w3.org/1999/xlink" x="0px"
	 y="0px" viewBox="0 0 512 512" style="enable-background:new 0 0 512 512;" xml:space="preserve">
<style type="text/css">
	.st0{fill:none;stroke:#000000;stroke-width:10;stroke-miterlimit:10;}
</style>
<g>
	<line class="st0" x1="363.91" y1="231.15" x2="363.91" y2="105.09"/>
	<line class="st0" x1="328.05" y1="141.79" x2="367.25" y2="101.83"/>
	<line class="st0" x1="399.76" y1="141.79" x2="360.33" y2="101.59"/>
</g>
<path class="st0" d="M304.34,123.91H123.91c-6.77,0-12.26-5.49-12.26-12.26V88.17c0-6.77,5.49-12.26,12.26-12.26h180.43
	c6.77,0,12.26,5.49,12.26,12.26v23.49C316.6,118.43,311.11,123.91,304.34,123.91z"/>
<rect x="237.94" y="93.74" width="12.34" height="12.34"/>
<rect x="261.81" y="93.74" width="12.34" height="12.34"/>
<rect x="285.68" y="93.74" width="12.34" height="12.34"/>
<path class="st0" d="M123.91,207.66h180.43c6.77,0,12.26-5.49,12.26-12.26v-23.49c0-6.77-5.49-12.26-12.26-12.26H123.91
	c-6.77,0-12.26,5.49-12.26,12.26v23.49C111.66,202.17,117.15,207.66,123.91,207.66z"/>
<rect x="177.98" y="177.49" transform="matrix(-1 -4.488377e-11 4.488377e-11 -1 368.2979 367.3192)" width="12.34" height="12.34"/>
<rect x="154.11" y="177.49" transform="matrix(-1 -4.488377e-11 4.488377e-11 -1 320.5532 367.3192)" width="12.34" height="12.34"/>
<rect x="130.23" y="177.49" transform="matrix(-1 -4.488377e-11 4.488377e-11 -1 272.8085 367.3192)" width="12.34" height="12.34"/>
<rect x="237.94" y="261.23" width="12.34" height="12.34"/>
<rect x="261.81" y="261.23" width="12.34" height="12.34"/>
<rect x="285.68" y="261.23" width="12.34" height="12.34"/>
<line class="st0" x1="129.53" y1="128.17" x2="129.53" y2="157.96"/>
<line class="st0" x1="298.02" y1="128.17" x2="298.02" y2="157.96"/>
<line class="st0" x1="298.02" y1="210.64" x2="298.02" y2="240.43"/>
<line class="st0" x1="129.53" y1="210.64" x2="129.53" y2="240.43"/>
<path class="st0" d="M356.22,367.36c-6.72,0-12.96,2.13-18.14,5.77c-3.23-23.49-22.55-41.54-45.91-41.54
	c-5.8,0-11.34,1.12-16.46,3.15c-9.12-31.76-37.28-54.91-70.64-54.91c-36.49,0-66.78,27.72-72.69,64.1
	c-4.02-1.24-8.26-1.92-12.66-1.92c-24.67,0-44.67,20.91-44.67,46.69c0,25.79,20,46.69,44.67,46.69h236.5
	c17.98,0,32.55-15.23,32.55-34.02C388.77,382.59,374.19,367.36,356.22,367.36z"/>
<path class="st0" d="M149.11,345.53c0,0,9.53-43.23,52.43-41.53"/>
<path class="st0" d="M285.68,352c0,0,28.19-0.34,30.91,29.28"/>
<path class="st0" d="M276.48,334.45c0,0-35.14,9.98-36.14,49.81"/>
<path class="st0" d="M243.92,290.93h60.42c6.77,0,12.26-5.49,12.26-12.26v-23.49c0-6.77-5.49-12.26-12.26-12.26H123.91
	c-6.77,0-12.26,5.49-12.26,12.26v23.49c0,6.77,5.49,12.26,12.26,12.26h42.31c11.28-7.33,24.58-11.57,38.84-11.57
	C219.33,279.36,232.64,283.6,243.92,290.93z"/>
<circle class="st0" cx="363.91" cy="303.95" r="13.02"/>
<circle class="st0" cx="363.91" cy="303.95" r="35.49"/>
<path class="st0" d="M432.09,291.97l-6.54-5.29c-3.57-2.89-5.18-7.57-4.14-12.04l1.84-7.94c0.97-4.17-0.36-8.54-3.48-11.47
	l-6.76-6.33c-2.77-2.6-6.61-3.73-10.34-3.05l-6.44,1.16c-5.64,1.02-11.22-2.09-13.31-7.44l-0.31-0.8c-1.8-4.6-6.24-7.63-11.17-7.63
	h-12.71c-4.01,0-7.76,2.01-9.98,5.34l-4.5,6.75c-2.82,4.23-8,6.22-12.93,4.98l-4.99-1.26c-3.56-0.9-7.29-0.11-10.16,2.05
	c1.16,1.87,1.84,4.07,1.84,6.44v23.49c0,6.77-6.48,13.25-13.25,13.25l-4.6-0.04c-1.07,0.12-3.62,0.28-4.56,0.8l-1.52,0.95
	c-2.15,2.24-2.79,3.83-2.79,6.93v6.14c0,4.54,2.56,8.69,6.62,10.73l3.25,1.63c4.28,2.14,7.36,6.09,8.41,10.76l0.78,3.49
	c11.08,4.5,20.1,13.32,25.16,24.49l3.89,8.56l4.07,2.82c4.28-2.17,9.08-3.38,14.16-3.38c6.45,0,12.46,1.97,17.52,5.36l6.48-9.14
	c3.1-3.11,11.17-5.19,15.38-3.97l3.57,1.04c4.23,1.23,8.8,0.04,11.9-3.1l6.61-6.71c3.19-3.24,4.28-8.01,2.8-12.32l-0.48-1.41
	c-1.76-5.12,0.13-10.78,4.6-13.82l4.58-3.11c2.97-2.02,4.88-5.26,5.21-8.84l0.7-7.66C436.86,298.39,435.2,294.49,432.09,291.97z"/>
</svg>
