<?xml version="1.0" encoding="utf-8"?>
<!-- Generator: Adobe Illustrator 24.0.1, SVG Export Plug-In . SVG Version: 6.00 Build 0)  -->
<svg version="1.1" id="레이어_1" xmlns="http://www.w3.org/2000/svg" xmlns:xlink="http://www.w3.org/1999/xlink" x="0px"
	 y="0px" viewBox="0 0 512 512" style="enable-background:new 0 0 512 512;" xml:space="preserve">
<g>
	<g>
		<path d="M64.75,129.12c0.49-1.52,0.97-3.05,1.47-4.57c3.82-11.53,14.28-19.32,26.52-19.48c11.47-0.14,22.95-0.04,34.43-0.04
			c81.2,0,162.4-0.01,243.61,0.01c15.71,0,27.11,9.2,29.7,24c0.38,2.19,0.37,4.47,0.38,6.71c0.02,25.82,0.07,51.64-0.06,77.46
			c-0.02,3.17,0.92,3.97,3.98,3.89c8.6-0.2,17.21-0.11,25.82-0.06c10.97,0.07,17.4,6.56,17.4,17.52c0.01,52.39,0.01,104.78,0,157.16
			c0,11.01-6.43,17.47-17.37,17.48c-27.82,0.02-55.63,0.02-83.45,0c-10.94-0.01-17.38-6.48-17.4-17.47
			c-0.02-17.46-0.07-34.93,0.06-52.39c0.02-2.8-0.72-3.56-3.53-3.55c-28.19,0.1-56.38,0.11-84.57-0.01
			c-2.93-0.01-3.51,0.95-3.47,3.63c0.15,9.48,0.18,18.96-0.01,28.44c-0.06,2.88,0.87,3.53,3.59,3.52
			c20.33-0.1,40.66-0.06,60.99-0.05c1.37,0,2.76-0.04,4.1,0.2c2.86,0.52,4.31,2.42,4.29,5.27c-0.02,2.88-1.62,4.67-4.4,5.23
			c-1.2,0.25-2.48,0.11-3.73,0.11c-46.9,0-93.8,0-140.7,0c-1.12,0-2.27,0.11-3.36-0.08c-2.97-0.52-4.66-2.33-4.64-5.39
			c0.02-2.87,1.53-4.7,4.4-5.18c1.34-0.22,2.73-0.18,4.1-0.18c20.08-0.01,40.16-0.07,60.25,0.06c3.13,0.02,4.35-0.56,4.24-4.04
			c-0.27-9.22-0.23-18.46-0.01-27.69c0.08-3.21-0.97-3.88-4.01-3.87c-41.29,0.1-82.58-0.36-123.86,0.26
			c-17.84,0.27-30.41-6.9-34.77-24.29C64.75,250.88,64.75,190,64.75,129.12z M232.68,115.79c-45.77,0-91.54-0.01-137.31,0.01
			c-12.47,0-19.65,7.04-19.65,19.36c-0.03,51.63,0.01,103.26-0.08,154.9c-0.01,3.08,0.76,3.96,3.91,3.96
			c82.19-0.09,164.38-0.08,246.56-0.01c2.89,0,3.76-0.7,3.74-3.69c-0.14-18.33-0.08-36.67-0.07-55
			c0.01-11.96,6.26-18.26,18.18-18.28c12.72-0.02,25.44-0.07,38.16,0.04c2.73,0.02,3.94-0.47,3.92-3.62
			c-0.13-26.31-0.08-52.63-0.07-78.94c0-4.09-0.85-7.91-3.32-11.27c-4.05-5.51-9.65-7.48-16.28-7.47
			C324.47,115.8,278.57,115.79,232.68,115.79z M437.05,297.6c0-20.71,0.01-41.41,0-62.12c0-6.18-1.36-7.55-7.39-7.55
			c-27.19-0.01-54.39-0.01-81.58,0c-5.87,0-7.29,1.4-7.29,7.25c-0.01,41.79,0.02,83.58-0.07,125.36c-0.01,2.89,0.7,3.76,3.69,3.75
			c29.69-0.11,59.38-0.12,89.06,0c3.1,0.01,3.65-1.05,3.64-3.83C437.01,339.51,437.05,318.56,437.05,297.6z M202.47,304.97
			c-40.15,0-80.29,0-120.44,0c-7,0-7.75,1.1-5.4,7.99c0.32,0.94,0.67,1.89,1.16,2.74c3.94,6.92,10.12,9.39,17.83,9.38
			c76.55-0.05,153.1-0.03,229.65-0.03c0.25,0,0.5-0.03,0.75,0c2.81,0.42,4.02-0.49,3.81-3.6c-0.28-4.22-0.29-8.49,0-12.71
			c0.23-3.22-0.91-3.85-3.95-3.84C284.75,305.01,243.61,304.97,202.47,304.97z M389.11,375.21c-14.95,0-29.91,0.07-44.86-0.06
			c-2.8-0.03-3.68,0.75-3.54,3.55c0.23,4.47,0.02,8.97,0.08,13.45c0.06,4.42,1.72,6.27,6.03,6.28c28.04,0.05,56.07,0.05,84.11,0
			c4.33-0.01,6.02-1.83,6.1-6.24c0.08-4.36-0.17-8.73,0.08-13.08c0.18-3.07-0.72-4.02-3.89-3.98
			C418.52,375.3,403.81,375.21,389.11,375.21z"/>
		<path d="M388.19,244.4c-2.98,0-5.96,0.06-8.94-0.01c-3.66-0.09-5.95-2.08-6.1-5.16c-0.16-3.16,1.94-5.58,5.56-5.69
			c6.33-0.19,12.67-0.2,19,0c3.64,0.11,5.66,2.48,5.51,5.71c-0.15,3.14-2.36,5.07-6.07,5.15
			C394.15,244.45,391.17,244.4,388.19,244.4z"/>
		<path d="M388.06,392.15c-3.12,0-6.24,0.12-9.35-0.03c-3.5-0.17-5.54-2.24-5.56-5.31c-0.03-3.14,2.26-5.38,5.84-5.43
			c6.11-0.08,12.23-0.08,18.34,0c3.7,0.05,5.87,2.11,5.89,5.33c0.03,3.27-2.03,5.29-5.8,5.43c-3.11,0.12-6.24,0.02-9.36,0.02
			C388.06,392.16,388.06,392.16,388.06,392.15z"/>
	</g>
</g>
</svg>
