<?xml version="1.0" standalone="no"?>
<!DOCTYPE svg PUBLIC "-//W3C//DTD SVG 20010904//EN"
 "http://www.w3.org/TR/2001/REC-SVG-20010904/DTD/svg10.dtd">
<svg version="1.0" xmlns="http://www.w3.org/2000/svg"
 width="512.000000pt" height="512.000000pt" viewBox="0 0 512.000000 512.000000"
 preserveAspectRatio="xMidYMid meet">

<g transform="translate(0.000000,512.000000) scale(0.100000,-0.100000)"
fill="#000000" stroke="none">
<path d="M92 5080 c-18 -11 -41 -34 -52 -52 -20 -33 -20 -55 -20 -1988 0
-1933 0 -1955 20 -1988 11 -18 34 -41 52 -52 32 -19 53 -20 941 -20 l907 0 0
-340 0 -340 -187 0 c-210 0 -233 -6 -273 -72 -39 -64 -16 -146 52 -188 32 -20
53 -20 1023 -20 923 0 992 1 1024 18 101 51 106 183 9 242 -30 18 -51 20 -220
20 l-188 0 0 340 0 340 914 2 c907 3 915 3 943 24 15 11 36 36 45 55 17 32 18
147 18 1984 0 1928 0 1950 -20 1983 -11 18 -34 41 -52 52 -33 20 -56 20 -2468
20 -2412 0 -2435 0 -2468 -20z m4728 -1720 l0 -1460 -2260 0 -2260 0 0 1460 0
1460 2260 0 2260 0 0 -1460z m0 -1920 l0 -180 -2260 0 -2260 0 0 180 0 180
2260 0 2260 0 0 -180z m-1920 -800 l0 -340 -340 0 -340 0 0 340 0 340 340 0
340 0 0 -340z"/>
<path d="M1313 4366 c-175 -43 -325 -180 -384 -353 -19 -55 -24 -89 -24 -173
1 -123 28 -215 89 -300 20 -27 36 -53 36 -58 0 -4 -18 -17 -40 -29 -167 -96
-313 -289 -376 -498 -25 -82 -27 -108 -31 -300 -5 -208 -5 -210 19 -245 49
-74 6 -70 838 -70 690 0 748 1 779 18 19 9 44 30 55 45 20 27 21 41 20 245 0
207 -2 221 -28 307 -64 209 -210 402 -376 498 -22 12 -40 25 -40 28 0 4 18 33
39 65 63 95 85 171 85 294 1 84 -4 118 -23 173 -76 222 -285 369 -519 366 -37
0 -91 -6 -119 -13z m243 -294 c188 -96 188 -367 0 -464 -120 -62 -283 -8 -349
116 -29 54 -31 174 -3 226 35 67 95 118 166 141 41 14 142 3 186 -19z m7 -787
c111 -23 192 -69 282 -160 123 -122 174 -248 175 -427 l0 -78 -580 0 -580 0 0
78 c1 179 52 305 174 427 150 148 329 203 529 160z"/>
<path d="M3925 4369 c-11 -6 -129 -120 -262 -252 l-242 -241 -108 106 c-113
111 -147 129 -210 114 -34 -9 -90 -65 -99 -99 -17 -69 -1 -93 174 -269 175
-177 203 -196 270 -183 32 6 81 50 344 313 321 319 336 339 324 407 -16 84
-121 141 -191 104z"/>
<path d="M2652 3160 c-94 -57 -94 -183 0 -240 32 -19 53 -20 903 -20 809 0
872 1 904 18 101 51 106 183 9 242 -32 19 -52 20 -908 20 -856 0 -876 -1 -908
-20z"/>
<path d="M2652 2520 c-94 -57 -94 -183 0 -240 32 -19 53 -20 903 -20 809 0
872 1 904 18 101 51 106 183 9 242 -32 19 -52 20 -908 20 -856 0 -876 -1 -908
-20z"/>
</g>
</svg>
