<?xml version="1.0" encoding="utf-8"?>
<!-- Generator: Adobe Illustrator 24.0.1, SVG Export Plug-In . SVG Version: 6.00 Build 0)  -->
<svg version="1.1" id="레이어_1" xmlns="http://www.w3.org/2000/svg" xmlns:xlink="http://www.w3.org/1999/xlink" x="0px"
	 y="0px" viewBox="0 0 512 512" style="enable-background:new 0 0 512 512;" xml:space="preserve">
<style type="text/css">
	.st0{fill:#FEFEFE;}
	.st1{fill:#010101;}
	.st2{fill:#020202;}
	.st3{fill:#FBFBFB;}
	.st4{fill:#F00707;}
	.st5{fill:#FCFCFC;}
	.st6{fill:#F4F4F4;}
	.st7{fill:#F2F2F2;}
	.st8{fill:#F1F1F1;}
	.st9{fill:#E4E4E4;}
	.st10{fill:#C42F2F;}
	.st11{fill:#E62B2B;}
	.st12{fill:#E22D2D;}
	.st13{fill:#F3F3F3;}
</style>
<g>
	<g>
		<path class="st0" d="M64.07,256c0-62.98,0.02-125.96-0.07-188.94C64,64.5,64.5,64,67.06,64c125.96,0.08,251.91,0.08,377.87,0
			c2.56,0,3.07,0.5,3.06,3.06c-0.08,125.96-0.08,251.91,0,377.87c0,2.56-0.5,3.07-3.06,3.06c-125.96-0.08-251.91-0.08-377.87,0
			c-2.56,0-3.07-0.5-3.07-3.06C64.09,381.96,64.07,318.98,64.07,256z"/>
		<path d="M108.97,257.51c0-54.24,0.13-108.48-0.14-162.72c-0.04-8.33,5.88-13.65,13.55-13.63c93.52,0.2,187.04,0.2,280.55,0
			c7.75-0.02,13.73,5.14,13.7,13.86c-0.22,91.02-0.15,182.05-0.09,273.07c0,2.42-0.66,4.1-2.4,5.83
			c-19.38,19.23-38.69,38.55-57.94,57.91c-1.34,1.35-2.59,1.94-4.5,1.94c-76.93-0.05-153.87-0.04-230.8-0.05
			c-7.41,0-11.92-4.86-11.93-12.73C108.96,366.48,108.97,312,108.97,257.51z"/>
		<path class="st0" d="M116.44,257.5c0-54,0-107.99,0-161.99c0-6.1,0.67-6.76,6.92-6.76c92.9,0,185.8,0,278.71,0
			c6.38,0,6.96,0.59,6.96,7.09c0,88.79-0.02,177.57,0.08,266.36c0,3.23-0.66,4.18-4.04,4.13c-14.46-0.21-28.93-0.11-43.39-0.08
			c-8.22,0.01-12.62,4.47-12.63,12.73c-0.01,14.59-0.08,29.18,0.07,43.77c0.03,2.8-0.67,3.51-3.48,3.51
			c-74.45-0.08-148.89-0.06-223.34-0.07c-4.81,0-5.84-1.06-5.84-5.96C116.44,365.99,116.44,311.74,116.44,257.5z"/>
		<path class="st0" d="M402.61,373.94c-15.31,15.25-30.61,30.48-46.09,45.89c-0.43-0.21,0.03-1.21,0.03-1.98
			c-0.03-13.08,0.02-26.15-0.05-39.23c-0.02-3.24,1.32-4.92,4.61-4.92c13.57,0,27.15-0.01,40.72,0.01
			C402.15,373.71,402.47,373.9,402.61,373.94z"/>
		<path d="M287.86,265.16c-1.79-3.76-1.08-5,3.01-5.06c3.61-0.05,7.23,0.04,10.85-0.02c3.62-0.06,6.05-2.18,6.13-5.19
			c0.08-3.14-2.44-5.41-6.22-5.47c-3.74-0.06-7.48-0.02-11.22-0.01c-1.96,0-3.62-0.53-3.52-2.85c0.09-2.1,1.72-2.48,3.5-2.46
			c3.12,0.02,6.24,0.08,9.35-0.02c3.58-0.11,6.01-2.33,6.02-5.32c0.02-3-2.41-5.23-5.95-5.4c-1.62-0.08-3.24,0-4.86-0.07
			c-1.45-0.07-2.3-0.96-2.5-2.33c-0.19-1.27,0.56-2.14,1.66-2.65c6.19-2.85,14.99,1.32,16.69,7.88c0.73,2.82,0.24,5.43-1.19,7.91
			c-0.46,0.81-1.08,1.38-0.23,2.58c5.27,7.41,5.2,9.9-0.28,16.94c2.43,0.97,4.93,1.67,7.14,2.9c12.44,6.9,15.07,23.13,5.39,33.91
			c-3.29,3.67-7.17,6.81-10.78,10.19c0.19,0.37,0.38,0.73,0.57,1.1c4.54,0,9.09-0.04,13.63,0.01c3.28,0.04,6.38,1.06,8.82,3.14
			c3.33,2.83,5.03,6.6,3.67,11.02c-1.49,4.85-5.88,8.21-10.89,8.35c-6.23,0.17-12.47,0.06-18.7,0.07c-1.21,0-2.43,0-3.82,0.45
			c3.03,3.36,5.09,7.75,10.91,7.09c3.69-0.42,7.47-0.17,11.21-0.04c5.68,0.2,10.68,4.38,11.56,9.47c0.86,4.99-2.29,10.03-7.74,12.21
			c-1.59,0.63-2.92,1.1-2.63,3.33c0.27,2.04-0.19,3.9,2.64,4.92c5.71,2.06,8.93,7.62,7.64,12.55c-1.15,4.39-6.02,9.12-12.09,9.1
			c-42.01-0.19-84.03-0.1-126.04-0.1c-6.37,0-11.78-4.75-12.07-10.55c-0.29-5.83,4.34-11.17,10.73-11.72
			c2.7-0.23,2.84-1.38,2.9-3.49c0.06-2.08-0.27-3.06-2.68-3.35c-6.86-0.84-11.33-5.91-10.94-11.92c0.38-5.82,5.78-10.38,12.51-10.47
			c3.74-0.05,7.55-0.47,11.2,0.09c6.39,0.98,10.28-2.23,13.62-6.93c-0.68-1.11-1.79-0.59-2.68-0.59
			c-7.48-0.05-14.96,0.03-22.44-0.06c-6.85-0.08-12.18-5.01-12.23-11.1c-0.05-6.19,5.5-11.39,12.31-11.45
			c5.83-0.05,11.66-0.01,18.67-0.01c-4.15-4.07-7.72-7.28-10.96-10.79c-9.4-10.18-8.62-23.64,2.01-32.48
			c2.11-1.75,2.72-3.47,2.68-6.01c-0.12-8.35-0.07-16.71-0.03-25.06c0.03-6.09,3.14-9.23,9.17-9.34c2.12-0.04,4.24,0,6.36,0
			c1.95,0.01,3.66,0.69,5.16,1.89c3.93,3.14,3.88,3.11,7.27-1.03c4.46-5.46,6.29-12.1,8.5-18.57c2.1-6.12,4.07-12.29,6.24-18.39
			c2.09-5.87,6.66-7.39,11.79-3.87c5.76,3.94,8.27,9.51,7.41,16.45c-0.4,3.21-1.16,6.37-1.76,9.55c-1.45,7.69,1.86,12.54,9.61,13.91
			c1.79,0.32,3.29,0.88,3.12,2.93c-0.17,2.06-1.76,2.41-3.56,2.39c-9.03-0.06-16.07-8.76-14.7-18.36c0.53-3.7,1.45-7.34,1.97-11.04
			c0.65-4.57-0.94-8.33-4.65-11.13c-2.1-1.58-3.49-1.36-4.39,1.4c-2.54,7.81-5.3,15.56-7.85,23.37c-2.77,8.5-7.05,15.95-14.41,21.29
			c-1.32,0.96-1.49,2.11-1.48,3.54c0.05,5.61,0,11.22,0.04,16.83c0.01,1.52-0.12,2.98-0.74,4.37c-2.9,1.49-4.52,0.91-5.19-1.91
			c-0.29-1.22-0.21-2.48-0.22-3.73c-0.02-6.23,0.09-12.47-0.05-18.7c-0.09-4.05-1.52-5.14-6.09-5.07c-4.17,0.07-5.23,0.97-5.28,4.98
			c-0.09,6.73,0.05,13.47-0.06,20.2c-0.05,2.83,1.06,3.64,3.79,3.54c6.72-0.25,12.37,2.3,17.08,7.07
			c5.85,5.94,11.92,11.67,17.71,17.68c1.36,1.41,2.98,1.85,4.96,2.11c5.57,0.72,9.61-1.17,13.33-5.39
			c5.35-6.06,11.43-11.47,17.25-17.56C291.02,265.94,289.1,266.36,287.86,265.16z"/>
		<path class="st1" d="M283.66,180.74c-18.82,0-37.63,0-56.45,0c-0.87,0-1.75-0.04-2.62,0c-2.01,0.09-3.64-0.56-3.59-2.78
			c0.05-2.25,1.83-2.69,3.76-2.62c1,0.03,1.99,0,2.99,0c37.38,0,74.77,0,112.15,0c7.61,0,9.28-1.64,9.28-9.13
			c0-10.22,0.02-20.44-0.01-30.65c-0.01-5.21-2.26-7.43-7.54-7.44c-10.59-0.03-21.18-0.03-31.78,0.01c-2.13,0.01-4.37-0.1-4.4-2.76
			c-0.03-2.57,2.02-2.92,4.27-2.9c10.97,0.07,21.94,0.28,32.89-0.06c5.8-0.18,12.85,7.04,12.63,12.77
			c-0.42,10.7-0.51,21.45,0.02,32.14c0.35,7.05-6.71,13.72-13.66,13.57C322.3,180.46,302.98,180.74,283.66,180.74z"/>
		<path class="st2" d="M238.22,122.51c18.2,0,36.4,0,54.6,0c1,0,2.01-0.1,2.99,0.07c1.41,0.24,2.13,1.39,2.28,2.64
			c0.17,1.4-0.81,2.41-2.1,2.71c-1.19,0.28-2.47,0.19-3.71,0.19c-35.78,0.01-71.56,0-107.33,0.01c-6.79,0-8.66,1.85-8.66,8.58
			c0,10.22-0.01,20.44,0,30.67c0.01,5.82,2.06,7.95,7.8,7.97c8.35,0.04,16.7,0.01,25.06,0.01c2.04,0,4.44-0.11,4.5,2.64
			c0.06,2.75-2.26,2.78-4.36,2.77c-8.73-0.02-17.47-0.33-26.17,0.08c-6.5,0.31-13.21-6.93-12.91-13.15
			c0.51-10.7,0.5-21.45,0.01-32.15c-0.3-6.4,7.23-13.28,13.04-13.17C201.57,122.74,219.9,122.51,238.22,122.51z"/>
		<path class="st3" d="M287.86,265.16c2.32,0.16,4.64,0.31,7.68,0.52c-7.01,5.63-12.58,11.85-18.55,17.67
			c-0.8,0.78-1.76,1.47-2.36,2.38c-3.69,5.61-9.29,4.8-14.74,4.48c-1.5-0.09-2.38-1.24-3.34-2.2c-5.55-5.53-11.19-10.98-16.64-16.61
			c-5.28-5.46-11.63-8-19.14-7.3c-2.53,0.23-3.25-0.4-3.21-2.89c0.12-7.84,0.09-15.68,0.01-23.52c-0.03-2.99,1.24-4.26,4.21-4.37
			c8.74-0.32,8.9-0.22,8.9,8.64c0,6.1-0.05,12.2,0.02,18.29c0.04,3.67,0.81,4.17,4.63,3.37c0.12,1.15,0.52,2.19,1.34,3
			c7,6.89,14,13.76,21.02,20.63c3.09,3.03,10.76,3.03,13.85-0.04c5.38-5.34,10.59-10.88,16.16-16.01
			C290.2,268.89,290.05,267.23,287.86,265.16z"/>
		<path class="st1" d="M195.48,137.44c2.66,0.03,3.83,1.38,4.36,3.09c0.97,3.11,3.08,4.26,6.13,4.31c1.84,0.03,3.49,0.57,4.17,2.52
			c0.69,2-0.39,3.46-1.84,4.5c-2.88,2.05-3.42,4.61-2.28,7.8c0.54,1.52,0.26,2.96-1.1,4.03c-1.46,1.15-3.03,1.23-4.48,0.13
			c-2.97-2.25-5.83-2.2-8.81-0.02c-1.29,0.94-2.73,1.11-4.18,0.13c-1.6-1.09-1.94-2.67-1.36-4.28c1.23-3.41,0.34-5.95-2.56-8.03
			c-1.39-0.99-2.19-2.4-1.54-4.23c0.63-1.78,2.03-2.5,3.78-2.49c3.4,0.03,5.6-1.4,6.65-4.73
			C192.94,138.54,194.18,137.45,195.48,137.44z"/>
		<path class="st1" d="M252.57,160.74c0.1-0.55,0.14-1.32,0.38-2.01c0.89-2.52,0.4-4.5-1.79-6.22c-1.52-1.19-3.27-2.54-2.52-4.97
			c0.8-2.58,3.02-2.71,5.15-2.8c2.58-0.1,4.07-1.36,4.93-3.76c0.63-1.77,1.57-3.47,3.87-3.53c2.46-0.06,3.61,1.65,4.22,3.59
			c0.91,2.95,3.11,3.59,5.72,3.76c1.81,0.12,3.53,0.45,4.28,2.39c0.83,2.16-0.4,3.65-1.93,4.81c-2.49,1.88-3.36,4.06-2.25,7.1
			c0.61,1.68,0.62,3.43-1.13,4.7c-1.71,1.25-3.39,0.88-4.83-0.25c-2.83-2.23-5.35-1.44-8.16,0.14
			C255.37,165.45,252.67,164.03,252.57,160.74z"/>
		<path class="st1" d="M319.25,160.64c0.09-0.42,0.16-1.05,0.36-1.63c0.93-2.79,0.34-5.01-2.11-6.83c-1.5-1.11-2.88-2.55-2.13-4.75
			c0.73-2.14,2.54-2.58,4.5-2.62c2.77-0.06,4.66-1.13,5.6-3.93c0.6-1.79,1.65-3.43,3.94-3.43c2.27,0,3.42,1.54,3.98,3.37
			c0.93,3.07,3.14,3.89,5.95,4.01c1.83,0.08,3.48,0.51,4.19,2.49c0.73,2.02-0.36,3.42-1.79,4.51c-2.54,1.94-3.66,4.14-2.43,7.38
			c0.62,1.64,0.59,3.44-1.23,4.66c-1.59,1.06-3.13,0.86-4.51-0.2c-2.9-2.22-5.53-1.7-8.51,0.07
			C322.01,165.54,319.31,164,319.25,160.64z"/>
		<path class="st2" d="M219.28,160.29c2.11-3.91-0.13-6.79-3.27-9.74c-2.07-1.94-0.77-5.25,2.21-5.44c4.09-0.26,6.42-1.95,8.09-5.69
			c1.3-2.9,4.86-2.92,6.15-0.03c1.66,3.75,3.99,5.38,8.06,5.71c3.41,0.27,4.47,3.68,1.84,5.91c-3.12,2.65-3.99,5.36-3.06,9.34
			c0.76,3.28-2.18,5.35-5.09,3.6c-3.36-2.02-6.11-2.17-9.51-0.07C221.89,165.63,219.31,163.91,219.28,160.29z"/>
		<path class="st2" d="M286,160.25c2-3.92-0.2-6.8-3.34-9.74c-2.09-1.95-0.74-5.15,2.33-5.42c3.84-0.34,6.25-1.71,7.87-5.43
			c1.44-3.3,5.09-3.22,6.54,0.17c1.55,3.63,3.96,4.81,7.61,5.23c3.59,0.41,4.62,3.77,1.84,6.17c-2.89,2.49-3.7,5.05-2.89,8.74
			c0.79,3.63-2.01,5.88-5.04,3.98c-3.59-2.26-6.45-1.85-9.89,0.12C288.41,165.56,286.03,163.76,286,160.25z"/>
		<path class="st4" d="M230.39,371.01c-1.94,2.01-3.6,4.26-6.91,4.31c-2.71,0.04-4.82-0.57-6.1-3.09c-2.47-4.73-2.13-6,3.06-11.56
			c2.5-3.6,5.75-6.51,8.83-9.57c7.06-7.01,14.08-14.08,21.31-20.91c2.5-2.37,2.71-3.51,0.08-6.28
			c-10.56-11.08-22.21-21.07-32.33-32.57c-3.78-4.29-3.85-7.93,0.12-11.72c2.54-2.42,8.25-1.98,11,1.38
			c7.45,9.11,16.94,16.12,24.91,24.67c2.28,2.45,4.7,4.75,6.78,7.42c2.59,3.32,3.83,3.36,6.45,0.26
			c6.44-7.62,13.87-14.25,20.95-21.22c0.51-0.51,1.19-0.85,1.79-1.27c2.87-2.59,6.01-4.91,8.1-8.26c1.11-1.93,2.85-3.24,4.88-3.82
			c3.1-0.88,6.26-0.98,8.41,2.14c2.28,3.32,2.37,7.11-0.43,9.94c-7.1,7.16-14.04,14.48-21.52,21.27
			c-4.68,4.25-8.88,9.05-13.31,13.57c-1.25,1.28-0.56,2.21,0.39,3.16c2.38,2.37,5.15,4.4,7.38,6.83
			c8.75,9.53,18.63,17.94,27.08,27.74c3.19,3.7,3.04,6.48-0.51,10.05c-2.39,2.41-7.14,2.64-9.9,0.26c-2.63-2.28-5.1-4.75-7.57-7.21
			c-8.73-8.69-17.48-17.36-26.11-26.15c-2.1-2.14-3.44-1.79-5.56,0.08c-8.5,7.49-15.65,16.35-24.33,23.64
			C234.79,366.17,232.32,368.31,230.39,371.01z"/>
		<path class="st5" d="M236.95,385.59c3.67-5.16,7.81-7.81,14.26-7.35c8.68,0.61,17.48,0.65,26.16-0.01
			c6.59-0.5,10.74,2.33,14.55,7.36C273.58,385.59,255.48,385.59,236.95,385.59z"/>
		<path class="st3" d="M231.98,326.81c-10.94,0-21.88,0.04-32.81-0.03c-2.13-0.01-3.63-1.41-3.72-3.49
			c-0.1-2.29,1.47-3.88,3.69-3.92c8.48-0.14,16.97-0.33,25.43,0.1c3.72,0.19,5.04,4.42,7.84,6.39
			C232.26,326.18,232.12,326.49,231.98,326.81z"/>
		<path class="st3" d="M296.09,326.83c3.74-5.53,7.83-8.48,14.32-7.66c4.79,0.6,9.71,0.16,14.57,0.1c2.72-0.03,4.96,0.96,5.01,3.79
			c0.05,2.92-2.26,3.79-4.96,3.78C315.58,326.81,306.12,326.83,296.09,326.83z"/>
		<path class="st6" d="M251.94,370.64c7.71-9.16,17.95-9.14,24.63,0C268.38,370.64,260.39,370.64,251.94,370.64z"/>
		<path class="st6" d="M210.58,349.32c-3.58,3.98-5.58,8.75-11.57,7.49c-2.08-0.44-3.53-1.56-3.59-3.65
			c-0.06-2.12,1.45-3.62,3.44-3.76C202.49,349.14,206.17,349.32,210.58,349.32z"/>
		<path class="st7" d="M209.85,385.84c-4.22,0-7.64,0.12-11.04-0.05c-1.96-0.1-3.21-1.54-3.41-3.4c-0.21-1.97,1.14-3.51,2.91-3.8
			c2.44-0.41,5.11-1.03,6.86,1.98C206.19,382.31,207.87,383.66,209.85,385.84z"/>
		<path class="st8" d="M318.13,349.27c3.23,0,5.56-0.06,7.89,0.02c2.1,0.07,3.53,1.29,4.01,3.25c0.45,1.81-0.72,3.1-2.24,3.86
			c-1.99,0.99-3.5,0.21-4.8-1.48C321.67,353.19,320.15,351.6,318.13,349.27z"/>
		<path class="st9" d="M318.96,385.89c1.98-2.23,3.47-3.71,4.72-5.38c1.02-1.36,1.9-2.8,3.85-1.87c1.51,0.72,2.83,1.9,2.59,3.73
			c-0.27,2.03-1.63,3.37-3.76,3.49C324.16,385.98,321.95,385.89,318.96,385.89z"/>
		<path class="st10" d="M220.45,360.67c-2.83,3.37-4.64,7.02-3.06,11.56c-2.86-2.54-3.21-5.62-0.76-8.18
			C217.79,362.82,218.7,361.25,220.45,360.67z"/>
		<path class="st11" d="M298.44,282.58c-1.08,4.34-4.42,6.47-8.1,8.26C292.33,287.39,295.2,284.81,298.44,282.58z"/>
		<path class="st12" d="M230.39,371.01c0.35-2.46,3.88-5.97,6.95-6.91C235.81,367.19,233.34,369.34,230.39,371.01z"/>
		<path class="st6" d="M256.43,150.07c3.14-0.36,5-1.75,5.99-4.81c1.98,2.19,3.04,5.08,7.37,3.98c-2.59,2.75-4.22,4.68-2.83,7.83
			c-2.8-0.58-5.3-1.89-7.89,0.55C258.93,154.6,259.51,151.79,256.43,150.07z"/>
		<path class="st13" d="M329.43,145.43c1.17,2.95,3.32,4.12,6.64,4.41c-2.28,2.14-3.79,4.11-2.34,7.3c-2.95-0.7-5.44-1.99-7.98,0.64
			c-0.24-3.07,0.55-5.94-3.45-7.55C325.88,149.36,328.3,148.5,329.43,145.43z"/>
		<path class="st6" d="M225.16,157.68c1.05-3.36,0.35-5.67-2.59-7.91c3.55-0.11,5.56-1.45,6.61-4.5c1.8,2.18,2.83,4.99,6.61,4.02
			c-1.52,2.8-4.09,4.63-2.25,7.91C230.56,155.79,228.13,155.76,225.16,157.68z"/>
		<path class="st6" d="M295.96,145.44c1.5,2.68,3.16,4.34,6.42,4.15c-1.42,2.47-4.07,4.22-1.24,8.16c-3.72-1.79-6.24-2.14-9.35-0.08
			c1.23-3.49,0.22-5.71-2.56-8.02C292.86,149.67,294.94,148.45,295.96,145.44z"/>
	</g>
</g>
</svg>
