<?xml version="1.0" encoding="utf-8"?>
<!-- Generator: Adobe Illustrator 24.0.1, SVG Export Plug-In . SVG Version: 6.00 Build 0)  -->
<svg version="1.1" id="레이어_1" xmlns="http://www.w3.org/2000/svg" xmlns:xlink="http://www.w3.org/1999/xlink" x="0px"
	 y="0px" viewBox="0 0 512 512" style="enable-background:new 0 0 512 512;" xml:space="preserve">
<g>
	<g>
		<path d="M64.75,287.81c3.45-10.11,10.76-13.88,21.09-13.35c6.97,0.36,13.97,0,20.95,0.09c10.77,0.14,17.52,6.72,17.78,17.44
			c0.05,2.21,0.55,3.12,2.89,3.11c5.87-0.03,11.7,0.59,17.46,1.71c2.22,0.43,3.01,0.27,2.55-2.49
			c-6.4-38.04,2.36-72.19,26.66-102.25c3.77-4.66,7.93-8.98,12.49-12.88c1.79-1.53,2.42-3.16,2.37-5.49
			c-0.15-6.48-0.2-12.98,0.02-19.45c0.09-2.62-0.89-3.64-3.19-4.52c-11.04-4.24-21.98-8.75-33.02-13c-4.67-1.8-7.53-4.84-7.75-9.9
			c-0.2-4.49,2.47-7.94,7.6-9.97c37.5-14.86,75.02-29.67,112.52-44.54c3.77-1.49,7.24-0.86,10.85,0.58
			c26.84,10.67,53.71,21.27,80.57,31.89c9.96,3.94,19.92,7.85,29.87,11.81c6.28,2.5,8.2,5.38,8.22,12.25
			c0.02,5.11,0.06,10.23-0.02,15.34c-0.03,1.91,0.24,3.14,2.42,3.9c3.38,1.17,5.47,3.84,6.18,7.41c1.2,5.98,2.53,11.95,3.46,17.98
			c1.05,6.8-3.39,12.08-10.26,12.36c-4.98,0.2-9.98,0.21-14.96-0.01c-7.03-0.31-11.37-5.88-10.13-12.75
			c1.04-5.76,2.16-11.51,3.28-17.25c0.72-3.69,2.88-6.27,6.29-7.83c2.01-0.92,3.65-7.19,2.36-8.95c-0.63-0.86-1.38-0.33-1.98-0.09
			c-9.62,3.78-19.21,7.61-28.84,11.38c-1.39,0.55-1.77,1.4-1.76,2.83c0.06,7.36,0.1,14.72-0.02,22.08
			c-0.04,2.16,1.44,3.05,2.68,4.19c19.74,18.05,32.84,40.08,38.17,66.27c7.51,36.93-0.17,70.75-22.5,101.18
			c-0.64,0.87-1.26,1.75-1.99,2.78c1.6,0.29,2.59-0.58,3.68-1.06c13.8-6.04,27.55-12.21,41.41-18.13
			c12.52-5.35,23.77-2.78,30.9,6.76c8.92,11.94,5.48,28.41-7.45,35.73c-36,20.36-71.99,40.74-108.01,61.09
			c-9.83,5.55-20.4,8.74-31.72,8.78c-30.31,0.11-60.62,0.06-90.93,0.05c-8.99,0-17.45-2.46-25.78-5.6
			c-16.9-6.36-33.82-12.65-50.73-18.97c-1.04-0.39-2.1-0.7-3.4-1.12c-0.38,2.18-0.58,4.23-1.12,6.19
			c-1.88,6.88-7.91,11.82-15.01,11.95c-9.48,0.18-18.96,0.22-28.43-0.02c-6.72-0.17-11.38-3.82-14.32-9.81
			c-0.48-0.98-0.36-2.24-1.4-2.95C64.75,377.64,64.75,332.73,64.75,287.81z M313.35,373.92c8.25-4.11,17.22-6.15,24.35-11.67
			c29.21-22.6,44.68-52.47,45.24-89.44c0.5-32.89-11.83-60.69-35.41-83.57c-1.55-1.51-3.07-2.07-5.26-2
			c-6.35,0.21-12.72,0.05-19.08,0.11c-0.85,0.01-2-0.58-2.6,0.76c1.58,1.06,3.13,2.1,4.67,3.16c36.8,25.25,51.77,72.74,36.11,114.53
			c-2.03,5.43-4.52,7.22-8.21,5.93c-3.56-1.25-4.32-4.46-2.31-9.85c16.59-44.61-6.17-94.52-50.75-111.19
			c-4.07-1.52-8.17-3.27-12.59-3.32c-11.72-0.12-23.45-0.07-35.17-0.01c-1.47,0.01-2.96,0.36-4.4,0.74
			c-16.99,4.47-31.27,13.37-42.97,26.45c-3.49,3.9-6.4,4.57-9.25,2.15c-2.94-2.5-2.63-5.62,0.96-9.71
			c5.97-6.79,12.82-12.54,20.38-17.48c0.73-0.48,1.96-0.58,1.98-2.32c-7.88,0-15.71,0.02-23.55-0.02c-1.49-0.01-2.19,1.08-3.07,1.89
			c-6.25,5.78-11.8,12.19-16.48,19.3c-17.94,27.2-23.26,56.79-16.52,88.6c0.31,1.46,0.12,3.33,2.18,3.99
			c5.76,1.84,11.28,4.34,16.8,6.86c0.45-1.2-0.11-1.94-0.4-2.74c-3.7-10.29-5.66-20.91-5.82-31.84c-0.19-13.9,2.35-27.26,7.87-40.03
			c1.62-3.75,4.56-5.14,7.71-3.77c2.96,1.29,4.02,4.32,2.72,7.87c-0.26,0.7-0.56,1.39-0.83,2.08c-8.76,22.45-8.02,44.62,0.77,67.02
			c4.1,10.45,11.11,16.01,21.72,17.88c0.49,0.09,0.98,0.19,1.47,0.25c20.79,2.49,41.55,5.23,62.37,7.36
			c12.1,1.24,22.63,4.95,30.02,15.07c1.57,2.15,2.64,2.1,4.76,0.93c9.74-5.35,18.17-12.24,25.35-20.7c0.96-1.14,1.81-2.43,3.26-3.02
			c2.59-1.06,4.99-0.7,6.73,1.54c1.95,2.52,1.56,5.1-0.41,7.51c-8.49,10.35-18.62,18.69-30.45,24.97c-1.2,0.64-3.23,0.86-2.69,2.98
			C313.6,365.21,312.85,369.35,313.35,373.92z M250.06,376.98c14.47,0,28.93,0,43.4,0c8.47,0,8.47,0,8.48-8.64
			c0.01-12.2-9.02-22.84-21.03-24.38c-12.85-1.65-25.75-3.02-38.62-4.52c-9.16-1.07-18.33-2.08-27.47-3.27
			c-13.08-1.7-24.14-8.26-35.22-14.79c-15.86-9.36-33.02-14.37-51.44-15.15c-2.76-0.12-3.61,0.5-3.6,3.39
			c0.11,30.81,0.09,61.61,0.02,92.42c-0.01,2.24,0.72,3.23,2.8,4c19.75,7.25,39.46,14.61,59.18,21.94c6,2.23,12.18,3.65,18.6,3.66
			c30.06,0.02,60.11,0.04,90.17-0.02c9.42-0.02,18.25-2.56,26.41-7.17c36.23-20.46,72.43-40.98,108.63-61.5
			c5.51-3.12,7.74-9.35,5.59-15.43c-2.18-6.19-7.68-9.37-14.12-8.31c-3,0.49-5.72,1.7-8.45,2.9c-33.5,14.76-67,29.51-100.48,44.31
			c-2.79,1.23-5.57,1.84-8.65,1.83c-33.55-0.07-67.1-0.04-100.65-0.05c-1.25,0-2.51,0.08-3.74-0.1c-2.82-0.41-4.51-2.17-4.79-4.95
			c-0.28-2.8,1.08-4.87,3.78-5.73c1.27-0.4,2.69-0.43,4.05-0.43C218.64,376.97,234.35,376.98,250.06,376.98z M269.72,176.09
			c21.94,0,43.87-0.08,65.81,0.08c3.39,0.03,4.21-0.96,4.07-4.18c-0.26-5.85-0.07-11.71-0.07-17.57c0-11.95-0.02-11.9-11.03-16.04
			c-19.77-7.43-40.12-11.66-61.33-11.33c-21.61,0.34-42.08,5.79-62.05,13.55c-3.38,1.31-4.97,3.91-4.96,7.58
			c0.04,8.1,0.16,16.21-0.07,24.3c-0.09,3.08,0.99,3.68,3.82,3.66C225.84,176.05,247.78,176.09,269.72,176.09z M113.4,355.18
			c0-20.81,0.01-41.63-0.01-62.44c-0.01-4.94-1.85-6.91-6.69-6.96c-7.98-0.08-15.95-0.08-23.93,0c-4.91,0.05-6.79,1.97-6.79,6.85
			c-0.02,41.63-0.02,83.25,0,124.88c0,4.86,1.86,6.65,6.86,6.67c7.6,0.04,15.2,0.02,22.81,0.01c6.18-0.01,7.74-1.55,7.74-7.68
			C113.41,396.06,113.4,375.62,113.4,355.18z M158.35,126.67c0.93,0.47,1.26,0.66,1.6,0.8c9.6,3.8,19.23,7.55,28.8,11.45
			c1.8,0.73,2.38-0.08,3.17-1.35c2.04-3.26,4.83-5.69,8.43-7.11c20.87-8.23,42.3-13.92,64.9-14.59c25.88-0.77,50.4,5.16,74.23,14.65
			c3.46,1.38,6.31,3.67,8.13,6.89c1.17,2.08,2.35,1.96,4.18,1.21c8.19-3.32,16.43-6.52,24.62-9.84c1.43-0.58,3.19-0.66,4.18-2.28
			c-0.63-0.3-1.18-0.6-1.75-0.83c-35.53-14.06-71.07-28.09-106.57-42.21c-2.13-0.85-3.79-0.35-5.67,0.4
			c-27.3,10.83-54.62,21.63-81.93,32.43C176.15,119.64,167.63,123,158.35,126.67z M388.99,174.65c1,0,2.01-0.11,2.98,0.02
			c2.8,0.37,3.79-0.46,2.98-3.44c-0.85-3.1-1.36-6.32-1.78-9.52c-0.33-2.53-1.28-3.52-4.04-3.45c-2.71,0.08-4.13,0.62-4.27,3.6
			c-0.1,2.21-0.83,4.39-1.23,6.59C382.53,174.65,382.54,174.65,388.99,174.65z"/>
		<path d="M267.38,319.17c-8.33,0.14-16.02-1.89-22.94-6.66c-3.14-2.16-4.09-5.16-2.47-7.97c1.69-2.92,5.11-3.7,8.44-1.47
			c7.06,4.73,14.76,5.87,22.86,4.22c7.61-1.55,13.11-8.43,13.58-16.32c0.39-6.58-3.44-11.71-11.01-14.7
			c-6.25-2.46-12.59-4.72-18.45-8.06c-10.79-6.13-14.91-14.12-12.83-24.82c2.14-10.99,10.62-18.59,22.34-19.85
			c8.12-0.87,15.59,0.98,22.24,5.82c3.42,2.49,4.25,5.86,2.2,8.64c-1.97,2.65-5.22,2.92-8.58,0.56c-5.44-3.83-11.35-4.89-17.75-3.19
			c-5.21,1.38-8.71,5.52-9.49,10.82c-0.8,5.46,1.56,9.01,6.19,11.59c5.57,3.1,11.46,5.42,17.39,7.7
			c14.54,5.58,20.89,15.99,18.44,30.07c-2.37,13.65-14.26,23.44-28.67,23.62C268.37,319.17,267.87,319.17,267.38,319.17z"/>
	</g>
</g>
</svg>
