<?xml version="1.0" encoding="utf-8"?>
<!-- Generator: Adobe Illustrator 27.2.0, SVG Export Plug-In . SVG Version: 6.00 Build 0)  -->
<svg version="1.1" id="레이어_1" xmlns="http://www.w3.org/2000/svg" xmlns:xlink="http://www.w3.org/1999/xlink" x="0px"
	 y="0px" viewBox="0 0 512 512" style="enable-background:new 0 0 512 512;" xml:space="preserve">
<style type="text/css">
	.st0{fill:none;stroke:#000000;stroke-miterlimit:10;}
	.st1{fill:none;stroke:#000000;stroke-width:10;stroke-miterlimit:10;}
</style>
<g>
	<path class="st0" d="M195.82,230.12c3.58,1.2,7.09,2.64,10.51,4.34l2.12,1.06c-1.89-4.45-3.29-9.21-4.09-14.2
		C201.87,224.64,199,227.6,195.82,230.12z"/>
	<path class="st1" d="M204.37,221.32c0.8,4.99,2.2,9.75,4.09,14.2l0.36,0.18c-1.97-4.6-3.39-9.54-4.19-14.71
		C204.53,221.1,204.45,221.2,204.37,221.32z"/>
	<path class="st1" d="M254.7,154.38c-0.05,0-0.1,0-0.15,0c-16.76,0-31.64,9.02-40.93,22.94c0.03,0.12,0.05,0.24,0.07,0.35
		C222.94,163.59,237.86,154.43,254.7,154.38z"/>
	<path class="st1" d="M305.55,211.22c0,19.09-8.45,35.97-21.39,46.28c0.07,0.02,0.14,0.05,0.21,0.07
		c13-10.3,21.49-27.22,21.49-46.35c0-31.4-22.83-56.85-51-56.85c-0.05,0-0.1,0-0.15,0C282.8,154.47,305.55,179.88,305.55,211.22z"/>
	<path class="st1" d="M213.42,177.62c0.07-0.1,0.13-0.21,0.2-0.31c-4.74-22.17-22.62-38.66-43.96-38.66c-0.04,0-0.09,0-0.13,0
		C190.91,138.73,208.79,155.35,213.42,177.62z"/>
	<path class="st1" d="M204.37,221.32c-0.02-0.11-0.03-0.22-0.05-0.34c-2.53,3.43-5.44,6.49-8.68,9.07c0.06,0.02,0.12,0.04,0.18,0.06
		C199,227.6,201.87,224.64,204.37,221.32z"/>
	<path class="st1" d="M204.62,220.98c-0.02-0.11-0.04-0.22-0.05-0.33c-0.08,0.11-0.16,0.22-0.24,0.33c0.02,0.11,0.03,0.22,0.05,0.34
		C204.45,221.2,204.53,221.1,204.62,220.98z"/>
	<path class="st1" d="M213.49,177.98c0.07-0.1,0.13-0.21,0.2-0.31c-0.02-0.12-0.05-0.24-0.07-0.35c-0.07,0.1-0.13,0.21-0.2,0.31
		C213.44,177.74,213.47,177.86,213.49,177.98z"/>
	<g>
		<path class="st1" d="M169.83,284.4l44.04-21.93c3.71-1.85,7.51-3.42,11.37-4.74c-7.19-5.64-13-13.29-16.79-22.22l-2.12-1.06
			c-3.42-1.7-6.94-3.15-10.51-4.34c-7.38,5.85-16.41,9.31-26.16,9.31c-24.96,0-45.2-22.56-45.2-50.39
			c0-27.78,20.17-50.3,45.07-50.38c-0.04,0-0.09,0-0.13,0c-24.96,0-45.2,22.56-45.2,50.39c0,17.05,7.6,32.11,19.23,41.23
			c-3.43,1.17-6.8,2.56-10.08,4.2L94.31,253.9c-8.34,4.15-13.61,12.66-13.61,21.98v46.44c0,5.62,4.55,10.17,10.17,10.17h63.6V309.2
			C154.48,298.69,160.42,289.09,169.83,284.4z"/>
		<path class="st1" d="M124.46,189.04c0,27.83,20.24,50.39,45.2,50.39c9.75,0,18.77-3.45,26.16-9.31c-0.06-0.02-0.12-0.04-0.18-0.06
			c3.24-2.58,6.16-5.65,8.68-9.07c-0.49-3.17-0.77-6.43-0.77-9.76c0-12.57,3.67-24.18,9.87-33.6c-4.63-22.28-22.51-38.9-43.89-38.97
			C144.63,138.74,124.46,161.26,124.46,189.04z"/>
	</g>
</g>
<path class="st1" d="M340.69,284.28l-44.04-21.93c-3.93-1.96-7.96-3.61-12.07-4.97c12.95-10.31,21.39-27.19,21.39-46.28
	c0-31.4-22.83-56.85-51-56.85s-51,25.45-51,56.85c0,19.24,8.58,36.23,21.7,46.52c-3.87,1.32-7.67,2.89-11.37,4.74l-44.04,21.93
	c-9.41,4.68-15.36,14.29-15.36,24.8v52.4c0,6.34,5.14,11.47,11.48,11.47h178.2c6.34,0,11.48-5.14,11.48-11.47v-52.4
	C356.04,298.56,350.1,288.96,340.69,284.28z"/>
<g>
	<path class="st0" d="M315.41,230.12c-3.58,1.2-7.09,2.64-10.51,4.34l-2.12,1.06c1.89-4.45,3.29-9.21,4.09-14.2
		C309.36,224.64,312.24,227.6,315.41,230.12z"/>
	<path class="st1" d="M306.87,221.32c-0.8,4.99-2.2,9.75-4.09,14.2l-0.36,0.18c1.97-4.6,3.39-9.54,4.19-14.71
		C306.7,221.1,306.79,221.2,306.87,221.32z"/>
	<path class="st1" d="M256.53,154.38c0.05,0,0.1,0,0.15,0c16.76,0,31.64,9.02,40.93,22.94c-0.03,0.12-0.05,0.24-0.07,0.35
		C288.29,163.59,273.37,154.43,256.53,154.38z"/>
	<path class="st1" d="M205.68,211.22c0,19.09,8.45,35.97,21.39,46.28c-0.07,0.02-0.14,0.05-0.21,0.07
		c-13-10.3-21.49-27.22-21.49-46.35c0-31.4,22.83-56.85,51-56.85c0.05,0,0.1,0,0.15,0C228.44,154.47,205.68,179.88,205.68,211.22z"
		/>
	<path class="st1" d="M297.82,177.62c-0.07-0.1-0.13-0.21-0.2-0.31c4.74-22.17,22.62-38.66,43.96-38.66c0.04,0,0.09,0,0.13,0
		C320.32,138.73,302.45,155.35,297.82,177.62z"/>
	<path class="st1" d="M306.87,221.32c0.02-0.11,0.03-0.22,0.05-0.34c2.53,3.43,5.44,6.49,8.68,9.07c-0.06,0.02-0.12,0.04-0.18,0.06
		C312.24,227.6,309.36,224.64,306.87,221.32z"/>
	<path class="st1" d="M306.62,220.98c0.02-0.11,0.04-0.22,0.05-0.33c0.08,0.11,0.16,0.22,0.24,0.33c-0.02,0.11-0.03,0.22-0.05,0.34
		C306.79,221.2,306.7,221.1,306.62,220.98z"/>
	<path class="st1" d="M297.74,177.98c-0.07-0.1-0.13-0.21-0.2-0.31c0.02-0.12,0.05-0.24,0.07-0.35c0.07,0.1,0.13,0.21,0.2,0.31
		C297.79,177.74,297.77,177.86,297.74,177.98z"/>
	<g>
		<path class="st1" d="M341.4,284.4l-44.04-21.93c-3.71-1.85-7.51-3.42-11.37-4.74c7.19-5.64,13-13.29,16.79-22.22l2.12-1.06
			c3.42-1.7,6.94-3.15,10.51-4.34c7.38,5.85,16.41,9.31,26.16,9.31c24.96,0,45.2-22.56,45.2-50.39c0-27.78-20.17-50.3-45.07-50.38
			c0.04,0,0.09,0,0.13,0c24.96,0,45.2,22.56,45.2,50.39c0,17.05-7.6,32.11-19.23,41.23c3.43,1.17,6.8,2.56,10.08,4.2l39.03,19.44
			c8.34,4.15,13.61,12.66,13.61,21.98v46.44c0,5.62-4.55,10.17-10.17,10.17h-63.6V309.2C356.76,298.69,350.81,289.09,341.4,284.4z"
			/>
		<path class="st1" d="M386.77,189.04c0,27.83-20.24,50.39-45.2,50.39c-9.75,0-18.77-3.45-26.16-9.31c0.06-0.02,0.12-0.04,0.18-0.06
			c-3.24-2.58-6.16-5.65-8.68-9.07c0.49-3.17,0.77-6.43,0.77-9.76c0-12.57-3.67-24.18-9.87-33.6c4.63-22.28,22.51-38.9,43.89-38.97
			C366.61,138.74,386.77,161.26,386.77,189.04z"/>
	</g>
</g>
<ellipse class="st1" cx="255.47" cy="211.22" rx="51" ry="56.85"/>
</svg>
