<?xml version="1.0" encoding="utf-8"?>
<!-- Generator: Adobe Illustrator 24.0.1, SVG Export Plug-In . SVG Version: 6.00 Build 0)  -->
<svg version="1.1" id="레이어_1" xmlns="http://www.w3.org/2000/svg" xmlns:xlink="http://www.w3.org/1999/xlink" x="0px"
	 y="0px" viewBox="0 0 512 512" style="enable-background:new 0 0 512 512;" xml:space="preserve">
<g>
	<g>
		<path d="M257.08,382.65c-31.54,0-63.07,0-94.61,0c-10.58,0-13.3-2.69-13.3-13.12c0-8.78-0.13-17.57,0.07-26.35
			c0.07-3.05-0.91-3.79-3.85-3.77c-18.89,0.12-37.79,0.07-56.69,0.06c-9.22-0.01-12.15-2.95-12.15-12.18c0-16.77-0.02-33.53,0-50.3
			c0.02-19.56,9.76-32.96,28.42-39.16c7.31-2.43,14.59-5,21.96-7.22c3.21-0.97,3.84-2.01,1.61-4.72
			c-12.97-15.74-12.02-53.19-1.66-69.16c21.1-32.53,69.03-32.56,89.22,0.55c1.7,2.8,2.61,3.33,5.47,1.09
			c20.91-16.4,51-16.33,71.82,0.16c2.8,2.22,3.65,1.42,5.18-1.11c11.72-19.32,34.39-28.88,56.38-23.92
			c21.7,4.9,38.13,23.14,40.36,45.58c1.39,13.97,1.35,27.92-5.42,40.92c-1.24,2.38-2.67,4.6-4.27,6.72
			c-1.52,2.02-0.99,2.77,1.3,3.53c9.46,3.12,19.06,5.95,28.24,9.78c13.85,5.78,21.98,16.78,22.68,31.61
			c0.91,19.52,0.41,39.11,0.29,58.67c-0.04,6-3.92,9.12-10.71,9.13c-19.03,0.05-38.06,0.13-57.08-0.07
			c-3.83-0.04-4.97,0.95-4.84,4.83c0.3,8.64,0.1,17.3,0.09,25.94c-0.01,9.45-2.98,12.49-12.33,12.49
			C321.22,382.66,289.15,382.65,257.08,382.65z M257.09,364.74c28.87,0,57.74-0.03,86.6,0.05c2.95,0.01,4.19-0.55,4.16-3.91
			c-0.18-16.63-0.03-33.26-0.1-49.89c-0.05-13.03-6.23-21.54-18.64-25.71c-13.6-4.57-27.25-8.98-40.84-13.58
			c-2.21-0.75-4.02-0.53-6.08,0.4c-16.44,7.43-32.94,7.51-49.4,0.06c-2.36-1.07-4.37-1.09-6.83-0.26
			c-13.21,4.49-26.49,8.76-39.73,13.15c-13.02,4.32-19.18,12.82-19.21,26.52c-0.03,16.23,0.13,32.46-0.11,48.69
			c-0.06,3.9,1.3,4.55,4.77,4.53C200.16,364.68,228.62,364.74,257.09,364.74z M298.67,212.21c0-1.99,0.03-3.99,0-5.98
			c-0.34-20.24-11.7-35.1-31.16-40.8c-19.55-5.73-42.67,6.81-48.99,26.19c-3.06,9.39-2.46,18.93-2.26,28.45
			c0.37,17.2,11.73,32.06,28.34,37.65c15.85,5.34,33.97,0,44.67-13.04C297.07,235.18,299.5,224.18,298.67,212.21z M302.14,257.45
			c11.26,3.74,22.08,7.34,32.89,10.93c13.42,4.45,22.93,13.09,27.95,26.4c2.78,7.37,2.89,15.11,2.58,22.83
			c-0.12,3.07,0.67,4.12,3.93,4.08c15.69-0.17,31.38-0.15,47.07-0.01c2.94,0.03,3.89-0.74,3.86-3.78
			c-0.15-13.96-0.01-27.92-0.09-41.88c-0.06-10.69-4.97-17.37-15.2-20.84c-11.44-3.88-22.94-7.61-34.37-11.53
			c-2.3-0.79-4.21-0.61-6.41,0.39c-7.88,3.58-16.16,4.92-24.85,4.28c-8.54-0.63-16.35-3.19-23.67-7.56c-1.02-0.61-2.5-2.62-3.48-0.2
			C309.9,246.63,306.29,251.99,302.14,257.45z M212.66,257.46c-3.81-5.08-7.3-9.64-9.3-15.03c-1.04-2.79-1.97-3.26-4.74-1.61
			c-15.57,9.24-31.8,10.26-48.47,3.1c-1.91-0.82-3.57-1.12-5.66-0.41c-11.68,4-23.44,7.78-35.14,11.76
			c-9.91,3.37-14.83,10.17-14.89,20.67c-0.09,13.96,0.05,27.92-0.09,41.89c-0.03,2.93,0.73,3.89,3.78,3.86
			c13.83-0.16,27.66-0.07,41.49-0.07c9.51,0,9.51,0,9.53-9.51c0.03-22.23,10.83-37.15,32.03-44.21
			C191.53,264.45,201.86,261.04,212.66,257.46z M316.64,206.68c0,3.73,0.08,6.4-0.03,9.06c-0.07,1.75,0.61,2.96,1.8,4.2
			c16.74,17.41,45.46,12.89,56.01-8.82c4.65-9.56,3.85-19.69,3.1-29.77c-1.18-15.73-14.36-29.27-29.66-30.77
			c-17.71-1.74-32.87,8.01-37.61,24.07c-0.53,1.79-0.48,3.27,0.35,4.94C315.05,188.44,316.77,197.9,316.64,206.68z M136.73,191.81
			c0.14,2.65,0.13,5.33,0.46,7.96c1.66,13.24,8.61,22.86,20.8,28.06c12.38,5.28,24.21,3.23,34.99-4.69
			c3.54-2.6,5.62-5.75,5.29-10.71c-0.77-11.69,0.77-23.1,6.28-33.69c0.69-1.33,0.41-2.5,0.04-3.82
			c-3.57-12.78-15.29-22.93-28.23-24.4c-14.59-1.65-28,5.06-34.8,16.97C137.2,175.14,136.69,183.37,136.73,191.81z"/>
	</g>
</g>
</svg>
