<?xml version="1.0" encoding="utf-8"?>
<!-- Generator: Adobe Illustrator 24.0.1, SVG Export Plug-In . SVG Version: 6.00 Build 0)  -->
<svg version="1.1" id="레이어_1" xmlns="http://www.w3.org/2000/svg" xmlns:xlink="http://www.w3.org/1999/xlink" x="0px"
	 y="0px" viewBox="0 0 512 512" style="enable-background:new 0 0 512 512;" xml:space="preserve">
<style type="text/css">
	.st0{fill:#FEFEFE;}
	.st1{fill:#395389;}
	.st2{fill:#3D568B;}
	.st3{fill:#FDFDFE;}
</style>
<g>
	<g>
		<path class="st0" d="M64.06,258.62c0-63.83,0.02-127.66-0.06-191.48c0-2.41,0.28-3.14,2.98-3.14
			c126.04,0.09,252.08,0.09,378.12,0.02c2.29,0,2.89,0.45,2.89,2.84c-0.07,126.16-0.07,252.32,0.01,378.48
			c0,2.31-0.57,2.65-2.71,2.64c-26.55-0.09-53.11-0.06-79.66-0.06c0.03-1.83,1.67-2.01,2.8-2.56c7.04-3.42,10.29-9.17,10.34-16.83
			c0.07-11.35,0.11-22.7-0.04-34.04c-0.05-3.6,1.19-5.58,4.55-7.13c11.21-5.18,17.2-13.98,17.2-26.55c0-11.72,0-23.44,0-35.17
			c0-0.25,0-0.5,0-0.75c-0.05-4.75-1.43-6.9-4.42-6.92c-3.11-0.02-4.67,2.31-4.69,7.15c-0.03,12.1-0.01,24.19-0.01,36.29
			c0,6.14-2.5,11.1-7.16,15c-1.14,0.96-2.43,2.04-4.02,1.29c-1.47-0.69-1.34-2.3-1.36-3.64c-0.1-7.73,0.15-15.47-0.09-23.19
			c-0.45-14.5-6.31-26.23-18.38-34.6c-4.7-3.26-10-5.01-15.53-6.2c-8.78-1.9-17.55-3.8-26.32-5.71c-6.8-1.48-7.06-1.8-7.07-8.59
			c0-1.5,0.04-2.99,0.01-4.49c-0.06-2.43,0.84-4.29,2.83-5.76c12.23-9.08,18.84-21.35,20.29-36.41c0.31-3.21,1.81-4.29,4.81-4.28
			c10.72,0.04,21.46-0.22,32.17,0.09c12.46,0.36,19.77,8.1,19.81,20.53c0.03,10.1,0,20.2,0.01,30.3c0,1.62-0.11,3.26,0.48,4.81
			c0.78,2.07,2.24,3.31,4.54,3.16c2.34-0.15,3.54-1.61,3.94-3.82c0.22-1.23,0.16-2.49,0.16-3.73c0-10.1,0.01-20.2,0-30.3
			c-0.01-18.23-11.58-29.95-29.87-30.14c-9.98-0.1-19.95,0.01-29.93-0.03c-5.44-0.02-5.99-0.59-6.04-6
			c-0.04-4.49,0.07-8.98-0.03-13.47c-0.26-11.53-7.89-20.12-19.29-21.7c-3.89-0.54-7.52-1.58-10.85-3.75
			c-4.2-2.74-8.89-3.79-13.88-3.72c-4.36,0.06-8.73,0.03-13.09,0.01c-6.62-0.04-12.87,1.39-18.62,4.74c-2.11,1.23-4.22,2-6.75,1.25
			c-10.77-3.22-21.84-5.15-32.78-7.6c-0.97-0.22-1.96-0.39-2.91-0.68c-2.32-0.7-5.25-0.69-5.76-3.88c-0.57-3.52-0.67-7.06,2.58-9.58
			c8.11-6.3,13.29-14.41,15.29-24.51c0.36-1.81,1.42-3.17,2.96-4.15c4.59-2.91,6.96-7.24,7.09-12.5
			c0.29-11.95,1.15-23.95-0.52-35.84c-1.6-11.42-9.38-18.78-20.78-20.26c-4.38-0.57-8.53-1.48-12.16-4.3
			c-2.69-2.09-6-3.35-9.36-3.53c-9.7-0.51-19.49-1.36-29.09,0.4c-17.87,3.27-29.71,17.91-29.73,36.03
			c-0.01,8.98,0.05,17.96-0.02,26.94c-0.04,5.54,1.94,9.96,6.64,13.02c1.65,1.07,2.79,2.42,3.18,4.4
			c1.89,9.59,6.82,17.39,14.46,23.34c4,3.11,3.64,7.04,3.16,11.15c-0.26,2.22-2.21,2.45-3.91,2.84c-10.44,2.44-20.92,4.71-31.4,7.02
			c-16.45,3.63-29.3,17.98-31.06,34.78c-0.92,8.82-0.92,8.82-9.44,10.25c-10.98,1.84-18.16,8.17-22.04,18.5
			C66.02,256.3,66.21,258.28,64.06,258.62z"/>
		<path class="st1" d="M64.06,258.62c2.16-6.54,4.86-12.7,10.47-17.19c5.49-4.39,11.75-6.52,18.67-6.51
			c2.65,0.01,3.25-0.78,3.31-3.36c0.49-19.92,12.4-36.14,30.25-40.73c11.08-2.85,22.33-5.09,33.54-7.4
			c2.54-0.52,3.34-1.38,3.42-4.07c0.11-3.78-0.83-6.37-3.98-8.79c-7.69-5.93-12.25-14-13.99-23.55c-0.35-1.9-1.3-2.72-2.76-3.58
			c-4.37-2.59-7.08-6.49-7.09-11.57c-0.02-12.32-1.39-24.75,0.71-36.95c2.96-17.17,18.17-29.68,35.63-30.06
			c6.73-0.15,13.47-0.06,20.2-0.03c5,0.02,9.64,1.41,13.67,4.34c3.04,2.21,6.34,3.25,10.02,3.65c14.2,1.54,23.11,11.04,23.44,25.28
			c0.24,10.47,0.08,20.94,0.04,31.41c-0.03,6.33-2.42,11.41-8.21,14.46c-1.31,0.69-1.67,1.71-1.9,2.97
			c-1.8,10-6.82,18.06-14.71,24.39c-2.92,2.34-4.18,6.69-3.2,10.23c0.41,1.49,1.57,1.37,2.61,1.6c10.81,2.41,21.74,4.41,32.39,7.39
			c5.68,1.59,10.38,1.99,15.55-1.46c3.83-2.55,8.68-2.93,13.34-3c4.36-0.06,8.74,0.17,13.09-0.06c6.85-0.37,13.11,1.08,18.67,5.19
			c2.33,1.72,5.1,1.86,7.82,2.14c11.62,1.19,20.34,10.6,20.58,22.32c0.11,5.36,0.15,10.73-0.02,16.08
			c-0.08,2.45,0.65,3.16,3.11,3.13c10.6-0.13,21.2-0.07,31.8-0.05c19.11,0.03,30.99,11.94,31,31.07c0.01,10.72,0.01,21.45,0,32.17
			c-0.01,4.69-2.04,7.18-5.71,7.11c-3.51-0.07-5.49-2.53-5.5-6.99c-0.02-11.22,0.02-22.45-0.02-33.67
			c-0.04-10.83-7.06-18.23-17.84-18.43c-11.34-0.2-22.7-0.01-34.04-0.09c-2.03-0.01-2.72,0.52-2.87,2.67
			c-1.17,15.83-8.18,28.52-20.99,37.92c-1.47,1.08-2.15,2.13-2.05,3.97c0.21,3.72-1.11,8.43,0.7,10.89
			c1.63,2.22,6.6,2.03,10.11,2.82c7.77,1.75,15.55,3.46,23.32,5.19c19.36,4.3,32.73,20.53,33.08,40.38
			c0.16,8.73,0.04,17.46,0.05,26.19c0,0.45,0.1,0.9,0.15,1.41c6.31-2.3,10.33-8.25,10.37-15.48c0.07-12.22,0.02-24.44,0.03-36.66
			c0-0.87-0.03-1.75,0.01-2.62c0.17-3.7,2.44-6.17,5.67-6.15c3.21,0.02,5.51,2.48,5.52,6.24c0.05,12.22,0.03,24.44,0.02,36.66
			c0,2.61,0.04,5.22-0.51,7.82c-2.22,10.47-8.31,17.71-18.26,21.46c-2.48,0.93-3.1,2.03-3.07,4.49c0.13,10.47-0.34,20.97,0.16,31.42
			c0.54,11.27-3.25,19.35-14.26,23.3c-51.38,0-102.76,0-154.15,0c-10.11-2.46-15.12-8.72-15.31-19.55
			c-0.18-10.47-0.02-20.95-0.05-31.42c-0.01-5.33-0.17-5.49-5.42-5.5c-17.58-0.01-35.17-0.01-52.75,0c-5.23,0-5.37,0.16-5.38,5.52
			c-0.02,10.72,0,21.45-0.01,32.17c0,2.25-0.1,4.48-0.46,6.71c-1.07,6.49-4.01,11.21-11.15,12.07c-6.24,0-12.47,0-18.71,0
			c-7.41-1.8-10.75-6.03-10.77-13.85c-0.04-12.46,0-24.92-0.02-37.38c-0.01-4.72-0.06-4.64-4.46-5.63
			c-9.73-2.2-16.71-7.92-21.24-16.77c-1.17-2.28-0.88-4.85-1.67-7.18c0-0.75,0-1.5,0-2.24c0.67-1.03,0.37-2.18,0.37-3.28
			c0.02-32.48,0.02-64.97,0-97.45c0-1.1,0.29-2.25-0.37-3.28C64.06,260.12,64.06,259.37,64.06,258.62z"/>
		<path class="st0" d="M120.93,447.93c7.98-2.89,10.46-8.85,10.25-16.92c-0.31-12.21-0.01-24.44-0.13-36.65
			c-0.03-2.76,0.47-3.91,3.63-3.88c19.82,0.15,39.65,0.13,59.47,0.02c2.68-0.01,3.32,0.85,3.29,3.4
			c-0.13,10.22,0.32,20.46-0.16,30.66c-0.53,11.23,3.16,19.41,14.19,23.38C181.29,447.93,151.11,447.93,120.93,447.93z"/>
		<path class="st0" d="M64.06,367.12c1.17,0.82,0.91,2.23,1.31,3.35c4.09,11.49,12.07,18.31,24.2,19.8
			c2.73,0.34,2.81,1.56,2.81,3.61c-0.05,12.43,0.28,24.88-0.13,37.3c-0.27,8.04,2.39,13.7,9.98,16.75c-11.85,0-23.7-0.07-35.54,0.07
			c-2.24,0.03-2.69-0.45-2.68-2.68C64.1,419.25,64.06,393.19,64.06,367.12z"/>
		<path class="st2" d="M64.06,260.87c1.23,1.1,0.73,2.56,0.73,3.87c0.03,32.09,0.03,64.18,0,96.27c0,1.3,0.51,2.77-0.73,3.87
			C64.06,330.21,64.06,295.54,64.06,260.87z"/>
		<path class="st1" d="M381.52,64.92c15.33,0,30.67-0.01,46,0c12.14,0.01,19.63,7.43,19.65,19.52c0.02,15.33,0.02,30.67,0,46
			c-0.02,12.07-7.49,19.52-19.62,19.59c-3.49,0.02-6.99,0.13-10.47-0.03c-3.2-0.16-5.44,1.13-7.3,3.62
			c-5.98,7.98-12.04,15.89-18.08,23.82c-2,2.63-4.22,4.89-7.87,5.02c-4.91,0.18-8.69-2.78-9.34-7.7c-0.74-5.58-0.18-11.2-0.31-16.81
			c-0.13-5.74-2.25-7.91-7.94-7.92c-10.22-0.02-20.45,0.02-30.67-0.01c-12.35-0.03-19.86-7.47-19.89-19.74
			c-0.04-15.21-0.04-30.42,0-45.63c0.03-12.32,7.51-19.74,19.85-19.74C350.85,64.91,366.19,64.92,381.52,64.92z"/>
		<path class="st0" d="M246.91,201.94c-6.17,9.13-5.71,19.07-5.39,28.91c0.11,3.31-0.79,4.1-4.08,4.08
			c-29.18-0.14-58.36-0.08-87.54-0.08c-1.61,0-3.25-0.16-4.81,0.46c-2.64,1.05-4.04,3.05-3.71,5.81c0.32,2.7,1.94,4.57,4.85,4.87
			c1.24,0.12,2.49,0.08,3.74,0.08c29.18,0,58.36,0.05,87.54-0.06c2.94-0.01,3.91,0.58,4.19,3.75c1.34,15.06,8.13,27.29,20.26,36.36
			c1.91,1.42,2.93,2.73,2.65,5.15c-0.41,3.54,1.51,8.08-0.79,10.39c-2.08,2.09-6.49,1.9-9.89,2.66c-8.14,1.8-16.3,3.53-24.44,5.36
			c-18.49,4.17-31.75,20.85-32.08,40.48c-0.15,8.6-0.12,17.21,0.02,25.81c0.04,2.51-0.5,3.43-3.24,3.41
			c-31.92-0.14-63.84-0.16-95.76-0.2c-1.87,0-3.74,0.16-5.61,0.11c-10.37-0.29-17.5-7.51-17.52-17.91
			c-0.05-23.44-0.02-46.89-0.02-70.33c0-8.73-0.02-17.46,0.01-26.19c0.03-11.42,7.2-18.67,18.68-18.77
			c9.97-0.08,19.93,0.04,29.9-0.05c4.83-0.04,7.53-4.11,5.52-8.04c-1.24-2.43-3.43-3.12-5.93-3.14c-4.36-0.03-8.73-0.11-13.09,0.03
			c-2.16,0.07-2.7-0.71-2.75-2.8c-0.34-14.71,9.55-27.67,23.81-30.9c10.07-2.28,20.19-4.4,30.26-6.69c2.05-0.47,3.02-0.08,3.92,1.97
			c4.19,9.48,11.72,14.6,21.97,14.63c10.25,0.03,17.74-5.11,22.1-14.49c0.66-1.41,0.97-2.77,3.08-2.29
			C223.93,196.87,235.11,199.32,246.91,201.94z"/>
		<path class="st0" d="M288.56,436.71c-23.68,0-47.37,0-71.05,0c-6.68,0-8.94-2.25-8.88-9.04c0.06-7.72-0.21-15.45,0.36-23.17
			c1.33-17.81,16.33-32.67,34.2-32.84c29.79-0.29,59.58-0.26,89.37-0.06c19.48,0.13,34.55,14.58,35.75,34.07
			c0.49,7.95,0.29,15.95,0.2,23.92c-0.06,4.74-2.92,7.11-8.15,7.11C336.42,436.72,312.49,436.71,288.56,436.71z"/>
		<path class="st0" d="M368.49,377.04c-7.36-8.11-15.58-13.2-25.46-15.51c-4.28-1-8.61-1.24-12.98-1.24
			c-27.42,0.02-54.84,0.16-82.26-0.05c-14.89-0.12-27.57,4.54-37.84,15.45c-0.23,0.25-0.58,0.38-1.4,0.91
			c0.45-11.28-1.32-22.28,0.97-32.98c2.59-12.06,10.39-19.96,22.53-22.89c11.85-2.86,23.79-5.34,35.69-7.96
			c4.67-1.02,9.45-0.38,14.15-0.78c22.29-1.89,43.49,4.08,64.76,9.1c12.19,2.88,21.18,14.5,21.74,27.41
			C368.81,357.68,368.49,366.9,368.49,377.04z"/>
		<path class="st0" d="M324.48,233.47c-0.34,5.81,0.56,12.79-0.71,19.73c-2.85,15.48-15.42,27.98-30.64,30.31
			c-15.29,2.35-31.09-7.35-37.5-23.05c-1.18-2.88-2.12-5.85-2.42-8.97c-1.07-11.31-1.08-22.7-0.21-33.96
			c0.9-11.72,10.87-19.95,22.66-20.19c2.87-0.06,5.74,0.13,8.6-0.04c6.84-0.39,13.35,0.08,19.11,4.51c2.84,2.18,6.52,2.24,9.98,2.67
			c7.21,0.89,11.07,5.25,11.12,12.51C324.51,222.1,324.48,227.21,324.48,233.47z"/>
		<path class="st0" d="M228.33,127.45c0.31,4.43-0.54,6.72-4.6,7.18c-3.33,0.37-4.49,3.06-4.74,6.25
			c-1.18,14.88-13.68,28.15-28.43,30.43c-2.54,0.39-4.98,0.18-7.42-0.27c-13.25-2.47-25.61-15.76-26.8-29.17
			c-0.38-4.31-1.6-7.16-6.38-7.55c-1.77-0.15-2.85-1.47-2.91-3.35c-0.05-1.62,0.01-3.24-0.06-4.86c-0.07-1.57,0.24-2.13,2.09-1.75
			c18.11,3.72,34.77-1.01,50.82-9.02c1.45-0.72,2.85-1.53,4.3-2.26c4.01-2.01,6.7-1.76,9.84,1.38c3.74,3.74,7.77,7.05,12.56,9.27
			C229.02,124.85,228.26,126.73,228.33,127.45z"/>
		<path class="st0" d="M182.29,76.05c2.99,0,5.98,0.06,8.97-0.02c3.5-0.1,6.6,0.92,9.42,2.96c3.92,2.83,8.27,4.36,13.13,4.81
			c10.14,0.94,14.58,5.94,14.62,16.09c0.01,3.11-0.05,6.23,0.02,9.34c0.05,2.35-0.87,2.3-2.32,1.04c-1.32-1.14-2.6-2.32-3.86-3.53
			c-7.1-6.83-14.88-8.08-23.52-3.45c-9.27,4.96-18.85,9.03-29.32,10.54c-6.57,0.95-13.13,0.89-19.63-0.85
			c-1.99-0.53-2.98-1.27-2.83-3.5c0.31-4.45-0.35-8.95,0.76-13.38c2.91-11.59,12.94-19.75,24.85-20.03
			c3.24-0.08,6.48-0.01,9.71-0.01C182.29,76.06,182.29,76.06,182.29,76.05z"/>
		<path class="st0" d="M103.58,413.2c0-6.48,0.08-12.96-0.04-19.44c-0.04-2.29,0.38-3.44,3.03-3.27c3.47,0.22,6.98,0.14,10.46,0.02
			c2.03-0.07,2.89,0.5,2.88,2.7c-0.08,13.33-0.07,26.67-0.01,40c0.01,2.48-0.77,3.68-3.46,3.53c-3.11-0.17-6.24-0.2-9.34,0.01
			c-2.91,0.19-3.62-1.08-3.56-3.74C103.67,426.41,103.58,419.81,103.58,413.2z"/>
		<path class="st0" d="M200.32,185.65c1.36,8.55-7.05,16.07-15.64,13.93c-5.31-1.32-9.27-5.79-9.79-11.35
			c-0.08-0.86-0.05-1.74-0.05-2.61c-0.04-5.16-0.03-5.18,4.71-3.93c5.27,1.39,10.54,1.41,15.83,0.09
			C200.46,180.52,200.46,180.52,200.32,185.65z"/>
		<path class="st3" d="M288.5,300.82c-3.48,0-6.97,0.23-10.42-0.06c-4.55-0.39-1.89-4.02-2.11-6.04c-0.31-2.8,1.97-0.89,2.82-0.7
			c6.54,1.47,13.02,1.47,19.56,0.02c0.88-0.19,3.14-1.93,2.86,0.82c-0.21,2.02,2.3,5.63-2.27,5.92
			C295.46,301,291.98,300.82,288.5,300.82z"/>
		<path class="st0" d="M385.39,165.89c0-2.95,0.06-5.89-0.01-8.84c-0.27-11-7.51-18.18-18.45-18.23
			c-10.47-0.05-20.93,0.01-31.4-0.02c-6.15-0.02-8.62-2.47-8.63-8.63c-0.03-15.2-0.03-30.4,0-45.6c0.01-5.93,2.53-8.43,8.41-8.43
			c30.78-0.01,61.55-0.01,92.33,0c5.92,0,8.3,2.45,8.31,8.48c0.02,15.2,0.01,30.4,0,45.6c-0.01,6.15-2.42,8.54-8.63,8.58
			c-3.49,0.02-6.98,0.1-10.47-0.02c-6.81-0.22-11.97,2.69-15.98,8.02c-4.85,6.45-9.77,12.86-14.65,19.28
			C385.95,166.03,385.67,165.96,385.39,165.89z"/>
	</g>
</g>
</svg>
