<?xml version="1.0" encoding="utf-8"?>
<!-- Generator: Adobe Illustrator 27.2.0, SVG Export Plug-In . SVG Version: 6.00 Build 0)  -->
<svg version="1.1" id="레이어_1" xmlns="http://www.w3.org/2000/svg" xmlns:xlink="http://www.w3.org/1999/xlink" x="0px"
	 y="0px" viewBox="0 0 512 512" style="enable-background:new 0 0 512 512;" xml:space="preserve">
<style type="text/css">
	.st0{fill:none;stroke:#000000;stroke-width:10;stroke-miterlimit:10;}
	.st1{fill:none;stroke:#000000;stroke-width:10;stroke-linecap:round;stroke-miterlimit:10;}
	.st2{fill:none;stroke:#000000;stroke-width:10;stroke-linecap:round;stroke-linejoin:round;stroke-miterlimit:10;}
</style>
<path class="st0" d="M426.84,363.8h-342c-5.3,0-9.6-4.3-9.6-9.6v-270c0-5.3,4.3-9.6,9.6-9.6h342c5.3,0,9.6,4.3,9.6,9.6v270
	C436.44,359.5,432.14,363.8,426.84,363.8z"/>
<g>
	<g>
		<line class="st0" x1="219.84" y1="363.8" x2="219.84" y2="432.8"/>
		<line class="st0" x1="291.84" y1="363.8" x2="291.84" y2="432.8"/>
	</g>
	<path d="M336.54,437.75L336.54,437.75c0,2.82-2.28,5.1-5.1,5.1h-151.2c-2.82,0-5.1-2.28-5.1-5.1v0c0-2.82,2.28-5.1,5.1-5.1h151.2
		C334.25,432.65,336.54,434.93,336.54,437.75z"/>
</g>
<line class="st0" x1="79.4" y1="315.4" x2="431" y2="315.4"/>
<line class="st1" x1="264.2" y1="219.2" x2="401.45" y2="219.2"/>
<line class="st1" x1="264.2" y1="267.3" x2="401.45" y2="267.3"/>
<polyline class="st2" points="291.8,144.15 320.26,172.61 368.98,123.9 "/>
<circle class="st2" cx="171.94" cy="159.96" r="26.48"/>
<path class="st2" d="M171.94,190.48c-63.27,0.11-56.41,71.4-56.41,71.4h56.41h56.41C228.35,261.88,235.21,190.6,171.94,190.48z"/>
</svg>
