<?xml version="1.0" encoding="utf-8"?>
<!-- Generator: Adobe Illustrator 24.0.1, SVG Export Plug-In . SVG Version: 6.00 Build 0)  -->
<svg version="1.1" id="레이어_1" xmlns="http://www.w3.org/2000/svg" xmlns:xlink="http://www.w3.org/1999/xlink" x="0px"
	 y="0px" viewBox="0 0 512 512" style="enable-background:new 0 0 512 512;" xml:space="preserve">
<g>
	<g>
		<path d="M64.75,99.93c0.65-2.24,1.24-4.5,1.96-6.71c5.52-16.89,20.59-27.69,38.93-27.7c63.24-0.04,126.48-0.01,189.72-0.03
			c3.51,0,6.96,0.34,10.37,1.2c18.4,4.63,30.44,20.11,30.53,39.8c0.14,31.31,0.05,62.61,0.02,93.92c-0.01,6.13-2.99,9.64-8.01,9.65
			c-4.99,0.02-8.05-3.54-8.06-9.6c-0.03-31.31,0.02-62.61-0.03-93.92c-0.02-12.02-6.65-21.09-17.41-24.15c-2.66-0.76-5.38-1-8.14-1
			c-62.74,0-125.48-0.02-188.22,0.02c-15.64,0.01-25.73,10.14-25.74,25.8c-0.02,83.94-0.02,167.89,0,251.83
			c0,15.85,10.11,25.86,26.05,25.87c35.3,0.03,70.6,0.01,105.9,0.01c1.37,0,2.75-0.04,4.11,0.06c4.5,0.31,7.5,3.36,7.59,7.66
			c0.09,4.41-3,7.78-7.54,8.15c-0.99,0.08-1.99,0.04-2.99,0.04c-35.67,0-71.35-0.26-107.02,0.09
			c-23.46,0.23-39.19-16.71-41.45-33.61c-0.04-0.32-0.37-0.61-0.57-0.91C64.75,277.58,64.75,188.76,64.75,99.93z"/>
		<path d="M335.72,448.75c-6.93-1.42-13.95-2.25-20.79-4.24c-39.28-11.41-68.74-45.99-73.63-86.63
			c-6.75-56.05,31.04-106.26,86.95-115.54c55.26-9.17,109.78,30.23,118.3,85.51c8.71,56.51-27.11,107.91-83,119.06
			c-3.52,0.7-7.07,1.23-10.6,1.84C347.2,448.75,341.46,448.75,335.72,448.75z M432.02,347.25c1.84-46.74-36.32-88-83.27-90.05
			c-48.84-2.13-90.56,35.63-92.31,83.57c-1.82,49.67,35.64,89.99,85.46,92C389.58,434.69,430.09,396.25,432.02,347.25z"/>
		<path d="M200.57,193.31c7.6,0,15.21-0.06,22.81,0.01c23.43,0.21,40.3,16.67,41.01,40.04c0.15,4.86,0.1,9.72,0.01,14.58
			c-0.1,5.65-3.38,9.25-8.18,9.15c-4.66-0.09-7.77-3.61-7.87-9.09c-0.09-4.99,0.06-9.97-0.06-14.96
			c-0.34-13.67-10.48-23.72-24.13-23.81c-15.71-0.09-31.42-0.08-47.12-0.01c-13.84,0.07-24.02,10.04-24.48,23.96
			c-0.16,4.98,0.01,9.97-0.06,14.96c-0.08,5.43-3.24,8.95-7.91,8.95c-4.65,0-8.04-3.62-7.94-8.95c0.17-8.44-0.87-16.94,1.36-25.29
			c4.48-16.74,19.43-28.9,36.75-29.42c8.59-0.26,17.2-0.05,25.8-0.05C200.57,193.36,200.57,193.34,200.57,193.31z"/>
		<path d="M200.5,177.19c-17.65,0.01-31.81-14.1-31.86-31.76c-0.04-17.63,14.11-31.95,31.65-32.02c17.71-0.07,32.15,14.32,32.12,32
			C232.38,162.98,218.12,177.18,200.5,177.19z M200.53,161.3c8.71-0.03,16-7.35,15.95-16.02c-0.04-8.7-7.39-15.99-16.06-15.95
			c-8.72,0.04-15.93,7.32-15.9,16.06C184.55,154.16,191.76,161.33,200.53,161.3z"/>
		<path d="M168.81,289.13c15.58,0,31.15-0.03,46.73,0.02c5.24,0.02,8.45,2.78,8.76,7.24c0.3,4.43-2.64,8.02-7.05,8.58
			c-0.74,0.09-1.49,0.07-2.24,0.07c-31.03,0-62.06,0.02-93.09-0.01c-6.17,0-10.21-4.3-9.09-9.54c0.85-4.02,3.96-6.33,8.89-6.34
			C137.4,289.1,153.11,289.13,168.81,289.13z"/>
		<path d="M160.65,337.04c13.08,0,26.15-0.08,39.23,0.03c6.63,0.05,10.53,6.01,7.67,11.46c-1.51,2.89-4.02,4.38-7.29,4.38
			c-26.4,0.02-52.8,0.04-79.21-0.02c-4.97-0.01-8.47-3.59-8.37-8.13c0.1-4.43,3.44-7.67,8.36-7.7
			C134.25,336.99,147.45,337.04,160.65,337.04z"/>
		<path d="M296.47,337.1c2.83-0.13,4.81,1.53,6.7,3.43c7.22,7.23,14.54,14.37,21.62,21.73c2.27,2.37,3.47,2.68,5.82-0.05
			c14.47-16.81,29.14-33.45,43.74-50.14c1.15-1.31,2.26-2.66,3.46-3.92c3.55-3.74,8.17-4.13,11.6-1.03
			c3.37,3.05,3.54,7.81,0.23,11.69c-4.61,5.4-9.33,10.71-14.01,16.06c-13.3,15.19-26.58,30.39-39.9,45.56
			c-5.09,5.8-9.32,5.94-14.77,0.5c-9.88-9.86-19.77-19.71-29.6-29.62c-3.66-3.69-3.98-8.38-0.96-11.68
			C292.01,337.88,294,336.99,296.47,337.1z"/>
	</g>
</g>
</svg>
