<?xml version="1.0" encoding="utf-8"?>
<!-- Generator: Adobe Illustrator 27.2.0, SVG Export Plug-In . SVG Version: 6.00 Build 0)  -->
<svg version="1.1" id="레이어_1" xmlns="http://www.w3.org/2000/svg" xmlns:xlink="http://www.w3.org/1999/xlink" x="0px"
	 y="0px" viewBox="0 0 512 512" style="enable-background:new 0 0 512 512;" xml:space="preserve">
<style type="text/css">
	.st0{fill:none;stroke:#000000;stroke-width:10;stroke-miterlimit:10;}
	.st1{fill:none;stroke:#000000;stroke-width:10;stroke-linejoin:round;stroke-miterlimit:10;}
</style>
<path class="st0" d="M117.89,442.55h-12.38c-4.04,0-7.31-3.27-7.31-7.31v-43.12c0-4.04,3.27-7.31,7.31-7.31h12.38
	c4.04,0,7.31,3.27,7.31,7.31v43.12C125.2,439.28,121.93,442.55,117.89,442.55z"/>
<path class="st0" d="M246.8,235.4v-16.53c0-8.21,3.46-16.16,9.83-21.34c5.26-4.29,13.31-7.65,25.57-7.42c0,0,10.58-0.68,20.23,4.41
	c1.72,0.9,3.21,2.17,4.69,3.42c0.59,0.49,2.19,1.16,6.47,1.52c9.76,0.82,17.37,8.92,17.5,18.71c0,0.15,0,0.3,0,0.45v34.5
	c0,0-4.2,34.2-42.15,36c0,0-34.35-2.4-42.15-36.3V235.4z"/>
<line class="st0" x1="270.5" y1="285.2" x2="270.5" y2="304.7"/>
<line class="st0" x1="307.2" y1="285.2" x2="307.2" y2="304.7"/>
<path class="st1" d="M432.95,69.2h-101.7c-4.22,0-7.65,3.42-7.65,7.65v58.8c0,4.22,3.43,7.65,7.65,7.65H374c0,0,11.4,6,6.9,33
	l30.9-33h21.15c4.22,0,7.65-3.42,7.65-7.65v-58.8C440.6,72.62,437.17,69.2,432.95,69.2z"/>
<path class="st1" d="M141.05,114.28c0,0,25.65,14.85,65.93-9.45c0,0,5.62-2.7,9.9,3.15s11.02,11.7,19.57,12.6"/>
<g>
	<g>
		<path class="st1" d="M141.18,119.65c0,0-3.23,21.25,10.04,19.37c0,0-2.93,31.35,37.12,37.27"/>
		<path class="st1" d="M233.91,119.65c0,0,3.23,21.25-10.04,19.37c0,0,2.92,31.35-37.12,37.27"/>
	</g>
	<path class="st1" d="M141.05,120.69l0.15-23.29c0,0,2.27-21.52,21.6-27.29c2.87-0.86,5.87-1.21,8.87-1.21h17.61
		c6.5,0,12.9,2.02,17.97,6.09c0.07,0.05,0.13,0.11,0.2,0.16c1.33,1.08,2.92,1.79,4.63,1.96c1.05,0.1,2.4,0.21,4.09,0.27
		c5.17,0.2,10.15,2.32,13.58,6.19c2.51,2.83,4.51,6.85,4.51,12.48L234,120.4"/>
</g>
<path class="st0" d="M376.06,241.4h-45v11.9c0,0-4.2,34.2-42.15,36c0,0-34.35-2.4-42.15-36.3v-11.6H91.66
	c-10.44,0-18.9,8.46-18.9,18.9v105.6c0,10.44,8.46,18.9,18.9,18.9h111.96v-39.42c0-0.16,0-0.32-0.01-0.48
	c-0.1-2.29-0.42-23.79,21.66-28.9l41.95-10.7c1.04-0.27,2.12-0.4,3.19-0.4h18.13h1.53h18.13c1.08,0,2.15,0.13,3.19,0.4l41.95,10.7
	c22.09,5.11,21.76,26.61,21.66,28.9c-0.01,0.16-0.01,0.32-0.01,0.48v39.42h1.04c10.44,0,18.9-8.46,18.9-18.9V260.3
	C394.96,249.86,386.5,241.4,376.06,241.4z"/>
<path class="st0" d="M357.64,442.55H220.26c-8.85,0-15.47-8.1-13.72-16.77l8.7-43.04c1.7-8.4,9.08-14.44,17.64-14.44h112.15
	c8.57,0,15.95,6.04,17.64,14.44l8.7,43.04C373.11,434.45,366.48,442.55,357.64,442.55z"/>
<path class="st0" d="M353,315.8l-41.95-10.7c-1.04-0.27-2.12-0.4-3.19-0.4h-18.13h-1.53h-18.13c-1.08,0-2.15,0.13-3.19,0.4
	l-41.95,10.7c-22.09,5.11-21.76,26.61-21.66,28.9c0.01,0.16,0.01,0.32,0.01,0.48v85.64c0,6.48,5.52,11.73,12.34,11.73h72.6h1.53
	h72.6c6.81,0,12.34-5.25,12.34-11.73v-85.64c0-0.16,0-0.32,0.01-0.48C374.76,342.41,375.08,320.91,353,315.8z"/>
<path class="st0" d="M101.45,236.9c0,0-3.15-39.6,39.6-45.45l25.65-3.82"/>
<path class="st0" d="M207.87,186.86c0,0,33.11,7.08,44.81,11.36"/>
<g>
	<path class="st0" d="M170.51,172.64c0,0-3.9,32.99,17.05,32.99"/>
	<path class="st0" d="M204.39,172.64c0,0,3.9,32.99-17.05,32.99"/>
</g>
</svg>
