<?xml version="1.0" encoding="utf-8"?>
<!-- Generator: Adobe Illustrator 24.0.1, SVG Export Plug-In . SVG Version: 6.00 Build 0)  -->
<svg version="1.1" id="레이어_1" xmlns="http://www.w3.org/2000/svg" xmlns:xlink="http://www.w3.org/1999/xlink" x="0px"
	 y="0px" viewBox="0 0 512 512" style="enable-background:new 0 0 512 512;" xml:space="preserve">
<g>
	<g>
		<path d="M64.75,258.62c3.57-12.68,11.48-20.68,24.69-23.11c2.29-0.42,5.15,0.81,6.76-1.16c1.41-1.72,0.43-4.35,0.73-6.56
			c2.69-19.75,15.03-33.25,34.43-37.54c9.25-2.05,18.52-3.98,27.74-6.12c1.77-0.41,4.55,0.02,4.78-2.67
			c0.25-2.96,1.09-6.13-2.13-8.52c-5.37-3.99-9.69-8.97-12.52-15.12c-0.73-1.58-1.56-3.18-1.9-4.86c-0.88-4.39-2.61-7.88-6.55-10.63
			c-3.88-2.72-4.89-7.46-4.87-12.07c0.05-10.22-0.46-20.44,0.39-30.66c1.58-18.96,17.66-34.14,36.61-34.32
			c6.74-0.07,13.47-0.02,20.21-0.01c5.13,0.01,9.87,1.36,14.08,4.31c2.82,1.98,5.83,3.06,9.33,3.4c14.7,1.42,24.23,12.01,24.29,26.8
			c0.04,9.98-0.02,19.96,0.02,29.94c0.03,6.45-2.1,11.75-7.91,15.07c-1.52,0.86-1.98,2.2-2.25,3.66
			c-1.89,10.06-7.45,17.8-15.15,24.22c-2.27,1.89-3.42,6.95-2.23,9.48c0.85,1.81,2.71,1.66,4.19,2c9.36,2.11,18.9,3.59,28.08,6.28
			c6.77,1.99,12.68,2.52,18.86-1.6c3.05-2.03,7.08-2.25,10.87-2.26c4.49-0.02,8.99,0.2,13.47-0.06c7.09-0.41,13.63,0.82,19.47,5.09
			c1.73,1.26,3.82,1.65,5.99,1.86c14.04,1.39,22.48,10.8,22.51,24.95c0.01,4.24,0.2,8.49-0.06,12.72c-0.21,3.4,1.14,4.25,4.33,4.2
			c10.35-0.16,20.71,0.1,31.06-0.09c19.46-0.37,31.47,15.59,30.66,30.54c-0.58,10.7-0.11,21.45-0.11,32.18
			c0,5.72-2.06,8.67-5.96,8.6c-3.86-0.07-5.79-2.98-5.79-8.8c-0.01-10.35-0.16-20.71,0.04-31.06c0.21-10.91-6.9-19.78-19.29-19.24
			c-10.21,0.44-20.45,0.16-30.68,0.05c-2.87-0.03-4.07,0.63-4.36,3.88c-1.24,13.65-7.09,25.17-17.77,33.81
			c-3.58,2.89-5.11,5.77-4.92,10.34c0.33,8.21-0.23,6.84,6.76,8.47c9.22,2.14,18.49,4.11,27.75,6.1
			c17.99,3.88,32.17,21.08,32.44,39.55c0.12,8.23,0.01,16.46,0.07,24.7c0.01,1.04-0.63,2.52,0.66,3.03
			c1.11,0.44,2.03-0.74,2.88-1.41c4.8-3.81,6.37-9.08,6.4-14.92c0.06-12.47-0.03-24.95,0.06-37.42c0.04-5.31,4.71-8.23,8.86-5.7
			c1.84,1.12,2.84,2.78,2.83,4.96c-0.01,14.47,0.57,28.97-0.25,43.4c-0.64,11.23-7.42,19.11-17.83,23.4
			c-2.78,1.14-3.74,2.54-3.69,5.49c0.16,10.85-0.2,21.71,0.14,32.55c0.33,10.45-3.99,17.45-13.78,21.08c-51.9,0-103.8,0-155.7,0
			c-9.8-3.64-14.05-10.72-13.75-21.12c0.3-10.47-0.04-20.95,0.13-31.42c0.05-3.27-0.98-4.32-4.27-4.3
			c-18.96,0.13-37.91,0.13-56.87,0c-3.42-0.02-4.54,1.02-4.49,4.48c0.18,11.97-0.18,23.95,0.16,35.91
			c0.21,7.57-2.44,13.05-9.23,16.45c-6.99,0-13.97,0-20.96,0c-6.93-2.7-9.79-7.99-9.77-15.19c0.03-12.57-0.01-25.14,0.02-37.71
			c0.01-2.15-0.19-3.97-2.87-4.39c-13.3-2.11-21.09-10.25-24.81-22.8C64.75,331.98,64.75,295.3,64.75,258.62z M143.1,379.7
			c16.84,0,33.68-0.08,50.51,0.07c3.33,0.03,4.3-1.08,4.23-4.31c-0.18-8.73-0.18-17.46-0.01-26.19
			c0.37-17.89,14.52-35.26,31.69-39.07c9.37-2.08,18.76-4.02,28.11-6.18c8.57-1.98,7.17-0.12,7.51-9.2
			c0.15-3.85-0.96-6.35-4.13-8.78c-11.04-8.45-17.22-19.97-18.77-33.67c-0.48-4.23-1.93-4.96-5.72-4.94
			c-28.56,0.14-57.13,0.08-85.69,0.07c-6.05,0-9.01-1.98-9.13-5.99c-0.12-4.17,2.92-6.27,9.15-6.27c28.56,0,57.13,0,85.69,0
			c5.35,0,5.39-0.01,5.35-5.28c-0.06-8.48-0.59-17.01,3.81-24.82c1.46-2.59-0.9-2.66-2.28-2.97c-9.48-2.14-19-4.1-28.47-6.3
			c-2.45-0.57-3.51,0.16-4.55,2.33c-4.41,9.18-11.92,14.09-22.02,14.09c-10.26,0-17.78-5.09-22.23-14.39
			c-0.89-1.86-1.71-2.62-3.94-2.1c-10.44,2.42-20.97,4.46-31.38,6.99c-12.67,3.08-22.04,15.78-21.87,28.84
			c0.04,2.8,1.05,3.74,3.76,3.65c4.11-0.13,8.24-0.12,12.34,0.07c2.85,0.13,5,1.6,5.76,4.5c0.66,2.54-0.11,4.69-2.24,6.27
			c-1.7,1.26-3.69,1.39-5.71,1.38c-9.23-0.01-18.46-0.02-27.69,0c-11.77,0.03-18.75,6.27-18.83,17.98
			c-0.23,32.05-0.22,64.11-0.01,96.16c0.08,11.58,7.21,18.04,18.83,18.05C111.17,379.72,127.13,379.7,143.1,379.7z M289.36,437.26
			c23.58,0,47.15,0.02,70.73-0.01c6.36-0.01,8.54-2.2,8.57-8.53c0.03-7.11,0.12-14.22-0.07-21.33
			c-0.51-19.03-15.75-34.5-34.75-34.67c-29.69-0.26-59.38-0.23-89.07,0c-16.4,0.13-30.63,12.04-33.94,28.07
			c-1.85,8.98-0.61,18.16-0.79,27.24c-0.15,7.3,1.92,9.22,9.33,9.22C242.7,437.26,266.03,437.26,289.36,437.26z M368.33,375.35
			c0.15-0.87,0.31-1.36,0.31-1.84c-0.01-8.23,0.16-16.47-0.11-24.7c-0.39-12.03-9.13-23.54-20.9-26.36
			c-20.43-4.9-40.75-10.93-62.22-9.08c-5.21,0.45-10.54-0.62-15.68,0.42c-12.45,2.53-24.88,5.25-37.25,8.16
			c-12.89,3.02-22.13,14.64-22.41,27.96c-0.16,7.61-0.06,15.22-0.04,22.83c0,0.81-0.31,1.78,0.69,2.41
			c0.31-0.14,0.71-0.21,0.95-0.44c11.17-10.87,24.78-14.51,40.03-14.33c25.2,0.29,50.4,0.27,75.6,0.01
			c15.12-0.15,28.61,3.52,39.67,14.3C367.21,374.93,367.6,375.01,368.33,375.35z M253.61,237.04c0.6,6.02-0.12,12.69,1.53,19.15
			c3.82,14.94,17.25,26.61,30.8,27.82c22.51,2.01,37.14-17.4,38.5-32.88c1-11.33,0.47-22.66,0.43-33.98
			c-0.02-6.65-4.66-11-11.37-11.5c-4.45-0.33-8.52-1.68-12.24-4.14c-2.42-1.6-4.96-2.8-7.99-2.76c-6.1,0.07-12.21-0.11-18.31,0.08
			c-10.67,0.34-19.23,8.38-20.77,19.01C253.3,224.05,253.95,230.27,253.61,237.04z M188.38,171.68
			c14.64,0.02,29.89-14.51,31.01-29.71c0.27-3.66,1.48-6.31,5.31-7.04c2.02-0.39,3.76-1.05,3.75-3.38c-0.02-2.57,1.2-5.55-2.21-7.22
			c-3.6-1.76-6.82-4.13-9.75-6.87c-6.04-5.67-6.82-5.61-14.32-1.74c-16.14,8.33-32.94,13.56-51.42,9.97
			c-0.8-0.16-1.74-0.54-2.44,0.32c-1.57,1.95,0.17,8.3,2.65,8.63c5.41,0.72,6.31,4.42,6.7,8.8
			C158.94,157.72,174.14,171.67,188.38,171.68z M228.55,111.3c0-4.71,0.08-8.89-0.02-13.07c-0.17-7.31-5.31-12.61-12.66-13.09
			c-5.22-0.35-10.04-1.82-14.31-4.86c-2.18-1.55-4.53-2.45-7.2-2.86c-6.46-0.99-12.9,0.4-19.39-0.07
			c-6.79-0.5-12.93,1.83-18.17,6.44c-8.31,7.32-9.29,16.88-8.68,27.01c0.11,1.74,1.41,2.14,2.79,2.53
			c5.86,1.63,11.79,1.74,17.78,1.01c11.07-1.36,21.08-5.67,30.85-10.79c8.72-4.57,16.57-3.3,23.54,3.55
			C224.57,108.54,226,110.06,228.55,111.3z M104.64,413.95c0,6.49,0.06,12.97-0.03,19.46c-0.04,2.67,0.93,3.96,3.7,3.86
			c2.74-0.1,5.49-0.08,8.23,0c2.31,0.07,3.48-0.81,3.47-3.25c-0.03-12.97-0.03-25.94,0.01-38.91c0.01-2.21-0.87-3.2-3.11-3.14
			c-2.87,0.07-5.74,0.13-8.6-0.02c-2.74-0.14-3.78,0.9-3.71,3.68C104.74,401.73,104.64,407.84,104.64,413.95z M200.77,186.41
			c-0.9-1.06,1.63-4.78-1.97-3.93c-7.11,1.68-14.01,1.96-21-0.2c-1.29-0.4-1.91,0.21-1.92,1.47c-0.06,4.02,0.03,8.02,2.59,11.43
			c3.38,4.48,8.82,6.15,14.01,4.37C197.78,197.73,200.71,193.17,200.77,186.41z M289.04,301.13c3.36,0,6.72-0.02,10.07,0.01
			c3.19,0.03,2.66-2.26,2.65-4.2c-0.02-2.45-1.57-1.96-3.12-1.62c-6.16,1.33-12.34,1.34-18.5,0.02c-1.7-0.36-3.3-0.9-3.3,1.8
			c0,2.06-0.23,4.12,2.87,4.02C282.82,301.06,285.93,301.14,289.04,301.13z"/>
		<path d="M448.25,108.48c0,7.98,0.04,15.96-0.01,23.94c-0.08,10.82-7.81,18.51-18.69,18.64c-3.74,0.04-7.48,0.1-11.22-0.01
			c-3.14-0.1-5.49,1.08-7.38,3.58c-6.01,7.96-12.08,15.87-18.14,23.8c-3.79,4.95-7.26,6.35-11.8,4.77c-4.45-1.54-6.5-4.98-6.53-11
			c-0.02-4.49,0.03-8.98-0.02-13.47c-0.06-5.43-2.3-7.63-7.83-7.65c-10.35-0.04-20.7,0.02-31.05-0.02
			c-11.75-0.05-19.48-7.73-19.52-19.45c-0.05-15.59-0.05-31.17,0-46.76c0.03-11.71,7.81-19.55,19.43-19.56
			c31.17-0.03,62.34-0.03,93.51,0c11.56,0.01,19.16,7.69,19.24,19.25c0,0.25,0,0.5,0,0.75C448.25,93.02,448.25,100.75,448.25,108.48
			z M386.75,166.22c1.61-1.96,2.56-3.06,3.44-4.22c3.85-5.06,7.67-10.13,11.52-15.19c3.42-4.5,7.88-7.04,13.58-7.61
			c4.36-0.44,8.72-0.19,13.07-0.31c5.66-0.15,8.02-2.25,8.06-7.92c0.11-15.2,0.11-30.41,0-45.61c-0.04-5.66-2.42-7.83-8.08-7.83
			c-30.66-0.02-61.32-0.02-91.97,0c-6.23,0-8.04,1.81-8.05,8.01c-0.03,14.58-0.02,29.16-0.01,43.74c0,8.23,1.36,9.6,9.51,9.61
			c9.47,0.02,18.95-0.12,28.41,0.05c13.27,0.24,20.48,7.67,20.52,20.86C386.76,161.61,386.75,163.42,386.75,166.22z"/>
	</g>
</g>
</svg>
