<?xml version="1.0" encoding="utf-8"?>
<!-- Generator: Adobe Illustrator 24.0.1, SVG Export Plug-In . SVG Version: 6.00 Build 0)  -->
<svg version="1.1" id="레이어_1" xmlns="http://www.w3.org/2000/svg" xmlns:xlink="http://www.w3.org/1999/xlink" x="0px"
	 y="0px" viewBox="0 0 512 512" style="enable-background:new 0 0 512 512;" xml:space="preserve">
<style type="text/css">
	.st0{fill:#FEFEFE;}
</style>
<g>
	<g>
		<path class="st0" d="M331.94,447.9c-88.07,0-176.15-0.03-264.22,0.1c-3.4,0-3.73-0.99-3.72-3.93c0.12-25.66,0.07-51.32,0.07-76.98
			c2.81-0.09,2.9,2.28,3.52,4.04c5.38,15.12,15.97,23.99,31.78,26.66c2.1,0.36,4.22,0.36,6.34,0.36c34.79,0.01,69.58,0.01,104.37,0
			c2.12,0,4.25,0.11,6.31-0.52c2.97-0.91,4.82-3.3,4.58-6.05c-0.26-3.07-2.23-4.59-5.07-5.15c-1.97-0.39-3.98-0.27-5.97-0.28
			c-34.17-0.01-68.33-0.01-102.5,0.01c-4.28,0-8.49-0.4-12.47-2.03c-10.69-4.38-15.93-12.68-16.97-23.92
			c-0.08-0.87-0.06-1.74-0.06-2.62c-0.02-83.41-0.01-166.83-0.01-250.24c0-4.16,0.57-8.21,2.2-12.05
			c4.47-10.5,12.78-15.52,23.84-16.54c0.62-0.06,1.25-0.04,1.87-0.04c62.72-0.02,125.45-0.06,188.17,0.03
			c12.84,0.02,22.76,7.35,26.26,18.89c0.78,2.56,0.78,5.16,0.78,7.78c0.02,29.43,0,58.85,0.01,88.28c0,1.87-0.06,3.74,0.14,5.61
			c0.51,4.7,2.93,7.54,6.34,7.48c3.28-0.06,5.58-2.8,6.12-7.31c0.13-1.12,0.15-2.24,0.15-3.36c0.01-29.3,0.08-58.6-0.05-87.9
			c-0.03-6.36-0.81-12.66-3.53-18.6c-7-15.26-19.24-22.56-35.6-22.83c-20.82-0.35-41.65-0.09-62.47-0.09
			c-41.77,0-83.55-0.01-125.32,0c-19.68,0.01-32.77,9.23-39.48,27.72c-0.57,1.57-0.85,3.57-3.3,3.34c0-10.59,0.04-21.19-0.05-31.78
			c-0.01-1.57,0.27-2.21,1.9-1.9c0.6,0.11,1.24,0.02,1.87,0.02c125.53,0,251.06,0.01,376.58-0.09c3.06,0,3.62,0.64,3.62,3.65
			c-0.1,125.64-0.09,251.27-0.01,376.91c0,2.9-0.75,3.4-3.48,3.39c-30.29-0.11-60.58-0.07-90.87-0.07c-0.24-2.46,1.71-2.33,3.2-2.61
			c8.34-1.61,16.68-3.27,24.5-6.65c34.24-14.79,55.44-40.4,62.3-77.12c5.21-27.86-1.07-53.64-17.52-76.56
			c-16.02-22.33-37.78-36.41-65.04-40.99c-31.14-5.22-59.17,2.2-83.44,22.59c-21.16,17.78-33.18,40.78-35.58,68.13
			c-2.66,30.32,6.44,57.07,27.58,79.41c15.82,16.71,35.12,26.75,57.74,30.66C329.14,445.07,331.96,444.64,331.94,447.9z"/>
		<path d="M64.07,97.76c1.24-0.76,1.08-2.16,1.38-3.29c4.67-17.22,19.98-29.52,37.84-29.56c64.21-0.14,128.42-0.16,192.62,0
			c22.08,0.06,39.21,17.31,39.48,39.99c0.37,31.78,0.12,63.58,0.08,95.36c-0.01,5.72-3.27,9.16-8.19,9.07
			c-4.84-0.09-7.84-3.58-7.85-9.42c-0.03-31.29,0.01-62.58-0.03-93.87c-0.02-12.12-6.48-21.11-17.23-24.26
			c-2.65-0.78-5.37-1.05-8.13-1.05c-62.84,0-125.67-0.02-188.51,0.02c-15.39,0.01-25.53,10.18-25.54,25.6
			c-0.03,84.02-0.03,168.04,0,252.06c0.01,15.61,10.15,25.67,25.83,25.69c35.41,0.04,70.82,0.01,106.22,0.01
			c1.37,0,2.75-0.04,4.11,0.07c4.44,0.35,7.41,3.5,7.43,7.8c0.02,4.24-2.99,7.55-7.33,7.97c-1.24,0.12-2.49,0.06-3.74,0.06
			c-35.03,0-70.07,0-105.1,0c-22.24,0-35.92-10.14-42.45-31.44c-0.18-0.58-0.14-1.26-0.89-1.48
			C64.07,277.32,64.07,187.54,64.07,97.76z"/>
		<path d="M331.94,447.9c-3.85-1.83-8.12-1.8-12.17-2.74c-42.14-9.85-73.91-45.13-79.25-88.23c-6.9-55.66,31.45-106.45,87.09-115.35
			c58.06-9.29,113.41,33.49,118.95,91.94c5.39,56.93-34.49,106.76-90.97,113.65c-0.7,0.09-1.54-0.14-1.94,0.74
			C346.41,447.9,339.17,447.9,331.94,447.9z"/>
		<path d="M199.82,208.49c-7.73,0-15.45-0.04-23.18,0.01c-14.28,0.08-24.49,10.08-24.82,24.37c-0.11,4.86,0.03,9.72-0.04,14.58
			c-0.08,5.42-3.27,8.94-7.95,8.91c-4.63-0.03-8-3.67-7.89-8.99c0.17-8.44-0.87-16.93,1.37-25.28
			c4.48-16.71,19.44-28.98,36.77-29.34c16.44-0.34,32.9-0.3,49.34-0.1c22.88,0.28,39.53,16.97,40.21,40.02
			c0.14,4.86,0.1,9.72,0.01,14.58c-0.1,5.63-3.42,9.23-8.22,9.11c-4.67-0.12-7.73-3.62-7.83-9.12c-0.09-5.23,0.09-10.47-0.1-15.7
			c-0.45-12.79-10.57-22.76-23.38-22.99c-8.1-0.14-16.2-0.03-24.3-0.03C199.82,208.5,199.82,208.49,199.82,208.49z"/>
		<path d="M199.73,176.48c-17.65,0-31.79-14.13-31.81-31.78c-0.03-17.62,14.14-31.91,31.68-31.97c17.7-0.06,32.12,14.34,32.07,32.02
			C231.62,162.31,217.35,176.48,199.73,176.48z"/>
		<path d="M168.09,288.35c15.32,0,30.64,0.01,45.97-0.01c2.68,0,5.23,0.24,7.24,2.29c2.23,2.26,2.81,5.02,1.97,7.94
			c-0.9,3.14-3.2,4.98-6.41,5.55c-1.09,0.2-2.23,0.12-3.35,0.12c-30.52,0.01-61.04,0-91.56,0c-0.75,0-1.5,0.03-2.24-0.03
			c-4.49-0.35-7.77-3.77-7.73-8.03c0.04-4.3,3.3-7.71,7.9-7.76c10.96-0.13,21.92-0.06,32.89-0.07
			C157.88,288.35,162.98,288.35,168.09,288.35z"/>
		<path d="M160.24,336.25c12.95,0,25.89-0.07,38.84,0.03c6.63,0.05,10.57,5.95,7.76,11.41c-1.49,2.9-3.98,4.43-7.25,4.43
			c-26.52,0.02-53.03,0.05-79.55-0.03c-4.72-0.01-8.12-3.65-8.06-8.05c0.06-4.43,3.41-7.72,8.3-7.75
			C133.6,336.19,146.92,336.25,160.24,336.25z"/>
		<path class="st0" d="M431.19,346.45c-1.92,48.97-42.42,87.39-90.09,85.47c-49.8-2.01-87.24-42.32-85.42-91.96
			c1.75-47.77,43.05-85.3,91.9-83.53C394.52,258.14,433.03,299.6,431.19,346.45z"/>
		<path class="st0" d="M199.83,160.6c-8.77,0.04-15.99-7.11-16.04-15.87c-0.04-8.74,7.14-16.02,15.86-16.08
			c8.66-0.06,16.02,7.21,16.09,15.91C215.82,153.22,208.54,160.55,199.83,160.6z"/>
		<path d="M295.69,336.31c2.83-0.13,4.81,1.53,6.7,3.42c7.13,7.14,14.38,14.16,21.34,21.47c2.5,2.62,3.75,2.97,6.35-0.07
			c14.67-17.11,29.6-34.01,44.44-50.98c0.82-0.94,1.62-1.89,2.48-2.79c3.56-3.73,8.17-4.13,11.6-1.03
			c3.37,3.05,3.54,7.81,0.23,11.69c-4.61,5.4-9.33,10.71-14,16.05c-13.29,15.18-26.57,30.37-39.88,45.54
			c-5.09,5.8-9.32,5.93-14.76,0.51c-9.88-9.85-19.76-19.7-29.59-29.6c-3.66-3.69-3.98-8.37-0.96-11.67
			C291.24,337.09,293.23,336.2,295.69,336.31z"/>
	</g>
</g>
</svg>
