<?xml version="1.0" encoding="utf-8"?>
<!-- Generator: Adobe Illustrator 27.2.0, SVG Export Plug-In . SVG Version: 6.00 Build 0)  -->
<svg version="1.1" id="레이어_1" xmlns="http://www.w3.org/2000/svg" xmlns:xlink="http://www.w3.org/1999/xlink" x="0px"
	 y="0px" viewBox="0 0 512 512" style="enable-background:new 0 0 512 512;" xml:space="preserve">
<style type="text/css">
	.st0{fill:none;stroke:#000000;stroke-width:10;stroke-miterlimit:10;}
	.st1{fill:none;stroke:#000000;stroke-width:10;stroke-linecap:round;stroke-linejoin:round;stroke-miterlimit:10;}
</style>
<circle class="st0" cx="343.17" cy="344.26" r="97.15"/>
<polyline class="st1" points="290,338.3 327.65,375.95 388.7,306.8 "/>
<path class="st1" d="M327.2,207.8V92.2c0-12.7-10.3-23-23-23H95.8c-12.7,0-23,10.3-23,23v275.6c0,12.7,10.3,23,23,23H221"/>
<line class="st1" x1="112.25" y1="295.85" x2="221.15" y2="295.85"/>
<line class="st1" x1="112.25" y1="344.26" x2="206.3" y2="344.26"/>
<circle class="st1" cx="200" cy="144.8" r="22.05"/>
<g>
	<path class="st1" d="M143.98,254.2v-26c0,0,0.45-27.75,27-29.55h28.35"/>
	<path class="st1" d="M256.02,254.2v-26c0,0-0.45-27.75-27-29.55h-28.35"/>
</g>
</svg>
