<?xml version="1.0" standalone="no"?>
<!DOCTYPE svg PUBLIC "-//W3C//DTD SVG 20010904//EN"
 "http://www.w3.org/TR/2001/REC-SVG-20010904/DTD/svg10.dtd">
<svg version="1.0" xmlns="http://www.w3.org/2000/svg"
 width="512.000000pt" height="512.000000pt" viewBox="0 0 512.000000 512.000000"
 preserveAspectRatio="xMidYMid meet">

<g transform="translate(0.000000,512.000000) scale(0.100000,-0.100000)"
fill="#000000" stroke="none">
<path d="M2350 4899 c-893 -53 -1716 -498 -2100 -1134 -357 -591 -328 -1274
78 -1844 80 -113 252 -295 377 -400 105 -87 291 -211 408 -272 45 -23 83 -43
84 -44 2 -1 -42 -157 -97 -346 -110 -375 -160 -562 -160 -596 0 -13 11 -30 25
-39 24 -15 29 -15 73 1 94 36 278 155 761 489 l309 215 73 -12 c120 -19 648
-15 795 6 369 52 633 131 939 281 286 141 478 279 686 493 185 191 313 384
398 599 310 777 4 1610 -784 2133 -423 280 -912 437 -1468 471 -177 11 -211
11 -397 -1z m-766 -1413 c74 -31 107 -140 60 -202 -47 -63 -63 -69 -215 -72
l-139 -4 0 -452 0 -453 -23 -34 c-59 -89 -185 -89 -244 0 l-23 34 0 453 0 452
-139 4 c-152 3 -168 9 -215 72 -46 61 -15 170 58 202 46 20 832 20 880 0z
m511 -5 c60 -27 109 -88 135 -167 42 -126 110 -305 210 -548 113 -278 142
-367 144 -444 0 -48 -3 -57 -30 -82 -54 -48 -175 -49 -218 -2 -9 11 -30 56
-47 102 -48 134 -17 120 -274 120 l-223 0 -16 -42 c-9 -24 -25 -68 -36 -99
-11 -30 -29 -65 -40 -77 -40 -42 -134 -50 -201 -16 -36 18 -53 64 -46 127 6
62 360 995 400 1056 30 46 113 91 166 91 20 0 54 -9 76 -19z m795 -3 c18 -13
43 -36 54 -51 20 -28 21 -40 24 -483 l3 -454 170 0 c139 0 178 -3 206 -17 92
-44 96 -171 6 -230 -25 -16 -54 -18 -313 -18 -321 0 -325 1 -358 73 -15 33
-17 88 -14 547 1 281 3 522 2 537 0 32 43 86 85 104 46 20 98 17 135 -8z m807
2 c63 -38 67 -55 73 -260 l5 -185 205 207 c203 204 245 238 295 238 67 0 135
-68 135 -134 0 -60 -41 -118 -158 -219 -106 -93 -202 -190 -202 -206 0 -10
148 -209 293 -394 94 -120 108 -159 81 -225 -38 -91 -131 -119 -211 -64 -55
37 -101 93 -211 254 -51 75 -111 157 -134 183 l-41 46 -28 -27 -29 -28 0 -181
c0 -173 -1 -184 -23 -216 -32 -48 -99 -74 -154 -60 -49 13 -101 63 -108 105
-3 17 -5 270 -3 563 3 520 3 532 24 560 44 60 131 80 191 43z"/>
<path d="M1943 2923 l-70 -198 140 -3 c77 -1 142 0 144 2 6 6 -130 396 -138
396 -3 0 -38 -89 -76 -197z"/>
</g>
</svg>
