<?xml version="1.0" encoding="utf-8"?>
<!-- Generator: Adobe Illustrator 24.0.1, SVG Export Plug-In . SVG Version: 6.00 Build 0)  -->
<svg version="1.1" id="레이어_1" xmlns="http://www.w3.org/2000/svg" xmlns:xlink="http://www.w3.org/1999/xlink" x="0px"
	 y="0px" viewBox="0 0 512 512" style="enable-background:new 0 0 512 512;" xml:space="preserve">
<g>
	<g>
		<path d="M115.02,352.94c-9.76-8.42-16.08-17.9-19.1-29.48c-1.27-4.85-1.89-9.78-1.89-14.79c-0.01-21.71,0.01-43.41-0.01-65.12
			c-0.01-6.59,1.58-12.67,6.11-17.57c2.02-2.19,2.27-3.11-0.29-5.23c-13.8-11.39-14.57-31.81-1.93-44.37
			c12.17-12.09,31.84-11.59,43.46,1.11c11.57,12.65,10.29,32.43-2.96,43.32c-2.09,1.72-2.84,2.6-0.56,4.94
			c4.24,4.35,6.28,9.87,6.21,15.97c-0.03,2.32,1,3.42,2.69,4.77c8.03,6.46,16.86,8.92,27.3,8.26c13.05-0.82,26.19-0.22,39.28-0.19
			c13.58,0.04,21.3,8.86,19.38,22.24c-0.26,1.78,0.18,2.18,1.79,2.17c14.6-0.03,29.19-0.03,43.79,0c1.65,0,2-0.44,1.75-2.19
			c-1.9-13.15,5.82-22.09,19.13-22.14c16.47-0.07,32.94-0.09,49.4,0.04c3.27,0.03,6.13-0.48,8.69-2.56
			c0.96-0.78,2.05-1.43,3.14-2.02c5-2.7,9.23-5.48,8.87-12.48c-0.24-4.59,2.5-8.88,5.9-12.17c2.09-2.03,1.4-2.82-0.48-4.41
			c-9.26-7.84-13.04-17.89-10.38-29.76c2.62-11.66,10.01-19.33,21.58-22.57c13.33-3.73,27.45,2.36,34.17,14.47
			c6.71,12.1,4.38,27.33-5.99,36.56c-2.85,2.54-4.02,3.83-0.75,7.14c3.96,4.01,5.39,9.52,5.4,15.16
			c0.06,22.95,0.26,45.91-0.09,68.86c-0.23,15.28-6.39,28.26-17.41,38.89c-0.88,0.85-1.79,1.66-3.42,3.18
			c6.61-0.21,12.42,0.64,18.11-0.5c8.7-1.75,14.13-8.89,14.14-18.16c0.03-27.82,0.01-55.64,0.01-83.46c0-6.31,2.02-9.32,6.16-9.18
			c3.99,0.13,5.82,3,5.82,9.16c0,27.2,0,54.39,0,81.59c0,20.12-12.3,32.48-32.31,32.49c-7.61,0-15.22,0.12-22.83-0.06
			c-2.7-0.07-3.28,0.82-3.27,3.37c0.1,20.46,0.06,40.92,0.05,61.38c0,6.58-1.83,8.38-8.48,8.42c-3.87,0.02-7.74,0.04-11.6-0.01
			c-5.93-0.06-7.86-1.97-7.87-7.87c-0.03-20.33-0.09-40.67,0.07-61c0.03-3.42-0.87-4.43-4.31-4.31c-7.47,0.26-8.32,0.64-10.45,7.84
			c-5.79,19.59-11.52,39.19-17.28,58.78c-1.61,5.48-3.03,6.56-8.8,6.57c-39.05,0.01-78.1,0.01-117.14,0c-5.76,0-7.15-1.08-8.77-6.59
			c-5.7-19.35-11.4-38.7-17.1-58.05c-0.35-1.19-0.76-2.37-1.12-3.56c-1.34-4.49-4.63-5.2-8.78-4.96c-5.54,0.33-4.93-0.76-4.94,5.05
			c-0.03,19.84,0,39.67-0.02,59.51c0,6.87-1.74,8.58-8.65,8.6c-3.74,0.01-7.49,0.03-11.23,0c-6.15-0.05-8.08-1.97-8.08-8.06
			c-0.01-20.46-0.06-40.92,0.06-61.38c0.02-2.89-0.67-3.82-3.68-3.74c-8.23,0.22-16.47,0.12-24.7,0.06
			c-16.87-0.12-29.95-13.02-30.01-29.87c-0.11-28.69-0.04-57.39-0.02-86.08c0-4.43,2.25-7.16,5.81-7.27
			c3.7-0.11,6.14,2.73,6.14,7.32c0.02,28.07,0,56.14,0.01,84.21c0,12.54,7.19,19.71,19.72,19.72
			C106.29,352.94,110.15,352.94,115.02,352.94z M294.66,367.17c0-18.33-0.05-36.66,0.05-54.98c0.01-2.7-0.4-3.93-3.58-3.91
			c-23.19,0.14-46.38,0.12-69.57,0.01c-2.8-0.01-3.55,0.77-3.55,3.57c0.09,36.9,0.09,73.81,0,110.71c-0.01,2.86,0.85,3.54,3.59,3.53
			c23.19-0.1,46.38-0.11,69.57,0c2.82,0.01,3.57-0.79,3.55-3.58C294.61,404.08,294.66,385.63,294.66,367.17z M406.75,276.8
			c0-11.47,0.07-22.94-0.03-34.41c-0.05-6.28-3.98-11.39-9.53-12.85c-5.64-1.49-11.59,0.88-14.64,5.75
			c-1.43,2.29-1.86,3.47,1.79,3.67c8.27,0.45,14.59,5.83,16.52,13.37c1.97,7.74-0.87,15.14-7.73,19.86
			c-2.98,2.05-5.97,4.09-9.11,5.86c-2.53,1.43-3.6,3.15-3.5,6.21c0.25,7.72,0.1,15.46,0.08,23.19
			c-0.02,12.29-6.99,19.31-19.16,19.36c-1.99,0.01-3.99-0.02-5.98,0.05c-11.82,0.39-21.36,5.18-28.45,14.75
			c-5.4,7.3-9.05,15.47-11.79,24.04c-3.03,9.47-6.82,18.9-8.26,28.64c-1.42,9.64-0.3,19.65-0.34,29.5c-0.01,1.56,0.53,2.19,2.14,2.3
			c2.61,0.18,4.3-0.16,5.14-3.28c2.85-10.57,6.03-21.05,9.14-31.55c2.54-8.59,4.85-17.27,7.81-25.71
			c3.17-9.03,8.73-12.57,18.13-12.59c4.36-0.01,8.73,0,13.09,0c25.51-0.02,44.59-19.11,44.66-44.72
			C406.78,297.74,406.75,287.27,406.75,276.8z M106,276.69c0,10.98-0.13,21.95,0.04,32.93c0.18,11.57,4.21,21.69,12.33,30.02
			c8.5,8.73,18.93,13.11,31.11,13.29c4.12,0.06,8.24,0.22,12.35-0.03c10.8-0.66,17.21,3.1,21.08,15.39
			c3.22,10.21,6.07,20.54,9.1,30.81c2.43,8.24,4.99,16.44,7.24,24.73c0.82,3.01,2.91,2.03,4.73,2.2c1.97,0.19,2.15-1.05,2.16-2.61
			c0.2-16.68,1.1-33.43-5.86-49.26c-0.1-0.22-0.11-0.49-0.18-0.72c-3.16-10.12-6.56-20.14-12.44-29.1
			c-5.47-8.35-12.64-14.38-22.61-16.56c-4.91-1.08-9.91-0.96-14.9-0.99c-10.52-0.08-17.86-7.4-17.98-17.89
			c-0.07-6.11-0.62-12.3,0.14-18.32c1-7.89-1.58-13.08-8.91-16.03c-1.14-0.46-2.12-1.3-3.16-1.99c-7.23-4.77-10.29-12.04-8.41-19.93
			c1.87-7.83,8.03-13.23,16.56-13.83c3.76-0.26,3.1-1.51,1.68-3.7c-3.14-4.84-9.16-7.11-14.73-5.51c-5.4,1.56-9.23,6.57-9.29,12.67
			C105.93,253.74,106.01,265.21,106,276.69z M205.35,352.13c0.25-0.06,0.5-0.11,0.76-0.17c0-1.18,0-2.36,0-3.54
			c0-11.72,0-23.44,0-35.16c0-4.9,0-4.9-4.73-4.9c-8.48,0-16.96,0.05-25.44-0.03c-4.94-0.05-6.98-2.2-7.09-7.12
			c-0.02-1.12-0.01-2.24-0.01-3.37c0-6.9,0-6.81-6.74-6.96c-5.19-0.12-10.56,0.86-15.46-1.62c-2.56-1.29-2.56,0.01-2.54,1.93
			c0.06,5.36,0.01,10.72,0.02,16.08c0.02,5.84,1.72,7.61,7.57,7.53c7.78-0.1,15.45,0.43,22.79,3.28
			c13.91,5.41,22.27,16.29,28.58,29.16C203.86,348.85,204.59,350.5,205.35,352.13z M306.64,351.93c0.2,0.04,0.4,0.07,0.6,0.11
			c1.99-3.8,3.84-7.68,6-11.38c6.85-11.71,16.16-20.47,29.62-24.08c6.32-1.7,12.79-1.92,19.28-1.76c3.5,0.09,6.16-1.41,6.32-4.92
			c0.33-7.03,0.1-14.09,0.1-21.82c-5.31,3.33-10.71,2.85-16.03,2.85c-8.61,0-8.61,0-8.63,8.79c0,0.25,0,0.5,0,0.75
			c-0.05,5.85-1.99,7.83-7.87,7.86c-8.35,0.04-16.7,0.14-25.05-0.06c-3.25-0.08-4.6,0.6-4.43,4.24c0.32,6.84,0.09,13.7,0.09,20.56
			C306.64,339.37,306.64,345.65,306.64,351.93z M184.68,278.89c0,0.03,0,0.05,0,0.08c9.98,0,19.96,0.03,29.94-0.02
			c4.03-0.02,6.51-2.39,6.59-6.04c0.07-3.61-2.38-6.08-6.38-6.34c-1.12-0.07-2.24-0.03-3.37-0.03c-16.71,0-33.43-0.08-50.14,0.06
			c-3.79,0.03-7-0.87-10.12-3.03c-5.64-3.88-11.47-7.5-17.26-11.17c-4.01-2.54-7.78-1.99-9.76,1.3c-1.95,3.22-0.87,6.55,3.06,9.11
			c7.42,4.83,14.88,9.58,22.29,14.42c1.85,1.21,3.78,1.7,5.98,1.69C165.22,278.85,174.95,278.89,184.68,278.89z M328.06,278.96
			c9.72,0,19.45-0.02,29.17,0.01c2.04,0.01,3.9-0.31,5.67-1.47c7.61-4.98,15.3-9.83,22.9-14.83c3.84-2.53,4.75-6.02,2.63-9.19
			c-2.04-3.05-5.71-3.49-9.55-1.05c-5.99,3.81-12.02,7.57-17.88,11.57c-2.82,1.93-5.73,2.66-9.1,2.64
			c-16.83-0.1-33.65-0.04-50.48-0.04c-1.12,0-2.25-0.03-3.36,0.03c-4.03,0.23-6.52,2.63-6.49,6.22c0.03,3.59,2.53,6.05,6.59,6.08
			C308.11,279.01,318.08,278.96,328.06,278.96z M119.26,215.94c9.89-0.08,18.03-8.26,18.05-18.15c0.02-10.01-8.38-18.36-18.35-18.23
			c-9.9,0.13-18.04,8.31-18.06,18.17C100.86,207.73,109.23,216.02,119.26,215.94z M393.61,215.94c10.02,0.01,18.37-8.39,18.24-18.35
			c-0.13-9.88-8.34-18.02-18.2-18.04c-10.01-0.02-18.3,8.34-18.22,18.37C375.53,207.8,383.72,215.93,393.61,215.94z M256,296.37
			c0.75,0,1.5,0,2.25,0c23.33,0,46.65,0,69.98,0.01c2.03,0,3.9,0.34,3.8-2.92c-0.09-3.18-2.06-2.5-3.8-2.5
			c-40.79-0.02-81.58-0.01-122.37-0.01c-7.36,0-14.72,0.11-22.08-0.06c-2.68-0.06-3.04,1.08-3,3.32c0.06,3.05,2.24,2.13,3.74,2.13
			C208.34,296.39,232.17,296.37,256,296.37z M145.08,395.61c0-9.23,0.01-18.46-0.01-27.69c0-1.4,0.48-3.05-2.02-3.05
			c-2.57-0.01-1.96,1.71-1.96,3.06c-0.02,18.34-0.02,36.67,0,55.01c0,1.38-0.55,3.13,1.96,3.11c2.44-0.02,2.02-1.7,2.03-3.12
			C145.09,413.83,145.08,404.72,145.08,395.61z M371.68,395.23c0-9.11,0.01-18.21-0.01-27.32c0-1.37,0.58-3.07-1.99-3.04
			c-2.51,0.03-2,1.69-2,3.08c-0.02,18.34-0.02,36.67-0.01,55.01c0,1.44-0.38,3.1,2.05,3.1c2.52,0,1.93-1.77,1.94-3.14
			C371.7,413.69,371.68,404.46,371.68,395.23z"/>
		<path d="M191.02,76.23c13.22,0,26.43-0.02,39.65,0.01c12.95,0.03,19.79,6.92,19.8,19.91c0.01,17.96,0.02,35.91,0,53.87
			c-0.02,12-6.95,19.08-19.01,19.18c-14.84,0.12-29.68,0.09-44.51-0.02c-2.6-0.02-4.4,0.76-6.16,2.66
			c-5.59,6.04-11.38,11.89-17.07,17.84c-2.09,2.18-4.32,3.84-7.56,2.56c-3.37-1.33-3.97-4.08-3.9-7.31
			c0.1-4.36-0.05-8.73,0.06-13.09c0.05-1.88-0.5-2.5-2.48-2.67c-13.23-1.08-18.89-7.27-18.9-20.45c-0.01-17.46-0.02-34.91,0-52.37
			c0.02-13.17,6.91-20.08,20.05-20.1C164.34,76.21,177.68,76.23,191.02,76.23z M164.27,170.53c3.58-3.29,7.17-6.21,10.3-9.57
			c2.51-2.69,5.2-3.81,8.86-3.78c15.96,0.13,31.93,0.09,47.9,0.04c5.4-0.02,7.17-1.86,7.17-7.23c0.02-18.21,0.02-36.42,0-54.63
			c-0.01-5.31-1.82-7.09-7.27-7.14c-6.11-0.06-12.22-0.01-18.34-0.01c-20.83,0-41.66-0.02-62.49,0.01
			c-5.27,0.01-7.39,1.68-7.42,6.28c-0.09,18.83-0.09,37.67,0,56.5c0.02,4.22,2.01,6.01,6.34,6.2c2.86,0.12,5.74-0.05,8.6,0.08
			c4.04,0.18,6.15,2.32,6.32,6.35C164.35,165.96,164.27,168.3,164.27,170.53z"/>
		<path d="M366.1,129.2c0.13,11.71-2.13,21.56-7.58,30.52c-1.31,2.15-1.45,4-0.78,6.28c1.66,5.74,3.19,11.51,4.7,17.29
			c1.82,6.97-1.63,10.48-8.53,8.72c-3.74-0.96-7.47-1.93-11.18-3c-8.46-2.45-16.66-3.63-25.84-2.6
			c-29.48,3.29-54.24-15.59-60.02-44.23c-5.95-29.5,13.8-58.44,43.98-64.44c28.87-5.73,58.23,13.83,64.02,42.72
			C365.53,123.75,365.81,127.12,366.1,129.2z M348.6,178.19c-1.23-4.72-2.08-8.73-3.35-12.6c-1.2-3.65-0.58-6.61,1.57-9.8
			c6.98-10.35,8.92-21.78,6.07-33.91c-5.23-22.23-26.67-36.15-49.68-32.37c-21.68,3.56-37.38,24.51-35.07,46.79
			c2.76,26.66,28.64,44.34,54.44,37.1c2.9-0.81,5.56-0.79,8.4,0.02C336.58,175.03,342.22,176.48,348.6,178.19z"/>
		<path d="M190.63,114.93c-8.34,0-16.68,0.02-25.02-0.01c-4.74-0.02-7.36-2.23-7.29-6.06c0.07-3.64,2.68-5.88,7.15-5.89
			c16.81-0.04,33.61-0.03,50.42,0c4.57,0.01,7.44,2.47,7.36,6.12c-0.08,3.56-2.81,5.82-7.22,5.83
			C207.56,114.95,199.1,114.93,190.63,114.93z"/>
		<path d="M190.76,130.53c8.34,0,16.68-0.02,25.02,0.01c4.69,0.02,7.48,2.28,7.47,5.96c-0.01,3.64-2.88,5.99-7.49,6
			c-16.68,0.02-33.36,0.02-50.04,0c-4.71-0.01-7.4-2.26-7.4-6.02c0-3.77,2.63-5.91,7.42-5.93
			C174.08,130.5,182.42,130.53,190.76,130.53z"/>
		<path d="M310.77,151.64c-6.86,0-13.72,0.03-20.57-0.01c-4.55-0.02-7.06-2.14-7.08-5.87c-0.03-3.7,2.55-6.06,6.96-6.07
			c13.96-0.05,27.93-0.05,41.89,0c4.41,0.02,6.96,2.4,6.9,6.14c-0.06,3.69-2.6,5.79-7.15,5.81
			C324.74,151.66,317.75,151.64,310.77,151.64z"/>
		<path d="M310.78,124.13c-6.86,0-13.71,0.04-20.57-0.01c-4.56-0.04-7.07-2.18-7.11-5.86c-0.03-3.7,2.49-6.05,6.97-6.07
			c13.96-0.07,27.92-0.07,41.88,0c4.47,0.02,6.97,2.4,6.92,6.12c-0.06,3.69-2.55,5.78-7.15,5.81
			C324.74,124.17,317.76,124.13,310.78,124.13z"/>
	</g>
</g>
</svg>
