<?xml version="1.0" encoding="utf-8"?>
<!-- Generator: Adobe Illustrator 24.0.1, SVG Export Plug-In . SVG Version: 6.00 Build 0)  -->
<svg version="1.1" id="레이어_1" xmlns="http://www.w3.org/2000/svg" xmlns:xlink="http://www.w3.org/1999/xlink" x="0px"
	 y="0px" viewBox="0 0 512 512" style="enable-background:new 0 0 512 512;" xml:space="preserve">
<g>
	<g>
		<path d="M444.88,257.95c0,43.91,0,87.81,0,131.72c0,14.66-7.73,22.46-22.3,22.46c-71.72,0.01-143.44-0.03-215.17,0.05
			c-6.54,0.01-12.38-1.25-16.99-6.15c-1.12-1.19-1.77-0.81-2.69,0.13c-4.48,4.57-10.03,6.03-16.32,6.01
			c-27.07-0.1-54.13-0.03-81.2-0.05c-13.8-0.01-21.77-8.02-21.78-21.87c-0.01-53.64-0.01-107.27,0-160.91
			c0-13.58,8.07-21.64,21.6-21.65c27.07-0.01,54.13,0.02,81.2-0.03c4.05-0.01,7.98,0.29,11.58,2.32c1.63,0.92,2.25,0.53,2.17-1.29
			c-0.04-1,0-2,0-2.99c0-27.19-0.03-54.38,0.02-81.58c0.02-10.1,5.36-17.43,14.25-20.01c2.2-0.64,4.43-0.68,6.67-0.68
			c72.6-0.01,145.19-0.02,217.79,0c13.12,0,21.15,8.09,21.16,21.3C444.89,169.14,444.88,213.54,444.88,257.95z M193.49,257.83
			c0,44.15-0.01,88.31,0.01,132.46c0,9.31,4.16,13.41,13.51,13.41c71.97,0.01,143.94,0.01,215.9,0c9.11,0,13.33-4.16,13.33-13.2
			c0.01-88.56,0.01-177.11,0-265.67c0-8.83-4.19-12.95-13.12-12.95c-72.09-0.01-144.18-0.01-216.28,0
			c-9.31,0-13.36,4.09-13.36,13.49C193.48,169.52,193.48,213.68,193.49,257.83z M76.84,309.91c0,26.56,0,53.13,0,79.69
			c0,9.86,4.25,14.1,14.14,14.1c25.57,0.01,51.13-0.26,76.69,0.11c12.74,0.18,17.46-3.35,17.4-17.41
			c-0.22-51-0.09-102.01-0.09-153.02c0-1.62-0.03-3.24-0.17-4.85c-0.78-8.87-4.6-12.43-13.42-12.43c-26.94-0.02-53.87-0.02-80.81,0
			c-9.36,0.01-13.74,4.4-13.74,13.75C76.83,256.53,76.84,283.22,76.84,309.91z"/>
		<path d="M206.11,258.03c0-13.72-0.02-27.44,0.01-41.16c0.02-9.72,5.29-14.98,15.08-14.99c25.95-0.03,51.89-0.02,77.84,0
			c10.01,0.01,15.25,5.2,15.26,15.22c0.03,27.18,0.04,54.37,0,81.55c-0.01,9.67-5.17,14.84-14.75,14.85
			c-26.19,0.03-52.37-0.17-78.56,0.12c-8.17,0.09-15.31-5.74-14.99-15.18C206.45,284.98,206.11,271.5,206.11,258.03z M305.05,261.05
			c0.25-0.09,0.5-0.17,0.75-0.26c0-14.57,0.01-29.15-0.01-43.72c-0.01-5.17-1.41-6.53-6.74-6.53c-25.93-0.01-51.86-0.01-77.78,0
			c-5.23,0-6.73,1.47-6.74,6.59c-0.02,23.31-0.01,46.62,0.02,69.93c0,0.74-0.52,1.75,0.79,2.33c7.71-9.43,15.39-18.9,23.16-28.3
			c3.03-3.67,5.71-3.48,8.32,0.5c2.81,4.27,5.6,8.55,8.19,12.94c1.42,2.42,2.24,2.94,4.28,0.37c8.45-10.64,17.1-21.11,25.71-31.61
			c3.4-4.16,6.09-3.99,9.03,0.55C297.73,249.55,301.38,255.31,305.05,261.05z M289.04,251.81c-8.85,10.85-17.33,21.28-25.88,31.65
			c-1.08,1.32-0.98,2.29-0.11,3.62c3.53,5.42,7.01,10.88,10.42,16.38c0.76,1.22,1.65,1.63,3.04,1.62
			c7.97-0.05,15.94-0.03,23.91-0.03c2.18,0,4.49-0.73,4.75-2.83c1.02-8.36,2.65-17.36-0.45-24.99
			C301.09,268.27,294.57,260.49,289.04,251.81z M263.93,305.04c-0.29-0.86-0.34-1.23-0.52-1.52c-6.6-10.41-13.26-20.77-19.77-31.23
			c-1.42-2.28-2.17-1.48-3.4,0.04c-7.53,9.29-15.12,18.53-22.65,27.81c-0.75,0.92-2.2,1.79-1.61,3.11c0.66,1.47,2.28,1.79,3.85,1.79
			C234.39,305.04,248.95,305.04,263.93,305.04z"/>
		<path d="M314.72,188.44c-30.92,0-61.85,0.01-92.77,0c-11.09,0-15.83-4.81-15.84-16c-0.01-10.85-0.03-21.7,0.01-32.54
			c0.03-9.3,5.3-14.56,14.66-14.57c62.72-0.02,125.44-0.02,188.16,0c9.32,0,14.7,5.25,14.78,14.51c0.1,11.35,0.09,22.69,0,34.04
			c-0.08,9.3-5.4,14.53-14.74,14.54C377.56,188.46,346.14,188.44,314.72,188.44z M314.37,180c31.31,0,62.62,0,93.92,0
			c5.4,0,6.83-1.44,6.84-6.87c0.02-10.85,0.02-21.7,0-32.56c-0.01-5.31-1.53-6.81-6.96-6.81c-62.24-0.01-124.48-0.01-186.73,0
			c-5.32,0-6.91,1.61-6.92,6.92c-0.02,10.6-0.01,21.2,0,31.81c0,6.12,1.37,7.5,7.42,7.5C252.75,180,283.56,180,314.37,180z"/>
		<path d="M353.3,390.27c-18.08,0-36.17,0.01-54.25,0c-10.69-0.01-15.74-5.1-15.75-15.86c-0.01-10.97-0.03-21.95,0.01-32.92
			c0.03-8.96,5.4-14.51,14.43-14.53c37.16-0.07,74.33-0.07,111.49,0c9.03,0.02,14.39,5.46,14.48,14.53
			c0.11,11.47,0.12,22.95-0.01,34.42c-0.1,8.99-5.61,14.32-14.66,14.35C390.46,390.3,371.88,390.27,353.3,390.27z M353.31,381.63
			c18.46,0,36.92,0.02,55.38-0.01c5.05-0.01,6.43-1.41,6.44-6.47c0.02-10.98,0.02-21.95,0-32.93c-0.01-5.27-1.36-6.63-6.65-6.63
			c-36.67-0.01-73.34-0.01-110.01,0c-5.18,0-6.71,1.51-6.73,6.65c-0.03,10.73-0.02,21.45-0.01,32.18c0.01,5.86,1.36,7.19,7.32,7.2
			C317.14,381.64,335.23,381.63,353.31,381.63z"/>
		<path d="M339.92,257.56c0-14.22-0.03-28.44,0.01-42.66c0.02-8.78,4.31-13.02,13.14-13.03c19.21-0.02,38.42-0.02,57.63,0
			c8.55,0.01,13.02,4.34,13.03,12.82c0.04,28.69,0.04,57.38,0,86.06c-0.01,8.45-4.29,12.73-12.63,12.74
			c-19.58,0.03-39.17,0.03-58.75,0c-8.13-0.02-12.39-4.31-12.41-12.53C339.88,286.5,339.92,272.03,339.92,257.56z M415.14,257.65
			c0-14.09-0.08-28.18,0.06-42.27c0.03-3.44-0.9-4.94-4.63-4.91c-19.2,0.13-38.4,0.12-57.61,0.01c-3.39-0.02-4.61,1.15-4.59,4.57
			c0.09,28.43,0.1,56.86,0,85.29c-0.01,3.61,1.29,4.79,4.83,4.77c19.08-0.11,38.16-0.12,57.23,0c3.6,0.02,4.8-1.27,4.77-4.82
			C415.06,286.08,415.14,271.86,415.14,257.65z"/>
		<path d="M257.79,358.85c0,6.24,0.04,12.48-0.01,18.71c-0.06,7.85-4.75,12.63-12.56,12.69c-8.86,0.07-17.71,0.07-26.57,0
			c-7.89-0.06-12.5-4.72-12.53-12.62c-0.04-12.72-0.04-25.45,0-38.17c0.03-7.74,4.53-12.39,12.27-12.5c8.98-0.13,17.96-0.12,26.95,0
			c7.82,0.1,12.39,4.88,12.44,12.8C257.82,346.12,257.79,352.48,257.79,358.85z M214.52,358.55c0,6.23,0.05,12.46-0.02,18.7
			c-0.04,2.91,1.05,4.42,4.14,4.4c8.85-0.06,17.7-0.06,26.55,0c2.88,0.02,4.02-1.31,4.01-4.1c-0.04-12.59-0.04-25.18,0.01-37.76
			c0.01-2.99-1.24-4.26-4.27-4.23c-8.72,0.09-17.45,0.08-26.17,0.01c-3.03-0.03-4.28,1.32-4.25,4.29
			C214.57,346.08,214.52,352.31,214.52,358.55z"/>
		<path d="M86.98,309.74c0.09-24.34,19.82-43.89,44.2-43.77c24.31,0.12,43.8,19.89,43.67,44.3c-0.13,24.11-19.83,43.61-44.01,43.57
			C106.48,353.79,86.9,334.1,86.98,309.74z M163.12,324.41c6.91-15.3,2.2-33.08-11.01-42.93c-13.29-9.91-31.76-9.28-44.22,1.5
			c-12,10.4-16.05,28.32-9.07,41.25c2.79-4.45,5.91-8.5,10.18-11.34c2.1-1.39,2.16-2.65,1.49-4.89c-2.24-7.42-0.96-14.34,4.11-20.3
			c6.59-7.76,17.66-9.79,26.48-5.02c9,4.87,13.29,15.29,10.42,25.21c-0.4,1.39-1.84,2.76,0.31,4.2
			C156.41,315.17,159.97,319.33,163.12,324.41z M130.75,345.43c5.05-0.07,9.94-0.99,14.5-3.11c4.75-2.21,11.19-4.69,11.65-9.49
			c0.51-5.28-4.77-9.72-9.26-13.29c-1.66-1.32-2.9-1.42-4.85-0.17c-7.86,5.08-15.95,5.09-23.82-0.03c-1.74-1.13-2.9-1.29-4.53-0.02
			c-3.9,3.04-6.96,6.69-9.2,11.11c-1.02,2-0.74,3.35,0.89,4.87C113.09,341.81,121.28,345.16,130.75,345.43z M143.94,301.47
			c-0.11-7.16-6.23-13.04-13.36-12.84c-7.03,0.2-12.73,6.11-12.66,13.13c0.08,7.11,6.29,13.11,13.32,12.88
			C138.18,314.41,144.04,308.33,143.94,301.47z"/>
		<path d="M131,222.79c4.22,0,8.45,0.01,12.67-0.01c3.02-0.01,5.29,1.14,5.27,4.4c-0.02,3.08-2.3,4.21-5.1,4.22
			c-8.7,0.03-17.4,0.05-26.09-0.02c-2.83-0.02-5-1.33-4.91-4.4c0.09-3.02,2.24-4.2,5.11-4.2C122.3,222.79,126.65,222.79,131,222.79z
			"/>
		<path d="M130.99,239.23c2.61,0,5.23-0.1,7.84,0.03c2.72,0.14,4.54,1.52,4.47,4.42c-0.07,2.72-1.89,4.01-4.43,4.06
			c-5.23,0.1-10.46,0.1-15.68,0.02c-2.67-0.04-4.64-1.23-4.63-4.22c0.01-2.94,1.89-4.19,4.59-4.29
			C125.76,239.15,128.38,239.23,130.99,239.23z"/>
		<path d="M130.74,397.03c-2.49,0-4.98,0.07-7.47-0.02c-2.68-0.09-4.63-1.25-4.71-4.19c-0.08-2.98,1.8-4.27,4.51-4.32
			c5.23-0.1,10.46-0.09,15.68,0c2.72,0.05,4.62,1.4,4.55,4.32c-0.07,2.9-2.03,4.12-4.72,4.2
			C135.97,397.09,133.35,397.03,130.74,397.03z"/>
		<path d="M239.1,236.07c0.05-9.45,7.71-17.1,17.16-17.12c9.56-0.02,17.38,7.84,17.31,17.39c-0.07,9.57-7.93,17.2-17.59,17.07
			C246.53,253.31,239.05,245.61,239.1,236.07z M256.36,227.5c-4.78-0.04-8.85,3.98-8.83,8.74c0.02,4.74,4.15,8.81,8.87,8.74
			c4.64-0.07,8.5-3.92,8.61-8.59C265.12,231.58,261.19,227.54,256.36,227.5z"/>
		<path d="M352.79,150.59c0.23-5.33,3.38-10.4,9.63-13.22c6.27-2.84,12.28-1.89,17.43,2.58c5.31,4.6,6.99,10.65,4.77,17.25
			c-0.98,2.92-0.4,4.5,1.67,6.33c2.42,2.14,4.63,4.53,6.89,6.85c1.93,1.98,2.36,4.21,0.28,6.25c-2.05,2.01-4.31,1.64-6.28-0.28
			c-2.59-2.52-5.21-5.02-7.64-7.68c-1.44-1.58-2.63-1.84-4.76-1.06C363.79,171.59,352.69,163.68,352.79,150.59z M376.94,152.29
			c0.01-4.33-3.42-7.84-7.71-7.9c-4.4-0.06-8.1,3.65-8,8.05c0.09,4.3,3.62,7.7,7.95,7.67C373.52,160.08,376.93,156.64,376.94,152.29
			z"/>
		<path d="M280.15,160.89c-12.72,0-25.44,0.01-38.16-0.01c-1.24,0-2.5-0.01-3.72-0.22c-1.99-0.34-3.01-1.75-3.19-3.64
			c-0.18-1.9,0.69-3.35,2.47-4.21c1.19-0.57,2.44-0.45,3.67-0.45c26.06-0.01,52.12-0.01,78.18,0c0.99,0,2.03-0.03,2.96,0.26
			c1.98,0.62,3.1,2.03,3.01,4.2c-0.1,2.15-1.21,3.53-3.34,3.87c-1.22,0.2-2.48,0.19-3.73,0.19
			C305.59,160.89,292.87,160.89,280.15,160.89z"/>
		<path d="M374.26,354.38c8.47,0,16.94,0.04,25.41-0.02c2.95-0.02,5.27,0.74,5.6,4.07c0.28,2.75-1.83,4.36-5.62,4.37
			c-16.94,0.02-33.88-0.02-50.82,0.03c-3.04,0.01-5.41-0.97-5.4-4.23c0.01-3.25,2.38-4.26,5.41-4.24
			C357.32,354.42,365.79,354.38,374.26,354.38z"/>
		<path d="M319.27,362.8c-4.23,0-8.46-0.02-12.69,0.01c-2.97,0.02-4.91-1.29-4.83-4.36c0.08-2.87,2.01-4.07,4.78-4.06
			c8.58,0.01,17.16,0.01,25.75,0.01c2.94,0,4.92,1.32,4.85,4.38c-0.07,2.86-2.04,4.05-4.8,4.04
			C327.98,362.78,323.62,362.79,319.27,362.8z"/>
		<path d="M382.13,242.34c6.11,0,12.23-0.03,18.34,0.01c3.81,0.03,5.83,1.61,5.62,4.43c-0.26,3.41-2.65,4.16-5.55,4.16
			c-12.47,0-24.95,0.02-37.42-0.02c-3.77-0.01-5.87-1.68-5.64-4.45c0.29-3.37,2.65-4.16,5.57-4.15
			C369.4,242.35,375.77,242.34,382.13,242.34z"/>
		<path d="M382.19,264.61c6.11,0,12.22,0.04,18.33-0.02c2.95-0.03,5.27,0.73,5.57,4.1c0.24,2.8-1.77,4.37-5.62,4.38
			c-12.47,0.04-24.94,0-37.41,0.02c-2.9,0-5.31-0.68-5.59-4.08c-0.23-2.77,1.88-4.38,5.63-4.39
			C369.47,264.59,375.83,264.61,382.19,264.61z"/>
		<path d="M381.75,228.68c-6.23,0-12.47-0.04-18.7,0.02c-2.96,0.03-5.26-0.79-5.57-4.13c-0.26-2.76,1.82-4.35,5.65-4.36
			c12.47-0.03,24.94,0,37.4-0.02c2.9,0,5.31,0.63,5.56,4.08c0.2,2.83-1.81,4.38-5.63,4.4C394.22,228.7,387.98,228.68,381.75,228.68z
			"/>
		<path d="M382.17,286.88c6.23,0,12.47,0.01,18.7,0c3.01-0.01,5.31,1.02,5.18,4.41c-0.12,3.13-2.34,4.05-5.19,4.05
			c-12.72-0.03-25.43-0.03-38.15,0c-2.88,0.01-5.08-0.97-5.2-4.06c-0.12-3.36,2.19-4.41,5.21-4.4
			C369.2,286.9,375.69,286.88,382.17,286.88z"/>
	</g>
</g>
</svg>
