<?xml version="1.0" encoding="utf-8"?>
<!-- Generator: Adobe Illustrator 24.0.1, SVG Export Plug-In . SVG Version: 6.00 Build 0)  -->
<svg version="1.1" id="레이어_1" xmlns="http://www.w3.org/2000/svg" xmlns:xlink="http://www.w3.org/1999/xlink" x="0px"
	 y="0px" viewBox="0 0 512 512" style="enable-background:new 0 0 512 512;" xml:space="preserve">
<g>
	<g>
		<path d="M112.66,257.17c0,9.11,0.1,18.21-0.07,27.32c-0.04,2.45,0.73,3.41,3.04,4.06c5.8,1.63,10.65,4.93,14.26,9.74
			c1.42,1.9,2.57,2,4.59,1.18c12.92-5.25,25.93-10.29,38.81-15.63c2.56-1.06,3.38-0.46,4.3,1.87c3.19,8.06,3.26,8.03-4.83,11.27
			c-11.1,4.44-22.17,8.95-33.31,13.29c-2.26,0.88-3.33,1.77-3.01,4.52c0.66,5.7-0.62,11.19-3.43,16.2c-1.01,1.8-1.03,2.91,0.54,4.47
			c14.89,14.75,29.71,29.57,44.46,44.46c1.56,1.58,2.67,1.55,4.47,0.54c5.01-2.83,10.5-4.08,16.2-3.43c2.73,0.31,3.9-0.6,4.51-3
			c0.24-0.96,0.81-1.83,1.05-2.79c0.58-2.29,1.82-2.69,3.78-1.55c0.53,0.31,1.15,0.47,1.73,0.7c6.5,2.6,6.56,2.63,4.08,9.01
			c-0.7,1.79-0.47,2.78,1.13,3.99c5.02,3.79,8.45,8.81,10.1,14.88c0.57,2.09,1.55,2.62,3.63,2.61c18.46-0.08,36.92-0.09,55.39,0.01
			c2.13,0.01,2.93-0.66,3.59-2.64c6.24-18.67,25.26-26.54,42.75-17.69c1.96,0.99,3,0.71,4.44-0.77
			c7.25-7.39,14.67-14.62,21.89-22.04c1.64-1.69,2.49-1.57,4.11,0.01c6.53,6.41,6.59,6.35,0.14,12.8
			c-5.91,5.91-11.77,11.87-17.76,17.7c-1.51,1.46-1.69,2.52-0.71,4.45c8.26,16.27,1.48,35.12-14.92,41.81
			c-16.48,6.72-34.19-1.78-39.98-19.28c-0.6-1.82-1.36-2.49-3.34-2.48c-18.59,0.08-37.17,0.1-55.76-0.02
			c-2.24-0.01-2.9,0.86-3.52,2.76c-5.6,17.25-23.83,25.76-40.19,18.86c-16.16-6.82-22.82-25.62-14.62-41.65
			c0.99-1.94,0.77-2.98-0.71-4.45c-14.78-14.68-29.52-29.4-44.19-44.2c-1.61-1.63-2.74-1.71-4.77-0.67
			c-15.93,8.16-34.83,1.31-41.54-14.92c-6.73-16.29,1.74-34.47,18.76-39.95c2.32-0.75,2.98-1.73,2.96-4.12
			c-0.11-18.21-0.11-36.43,0-54.64c0.01-2.41-0.7-3.35-3.01-4.09c-16.98-5.43-25.45-23.72-18.66-39.99
			c6.68-16.03,25.66-23.01,41.26-14.95c2.42,1.25,3.61,0.84,5.34-0.92c10.78-10.92,21.72-21.68,32.47-32.63
			c1.89-1.92,2.85-1.77,4.65,0.04c6.17,6.21,6.25,6.14,0.11,12.28c-9.44,9.44-18.83,18.92-28.36,28.27
			c-2.01,1.97-2.82,3.41-1.16,6.24c2.75,4.71,3.72,10.08,3.09,15.53c-0.29,2.52,0.59,3.45,2.75,4.3
			c12.87,5.04,25.67,10.26,38.54,15.3c2.29,0.9,2.96,1.69,1.88,4.26c-3.41,8.12-3.27,8.17-11.26,4.97
			c-11.21-4.49-22.45-8.91-33.62-13.51c-2.13-0.88-3.36-0.94-4.92,1.14c-3.6,4.81-8.48,8.1-14.29,9.69
			c-2.4,0.66-2.98,1.78-2.94,4.15C112.74,238.96,112.66,248.07,112.66,257.17z M124.6,317.1c0.04-9.94-8.06-18.05-18.03-18.04
			c-9.73,0-17.84,8.11-17.85,17.84c-0.01,9.97,8.1,18.09,18.03,18.05C116.53,334.9,124.56,326.87,124.6,317.1z M196.54,388.88
			c-9.74-0.07-17.92,7.97-18,17.69c-0.08,9.98,7.97,18.17,17.88,18.19c9.79,0.03,17.89-7.93,18-17.69
			C214.54,397.13,206.5,388.95,196.54,388.88z M334.19,406.72c-0.05-9.93-8.25-17.94-18.23-17.84c-9.71,0.1-17.74,8.3-17.65,18.04
			c0.09,9.96,8.29,17.99,18.23,17.85C326.3,424.63,334.24,416.51,334.19,406.72z M124.6,197.13c-0.05-9.77-8.07-17.79-17.86-17.83
			c-9.93-0.04-18.03,8.08-18.02,18.05c0.01,9.73,8.13,17.83,17.86,17.83C116.54,215.19,124.65,207.07,124.6,197.13z"/>
		<path d="M256.18,113.4c-9.1,0-18.21,0.07-27.31-0.05c-2.21-0.03-3.25,0.57-3.87,2.79c-1.63,5.94-4.97,10.91-9.92,14.56
			c-2.04,1.5-1.78,2.74-1,4.64c2.37,5.79,2.32,5.81-3.48,8.09c-0.35,0.14-0.7,0.27-1.02,0.46c-3.14,1.88-5.22,1.39-5.95-2.51
			c-0.66-3.5-2.64-4.32-6.29-4.17c-15.6,0.64-28.92-11.03-30.68-26.37c-1.74-15.11,8.33-29.35,23.08-32.64
			c15.32-3.42,30.39,5.09,35.16,20c0.74,2.32,1.51,3.34,4.23,3.31c18.21-0.16,36.42-0.13,54.63-0.02c2.44,0.02,3.33-0.75,4.06-3.04
			c5.39-16.95,23.72-25.42,40-18.63c16.02,6.67,22.98,25.62,14.94,41.26c-1.24,2.42-0.83,3.6,0.92,5.34
			c14.53,14.4,28.99,28.86,43.39,43.39c1.74,1.76,2.94,2.16,5.34,0.92c15.6-8.08,34.58-1.14,41.27,14.89
			c6.79,16.27-1.63,34.64-18.56,40.03c-2.58,0.82-3.11,1.96-3.09,4.41c0.1,18.08,0.11,36.17-0.02,54.25
			c-0.02,2.59,0.77,3.53,3.22,4.31c16.73,5.33,25.14,23.58,18.53,39.78c-6.55,16.05-25.59,23.2-41.16,15.2
			c-2.6-1.34-3.91-0.92-5.63,0.99c-2.34,2.59-4.97,4.91-7.35,7.46c-1.27,1.36-2.08,1.5-3.56,0.13c-7.07-6.53-7.35-6.73-0.19-13.22
			c3.92-3.55,5.4-6.44,2.41-11.44c-2.37-3.98-2.51-8.85-1.95-13.5c0.23-1.87-0.35-2.68-2.03-3.3c-4.32-1.6-8.54-3.45-12.86-5.04
			c-1.93-0.71-2.3-1.57-1.56-3.54c3.27-8.7,3.35-9.05,11.61-5.26c5.92,2.72,10.67,4.3,15.25-2.39c2.33-3.41,6.75-5.04,10.92-6.09
			c1.87-0.47,2.51-1.32,2.5-3.31c-0.08-18.58-0.1-37.17,0.01-55.75c0.01-2.22-0.79-2.98-2.75-3.53c-5.94-1.66-10.91-4.97-14.58-9.9
			c-1.46-1.95-2.65-1.9-4.61-1.11c-12.8,5.2-25.67,10.24-38.46,15.49c-2.43,1-3.59,0.93-4.64-1.79c-3.1-8.05-3.22-8,4.91-11.25
			c11.1-4.44,22.17-8.94,33.31-13.26c2.31-0.9,3.26-1.87,2.95-4.56c-0.64-5.7,0.62-11.19,3.45-16.19c1.03-1.82,1-2.92-0.57-4.47
			c-14.88-14.75-29.69-29.58-44.46-44.43c-1.33-1.33-2.31-1.77-4.13-0.72c-5.33,3.06-11.17,4.29-17.28,3.57
			c-2.17-0.26-2.84,0.67-3.47,2.35c-1.27,3.38-2.73,6.69-3.97,10.08c-0.56,1.54-1.32,1.96-2.75,1.2c-0.22-0.12-0.46-0.2-0.69-0.29
			c-8.53-3.25-8.53-3.25-5.15-11.7c0.09-0.23,0.14-0.49,0.27-0.7c2.16-3.61,2.17-6.33-1.81-9.18c-4.19-3-6.67-7.72-7.99-12.78
			c-0.59-2.25-1.68-2.81-3.87-2.79C274.64,113.47,265.41,113.4,256.18,113.4z M196.4,125.36c9.74,0.08,17.93-7.95,18.03-17.66
			c0.1-9.97-7.94-18.18-17.86-18.22c-9.79-0.04-17.9,7.91-18.03,17.66C178.42,117.08,186.45,125.28,196.4,125.36z M298.32,107.44
			c0.01,9.92,8.19,17.99,18.16,17.92c9.73-0.07,17.77-8.23,17.73-17.97c-0.05-9.81-8.03-17.85-17.79-17.92
			C306.47,89.41,298.3,97.52,298.32,107.44z M406.2,215.19c9.74-0.02,17.83-8.13,17.83-17.87c0-9.97-8.12-18.07-18.06-18.02
			c-9.77,0.06-17.79,8.09-17.83,17.86C388.1,207.09,396.24,215.21,406.2,215.19z M406.1,299.06c-9.97,0.03-18.04,8.18-17.96,18.12
			c0.08,9.76,8.15,17.76,17.93,17.76c9.92,0.01,18.01-8.15,17.96-18.12C423.98,307.09,415.84,299.02,406.1,299.06z"/>
		<path d="M310.27,283.51c0-1.1,0-2.19,0-3.29c0-32.93,0-65.86,0-98.79c0-9.61-4.57-14.13-14.23-14.14c-0.75,0-1.52,0.11-2.24-0.02
			c-7-1.26-11.87,0.82-13.95,8.18c-0.79,2.78-3.33,3.83-6.24,3.82c-11.48-0.03-22.95-0.04-34.43,0.01
			c-3.28,0.01-5.75-1.42-6.62-4.45c-1.87-6.53-6.03-7.65-12.44-7.79c-12.92-0.27-18.63,4.45-17.71,18.09
			c0.41,6.08,0.07,6.11-5.93,6.11c-5.98,0-5.55-0.04-6.06-6.13c-1.61-19.17,10.46-30.74,29.96-30.03
			c25.29,0.92,50.63,0.22,75.95,0.23c15.96,0.01,25.89,9.93,25.9,25.91c0.02,17.46,0.04,34.93-0.04,52.39
			c-0.01,2.17,0.6,3.7,2.17,5.22c5.64,5.47,11.13,11.09,16.7,16.64c7.44,7.41,11.14,16.35,11.13,26.86
			c-0.02,20.46-0.06,40.91,0.05,61.37c0.01,2.63-0.7,3.33-3.32,3.31c-8.72-0.07-8.72,0.04-8.72-8.69c0-18.46-0.07-36.92,0.03-55.38
			c0.04-7.68-2.55-14.07-8.05-19.42c-3.11-3.02-6-6.27-9.03-9.46c-1.36,1.37-0.89,2.54-0.89,3.58c-0.04,11.6,0.08,23.2-0.1,34.8
			c-0.05,3.01,0.64,5.31,3.05,7.1c0.69,0.52,1.28,1.19,1.85,1.85c1.61,1.87,5.33,3.86,4.65,5.36c-1.36,2.99-4.41,5.27-6.97,7.63
			c-1.45,1.33-2.17-0.57-2.91-1.31c-9.3-9.22-18.55-18.49-27.81-27.75c-0.62-0.62-1.22-1.26-1.86-1.85
			c-3.31-3.04-7.21-3.14-9.95-0.25c-2.64,2.77-2.55,6.58,0.48,9.67c5.49,5.62,11.09,11.14,16.65,16.69
			c6.14,6.14,6.05,6.1,2.25,13.69c-4.86,9.69-4.74,19.45,0.15,29.1c1.6,3.16,2.82,6.27,2.63,9.95c-0.11,2.2-0.82,2.87-2.85,2.62
			c-0.74-0.09-1.5,0-2.24-0.02c-3.54-0.07-7.24,1.4-7.58-5.05c-0.21-4.08-3.59-8.09-4.53-12.51c-1.96-9.28-1.35-18.36,2.6-27.06
			c0.8-1.77,0.6-2.82-0.78-4.16c-4.93-4.77-9.77-9.63-14.57-14.53c-7.91-8.09-8.05-19.6-0.4-27.08c7.55-7.39,18.86-7.16,26.81,0.65
			c2.92,2.87,5.65,5.94,8.47,8.91C309.62,283.89,309.95,283.7,310.27,283.51z"/>
		<path d="M190.5,273.93c0-22.32,0.07-44.64-0.08-66.95c-0.02-3.2,0.91-3.9,3.95-3.83c8.1,0.2,8.11,0.05,8.11,8.19
			c0,42.39,0,84.78,0,127.18c0,9.93,4.45,14.42,14.32,14.42c19.95,0.01,39.9,0.05,59.85-0.06c2.82-0.02,3.83,0.56,3.76,3.62
			c-0.19,8.41-0.03,8.41-8.26,8.41c-18.7,0-37.41,0.02-56.11-0.01c-15.42-0.02-25.52-10.1-25.53-25.51
			C190.49,317.57,190.5,295.75,190.5,273.93z"/>
		<path d="M296.76,231.44c-1.45,1.53-2.35,2.52-3.3,3.46c-5.07,5.08-5.08,5.07-10.76,0.88c-16.48-12.16-39.88-11.33-55.31,2.17
			c-2.19,1.92-3.29,1.93-5.3-0.14c-6.34-6.55-6.42-6.47,0.92-11.79c21.48-15.56,50.92-14.18,70.84,3.3
			C294.7,230.06,295.66,230.64,296.76,231.44z"/>
		<path d="M256.34,237.68c7.27,0.15,13.85,2.4,19.68,6.91c1.91,1.48,2.74,2.63,0.42,4.52c-2.02,1.65-3.46,4.3-5.7,5.3
			c-2.42,1.08-4.02-2.12-6.25-3.01c-7.08-2.82-13.69-2.23-19.79,2.29c-1.64,1.21-2.66,1.41-3.97-0.21
			c-0.86-1.06-1.92-1.96-2.89-2.93c-3.99-3.98-3.99-3.99,0.56-7.15C243.76,239.68,249.75,237.84,256.34,237.68z"/>
		<path d="M256.13,340.96c-1.37,0-2.74,0.08-4.11-0.02c-2.44-0.18-6.1,1.19-7.07-0.56c-1.6-2.91-0.49-6.77-0.49-10.23
			c0-1.54,1.36-1.15,2.26-1.15c6.47-0.03,12.94,0.01,19.41-0.04c1.51-0.01,2.42,0.34,2.21,2.05c-0.03,0.25-0.01,0.5,0,0.75
			c0.27,9.2,0.27,9.2-8.86,9.2C258.37,340.96,257.25,340.96,256.13,340.96z"/>
		<path d="M226.43,280.83c0-5.74,0-5.74,5.95-5.74c6.02,0,6.02,0,6.02,6.05c0,5.93,0,5.93-5.77,5.93
			C226.43,287.06,226.43,287.06,226.43,280.83z"/>
		<path d="M256.71,275.09c5.65,0,5.65,0,5.65,5.67c0,6.31,0,6.31-6.14,6.31c-0.87,0-1.76-0.11-2.61,0.02
			c-2.63,0.4-3.66-0.66-3.25-3.27c0.11-0.73,0.02-1.49,0.02-2.23C250.39,275.09,250.39,275.09,256.71,275.09z"/>
	</g>
</g>
</svg>
